<svg width="821" height="433" viewBox="0 0 821 433" fill="none" xmlns="http://www.w3.org/2000/svg">
<g clip-path="url(#clip0_64_764)">
<path d="M583.67 214.677C496.593 223.131 444.607 223.791 357.898 214.726C353.95 214.31 350.934 210.987 350.934 207.029V59.8142C350.934 55.1474 355.078 51.5556 359.713 52.1664C441.419 62.9418 497.648 62.9418 581.929 52.1175C586.563 51.5311 590.683 55.1229 590.683 59.7654V206.956C590.683 210.963 587.642 214.286 583.67 214.677Z" fill="#DAE6EA"/>
<path d="M595.784 205.001C508.707 213.455 456.721 214.115 370.012 205.05C366.064 204.634 363.048 201.311 363.048 197.353V50.1385C363.048 45.4716 367.192 41.8798 371.827 42.4906C453.533 53.266 509.761 53.266 594.043 42.4418C598.677 41.8553 602.797 45.4471 602.797 50.0896V197.28C602.797 201.287 599.756 204.61 595.784 205.001Z" fill="#FFC6DB" fill-opacity="0.3"/>
<path d="M413.268 75.1832H387.496C385.828 75.1832 384.455 73.8393 384.455 72.1534C384.455 70.4674 385.804 69.1235 387.496 69.1235H413.268C414.936 69.1235 416.309 70.4674 416.309 72.1534C416.309 73.8393 414.96 75.1832 413.268 75.1832Z" fill="white"/>
<path d="M465.72 75.1832H439.948C438.28 75.1832 436.907 73.8393 436.907 72.1534C436.907 70.4674 438.256 69.1235 439.948 69.1235H465.72C467.388 69.1235 468.761 70.4674 468.761 72.1534C468.761 73.8393 467.412 75.1832 465.72 75.1832Z" fill="white"/>
<path d="M518.172 75.1832H492.4C490.732 75.1832 489.359 73.8393 489.359 72.1534C489.359 70.4674 490.708 69.1235 492.4 69.1235H518.172C519.839 69.1235 521.213 70.4674 521.213 72.1534C521.213 73.8393 519.839 75.1832 518.172 75.1832Z" fill="white"/>
<path d="M570.624 75.1832H544.852C543.184 75.1832 541.811 73.8393 541.811 72.1534C541.811 70.4674 543.16 69.1235 544.852 69.1235H570.624C572.292 69.1235 573.665 70.4674 573.665 72.1534C573.665 73.8393 572.292 75.1832 570.624 75.1832Z" fill="white"/>
<path d="M413.268 102.256H387.496C385.828 102.256 384.455 100.912 384.455 99.2261C384.455 97.5646 385.804 96.1963 387.496 96.1963H413.268C414.936 96.1963 416.309 97.5402 416.309 99.2261C416.309 100.912 414.96 102.256 413.268 102.256Z" fill="white"/>
<path d="M465.72 102.256H439.948C438.28 102.256 436.907 100.912 436.907 99.2261C436.907 97.5646 438.256 96.1963 439.948 96.1963H465.72C467.388 96.1963 468.761 97.5402 468.761 99.2261C468.761 100.912 467.412 102.256 465.72 102.256Z" fill="white"/>
<path d="M518.172 102.256H492.4C490.732 102.256 489.359 100.912 489.359 99.2261C489.359 97.5646 490.708 96.1963 492.4 96.1963H518.172C519.839 96.1963 521.213 97.5402 521.213 99.2261C521.213 100.912 519.839 102.256 518.172 102.256Z" fill="white"/>
<path d="M570.624 102.256H544.852C543.184 102.256 541.811 100.912 541.811 99.2261C541.811 97.5646 543.16 96.1963 544.852 96.1963H570.624C572.291 96.1963 573.665 97.5402 573.665 99.2261C573.665 100.912 572.291 102.256 570.624 102.256Z" fill="white"/>
<path d="M413.268 130.013H387.496C385.828 130.013 384.455 128.669 384.455 126.983C384.455 125.321 385.804 123.953 387.496 123.953H413.268C414.936 123.953 416.309 125.297 416.309 126.983C416.309 128.669 414.96 130.013 413.268 130.013Z" fill="white"/>
<path d="M465.72 130.013H439.948C438.28 130.013 436.907 128.669 436.907 126.983C436.907 125.321 438.256 123.953 439.948 123.953H465.72C467.388 123.953 468.761 125.297 468.761 126.983C468.761 128.669 467.412 130.013 465.72 130.013Z" fill="white"/>
<path d="M518.172 130.013H492.4C490.732 130.013 489.359 128.669 489.359 126.983C489.359 125.321 490.708 123.953 492.4 123.953H518.172C519.839 123.953 521.213 125.297 521.213 126.983C521.213 128.669 519.839 130.013 518.172 130.013Z" fill="white"/>
<path d="M570.624 130.013H544.852C543.184 130.013 541.811 128.669 541.811 126.983C541.811 125.321 543.16 123.953 544.852 123.953H570.624C572.291 123.953 573.665 125.297 573.665 126.983C573.665 128.669 572.291 130.013 570.624 130.013Z" fill="white"/>
<path d="M413.268 156.695H387.496C385.828 156.695 384.455 155.351 384.455 153.665C384.455 152.004 385.804 150.635 387.496 150.635H413.268C414.936 150.635 416.309 151.979 416.309 153.665C416.309 155.351 414.96 156.695 413.268 156.695Z" fill="white"/>
<path d="M465.72 156.695H439.948C438.28 156.695 436.907 155.351 436.907 153.665C436.907 152.004 438.256 150.635 439.948 150.635H465.72C467.388 150.635 468.761 151.979 468.761 153.665C468.761 155.351 467.412 156.695 465.72 156.695Z" fill="white"/>
<path d="M518.172 156.695H492.4C490.732 156.695 489.359 155.351 489.359 153.665C489.359 152.004 490.708 150.635 492.4 150.635H518.172C519.839 150.635 521.213 151.979 521.213 153.665C521.213 155.351 519.839 156.695 518.172 156.695Z" fill="white"/>
<path d="M570.624 156.695H544.852C543.184 156.695 541.811 155.351 541.811 153.665C541.811 152.004 543.16 150.635 544.852 150.635H570.624C572.291 150.635 573.665 151.979 573.665 153.665C573.665 155.351 572.291 156.695 570.624 156.695Z" fill="white"/>
<path d="M413.268 180.176H387.496C385.828 180.176 384.455 178.832 384.455 177.147C384.455 175.485 385.804 174.117 387.496 174.117H413.268C414.936 174.117 416.309 175.461 416.309 177.147C416.309 178.832 414.96 180.176 413.268 180.176Z" fill="white"/>
<path d="M465.72 180.176H439.948C438.28 180.176 436.907 178.832 436.907 177.147C436.907 175.485 438.256 174.117 439.948 174.117H465.72C467.388 174.117 468.761 175.461 468.761 177.147C468.761 178.832 467.412 180.176 465.72 180.176Z" fill="white"/>
<path d="M518.172 180.176H492.4C490.732 180.176 489.359 178.832 489.359 177.147C489.359 175.485 490.708 174.117 492.4 174.117H518.172C519.839 174.117 521.213 175.461 521.213 177.147C521.213 178.832 519.839 180.176 518.172 180.176Z" fill="white"/>
<path d="M570.624 180.176H544.852C543.184 180.176 541.811 178.832 541.811 177.147C541.811 175.485 543.16 174.117 544.852 174.117H570.624C572.291 174.117 573.665 175.461 573.665 177.147C573.665 178.832 572.291 180.176 570.624 180.176Z" fill="white"/>
<path d="M276.399 336.822C197.831 374.964 163.452 332.913 98.6408 337.14C94.1778 337.433 90.377 333.89 90.377 329.443V248.664C90.377 244.022 94.4476 240.455 99.0822 240.992C167.719 249.251 209.724 277.032 275.786 241.676C280.053 239.404 284.932 244.437 284.932 249.275V329.15C284.932 333.695 280.519 334.819 276.399 336.822Z" fill="#A9E2FF"/>
<path d="M284.221 348.404C205.653 386.546 171.274 344.495 106.463 348.722C102 349.015 98.1992 345.472 98.1992 341.025V260.246C98.1992 255.604 102.27 252.037 106.904 252.574C175.541 260.833 217.546 288.614 283.608 253.258C287.875 250.986 292.755 256.019 292.755 260.857V340.732C292.755 345.277 288.341 346.401 284.221 348.404Z" fill="#9CD1F0"/>
<path d="M155.503 297.166H114.797C112.394 297.166 110.457 295.236 110.457 292.841C110.457 290.447 112.394 288.517 114.797 288.517H155.503C157.907 288.517 159.844 290.447 159.844 292.841C159.819 295.236 157.882 297.166 155.503 297.166Z" fill="white"/>
<path d="M247.169 297.166H173.505C171.102 297.166 169.165 295.236 169.165 292.841C169.165 290.447 171.102 288.517 173.505 288.517H247.169C249.572 288.517 251.509 290.447 251.509 292.841C251.509 295.236 249.572 297.166 247.169 297.166Z" fill="white"/>
<path d="M276.178 297.166H263.991C261.588 297.166 259.65 295.236 259.65 292.841C259.65 290.447 261.588 288.517 263.991 288.517H276.178C278.581 288.517 280.518 290.447 280.518 292.841C280.518 295.236 278.581 297.166 276.178 297.166Z" fill="white"/>
<path d="M235.473 312.828H276.203C278.606 312.828 280.544 310.898 280.544 308.504C280.544 306.109 278.606 304.179 276.203 304.179H235.473C233.07 304.179 231.132 306.109 231.132 308.504C231.132 310.898 233.07 312.828 235.473 312.828Z" fill="white"/>
<path d="M143.786 312.828H217.449C219.852 312.828 221.789 310.898 221.789 308.504C221.789 306.109 219.852 304.179 217.449 304.179H143.786C141.383 304.179 139.445 306.109 139.445 308.504C139.445 310.898 141.383 312.828 143.786 312.828Z" fill="white"/>
<path d="M114.776 312.828H126.964C129.367 312.828 131.304 310.898 131.304 308.504C131.304 306.109 129.367 304.179 126.964 304.179H114.776C112.373 304.179 110.436 306.109 110.436 308.504C110.436 310.898 112.373 312.828 114.776 312.828Z" fill="white"/>
<path d="M155.507 328.49H114.801C112.398 328.49 110.46 326.56 110.46 324.166C110.46 321.771 112.398 319.841 114.801 319.841H155.507C157.91 319.841 159.847 321.771 159.847 324.166C159.823 326.56 157.885 328.49 155.507 328.49Z" fill="white"/>
<path d="M247.169 328.49H173.506C171.103 328.49 169.166 326.56 169.166 324.166C169.166 321.771 171.103 319.841 173.506 319.841H247.169C249.572 319.841 251.51 321.771 251.51 324.166C251.51 326.56 249.572 328.49 247.169 328.49Z" fill="white"/>
<path d="M276.178 328.49H263.991C261.588 328.49 259.65 326.56 259.65 324.166C259.65 321.771 261.588 319.841 263.991 319.841H276.178C278.581 319.841 280.518 321.771 280.518 324.166C280.518 326.56 278.581 328.49 276.178 328.49Z" fill="white"/>
<path d="M530.837 321.819C428.924 316.59 357.713 313.853 260.362 321.55C255.85 321.917 252 318.349 252 313.853V143.475C252 138.906 255.948 135.339 260.485 135.779C337.728 143.451 426.227 140.543 530.837 135.29C535.275 135.07 538.978 138.589 538.978 143.011V314.098C539.002 318.52 535.275 322.039 530.837 321.819Z" fill="#EDF2F2"/>
<path opacity="0.83" d="M539.492 335.013C437.58 329.784 366.369 327.048 269.018 334.744C264.506 335.111 260.656 331.544 260.656 327.048V156.67C260.656 152.101 264.604 148.533 269.14 148.973C346.384 156.645 434.883 153.738 539.492 148.484C543.931 148.264 547.634 151.783 547.634 156.205V327.292C547.658 331.715 543.931 335.233 539.492 335.013Z" fill="url(#paint0_linear_64_764)"/>
<path d="M311.122 230.533H314.53V248.076C314.53 255.04 311.097 257.19 306.561 257.19C305.31 257.19 303.79 256.921 302.932 256.579L303.447 253.818C304.158 254.087 305.163 254.331 306.291 254.331C309.332 254.331 311.146 252.963 311.146 247.832V230.533H311.122Z" fill="white"/>
<path d="M330.543 256.751L330.273 254.381H330.15C329.096 255.871 327.061 257.191 324.363 257.191C320.538 257.191 318.576 254.503 318.576 251.791C318.576 247.246 322.647 244.754 329.954 244.778V244.387C329.954 242.824 329.513 240.038 325.663 240.038C323.897 240.038 322.058 240.576 320.734 241.431L319.949 239.183C321.519 238.181 323.775 237.521 326.153 237.521C331.941 237.521 333.338 241.455 333.338 245.218V252.255C333.338 253.892 333.412 255.48 333.657 256.775H330.543V256.751ZM330.028 247.148C326.276 247.075 322.009 247.735 322.009 251.4C322.009 253.623 323.505 254.674 325.246 254.674C327.698 254.674 329.268 253.11 329.807 251.522C329.93 251.18 330.003 250.789 330.003 250.423V247.148H330.028Z" fill="white"/>
<path d="M339.911 237.913L343.613 248.493C344.227 250.203 344.741 251.767 345.134 253.33H345.256C345.698 251.767 346.237 250.227 346.85 248.493L350.529 237.913H354.133L346.703 256.751H343.417L336.232 237.913H339.911Z" fill="white"/>
<path d="M367.693 256.751L367.423 254.381H367.301C366.246 255.871 364.211 257.191 361.514 257.191C357.688 257.191 355.727 254.503 355.727 251.791C355.727 247.246 359.797 244.754 367.105 244.778V244.387C367.105 242.824 366.663 240.038 362.813 240.038C361.048 240.038 359.209 240.576 357.884 241.431L357.1 239.183C358.669 238.181 360.925 237.521 363.304 237.521C369.091 237.521 370.489 241.455 370.489 245.218V252.255C370.489 253.892 370.562 255.48 370.807 256.775H367.693V256.751ZM367.178 247.148C363.426 247.075 359.16 247.735 359.16 251.4C359.16 253.623 360.655 254.674 362.396 254.674C364.849 254.674 366.418 253.11 366.957 251.522C367.08 251.18 367.154 250.789 367.154 250.423V247.148H367.178Z" fill="white"/>
<path d="M383.976 252.646C385.497 253.575 387.728 254.357 390.082 254.357C393.564 254.357 395.6 252.524 395.6 249.885C395.6 247.442 394.202 246.025 390.646 244.681C386.355 243.166 383.682 240.942 383.682 237.253C383.682 233.172 387.091 230.118 392.191 230.118C394.889 230.118 396.85 230.729 398.003 231.413L397.071 234.174C396.213 233.71 394.447 232.928 392.069 232.928C388.464 232.928 387.115 235.078 387.115 236.862C387.115 239.305 388.709 240.527 392.338 241.92C396.801 243.63 399.057 245.78 399.057 249.617C399.057 253.673 396.041 257.167 389.837 257.167C387.287 257.167 384.516 256.434 383.118 255.481L383.976 252.646Z" fill="white"/>
<path d="M417.301 256.067C416.393 256.531 414.407 257.166 411.881 257.166C406.168 257.166 402.465 253.306 402.465 247.539C402.465 241.749 406.437 237.546 412.617 237.546C414.652 237.546 416.442 238.059 417.374 238.523L416.589 241.162C415.78 240.698 414.481 240.258 412.617 240.258C408.276 240.258 405.947 243.459 405.947 247.393C405.947 251.742 408.767 254.43 412.519 254.43C414.481 254.43 415.756 253.917 416.736 253.501L417.301 256.067Z" fill="white"/>
<path d="M421.323 243.802C421.323 241.578 421.274 239.672 421.176 237.913H424.192L424.315 241.602H424.462C425.32 239.061 427.38 237.473 429.685 237.473C430.077 237.473 430.347 237.522 430.666 237.595V240.821C430.322 240.747 429.954 240.698 429.489 240.698C427.061 240.698 425.344 242.531 424.878 245.097C424.805 245.561 424.731 246.098 424.731 246.685V256.727H421.323V243.802Z" fill="white"/>
<path d="M438.096 232.635C438.145 233.808 437.287 234.736 435.913 234.736C434.712 234.736 433.854 233.808 433.854 232.635C433.854 231.438 434.761 230.485 436.011 230.485C437.262 230.485 438.096 231.413 438.096 232.635ZM434.246 256.751V237.913H437.679V256.751H434.246Z" fill="white"/>
<path d="M443.392 244.07C443.392 241.651 443.319 239.721 443.245 237.913H446.335L446.482 241.138H446.555C447.953 238.841 450.185 237.473 453.275 237.473C457.836 237.473 461.293 241.334 461.293 247.051C461.293 253.819 457.149 257.167 452.71 257.167C450.209 257.167 448.027 256.067 446.899 254.21H446.825V264.448H443.417V244.07H443.392ZM446.801 249.104C446.801 249.617 446.874 250.081 446.948 250.496C447.561 252.867 449.645 254.504 452.097 254.504C455.727 254.504 457.836 251.547 457.836 247.222C457.836 243.435 455.849 240.21 452.22 240.21C449.866 240.21 447.684 241.871 447.021 244.461C446.899 244.901 446.776 245.39 446.776 245.854V249.104H446.801Z" fill="white"/>
<path d="M469.778 232.513V237.913H474.706V240.527H469.778V250.692C469.778 253.037 470.44 254.357 472.352 254.357C473.26 254.357 473.922 254.234 474.339 254.112L474.486 256.678C473.824 256.947 472.769 257.142 471.445 257.142C469.851 257.142 468.552 256.629 467.742 255.7C466.761 254.699 466.418 253.013 466.418 250.789V240.503H463.476V237.888H466.418V233.368L469.778 232.513Z" fill="white"/>
<path d="M481.488 409.17C415.206 416.744 372.955 417.575 311.748 409.316C307.898 408.803 305.005 405.529 305.005 401.644V295.723C305.005 291.202 308.904 287.66 313.416 288.026C377.736 293.402 418.761 295.454 479.673 288.368C484.283 287.831 488.354 291.422 488.354 296.04V401.497C488.378 405.431 485.411 408.73 481.488 409.17Z" fill="#DAE6EA"/>
<path d="M471.483 417.673C405.201 425.247 362.95 426.078 301.743 417.819C297.894 417.306 295 414.032 295 410.147V304.226C295 299.705 298.899 296.163 303.411 296.529C367.731 301.904 408.756 303.957 469.668 296.871C474.278 296.334 478.349 299.925 478.349 304.543V410C478.374 413.91 475.406 417.233 471.483 417.673Z" fill="#FFC6DB" fill-opacity="0.3"/>
<path d="M352.258 344.469H313.661C310.326 344.469 307.628 341.781 307.628 338.458C307.628 335.135 310.326 332.447 313.661 332.447H352.258C355.593 332.447 358.29 335.135 358.29 338.458C358.29 341.781 355.593 344.469 352.258 344.469Z" fill="white"/>
<path d="M405.985 344.469H367.388C364.053 344.469 361.356 341.781 361.356 338.458C361.356 335.135 364.053 332.447 367.388 332.447H405.985C409.32 332.447 412.018 335.135 412.018 338.458C412.018 341.781 409.32 344.469 405.985 344.469Z" fill="white"/>
<path d="M459.737 344.469H421.14C417.805 344.469 415.107 341.781 415.107 338.458C415.107 335.135 417.805 332.447 421.14 332.447H459.737C463.072 332.447 465.769 335.135 465.769 338.458C465.769 341.781 463.048 344.469 459.737 344.469Z" fill="white"/>
<path d="M352.258 366.093H313.661C310.326 366.093 307.628 363.405 307.628 360.082C307.628 356.759 310.326 354.071 313.661 354.071H352.258C355.593 354.071 358.29 356.759 358.29 360.082C358.29 363.405 355.593 366.093 352.258 366.093Z" fill="white"/>
<path d="M405.985 366.093H367.388C364.053 366.093 361.356 363.405 361.356 360.082C361.356 356.759 364.053 354.071 367.388 354.071H405.985C409.32 354.071 412.018 356.759 412.018 360.082C412.018 363.405 409.32 366.093 405.985 366.093Z" fill="white"/>
<path d="M459.737 366.093H421.14C417.805 366.093 415.107 363.405 415.107 360.082C415.107 356.759 417.805 354.071 421.14 354.071H459.737C463.072 354.071 465.769 356.759 465.769 360.082C465.769 363.405 463.048 366.093 459.737 366.093Z" fill="white"/>
<path d="M352.258 387.741H313.661C310.326 387.741 307.628 385.054 307.628 381.73C307.628 378.407 310.326 375.72 313.661 375.72H352.258C355.593 375.72 358.29 378.407 358.29 381.73C358.29 385.054 355.593 387.741 352.258 387.741Z" fill="white"/>
<path d="M405.985 387.741H367.388C364.053 387.741 361.356 385.054 361.356 381.73C361.356 378.407 364.053 375.72 367.388 375.72H405.985C409.32 375.72 412.018 378.407 412.018 381.73C412.018 385.054 409.32 387.741 405.985 387.741Z" fill="white"/>
<path d="M459.737 387.741H421.14C417.805 387.741 415.107 385.054 415.107 381.73C415.107 378.407 417.805 375.72 421.14 375.72H459.737C463.072 375.72 465.769 378.407 465.769 381.73C465.769 385.054 463.048 387.741 459.737 387.741Z" fill="white"/>
<path d="M237.483 262.86C168.675 292.743 133.069 256.043 67.7435 263.007C63.869 263.422 61 259.22 61 255.335V149.413C61 144.893 65.1442 140.153 69.411 141.717C133.658 165.246 176.743 134.68 235.668 142.059C240.278 142.645 244.349 145.113 244.349 149.731V255.188C244.374 259.097 241.088 261.296 237.483 262.86Z" fill="#DAE6EA"/>
<path d="M245.33 276.69C176.522 306.572 140.917 269.873 75.5906 276.836C71.7162 277.252 68.8472 273.049 68.8472 269.164V163.243C68.8472 158.723 72.9913 153.982 77.2581 155.546C141.505 179.076 184.59 148.509 243.516 155.888C248.126 156.475 252.196 158.942 252.196 163.561V269.017C252.196 272.951 248.935 275.126 245.33 276.69Z" fill="#FFC6DB" fill-opacity="0.3"/>
<path d="M164.359 187.482H85.2763C83.756 187.482 82.5054 186.26 82.5054 184.72C82.5054 183.206 83.7315 181.959 85.2763 181.959H164.359C165.879 181.959 167.13 183.181 167.13 184.72C167.105 186.26 165.879 187.482 164.359 187.482Z" fill="white"/>
<path d="M235.791 187.482H184.05C182.529 187.482 181.279 186.26 181.279 184.72C181.279 183.206 182.505 181.959 184.05 181.959H235.791C237.311 181.959 238.562 183.181 238.562 184.72C238.562 186.26 237.311 187.482 235.791 187.482Z" fill="white"/>
<path d="M156.708 198.037H235.791C237.311 198.037 238.562 196.815 238.562 195.276C238.562 193.761 237.335 192.515 235.791 192.515H156.708C155.188 192.515 153.937 193.736 153.937 195.276C153.937 196.791 155.188 198.037 156.708 198.037Z" fill="white"/>
<path d="M85.2763 198.037H137.017C138.538 198.037 139.788 196.815 139.788 195.276C139.788 193.761 138.562 192.515 137.017 192.515H85.2763C83.756 192.515 82.5054 193.736 82.5054 195.276C82.5054 196.791 83.7315 198.037 85.2763 198.037Z" fill="white"/>
<path d="M164.359 208.592H85.2763C83.756 208.592 82.5054 207.371 82.5054 205.831C82.5054 204.316 83.7315 203.07 85.2763 203.07H164.359C165.879 203.07 167.13 204.292 167.13 205.831C167.105 207.346 165.879 208.592 164.359 208.592Z" fill="white"/>
<path d="M235.791 208.592H184.05C182.529 208.592 181.279 207.371 181.279 205.831C181.279 204.316 182.505 203.07 184.05 203.07H235.791C237.311 203.07 238.562 204.292 238.562 205.831C238.562 207.346 237.311 208.592 235.791 208.592Z" fill="white"/>
<path d="M156.708 219.124H235.791C237.311 219.124 238.562 217.902 238.562 216.363C238.562 214.848 237.335 213.602 235.791 213.602H156.708C155.188 213.602 153.937 214.823 153.937 216.363C153.937 217.902 155.188 219.124 156.708 219.124Z" fill="white"/>
<path d="M85.2763 219.124H137.017C138.538 219.124 139.788 217.902 139.788 216.363C139.788 214.848 138.562 213.602 137.017 213.602H85.2763C83.756 213.602 82.5054 214.823 82.5054 216.363C82.5054 217.902 83.7315 219.124 85.2763 219.124Z" fill="white"/>
<path d="M164.359 229.679H85.2763C83.756 229.679 82.5054 228.457 82.5054 226.918C82.5054 225.403 83.7315 224.157 85.2763 224.157H164.359C165.879 224.157 167.13 225.378 167.13 226.918C167.105 228.457 165.879 229.679 164.359 229.679Z" fill="white"/>
<path d="M235.791 229.679H184.05C182.529 229.679 181.279 228.457 181.279 226.918C181.279 225.403 182.505 224.157 184.05 224.157H235.791C237.311 224.157 238.562 225.378 238.562 226.918C238.562 228.457 237.311 229.679 235.791 229.679Z" fill="white"/>
<path d="M156.708 240.234H235.791C237.311 240.234 238.562 239.013 238.562 237.473C238.562 235.959 237.335 234.712 235.791 234.712H156.708C155.188 234.712 153.937 235.934 153.937 237.473C153.937 238.988 155.188 240.234 156.708 240.234Z" fill="white"/>
<path d="M85.2763 240.234H137.017C138.538 240.234 139.788 239.013 139.788 237.473C139.788 235.959 138.562 234.712 137.017 234.712H85.2763C83.756 234.712 82.5054 235.934 82.5054 237.473C82.5054 238.988 83.7315 240.234 85.2763 240.234Z" fill="white"/>
<path d="M164.359 250.79H85.2763C83.756 250.79 82.5054 249.568 82.5054 248.029C82.5054 246.514 83.7315 245.268 85.2763 245.268H164.359C165.879 245.268 167.13 246.49 167.13 248.029C167.105 249.544 165.879 250.79 164.359 250.79Z" fill="white"/>
<path d="M235.791 250.79H184.05C182.529 250.79 181.279 249.568 181.279 248.029C181.279 246.514 182.505 245.268 184.05 245.268H235.791C237.311 245.268 238.562 246.49 238.562 248.029C238.562 249.544 237.311 250.79 235.791 250.79Z" fill="white"/>
<path d="M156.708 261.321H235.791C237.311 261.321 238.562 260.099 238.562 258.56C238.562 257.045 237.335 255.799 235.791 255.799H156.708C155.188 255.799 153.937 257.021 153.937 258.56C153.937 260.099 155.188 261.321 156.708 261.321Z" fill="white"/>
<path d="M85.2763 261.321H137.017C138.538 261.321 139.788 260.099 139.788 258.56C139.788 257.045 138.562 255.799 137.017 255.799H85.2763C83.756 255.799 82.5054 257.021 82.5054 258.56C82.5054 260.099 83.7315 261.321 85.2763 261.321Z" fill="white"/>
<path d="M761.223 217.047C694.303 226.943 649.698 201.922 577.629 217.12C573.902 217.902 571.082 213.284 571.082 209.497V121.877C571.082 117.161 575.275 113.569 579.958 114.229C649.33 124.271 680.424 102.036 758.771 114.473C763.504 115.231 767.82 117.308 767.82 122.097V209.424C767.869 213.235 765.024 216.485 761.223 217.047Z" fill="#E1F7FF"/>
<path d="M769.879 208.739C702.959 218.635 658.354 193.615 586.285 208.813C582.557 209.595 579.737 204.977 579.737 201.189V113.569C579.737 108.853 583.931 105.262 588.614 105.921C657.986 115.964 689.08 93.7287 767.427 106.166C772.159 106.923 776.475 109 776.475 113.789V201.116C776.5 204.928 773.68 208.177 769.879 208.739Z" fill="#D3E7F1"/>
<path d="M605.878 133.797C608.166 133.797 610.022 131.948 610.022 129.668C610.022 127.387 608.166 125.539 605.878 125.539C603.589 125.539 601.733 127.387 601.733 129.668C601.733 131.948 603.589 133.797 605.878 133.797Z" fill="white"/>
<path d="M639.546 133.776H622.994C620.713 133.776 618.85 131.944 618.85 129.647C618.85 127.35 620.713 125.518 622.994 125.518H639.546C641.826 125.518 643.69 127.35 643.69 129.647C643.69 131.944 641.826 133.776 639.546 133.776Z" fill="white"/>
<path d="M750.384 133.776H733.832C731.552 133.776 729.688 131.944 729.688 129.647C729.688 127.35 731.527 125.518 733.832 125.518H750.384C752.665 125.518 754.529 127.35 754.529 129.647C754.529 131.944 752.665 133.776 750.384 133.776Z" fill="white"/>
<path d="M715.735 133.776H658.771C656.49 133.776 654.626 131.944 654.626 129.647C654.626 127.35 656.49 125.518 658.771 125.518H715.71C717.991 125.518 719.854 127.35 719.854 129.647C719.854 131.944 718.015 133.776 715.735 133.776Z" fill="white"/>
<path d="M605.878 147.313C608.166 147.313 610.022 145.464 610.022 143.184C610.022 140.903 608.166 139.054 605.878 139.054C603.589 139.054 601.733 140.903 601.733 143.184C601.733 145.464 603.589 147.313 605.878 147.313Z" fill="white"/>
<path d="M639.546 147.313H622.994C620.713 147.313 618.85 145.456 618.85 143.184C618.85 140.911 620.713 139.054 622.994 139.054H639.546C641.826 139.054 643.69 140.911 643.69 143.184C643.666 145.456 641.826 147.313 639.546 147.313Z" fill="white"/>
<path d="M750.384 147.313H733.832C731.552 147.313 729.688 145.456 729.688 143.184C729.688 140.911 731.527 139.054 733.832 139.054H750.384C752.665 139.054 754.529 140.911 754.529 143.184C754.504 145.456 752.665 147.313 750.384 147.313Z" fill="white"/>
<path d="M715.735 147.313H658.771C656.49 147.313 654.626 145.456 654.626 143.184C654.626 140.911 656.49 139.054 658.771 139.054H715.71C717.991 139.054 719.854 140.911 719.854 143.184C719.854 145.456 718.015 147.313 715.735 147.313Z" fill="white"/>
<path d="M605.878 160.825C608.166 160.825 610.022 158.976 610.022 156.695C610.022 154.415 608.166 152.566 605.878 152.566C603.589 152.566 601.733 154.415 601.733 156.695C601.733 158.976 603.589 160.825 605.878 160.825Z" fill="white"/>
<path d="M639.546 160.825H622.994C620.713 160.825 618.85 158.992 618.85 156.695C618.85 154.423 620.713 152.566 622.994 152.566H639.546C641.826 152.566 643.69 154.423 643.69 156.695C643.666 158.968 641.826 160.825 639.546 160.825Z" fill="white"/>
<path d="M750.384 160.825H733.832C731.552 160.825 729.688 158.992 729.688 156.695C729.688 154.423 731.527 152.566 733.832 152.566H750.384C752.665 152.566 754.529 154.423 754.529 156.695C754.504 158.968 752.665 160.825 750.384 160.825Z" fill="white"/>
<path d="M715.735 160.825H658.771C656.49 160.825 654.626 158.992 654.626 156.695C654.626 154.423 656.49 152.566 658.771 152.566H715.71C717.991 152.566 719.854 154.423 719.854 156.695C719.854 158.968 718.015 160.825 715.735 160.825Z" fill="white"/>
<path d="M605.878 174.337C608.166 174.337 610.022 172.488 610.022 170.207C610.022 167.927 608.166 166.078 605.878 166.078C603.589 166.078 601.733 167.927 601.733 170.207C601.733 172.488 603.589 174.337 605.878 174.337Z" fill="white"/>
<path d="M639.546 174.337H622.994C620.713 174.337 618.85 172.48 618.85 170.207C618.85 167.935 620.713 166.078 622.994 166.078H639.546C641.826 166.078 643.69 167.911 643.69 170.207C643.666 172.48 641.826 174.337 639.546 174.337Z" fill="white"/>
<path d="M750.384 174.337H733.832C731.552 174.337 729.688 172.48 729.688 170.207C729.688 167.935 731.527 166.078 733.832 166.078H750.384C752.665 166.078 754.529 167.911 754.529 170.207C754.504 172.48 752.665 174.337 750.384 174.337Z" fill="white"/>
<path d="M715.735 174.337H658.771C656.49 174.337 654.626 172.48 654.626 170.207C654.626 167.935 656.49 166.078 658.771 166.078H715.71C717.991 166.078 719.854 167.911 719.854 170.207C719.854 172.48 718.015 174.337 715.735 174.337Z" fill="white"/>
<path d="M605.878 187.87C608.166 187.87 610.022 186.021 610.022 183.74C610.022 181.46 608.166 179.611 605.878 179.611C603.589 179.611 601.733 181.46 601.733 183.74C601.733 186.021 603.589 187.87 605.878 187.87Z" fill="white"/>
<path d="M639.546 187.848H622.994C620.713 187.848 618.85 185.992 618.85 183.719C618.85 181.447 620.713 179.59 622.994 179.59H639.546C641.826 179.59 643.69 181.447 643.69 183.719C643.666 186.016 641.826 187.848 639.546 187.848Z" fill="white"/>
<path d="M750.384 187.848H733.832C731.552 187.848 729.688 185.992 729.688 183.719C729.688 181.447 731.527 179.59 733.832 179.59H750.384C752.665 179.59 754.529 181.447 754.529 183.719C754.504 186.016 752.665 187.848 750.384 187.848Z" fill="white"/>
<path d="M715.735 187.848H658.771C656.49 187.848 654.626 185.992 654.626 183.719C654.626 181.447 656.49 179.59 658.771 179.59H715.71C717.991 179.59 719.854 181.447 719.854 183.719C719.854 186.016 718.015 187.848 715.735 187.848Z" fill="white"/>
<path d="M812.008 326.657C741.484 319.767 699.061 322.748 634.25 326.975C629.787 327.268 625.986 323.725 625.986 319.278V238.499C625.986 233.857 630.057 230.29 634.692 230.827C703.328 239.086 750.459 242.507 811.395 231.511C816.152 230.656 820.542 234.272 820.542 239.11V318.985C820.517 323.554 816.569 327.097 812.008 326.657Z" fill="#9CD1F0"/>
<path d="M803.352 316.884C732.828 309.993 690.405 312.974 625.594 317.201C621.131 317.494 617.33 313.952 617.33 309.505V228.726C617.33 224.083 621.401 220.516 626.035 221.054C694.672 229.312 741.803 232.733 802.739 221.738C807.496 220.883 811.886 224.499 811.886 229.337V309.211C811.886 313.756 807.913 317.323 803.352 316.884Z" fill="#A9E2FF"/>
<path d="M661.543 255.09H638.517C636.433 255.09 634.765 253.404 634.765 251.352C634.765 249.275 636.457 247.613 638.517 247.613H661.543C663.627 247.613 665.295 249.299 665.295 251.352C665.295 253.404 663.627 255.09 661.543 255.09Z" fill="white"/>
<path d="M704.603 255.09H681.577C679.493 255.09 677.825 253.404 677.825 251.352C677.825 249.275 679.517 247.613 681.577 247.613H704.603C706.687 247.613 708.355 249.299 708.355 251.352C708.355 253.404 706.663 255.09 704.603 255.09Z" fill="white"/>
<path d="M747.639 255.09H724.613C722.528 255.09 720.861 253.404 720.861 251.352C720.861 249.275 722.553 247.613 724.613 247.613H747.639C749.723 247.613 751.39 249.299 751.39 251.352C751.415 253.404 749.723 255.09 747.639 255.09Z" fill="white"/>
<path d="M790.699 255.09H767.673C765.588 255.09 763.921 253.404 763.921 251.352C763.921 249.275 765.613 247.613 767.673 247.613H790.699C792.783 247.613 794.451 249.299 794.451 251.352C794.475 253.404 792.783 255.09 790.699 255.09Z" fill="white"/>
<path d="M661.543 272.854H638.517C636.433 272.854 634.765 271.168 634.765 269.115C634.765 267.038 636.457 265.377 638.517 265.377H661.543C663.627 265.377 665.295 267.063 665.295 269.115C665.295 271.168 663.627 272.854 661.543 272.854Z" fill="white"/>
<path d="M704.603 272.854H681.577C679.493 272.854 677.825 271.168 677.825 269.115C677.825 267.038 679.517 265.377 681.577 265.377H704.603C706.687 265.377 708.355 267.063 708.355 269.115C708.355 271.168 706.663 272.854 704.603 272.854Z" fill="white"/>
<path d="M747.639 272.854H724.613C722.528 272.854 720.861 271.168 720.861 269.115C720.861 267.038 722.553 265.377 724.613 265.377H747.639C749.723 265.377 751.39 267.063 751.39 269.115C751.415 271.168 749.723 272.854 747.639 272.854Z" fill="white"/>
<path d="M790.699 272.854H767.673C765.588 272.854 763.921 271.168 763.921 269.115C763.921 267.038 765.613 265.377 767.673 265.377H790.699C792.783 265.377 794.451 267.063 794.451 269.115C794.475 271.168 792.783 272.854 790.699 272.854Z" fill="white"/>
<path d="M661.543 290.617H638.517C636.433 290.617 634.765 288.931 634.765 286.879C634.765 284.802 636.457 283.14 638.517 283.14H661.543C663.627 283.14 665.295 284.826 665.295 286.879C665.295 288.931 663.627 290.617 661.543 290.617Z" fill="white"/>
<path d="M704.603 290.617H681.577C679.493 290.617 677.825 288.931 677.825 286.879C677.825 284.802 679.517 283.14 681.577 283.14H704.603C706.687 283.14 708.355 284.826 708.355 286.879C708.355 288.931 706.663 290.617 704.603 290.617Z" fill="white"/>
<path d="M747.639 290.617H724.613C722.528 290.617 720.861 288.931 720.861 286.879C720.861 284.802 722.553 283.14 724.613 283.14H747.639C749.723 283.14 751.39 284.826 751.39 286.879C751.415 288.931 749.723 290.617 747.639 290.617Z" fill="white"/>
<path d="M790.699 290.617H767.673C765.588 290.617 763.921 288.931 763.921 286.879C763.921 284.802 765.613 283.14 767.673 283.14H790.699C792.783 283.14 794.451 284.826 794.451 286.879C794.475 288.931 792.783 290.617 790.699 290.617Z" fill="white"/>
<path d="M123.705 316.664C92.4397 318.13 59.0411 289.249 16.2997 317.397C11.8368 320.329 6.36842 313.854 7.22668 308.601C11.7632 280.453 8.23207 256.043 5.65729 218.439C5.33851 213.675 9.38458 209.741 14.1418 210.205C56.0985 214.286 81.2333 228.946 124.318 211.256C128.805 209.423 133.465 214.017 133.465 218.855V309.236C133.465 314.294 128.805 316.42 123.705 316.664Z" fill="#EDF2F2"/>
<path opacity="0.83" d="M118.065 324.41C86.8001 325.876 53.4015 296.995 10.6601 325.143C6.19711 328.075 0.728773 321.6 1.58703 316.346C6.12356 288.199 2.59243 263.789 0.0176436 226.185C-0.301139 221.42 3.74493 217.487 8.50214 217.951C50.4588 222.031 75.5937 236.692 118.678 219.002C123.166 217.169 127.825 221.763 127.825 226.6V316.982C127.849 322.04 123.166 324.165 118.065 324.41Z" fill="url(#paint1_linear_64_764)"/>
<path d="M29.9586 257.143C31.6015 256.874 33.7595 256.63 36.4814 256.63C39.8409 256.63 42.293 257.412 43.8624 258.805C45.3092 260.051 46.1674 261.956 46.1674 264.302C46.1674 266.672 45.4564 268.554 44.1322 269.897C42.3421 271.803 39.3995 272.781 36.089 272.781C35.0836 272.781 34.1273 272.732 33.3426 272.536V283.043H29.9341V257.143H29.9586ZM33.3671 269.8C34.1028 269.995 35.0591 270.069 36.1871 270.069C40.2823 270.069 42.7835 268.089 42.7835 264.473C42.7835 261.004 40.3313 259.342 36.5795 259.342C35.0837 259.342 33.9556 259.464 33.3671 259.611V269.8Z" fill="white"/>
<path d="M54.1619 256.85V267.82H66.8887V256.85H70.3218V283.092H66.8887V270.801H54.1619V283.092H50.7534V256.85H54.1619Z" fill="white"/>
<path d="M76.2311 257.143C77.874 256.874 80.032 256.63 82.7539 256.63C86.1134 256.63 88.5655 257.412 90.1349 258.805C91.5817 260.051 92.44 261.956 92.44 264.302C92.44 266.672 91.7288 268.554 90.4046 269.897C88.6146 271.803 85.672 272.781 82.3615 272.781C81.3561 272.781 80.3998 272.732 79.6151 272.536V283.043H76.2065V257.143H76.2311ZM79.6151 269.8C80.3507 269.995 81.3071 270.069 82.4351 270.069C86.5302 270.069 89.0314 268.089 89.0314 264.473C89.0314 261.004 86.5793 259.342 82.8274 259.342C81.3316 259.342 80.2036 259.464 79.6151 259.611V269.8Z" fill="white"/>
<path d="M723.264 429.401C759.112 429.401 788.173 415.366 788.173 398.052C788.173 380.739 759.112 366.704 723.264 366.704C687.416 366.704 658.355 380.739 658.355 398.052C658.355 415.366 687.416 429.401 723.264 429.401Z" fill="#B5A6E7"/>
<path d="M723.264 432.725C683.98 432.725 652.028 417.184 652.028 398.077C652.028 378.97 683.98 363.43 723.264 363.43C762.548 363.43 794.5 378.97 794.5 398.077C794.5 417.16 762.548 432.725 723.264 432.725ZM723.264 364.383C684.52 364.383 653.009 379.483 653.009 398.053C653.009 416.623 684.52 431.723 723.264 431.723C762.008 431.723 793.519 416.623 793.519 398.053C793.519 379.507 761.984 364.383 723.264 364.383Z" fill="#CC00FF" fill-opacity="0.33"/>
<path d="M684.017 43.3947C693.701 43.3947 701.55 35.573 701.55 25.9244C701.55 16.2758 693.701 8.4541 684.017 8.4541C674.334 8.4541 666.484 16.2758 666.484 25.9244C666.484 35.573 674.334 43.3947 684.017 43.3947Z" fill="white"/>
<path d="M684.018 48.8684C671.316 48.8684 660.992 38.5817 660.992 25.9249C660.992 13.2681 671.316 2.98145 684.018 2.98145C696.72 2.98145 707.044 13.2681 707.044 25.9249C707.044 38.5573 696.72 48.8684 684.018 48.8684ZM684.018 3.95881C671.88 3.95881 661.998 13.8057 661.998 25.9005C661.998 37.9953 671.88 47.8422 684.018 47.8422C696.156 47.8422 706.039 37.9953 706.039 25.9005C706.039 13.8057 696.156 3.95881 684.018 3.95881Z" fill="#ECF9FF"/>
<path d="M684.018 51.8489C669.672 51.8489 658 40.2183 658 25.9244C658 11.6306 669.672 0 684.018 0C698.363 0 710.035 11.6306 710.035 25.9244C710.035 40.2183 698.363 51.8489 684.018 51.8489ZM684.018 0.977362C670.212 0.977362 658.981 12.1681 658.981 25.9244C658.981 39.6808 670.212 50.8715 684.018 50.8715C697.823 50.8715 709.054 39.6808 709.054 25.9244C709.054 12.1681 697.823 0.977362 684.018 0.977362Z" fill="#ECF9FF"/>
<path d="M95.0892 420.997C104.772 420.997 112.622 413.175 112.622 403.526C112.622 393.878 104.772 386.056 95.0892 386.056C85.406 386.056 77.5562 393.878 77.5562 403.526C77.5562 413.175 85.406 420.997 95.0892 420.997Z" fill="#ECF9FF"/>
<path d="M95.0894 426.47C82.3871 426.47 72.0635 416.183 72.0635 403.527C72.0635 390.87 82.3871 380.583 95.0894 380.583C107.792 380.583 118.115 390.87 118.115 403.527C118.115 416.183 107.792 426.47 95.0894 426.47ZM95.0894 381.585C82.9511 381.585 73.0689 391.432 73.0689 403.527C73.0689 415.621 82.9511 425.468 95.0894 425.468C107.228 425.468 117.11 415.621 117.11 403.527C117.134 391.432 107.252 381.585 95.0894 381.585Z" fill="#ECF9FF"/>
<path d="M95.0893 429.475C80.7441 429.475 69.0718 417.845 69.0718 403.551C69.0718 389.257 80.7441 377.626 95.0893 377.626C109.435 377.626 121.107 389.257 121.107 403.551C121.131 417.82 109.435 429.475 95.0893 429.475ZM95.0893 378.579C81.2836 378.579 70.0527 389.77 70.0527 403.526C70.0527 417.283 81.2836 428.474 95.0893 428.474C108.895 428.474 120.126 417.283 120.126 403.526C120.126 389.77 108.895 378.579 95.0893 378.579Z" fill="#ECF9FF"/>
<path d="M244.354 118.528H129.175C124.884 118.528 121.426 115.059 121.426 110.807V73.3256C121.426 69.0497 124.908 65.6045 129.175 65.6045H244.354C248.645 65.6045 252.103 69.0741 252.103 73.3256V110.807C252.127 115.083 248.645 118.528 244.354 118.528Z" fill="#ECF9FF"/>
<path d="M241.852 122.804H126.674C122.382 122.804 118.925 119.335 118.925 115.083V77.6015C118.925 73.3255 122.407 69.8804 126.674 69.8804H241.852C246.144 69.8804 249.601 73.35 249.601 77.6015V115.083C249.626 119.359 246.144 122.804 241.852 122.804Z" fill="#D3E7F1"/>
<path d="M144.55 113.813C154.233 113.813 162.083 105.991 162.083 96.3424C162.083 86.6938 154.233 78.8721 144.55 78.8721C134.866 78.8721 127.017 86.6938 127.017 96.3424C127.017 105.991 134.866 113.813 144.55 113.813Z" fill="white"/>
<path d="M184.275 113.813C193.959 113.813 201.808 105.991 201.808 96.3424C201.808 86.6938 193.959 78.8721 184.275 78.8721C174.592 78.8721 166.742 86.6938 166.742 96.3424C166.742 105.991 174.592 113.813 184.275 113.813Z" fill="white"/>
<path d="M224 113.813C233.683 113.813 241.533 105.991 241.533 96.3424C241.533 86.6938 233.683 78.8721 224 78.8721C214.317 78.8721 206.467 86.6938 206.467 96.3424C206.467 105.991 214.317 113.813 224 113.813Z" fill="white"/>
<path d="M696.314 399.25C665.049 400.716 631.651 371.835 588.909 399.983C584.446 402.915 578.978 396.44 579.836 391.187C584.373 363.039 580.841 338.629 578.267 301.025C577.948 296.261 581.994 292.327 586.751 292.791C628.708 296.872 653.843 311.532 696.927 293.842C701.415 292.009 706.074 296.603 706.074 301.441V391.822C706.099 396.904 701.415 399.006 696.314 399.25Z" fill="#F2F2F2"/>
<path opacity="0.83" d="M700.826 403.941C669.561 405.407 636.162 376.526 593.421 404.674C588.958 407.606 583.49 401.131 584.348 395.878C588.884 367.73 585.353 343.321 582.778 305.717C582.46 300.952 586.506 297.018 591.263 297.483C633.22 301.563 658.354 316.223 701.439 298.533C705.927 296.701 710.586 301.294 710.586 306.132V396.513C710.586 401.571 705.927 403.697 700.826 403.941Z" fill="url(#paint2_linear_64_764)"/>
<path d="M597.394 335.868C598.865 335.624 600.777 335.404 603.23 335.404C606.246 335.404 608.428 336.112 609.851 337.359C611.15 338.482 611.91 340.193 611.91 342.27C611.91 344.395 611.273 346.057 610.096 347.279C608.477 348.989 605.854 349.869 602.886 349.869C601.979 349.869 601.145 349.844 600.434 349.649V359.056H597.394V335.868ZM600.434 347.181C601.096 347.352 601.93 347.425 602.96 347.425C606.638 347.425 608.87 345.642 608.87 342.416C608.87 339.313 606.663 337.823 603.303 337.823C601.979 337.823 600.949 337.92 600.434 338.067V347.181Z" fill="white"/>
<path d="M617.158 342.221L620.861 352.19C621.253 353.314 621.67 354.633 621.94 355.635H622.013C622.332 354.633 622.676 353.338 623.092 352.116L626.452 342.221H629.713L625.103 354.242C622.896 360.033 621.4 362.99 619.292 364.798C617.796 366.117 616.275 366.655 615.515 366.777L614.755 364.187C615.515 363.943 616.545 363.454 617.452 362.696C618.286 362.037 619.341 360.839 620.052 359.276C620.199 358.958 620.297 358.714 620.297 358.543C620.297 358.372 620.223 358.127 620.076 357.736L613.823 342.196H617.158V342.221Z" fill="white"/>
<path d="M636.211 337.358V342.196H640.625V344.542H636.211V353.631C636.211 355.733 636.8 356.906 638.516 356.906C639.325 356.906 639.914 356.808 640.306 356.686L640.453 358.982C639.865 359.227 638.908 359.398 637.731 359.398C636.309 359.398 635.132 358.934 634.421 358.103C633.538 357.199 633.244 355.708 633.244 353.705V344.493H630.62V342.147H633.244V338.116L636.211 337.358Z" fill="white"/>
<path d="M644.083 334.329H647.173V344.86H647.246C647.737 343.98 648.497 343.223 649.453 342.709C650.361 342.196 651.44 341.83 652.592 341.83C654.873 341.83 658.502 343.223 658.502 349.038V359.08H655.437V349.404C655.437 346.692 654.431 344.395 651.513 344.395C649.527 344.395 647.957 345.788 647.393 347.474C647.222 347.889 647.173 348.354 647.173 348.94V359.105H644.083V334.329Z" fill="white"/>
<path d="M678.806 350.504C678.806 356.734 674.466 359.446 670.371 359.446C665.785 359.446 662.254 356.099 662.254 350.772C662.254 345.128 665.957 341.83 670.64 341.83C675.52 341.83 678.806 345.348 678.806 350.504ZM665.393 350.675C665.393 354.364 667.526 357.15 670.542 357.15C673.485 357.15 675.692 354.389 675.692 350.601C675.692 347.743 674.27 344.126 670.616 344.126C666.962 344.126 665.393 347.474 665.393 350.675Z" fill="white"/>
<path d="M682.705 346.766C682.705 345.031 682.68 343.589 682.558 342.197H685.28L685.451 344.982H685.525C686.358 343.369 688.32 341.806 691.116 341.806C693.47 341.806 697.099 343.198 697.099 348.989V359.056H694.009V349.331C694.009 346.619 693.004 344.347 690.086 344.347C688.05 344.347 686.481 345.764 685.966 347.474C685.819 347.865 685.745 348.378 685.745 348.892V359.032H682.68V346.766H682.705Z" fill="white"/>
</g>
<defs>
<linearGradient id="paint0_linear_64_764" x1="385.155" y1="345.198" x2="406.054" y2="136.161" gradientUnits="userSpaceOnUse">
<stop stop-color="#067EFF"/>
<stop offset="1" stop-color="#3E37A0"/>
</linearGradient>
<linearGradient id="paint1_linear_64_764" x1="55.4543" y1="331.764" x2="71.0625" y2="211.606" gradientUnits="userSpaceOnUse">
<stop stop-color="#067EFF"/>
<stop offset="1" stop-color="#3E37A0"/>
</linearGradient>
<linearGradient id="paint2_linear_64_764" x1="638.215" y1="411.295" x2="653.823" y2="291.137" gradientUnits="userSpaceOnUse">
<stop stop-color="#067EFF"/>
<stop offset="1" stop-color="#3E37A0"/>
</linearGradient>
<clipPath id="clip0_64_764">
<rect width="820.542" height="432.725" fill="white"/>
</clipPath>
</defs>
</svg>
