<svg width="180" height="30" viewBox="0 0 180 30" fill="none" xmlns="http://www.w3.org/2000/svg">
<path d="M1 2.35484V1H10.1805C18.3096 2.25386 18.6615 13.8364 10.6234 15.5813L10.1805 15.6774H3.29513V15.9032L18.086 29H15.6633L1 15.9032V14.3226H9.47923L9.89311 14.2362C16.5236 12.8522 16.19 3.27406 9.47923 2.35484H1Z" fill="#477BDF" stroke="#477BDF"/>
<rect x="23.9512" y="27.645" width="17.0859" height="1.35483" fill="#477BDF"/>
<rect x="23.9541" y="1" width="17.086" height="1.35484" fill="#477BDF"/>
<rect x="23.9512" y="14.3228" width="15.0458" height="1.35484" fill="#477BDF"/>
<path d="M69.5986 2.35484V1H78.7792C86.9083 2.25386 87.2601 13.8364 79.2221 15.5813L78.7792 15.6774H71.8938V15.9032L86.6846 29H84.262L69.5986 15.9032V14.3226H78.0779L78.4918 14.2362C85.1223 12.8522 84.7886 3.27406 78.0779 2.35484H69.5986Z" fill="#477BDF" stroke="#477BDF"/>
<path d="M48.9427 29H47.4126V7.62511C47.4126 7.42379 47.4297 7.22283 47.4638 7.02442C47.9689 4.08532 50.2585 1.77605 53.1931 1.24574L54.1772 1.06791C54.4272 1.02273 54.6808 1 54.9349 1H63.2235V2.35484H55.0254C54.7117 2.35484 54.3994 2.39485 54.0959 2.47389L53.625 2.59653C51.5001 3.1499 49.8 4.74147 49.1079 6.82521C48.9985 7.15465 48.9427 7.49953 48.9427 7.84667V29Z" fill="#477BDF" stroke="#477BDF"/>
<rect x="52.0029" y="14.3228" width="9.43553" height="1.35484" fill="#477BDF"/>
<path d="M92.5502 14.3228H105.811V15.6776H93.3152V29.0002H91.7852V15.0002L92.5502 14.3228Z" fill="#477BDF" stroke="#477BDF"/>
<path d="M91.7871 8.1393V11.5H93.4447V8.74374C93.4447 7.80822 93.6545 6.88461 94.0588 6.04093C94.8059 4.48153 96.1652 3.30096 97.8139 2.77959L97.8622 2.76431C98.4837 2.56776 99.1317 2.46774 99.7836 2.46774H102.214C102.825 2.46774 103.433 2.55289 104.021 2.72073L104.335 2.81056C106.074 3.30706 107.489 4.57254 108.175 6.24479C108.468 6.95645 108.618 7.71838 108.618 8.48772V29H110.276V7.92568C110.276 7.22684 110.166 6.53229 109.952 5.86721C109.207 3.55866 107.273 1.83267 104.895 1.3541L103.95 1.16406C103.408 1.05496 102.857 1 102.304 1H99.676C99.0937 1 98.513 1.06199 97.9438 1.18492L97.2851 1.32717C94.9706 1.82703 93.0682 3.4679 92.234 5.68396C91.9385 6.46885 91.7871 7.30063 91.7871 8.1393Z" fill="#477BDF" stroke="#477BDF"/>
<path d="M131.823 2.35484V1H124.376C123.564 1 122.756 1.11434 121.976 1.33964L121.109 1.58989C118.737 2.27494 116.895 4.15078 116.254 6.53557C116.093 7.13292 116.012 7.7488 116.012 8.36736V21.6943C116.012 22.3466 116.102 22.9958 116.279 23.6235C116.91 25.8601 118.596 27.6461 120.793 28.4051L121.243 28.5607C122.085 28.8515 122.969 29 123.86 29H131.823V27.6452H124.671C123.668 27.6452 122.676 27.4466 121.75 27.0609L120.966 26.7344C119.591 26.1613 118.503 25.0608 117.946 23.6791C117.679 23.0175 117.542 22.3107 117.542 21.5974V8.48502C117.542 7.79103 117.667 7.10274 117.912 6.45325C118.488 4.92254 119.687 3.70852 121.21 3.11339L121.864 2.8581C122.715 2.52552 123.621 2.35484 124.535 2.35484H131.823Z" fill="#477BDF" stroke="#477BDF"/>
<path d="M138.835 21.7378V1H140.493V21.6522C140.493 22.1826 140.566 22.7105 140.71 23.221C141.214 25.0066 142.546 26.4411 144.289 27.0766L144.736 27.2396C145.472 27.5079 146.249 27.6452 147.032 27.6452H154.646V29H146.92C146.209 29 145.5 28.9081 144.812 28.7267L144.069 28.5307C141.488 27.85 139.516 25.7654 138.979 23.1508C138.884 22.6859 138.835 22.2125 138.835 21.7378Z" fill="#477BDF" stroke="#477BDF"/>
<rect x="143.298" y="14.3228" width="9.69054" height="1.35484" fill="#477BDF"/>
<path d="M168.799 1C164.152 1 160.384 4.30951 160.384 8.392V13.32H161.914V8.392C161.914 5.05178 164.997 2.344 168.799 2.344H170.584C174.387 2.344 177.47 5.05178 177.47 8.392V21.608C177.47 24.9482 174.387 27.656 170.584 27.656H168.799C164.997 27.656 161.914 24.9482 161.914 21.608V16.904H160.384V21.608C160.384 25.6905 164.152 29 168.799 29H170.584C175.232 29 179 25.6905 179 21.608V8.392C179 4.30951 175.232 1 170.584 1H168.799Z" fill="#477BDF" stroke="#477BDF"/>
</svg>
