<svg width="887" height="784" viewBox="0 0 887 784" fill="none" xmlns="http://www.w3.org/2000/svg">
<g clip-path="url(#clip0_53_182)">
<path d="M704.05 406.977C704.031 406.515 703.81 406.312 703.386 406.312L691.012 406.681C689.795 406.718 688.744 406.903 687.896 407.236C687.047 407.569 686.365 408.031 685.849 408.623C685.332 409.215 684.982 409.899 684.761 410.731C684.539 411.544 684.447 412.451 684.484 413.449L684.595 416.851C684.632 417.85 684.779 418.756 685.037 419.551C685.295 420.346 685.701 421.03 686.254 421.585C686.808 422.14 687.508 422.546 688.375 422.842C689.242 423.12 690.293 423.249 691.51 423.212L698.167 423.009L699.55 419.107H699.735L699.845 422.972L704.511 422.824L704.05 406.977ZM699.735 418.682L691.824 418.922C690.938 418.941 690.293 418.774 689.906 418.386C689.518 417.998 689.316 417.314 689.279 416.315L689.186 413.541C689.15 412.506 689.316 411.803 689.684 411.415C690.053 411.027 690.68 410.823 691.565 410.805L699.126 410.583C699.237 410.583 699.31 410.62 699.384 410.675C699.44 410.749 699.476 410.823 699.476 410.916L699.735 418.682Z" fill="#F1F1F4"/>
<path d="M677.79 414.059H677.956L678.103 419.015C678.103 419.218 678.011 419.329 677.79 419.347L663.886 419.773L664.015 424.063L682.253 423.508C682.695 423.489 682.898 423.267 682.898 422.805L682.437 407.624C682.418 407.162 682.197 406.959 681.755 406.959L664.033 407.495C663.572 407.514 663.351 407.735 663.369 408.198L663.498 412.488L667.869 413.967H668.053L667.979 411.766C667.979 411.6 668.053 411.508 668.201 411.508L677.55 411.23C677.679 411.23 677.753 411.267 677.79 411.323C677.827 411.397 677.845 411.471 677.845 411.545L677.9 413.615L670.192 413.856L670.303 417.221L676.757 417.018L677.79 414.059Z" fill="#F1F1F4"/>
<path d="M646.883 413.763H647.068L647.012 411.951C647.012 411.766 647.086 411.674 647.271 411.674L655.975 411.415C656.288 411.415 656.509 411.471 656.639 411.6C656.768 411.729 656.823 411.933 656.841 412.192L656.86 412.598C656.878 412.913 656.823 413.116 656.712 413.209C656.602 413.301 656.399 413.375 656.104 413.431L645.906 415.169C645.261 415.28 644.707 415.446 644.265 415.631C643.822 415.834 643.453 416.093 643.177 416.407C642.9 416.722 642.716 417.11 642.605 417.572C642.494 418.035 642.458 418.571 642.476 419.2L642.513 420.512C642.531 421.197 642.642 421.788 642.826 422.306C643.011 422.824 643.287 423.249 643.675 423.6C644.062 423.952 644.578 424.192 645.187 424.358C645.814 424.525 646.57 424.58 647.473 424.562L662.152 424.118L662.023 419.828L648.857 420.235C648.469 420.254 648.193 420.18 648.064 420.05C647.934 419.902 647.861 419.662 647.842 419.292L647.824 418.83C647.824 418.534 647.861 418.331 647.953 418.22C648.045 418.109 648.23 418.016 648.525 417.979L658.372 416.426C659.036 416.315 659.608 416.167 660.069 415.964C660.53 415.76 660.917 415.52 661.212 415.206C661.507 414.891 661.71 414.521 661.839 414.078C661.968 413.634 662.005 413.116 661.986 412.506L661.949 411.341C661.913 410.139 661.562 409.233 660.917 408.586C660.253 407.939 659.202 407.643 657.708 407.698L643.048 408.142C642.587 408.161 642.347 408.401 642.365 408.882L642.476 412.284L646.883 413.763Z" fill="#F1F1F4"/>
<path d="M640.688 424.765L640.19 408.235L635.524 408.383L636.022 424.913L640.688 424.765Z" fill="#F1F1F4"/>
<path d="M618.706 418.349C618.706 418.109 618.706 417.85 618.724 417.591C618.743 417.332 618.761 417.092 618.779 416.888V416.685L614.151 416.833L614.391 424.95C614.409 425.375 614.593 425.579 614.981 425.56L627.391 425.191C628.608 425.154 629.66 424.969 630.508 424.636C631.356 424.303 632.038 423.841 632.555 423.249C633.071 422.657 633.44 421.973 633.643 421.141C633.864 420.328 633.956 419.421 633.919 418.423L633.809 415.021C633.772 414.022 633.624 413.116 633.366 412.321C633.108 411.526 632.702 410.842 632.149 410.287C631.596 409.732 630.895 409.326 630.028 409.03C629.162 408.752 628.11 408.623 626.893 408.66L614.557 409.03C614.114 409.048 613.911 409.27 613.911 409.732L614.022 413.301L618.392 414.762H618.577L618.521 413.172C618.521 413.024 618.577 412.95 618.724 412.931L626.598 412.691C627.059 412.672 627.428 412.709 627.742 412.783C628.055 412.857 628.313 412.987 628.516 413.19C628.719 413.394 628.867 413.652 628.977 414.004C629.069 414.337 629.143 414.762 629.162 415.261L629.254 418.164C629.291 419.163 629.125 419.865 628.756 420.272C628.387 420.679 627.76 420.901 626.875 420.919L619.056 421.16C618.89 421.16 618.798 421.086 618.798 420.901L618.706 418.349Z" fill="#F1F1F4"/>
<path d="M604.285 409.326C603.935 409.344 603.695 409.4 603.547 409.511C603.4 409.621 603.289 409.788 603.16 410.028L597.259 422.103C597.167 422.288 597.019 422.38 596.835 422.38H596.595C596.355 422.38 596.226 422.269 596.226 422.029L595.858 409.584L591.616 409.714L592.096 425.597C592.114 426.041 592.317 426.244 592.741 426.226L599.454 426.023C599.767 426.023 600.007 425.967 600.154 425.856C600.32 425.764 600.449 425.579 600.578 425.32L606.701 413.264C606.793 413.079 606.922 412.987 607.125 412.987H607.346C607.586 412.987 607.715 413.098 607.715 413.338L608.084 425.764L612.325 425.634L611.846 409.769C611.827 409.307 611.624 409.104 611.2 409.104L604.285 409.326Z" fill="#F1F1F4"/>
<path d="M691.344 387.579C698.37 375.45 710.799 370.457 710.799 370.457L715.132 372.491L705.377 390.242C706.686 397.065 711.352 400.819 711.352 400.819L711.37 400.782C711.37 400.782 717.235 401.965 723.302 398.581L730.623 379.684L734.956 381.718C734.956 381.718 739.105 394.476 734.348 407.679C734.348 407.679 732.504 411.95 732.172 412.338C730.457 414.354 725.975 416.665 717.308 416.129L687.434 473.283C689.924 477.573 690.348 482.954 688.098 487.761C684.447 495.601 675.153 498.985 667.334 495.324C659.515 491.663 656.14 482.344 659.792 474.504C662.041 469.678 666.43 466.553 671.299 465.721L695.843 406.089C689.998 399.913 688.762 395.05 689.205 392.239C689.278 391.629 691.344 387.579 691.344 387.579ZM666.781 486.153L674.692 489.869L681.847 484.858L681.091 476.131L673.18 472.414L666.025 477.425L666.781 486.153Z" fill="url(#paint0_linear_53_182)"/>
<path d="M689.186 392.24C696.212 380.111 708.641 375.118 708.641 375.118L712.975 377.152L703.219 394.903C704.529 401.726 709.194 405.48 709.194 405.48L709.213 405.443C709.213 405.443 715.077 406.626 721.144 403.242L728.465 384.345L732.798 386.379C732.798 386.379 736.948 399.137 732.19 412.34C732.19 412.34 725.441 421.418 715.169 420.79L685.295 477.944C687.785 482.234 688.209 487.615 685.959 492.422C682.308 500.262 673.014 503.646 665.195 499.985C657.376 496.324 654.001 487.005 657.652 479.165C659.902 474.338 664.291 471.214 669.159 470.382L693.704 410.749C686.567 403.261 689.186 392.24 689.186 392.24ZM664.605 490.814L672.516 494.53L679.671 489.519L678.915 480.792L671.003 477.075L663.848 482.086L664.605 490.814Z" fill="url(#paint1_linear_53_182)"/>
<path d="M730.619 379.692L734.946 381.719L732.776 386.376L728.449 384.349L730.619 379.692Z" fill="#E5E2FF"/>
<path d="M710.817 370.451L715.145 372.478L712.974 377.136L708.647 375.108L710.817 370.451Z" fill="#E5E2FF"/>
<path d="M666.759 486.146L674.678 489.856L672.508 494.513L664.589 490.803L666.759 486.146Z" fill="#E5E2FF"/>
<path d="M708.751 425.023L684.613 471.527C678.269 471.823 674.876 466.96 674.876 466.96L694.515 418.348C703.33 418.034 708.751 425.023 708.751 425.023ZM676.738 467.348C677.439 467.958 678.509 468.772 679.855 469.4C680.924 469.9 682.049 470.232 683.193 470.399L707.368 424.857C706.188 423.803 704.16 422.249 701.56 421.029C699.605 420.123 697.613 419.531 695.585 419.254L676.738 467.348Z" fill="url(#paint2_linear_53_182)"/>
<path d="M676.739 467.349L674.876 466.961C674.876 466.961 677.642 471.879 684.613 471.528L683.193 470.4C683.193 470.4 679.744 469.993 676.739 467.349Z" fill="#E5E2FF"/>
<path opacity="0.62" d="M708.751 425.024L707.368 424.839C707.368 424.839 703.238 420.549 695.585 419.255L694.534 418.368C694.534 418.368 697.613 417.831 702.408 420.069C707.184 422.306 708.751 425.024 708.751 425.024Z" fill="url(#paint3_linear_53_182)"/>
<path opacity="0.62" d="M715.151 420.771C715.151 420.771 703.552 418.7 693.649 410.731L690.514 418.349C690.514 418.349 694.073 414.817 701.892 418.016C711.02 421.751 710.522 429.111 710.522 429.111L715.151 420.771Z" fill="url(#paint4_linear_53_182)"/>
<path opacity="0.5" d="M690.514 418.368C692.745 416.759 695.29 416.722 695.29 416.722L671.926 473.303L669.104 470.381L690.514 418.368Z" fill="url(#paint5_linear_53_182)"/>
<path d="M690.514 418.367C690.514 418.367 692.967 425.93 685.922 429.517L690.514 418.367Z" fill="white"/>
<path d="M338.886 784H425.558C434.631 733.484 455.727 667.75 455.727 667.75C460.853 664.699 470.867 668.452 470.867 668.452L502.548 784H581.733C585.937 712.7 547.027 631.767 547.027 631.767L547.045 631.749C547.175 631.471 548.41 628.994 548.078 627.329C547.949 626.608 546.621 625.24 545.128 623.89C542.989 621.93 540.444 619.97 540.444 619.97L392.715 619.046C392.715 619.046 391.221 619.804 389.322 620.95H389.303C386.076 622.91 381.706 625.943 381.706 628.161C381.706 631.212 382.904 633.191 383.199 633.635L383.273 633.727C351.592 693.674 338.886 784 338.886 784Z" fill="url(#paint6_linear_53_182)"/>
<path d="M512.801 784.074L513.705 783.926C503.618 724.386 478.04 674.462 477.782 673.963L477.671 673.833L471.162 668.12L470.553 668.822L477.008 674.48C478.169 676.699 502.935 725.773 512.801 784.074Z" fill="url(#paint7_linear_53_182)"/>
<path d="M413.792 784.074C423.677 725.736 449.125 676.181 450.268 673.981L456.04 668.785L455.432 668.101L449.494 673.482C449.235 673.981 422.976 724.386 412.889 783.926L413.792 784.074Z" fill="url(#paint8_linear_53_182)"/>
<path opacity="0.76" d="M381.706 628.161C381.706 631.212 382.905 633.191 383.2 633.635L383.273 633.727C414.033 640.698 437.434 669.488 437.434 669.488C420.671 701.735 392.715 784 392.715 784H425.558C434.631 733.484 455.727 667.75 455.727 667.75C460.854 664.699 470.867 668.452 470.867 668.452L502.548 784H523.054C515.715 735.592 494.047 676.496 494.047 676.496C515.346 651.626 547.027 631.767 547.027 631.767L547.046 631.749L550.808 629.382L548.078 627.329C534.377 640.513 490.193 657.728 488.828 658.264L545.128 623.89C542.989 621.93 540.444 619.97 540.444 619.97L392.715 619.046C392.715 619.046 391.221 619.804 389.322 620.95L429.67 643.213L381.706 628.161Z" fill="url(#paint9_linear_53_182)"/>
<path opacity="0.76" d="M455.727 667.75L438.485 656.526L442.579 667.75L445.585 701.514L455.727 667.75Z" fill="url(#paint10_linear_53_182)"/>
<path opacity="0.76" d="M470.867 668.452L488.828 658.264L527.277 640.902L478.317 673.352L475.403 684.983L470.867 668.452Z" fill="url(#paint11_linear_53_182)"/>
<path d="M421.445 321.089C421.335 321.884 421.242 322.309 421.242 322.309C422.146 326.081 423.179 329.576 424.304 332.775C427.918 343.185 432.418 350.581 435.792 355.185C438.724 359.161 440.808 361.065 440.808 361.065C467.713 352.597 480.972 326.211 486.062 313.082C486.099 313.027 486.117 312.953 486.135 312.879C487.113 310.401 487.758 308.404 488.164 307.11C488.164 307.11 488.164 307.11 488.164 307.091C488.477 306.056 488.625 305.483 488.625 305.483C488.514 305.261 488.404 305.02 488.293 304.798L488.238 304.706C487.795 303.781 487.353 302.838 486.947 301.932C483.425 294.203 481.083 286.974 479.571 281.278C478.261 276.434 477.561 272.699 477.229 270.72C477.063 269.703 476.989 269.149 476.989 269.149L464.449 275.787L421.242 298.715C421.888 302.691 422.146 306.426 422.164 309.699C422.201 312.01 422.128 314.081 421.998 315.837C421.869 317.982 421.648 319.683 421.482 320.793V320.811C421.482 320.922 421.464 320.996 421.445 321.089Z" fill="#FE9083"/>
<path d="M433.432 363.968C435.921 366.446 438.853 368.665 442.357 370.514C442.431 370.569 442.505 370.606 442.578 370.643C442.578 370.643 442.671 370.588 442.837 370.495L442.855 370.477C443.795 369.904 447.004 367.925 451.319 364.671C462.605 356.147 481.451 338.914 486.836 315.689C486.855 315.652 486.855 315.634 486.873 315.597C487.5 312.842 487.943 310.031 488.164 307.11C488.164 307.11 488.164 307.11 488.164 307.091C488.219 306.333 488.275 305.575 488.293 304.798C488.293 304.798 484.549 313.618 478.058 323.141C470.424 334.346 458.972 346.569 445.289 346.643C433.45 346.717 427.383 338.599 424.304 331.111C422.994 327.93 422.22 324.879 421.814 322.605C421.796 322.586 421.796 322.568 421.796 322.568C421.667 321.902 421.574 321.311 421.482 320.811V320.793C421.445 320.534 421.408 320.312 421.39 320.109C421.279 319.277 421.242 318.796 421.242 318.796C421.242 318.796 416.706 347.197 433.432 363.968Z" fill="url(#paint12_linear_53_182)"/>
<path opacity="0.5" d="M433.432 363.968C435.921 366.446 438.853 368.665 442.357 370.514H442.578L442.837 370.495L442.855 370.477C443.795 369.904 447.004 367.925 451.319 364.671C462.605 356.147 481.451 338.914 486.836 315.689C486.855 315.652 486.855 315.634 486.873 315.597C487.5 312.842 487.943 310.031 488.164 307.11C488.164 307.11 488.164 307.11 488.164 307.091C488.219 306.333 488.275 305.575 488.293 304.798C488.293 304.798 484.549 313.618 478.058 323.141C478.058 323.141 470.608 343.666 454.491 353.835C446.414 358.92 440.292 358.181 435.792 355.185C431.293 352.208 428.379 347.012 426.664 343.092C424.949 339.154 424.396 335.474 424.304 332.775C424.285 332.165 424.285 331.61 424.304 331.111C422.994 327.93 422.22 324.879 421.814 322.605C421.796 322.586 421.796 322.568 421.796 322.568C421.667 321.902 421.574 321.311 421.482 320.811V320.793C421.445 320.534 421.408 320.312 421.39 320.109C421.279 319.277 421.242 318.796 421.242 318.796C421.242 318.796 416.706 347.197 433.432 363.968Z" fill="url(#paint13_linear_53_182)"/>
<path d="M329.868 531.659C330.071 531.752 330.164 531.807 330.164 531.807C331.676 531.992 336.378 530.957 342.537 525.613L342.556 525.594C342.556 525.576 342.574 525.557 342.611 525.539C342.63 525.52 342.648 525.483 342.685 525.465C347.848 520.935 354.044 513.372 360.222 500.983C372.577 476.225 376.118 459.694 376.69 456.809L376.763 456.366L383.974 467.83C388.86 482.567 398.118 543.549 397.952 546.174C397.786 548.8 389.746 561.595 389.912 563.167C389.912 563.167 389.912 563.186 389.93 563.204C390.151 564.794 393.766 568.289 394.798 572.098C395.499 574.631 390.594 582.619 387.145 588.592V588.61C385.357 591.717 383.974 594.268 383.974 595.23C383.974 598.022 392.715 611.686 392.715 611.686V619.046L392.844 619.175L393.249 619.545L393.581 619.822C396.901 622.448 410.971 631.046 454.934 633.413C507.029 636.205 541.734 619.397 541.734 619.397L539.116 612.204C539.116 612.204 541.55 610.115 541.734 609.061C541.9 608.007 539.816 605.547 539.816 605.547C539.816 605.547 545.054 602.755 545.054 599.242C545.054 595.747 534.561 584.894 534.911 575.593C535.261 566.311 543.302 558.082 544.353 552.831C545.404 547.58 530.725 534.618 530.725 534.618C543.302 494.678 545.754 441.074 545.754 441.074L548.188 438.263C548.188 438.263 563.218 472.6 576.845 489.408C578.468 491.405 580.183 493.384 581.953 495.288C585.752 499.412 589.791 503.276 593.682 506.66C603.123 514.907 611.698 520.325 613.874 519.899C617.378 519.197 631.356 491.516 630.711 463.133C630.416 449.635 622.302 434.528 613.874 422.417C612.971 421.123 612.067 419.847 611.145 418.608C605.17 410.454 599.435 404.056 596.688 401.134C595.618 399.988 595.01 399.378 595.01 399.378C595.01 399.378 596.927 393.183 598.237 387.803C598.255 387.673 598.292 387.544 598.329 387.414C598.329 387.359 598.347 387.285 598.366 387.229C598.384 387.137 598.403 387.1 598.403 387.1C599.177 383.79 599.657 380.924 599.214 380.221C598.052 378.354 591.284 376.246 590.123 374.859C588.961 373.454 584.074 349.86 580.349 347.29C576.772 344.831 570.483 343.037 549.516 334.772C548.484 334.365 547.432 333.958 546.326 333.514C522.814 324.177 499.745 312.842 499.745 312.842L490.893 301.932H486.947L488.238 304.706L488.293 304.798C487.666 307.609 486.947 310.309 486.135 312.879C486.117 312.953 486.098 313.027 486.062 313.082C473.891 351.58 442.578 363.987 442.578 363.987C420.818 347.881 421.242 322.309 421.242 322.309V318.796L417.167 320.016L414.382 326.673C414.382 326.673 409.662 334.032 390.963 342.279C387.736 343.703 384.269 345.496 380.691 347.549C363.578 357.293 344.547 372.363 343.09 375.562C342.943 375.895 342.777 376.412 342.593 377.152V377.171C340.583 385.084 336.452 414.725 332.616 425.301C330.219 431.903 326.439 435.545 323.654 437.431C323.636 437.45 323.636 437.45 323.617 437.45C321.552 438.874 320.04 439.317 320.04 439.317C319.745 440.944 319.468 442.553 319.21 444.143C311.188 494.844 326.439 529.255 329.868 531.659Z" fill="url(#paint14_linear_53_182)"/>
<path opacity="0.5" d="M530.559 435.952L545.754 441.074L548.188 438.263C548.188 438.263 563.218 472.6 576.845 489.408C578.468 491.405 580.183 493.384 581.953 495.288C585.752 499.412 589.791 503.276 593.682 506.66L605.262 456.606L611.145 418.608C605.17 410.454 599.435 404.056 596.687 401.134C595.618 399.988 595.009 399.378 595.009 399.378C595.009 399.378 596.927 393.183 598.236 387.803C598.255 387.673 598.292 387.544 598.329 387.414C598.329 387.359 598.347 387.285 598.366 387.229C598.384 387.137 598.402 387.1 598.402 387.1C599.177 383.79 599.656 380.924 599.214 380.222C598.052 378.354 591.284 376.246 590.123 374.859C588.961 373.454 584.074 349.86 580.349 347.29C580.349 347.29 582.783 369.941 569.856 398.675L563.568 407.551L545.164 422.38C545.164 422.38 538.175 431.681 530.559 435.952Z" fill="url(#paint15_linear_53_182)"/>
<path d="M574.522 476.927C577.786 501.205 613.874 519.899 613.874 519.899C621.915 519.899 630.895 505.883 639.046 488.595C647.197 471.306 647.695 421.64 648.119 418.571C648.561 415.501 653.098 409.363 653.374 406.737C653.633 404.111 646.035 398.675 646.035 398.675L646.09 398.546L646.146 398.416C646.939 396.715 651.401 387.118 651.088 385.362C650.737 383.439 642.199 379.241 642.199 379.241L641.665 388.69C641.665 388.69 621.785 384.918 615.055 369.478L613.874 364.745L610.555 366.964V387.285C610.555 387.285 609.873 390.447 608.822 390.447C607.77 390.447 600.025 386.564 598.403 387.1C596.761 387.636 595.157 398.509 592.981 399.895C590.823 401.301 585.051 405.332 584.185 407.255C583.797 408.124 583.761 411.249 583.724 414.928C583.668 419.44 583.632 424.765 582.968 427.761C581.732 433.178 571.258 452.631 574.522 476.927Z" fill="url(#paint16_linear_53_182)"/>
<path d="M244.451 456.125C246.074 458.695 254.224 464.076 256.327 466.184C258.429 468.274 256.327 475.189 256.327 475.189C290.571 511.634 326.272 529.884 329.868 531.659C330.071 531.752 330.163 531.807 330.163 531.807C351.665 517.311 349.821 493.439 342.685 473.321C335.862 454.017 324.17 438.171 323.654 437.487L323.635 437.468C323.635 437.468 323.635 437.468 323.617 437.45C323.23 437.302 317.089 434.75 312.7 434.417C311.243 434.306 309.915 434.88 308.662 435.675C306.043 437.302 303.83 439.872 301.691 438.8C298.538 437.209 291.493 420.512 286.717 420.05C283.379 419.736 278.751 423.138 275.671 425.08C274.325 425.93 273.274 426.503 272.757 426.355C271.006 425.893 265.068 418.756 264.588 418.571C264.127 418.367 261.416 420.364 261.416 420.364L263.316 422.731C260.402 439.558 250.85 450.874 250.85 450.874L244.451 441.481C244.451 441.481 242.81 453.555 244.451 456.125Z" fill="url(#paint17_linear_53_182)"/>
<path d="M421.353 320.368C421.39 320.608 421.427 320.848 421.446 321.089C421.538 321.588 421.648 322.069 421.796 322.568C421.796 322.568 421.796 322.586 421.814 322.605C424.009 330.759 432.879 339.099 444.072 335.086C456.299 330.704 479.571 281.278 479.571 281.278L477.229 270.72L421.999 315.837L421.39 320.109L421.353 320.368Z" fill="#CB4D7A"/>
<path d="M605.263 311.326C605.263 311.326 608.637 292.632 607.125 278.856C605.613 265.081 607.512 249.419 607.512 249.419C607.512 249.419 610.85 248.014 613.303 249.419C615.755 250.825 621.454 265.062 618.89 276.508C616.327 287.954 618.3 315.394 618.3 315.394H622.136L630.526 303.837L634.602 302.672C634.602 302.672 658.077 324.861 657.727 338.063L654.665 349.805L625.769 348.806L606.904 327.209L605.263 311.326Z" fill="#EE8183"/>
<path d="M634.62 302.672C634.62 302.672 634.012 317.391 630.729 330.001C630.729 330.001 631.283 335.16 637.313 335.511L638.806 333.847C638.806 333.847 639.858 339.709 645.187 340.152L650.258 335.068L648.949 339.265C648.949 339.265 650.774 343.74 655.588 343.555C655.588 343.555 663.628 337.249 664.144 329.021L656.196 322.272V317.113L646.754 310.457L646.588 306.684C646.552 306.703 641.019 302.598 634.62 302.672Z" fill="url(#paint18_linear_53_182)"/>
<path opacity="0.6" d="M606.794 274.899C606.794 274.899 608.214 278.505 610.224 279.91C612.234 281.315 618.061 282.388 618.061 282.388L618.319 315.412H622.155L630.545 303.855C630.545 303.855 626.285 310.457 626.027 315.412L629.347 317.039L632.223 307.147L633.588 314.266L632.223 323.123C632.223 323.123 627.244 318.833 618.245 318.666L616.899 321.126C616.899 321.126 633.182 334.642 636.926 342.612C636.926 342.612 628.886 332.368 610.537 321.07L608.785 315.634L606.462 302.672C606.499 302.672 608.693 283.997 606.794 274.899Z" fill="url(#paint19_linear_53_182)"/>
<path d="M593.147 332.46C594.659 337.009 610.5 355.925 612.252 360.03C614.003 364.116 615.055 369.479 615.055 369.479C622.837 386.36 641.665 388.69 641.665 388.69L642.531 373.454C642.531 373.454 652.655 367.611 654.37 364.412L654.389 364.357L654.591 363.82C655.108 360.843 654.665 349.805 654.665 349.805L636.944 342.612C629.254 332.627 610.555 321.07 610.555 321.07L609.688 315.837C623.113 309.218 620.863 289.192 618.595 286.733C616.327 284.292 612.141 284.292 612.141 284.292C612.141 284.292 607.236 300.398 604.101 307.942C600.947 315.468 591.635 327.912 593.147 332.46Z" fill="url(#paint20_linear_53_182)"/>
<path d="M646.551 306.703C646.551 306.703 644.578 325.101 638.769 333.847C638.769 333.847 646.127 324.676 646.717 310.457L646.551 306.703Z" fill="#E28183"/>
<path d="M656.159 317.132C656.159 317.132 654.241 331.943 645.15 340.171C645.15 340.171 653.19 336.14 656.159 322.309V317.132Z" fill="#E28183"/>
<path opacity="0.91" d="M609.799 356.11C609.799 356.11 629.77 375.562 642.531 373.454L641.665 388.69C641.665 388.69 620.697 386.86 613.874 364.745C613.874 364.745 611.422 358.384 609.799 356.11Z" fill="url(#paint21_linear_53_182)"/>
<path d="M187.432 382.551C187.432 382.551 205.781 416.186 227.264 426.522H234.603L251.551 452.279C251.551 452.279 262.504 445.382 263.316 422.731C263.316 422.731 259.48 418.719 258.54 414.189C258.54 414.189 264.588 409.418 266.229 405.923C267.852 402.41 268.442 391.908 269.604 387.581C270.766 383.254 280.668 374.268 282.881 373.103C285.094 371.938 295.108 371.346 295.108 371.346C295.108 371.346 296.509 367.722 295.108 365.984C293.706 364.227 278.105 358.144 269.604 363.987C269.604 363.987 269.014 368.425 268.092 370.773C267.151 373.103 259.701 381.386 258.54 381.386C257.378 381.386 252.362 377.189 250.149 373.916C248.028 370.773 236.761 346.421 234.032 338.192C234.013 338.1 233.995 338.026 233.958 337.952C233.921 337.823 233.866 337.693 233.847 337.582C233.811 337.49 233.792 337.416 233.774 337.342C233.755 337.305 233.737 337.286 233.737 337.249C231.635 330.131 219.408 316.466 212.88 312.731C212.88 312.731 210.096 312.028 208.584 315.523C208.584 315.523 213.821 330.482 219.298 339.357C220.22 340.855 221.215 342.612 222.248 344.498C222.248 344.498 222.248 344.498 222.267 344.498C226.932 353.096 232.188 364.357 232.944 366.002L233.036 366.206L230.122 367.703L222.248 360.215L214.171 352.541L195.638 372.16L197.464 374.489L203.254 381.941L200.322 382.477L193.499 374.915L187.432 382.551Z" fill="url(#paint22_linear_53_182)"/>
<path opacity="0.6" d="M191.729 389.707L197.593 398.342C197.593 398.342 229.772 373.454 236.761 371.346C243.75 369.238 246.313 370.643 246.313 370.643L253.524 379.87C253.524 379.87 240.246 391.667 239.085 407.551C239.085 407.551 243.51 387.47 258.54 381.386C257.378 381.386 252.362 377.189 250.149 373.916C248.028 370.773 236.761 346.421 234.032 338.193C234.401 339.598 234.88 342.334 233.737 344.498C232.151 347.438 222.82 344.664 222.267 344.498C222.248 344.498 222.248 344.498 222.248 344.498L232.944 366.002L233.036 366.206L230.122 367.703L222.248 360.215L226.194 369.405L197.464 374.489L203.254 381.941L200.322 382.477L191.729 389.707Z" fill="url(#paint23_linear_53_182)"/>
<path d="M214.171 352.541C214.171 352.541 208.584 351.727 204.969 358.957L205.781 361.287C205.781 361.287 200.341 362.36 195.067 371.217C195.067 371.217 199.732 379.741 211.258 383.587C211.258 383.587 216.624 382.071 217.546 377.522L216.495 374.6L220.681 377.762C220.681 377.762 225.697 379.278 227.91 371.808L214.171 352.541Z" fill="url(#paint24_linear_53_182)"/>
<path d="M185.754 380.222C185.754 380.222 184.592 374.841 190.291 371.346L201.355 383.605C201.355 383.605 201.023 387.544 196.228 388.394C196.228 388.394 188.668 385.824 185.754 380.222Z" fill="url(#paint25_linear_53_182)"/>
<path opacity="0.91" d="M266.229 405.923C266.229 405.923 253.413 420.272 234.604 426.522L242.718 438.837L259.628 417.295L258.54 414.189C258.54 414.189 265.307 409.085 266.229 405.923Z" fill="url(#paint26_linear_53_182)"/>
<path d="M205.781 361.306C205.781 361.306 211.147 370.181 216.495 374.619L217.546 377.54C217.546 377.54 207.145 370.495 203.328 362.378C203.31 362.378 204.564 361.472 205.781 361.306Z" fill="#E28183"/>
<path opacity="0.5" d="M244.451 456.125C246.074 458.695 254.225 464.076 256.327 466.184C258.429 468.274 256.327 475.189 256.327 475.189C290.572 511.634 326.273 529.884 329.869 531.659C330.072 531.752 330.164 531.807 330.164 531.807C332.967 532.158 346.595 528.312 360.222 500.983C372.578 476.225 376.118 459.694 376.69 456.809L376.764 456.366L373.758 452.279L369.295 401.837L366.16 411.988C354.284 397.621 343.091 375.562 343.091 375.562L342.593 377.152V377.171C340.583 385.084 336.452 414.725 332.617 425.301C330.219 431.903 326.439 435.545 323.654 437.431L323.636 437.468L323.654 437.487C334.59 447.49 340.011 461.876 342.685 473.321C345.138 483.824 345.304 491.868 345.304 491.868C345.304 491.868 342.279 477.63 332.727 460.508C329.26 454.276 324.208 448.711 319.21 444.143C315.448 440.704 311.705 437.82 308.662 435.675C306.043 437.302 303.831 439.872 301.691 438.8C316.075 460.452 315.725 503.313 302.208 495.14C288.709 486.968 285.611 469.623 285.611 469.623C288.801 448.489 287.842 424.654 285.279 420.124C282.163 420.235 273.256 426.503 272.739 426.355C273.551 451.225 261.896 467.83 261.896 467.83L254.206 455.903C265.4 436.988 264.57 418.571 264.57 418.571C264.109 418.368 261.398 420.364 261.398 420.364L263.298 422.731C260.384 439.558 250.832 450.874 250.832 450.874L244.433 441.481C244.451 441.481 242.81 453.555 244.451 456.125Z" fill="url(#paint27_linear_53_182)"/>
<path opacity="0.5" d="M392.714 611.686V619.046L392.844 619.175L393.249 619.545L393.581 619.822C396.901 622.448 410.971 631.046 454.934 633.413C507.029 636.205 541.734 619.397 541.734 619.397L539.116 612.204C539.116 612.204 541.55 610.115 541.734 609.061C541.9 608.007 539.816 605.548 539.816 605.548C539.816 605.548 545.054 602.755 545.054 599.242C545.054 596.08 536.497 586.928 535.114 578.329C534.948 577.405 534.874 576.499 534.911 575.593C535.262 566.348 543.228 558.156 544.334 552.905C544.353 552.849 544.353 552.831 544.353 552.831C545.404 547.58 530.725 534.618 530.725 534.618C543.302 494.678 545.754 441.074 545.754 441.074L548.188 438.263C548.188 438.263 563.218 472.6 576.845 489.408C590.473 506.235 610.389 520.602 613.874 519.899C621.915 519.899 630.895 505.883 639.046 488.595C647.197 471.306 647.695 421.64 648.119 418.571C648.561 415.501 653.098 409.363 653.375 406.737C644.634 421.807 630.711 417.369 630.711 417.369C640.798 417.591 646.035 398.675 646.035 398.675L646.09 398.546L646.146 398.416L651.069 385.38C650.516 386.009 638.991 398.934 627.853 390.965C616.438 382.792 610.555 366.964 610.555 366.964V387.285C610.555 387.285 609.873 390.447 608.822 390.447C609.504 399.803 611.477 411.193 613.874 422.417C619.056 446.695 626.156 470.141 626.156 470.141C626.156 470.141 606.904 459.638 600.136 433.012C596.909 420.272 596.374 409.196 596.688 401.134C596.964 394.237 597.868 389.522 598.237 387.803C598.255 387.673 598.292 387.544 598.329 387.414C598.329 387.359 598.347 387.285 598.366 387.229C598.366 387.192 598.384 387.155 598.384 387.137L596.522 391.094L592.981 399.895C588.869 434.066 597.351 485.562 597.351 485.562C584.996 470.141 582.433 436.045 582.968 427.761C583.207 423.804 583.521 418.922 583.724 414.928C584 410.565 584.185 407.255 584.185 407.255L558.903 422.38L563.568 407.551L545.164 422.38C545.164 422.38 528.623 442.35 511.62 444.68C494.618 447.028 432.196 445.623 432.196 445.623C432.196 445.623 486.467 449.117 502.308 453.795C518.149 458.474 521.173 463.836 521.173 463.836C509.721 522.248 446.34 541.94 444.367 542.532C501.865 533.878 528.623 484.86 528.623 484.86C528.623 484.86 529.563 512.429 525.138 522.932C520.712 533.434 494.618 559.136 461.074 564.499C458.253 564.942 455.468 565.22 452.721 565.349C424.433 566.68 401.013 552.184 398.616 550.631C398.486 550.538 398.413 550.501 398.413 550.501C398.413 550.501 398.431 550.538 398.468 550.594C399.372 551.98 410.971 568.326 457.81 570.12C460.65 570.231 463.416 570.212 466.109 570.101C466.127 570.101 466.146 570.101 466.146 570.101C509.555 568.271 531.666 539.277 531.666 539.277C531.666 539.277 547.727 547.931 537.474 560.763C537.364 560.893 537.253 561.041 537.142 561.17C534.118 564.665 527.461 568.936 519.587 573.337C519.366 573.466 519.144 573.596 518.941 573.707C509.426 578.977 498.269 584.413 489.639 588.906C489.584 588.925 489.547 588.943 489.51 588.962C484.236 591.717 479.902 594.083 477.487 595.859C477.468 595.859 477.468 595.877 477.468 595.877C475.034 597.652 474.536 598.798 476.915 599.076C489.031 600.481 534.911 590.441 536.774 593.233C538.636 596.043 534.505 603.273 534.505 603.273C492.387 624.205 402.267 613.887 399.427 613.572C474.85 632.932 536.552 608.414 536.552 608.414L534.505 615.662C534.505 615.662 500.906 627.329 461.314 628.272C421.703 629.197 397.011 619.046 397.011 619.046L392.714 611.686Z" fill="url(#paint28_linear_53_182)"/>
<path opacity="0.5" d="M423.566 445.382C423.566 445.382 393.563 447.009 373.739 452.279L383.955 467.83C383.974 467.83 399.353 454.258 423.566 445.382Z" fill="url(#paint29_linear_53_182)"/>
<path opacity="0.5" d="M395.536 528.294C395.536 528.294 414.253 543.955 432.657 551.185C451.061 558.434 468.764 559.118 468.764 559.118C468.764 559.118 458.179 562.28 432.159 558.064C406.121 553.866 397.214 539.721 397.214 539.721L395.536 528.294Z" fill="url(#paint30_linear_53_182)"/>
<path opacity="0.5" d="M387.146 588.592C421.777 597.578 465.74 584.709 465.371 583.137C465.002 581.565 453.329 583.84 426.258 578.403C400.017 573.134 390.502 563.777 389.93 563.204C390.152 564.794 393.766 568.289 394.799 572.098C395.499 574.631 390.594 582.619 387.146 588.592Z" fill="url(#paint31_linear_53_182)"/>
<path opacity="0.5" d="M481.212 450.097C510.791 453.111 518.757 461.377 518.757 461.377C527.074 462.431 545.755 441.074 545.755 441.074L548.189 438.263C548.189 438.263 563.218 472.6 576.846 489.408C578.468 491.405 580.183 493.384 581.954 495.288L580.017 490.925C580.017 490.925 576.846 489.408 575.924 472.711C574.983 456.033 582.913 431.145 582.968 427.761C583.023 424.377 584.185 407.255 584.185 407.255L558.903 422.38L563.568 407.551L545.164 422.38C545.164 422.38 537.954 433.253 519.753 442.313C502.585 450.874 483.333 450.19 481.212 450.097Z" fill="url(#paint32_linear_53_182)"/>
<path opacity="0.5" d="M548.188 438.263L530.559 435.952C530.559 435.952 523.515 440.63 509.371 446.399L521.154 463.836C521.154 463.836 516.47 488.687 503.046 502.684C503.046 502.684 538.673 482.844 543.689 466.166L548.188 438.263Z" fill="url(#paint33_linear_53_182)"/>
<path opacity="0.5" d="M651.07 385.38L646.036 398.675C646.036 398.675 640.909 416.611 630.711 417.369C620.514 418.127 610.556 387.285 610.556 387.285V366.964C610.556 366.964 621.399 390.262 633.109 392.888C644.8 395.532 651.07 385.38 651.07 385.38Z" fill="url(#paint34_linear_53_182)"/>
<path opacity="0.5" d="M590.123 374.859C590.123 374.859 581.031 393.072 569.856 398.675C569.856 398.675 583.152 366.317 580.349 347.29C580.349 347.29 585.236 350.341 590.123 374.859Z" fill="url(#paint35_linear_53_182)"/>
<path opacity="0.76" d="M369.295 401.837L366.16 411.988L362.988 495.288C362.988 495.288 371.047 479.442 376.689 456.809L373.757 452.279C373.757 452.279 368.815 420.882 369.295 401.837Z" fill="url(#paint36_linear_53_182)"/>
<path opacity="0.5" d="M272.758 426.355C272.758 426.355 274.528 467.275 257.194 470.807L256.327 475.189C256.327 475.189 278.769 474.357 272.758 426.355Z" fill="url(#paint37_linear_53_182)"/>
<path opacity="0.3" d="M301.691 438.8C301.691 438.8 302.355 440.26 308.662 435.675C308.662 435.675 330.477 451.17 338.886 473.007C338.886 473.007 325.443 452.945 318.288 450.782C311.133 448.618 309.4 456.625 309.4 456.625C309.4 456.625 306.56 445.327 301.691 438.8Z" fill="url(#paint38_linear_53_182)"/>
<path opacity="0.5" d="M653.375 406.737C653.375 406.737 644.984 422.251 629.254 417.388C629.254 417.388 638.677 423.748 648.119 418.571C648.119 418.571 653.983 408.494 653.375 406.737Z" fill="url(#paint39_linear_53_182)"/>
<path opacity="0.5" d="M598.403 387.1C598.403 387.1 586.859 430.368 616.973 462.874C616.973 462.874 597.425 452.815 592.981 429.517C588.555 406.201 598.403 387.1 598.403 387.1Z" fill="url(#paint40_linear_53_182)"/>
<path opacity="0.5" d="M391.608 352.523C391.608 352.523 392.899 372.049 402.249 386.065C411.58 400.08 430.094 409.529 430.094 409.529C430.094 409.529 406.859 400.949 396.2 388.857C385.541 376.782 391.608 352.523 391.608 352.523Z" fill="url(#paint41_linear_53_182)"/>
<path opacity="0.5" d="M510.459 323.141C510.459 323.141 510.459 339.468 505.222 356.11C499.985 372.751 454.491 401.837 454.491 401.837C454.491 401.837 501.386 382.311 510.459 364.745C519.55 347.179 510.459 323.141 510.459 323.141Z" fill="url(#paint42_linear_53_182)"/>
<path d="M510.994 400.912V427.502C510.994 427.502 449.936 427.003 381.466 431.551L379.898 407.606C379.898 407.625 439.425 400.543 510.994 400.912Z" fill="url(#paint43_linear_53_182)"/>
<path opacity="0.5" d="M414.383 326.673C415.821 343.869 421.04 355.851 426.609 363.931C434.28 375.026 442.578 378.816 442.578 378.816C450.877 375.192 458.069 370.68 464.265 365.706C490.561 344.627 499.044 315.412 499.689 313.008C488.588 339.894 472.287 356.184 459.931 365.355C449.973 372.77 442.578 375.562 442.578 375.562V366.964C444.552 366.224 446.469 365.374 448.295 364.449C470.055 353.447 481.488 330.519 486.836 315.689C486.855 315.652 486.855 315.634 486.873 315.597C489.768 307.572 490.893 301.932 490.893 301.932H486.947L488.238 304.706L488.293 304.798C487.666 307.609 486.947 310.309 486.135 312.879C486.117 312.953 486.099 313.027 486.062 313.082C473.891 351.58 442.578 363.987 442.578 363.987C420.818 347.881 421.243 322.309 421.243 322.309V318.796L417.167 320.016L414.383 326.673Z" fill="url(#paint44_linear_53_182)"/>
<path opacity="0.3" d="M285.297 420.124C285.297 420.124 291.217 439.502 285.629 469.623C285.629 469.623 282.826 431.44 280.742 428.112C278.64 424.784 272.776 426.355 272.776 426.355C272.776 426.355 281.996 421.234 285.297 420.124Z" fill="url(#paint45_linear_53_182)"/>
<path opacity="0.5" d="M342.685 525.465C347.848 520.935 354.044 513.372 360.222 500.983C372.577 476.225 376.118 459.694 376.689 456.809L373.757 452.279L369.829 414.189L366.16 411.988C366.16 411.988 353.048 397.473 343.09 375.562C342.943 375.895 342.777 376.412 342.593 377.152V377.171C340.583 385.084 336.452 414.725 332.616 425.301C330.219 431.903 326.438 435.545 323.654 437.431C323.654 437.431 346.354 471.195 347.461 495.288C348.438 517.218 343.57 524.355 342.685 525.465Z" fill="url(#paint46_linear_53_182)"/>
<path opacity="0.5" d="M477.468 595.877C477.468 595.877 518.388 589.146 535.096 578.348C535.096 578.348 535.114 578.348 535.114 578.329C534.948 577.405 534.874 576.499 534.911 575.593C535.262 566.348 543.228 558.156 544.334 552.905C544.15 553.404 542.951 556.178 537.143 561.17C533.473 564.332 527.922 568.4 519.587 573.337C519.366 573.466 519.144 573.596 518.942 573.707C507.139 580.696 496.979 585.43 489.639 588.906C489.584 588.925 489.547 588.943 489.51 588.961C482.908 592.068 478.63 594.12 477.487 595.859C477.468 595.859 477.468 595.877 477.468 595.877Z" fill="url(#paint47_linear_53_182)"/>
<path opacity="0.5" d="M389.93 563.204C390.151 564.794 393.766 568.289 394.798 572.098C394.798 572.098 409.809 588.037 465.371 583.137C465.002 581.565 453.329 583.84 426.258 578.403C400.017 573.134 390.502 563.777 389.93 563.204Z" fill="url(#paint48_linear_53_182)"/>
<path d="M407.744 315.061C407.744 315.061 424.304 318.796 442.578 309.92C460.853 301.045 476.214 274.881 477.155 268.354C478.077 261.808 470.166 244.76 470.166 231.446C470.166 218.133 476.675 195.242 465.74 182.853C454.786 170.483 404.48 168.615 388.16 184.499C388.16 184.499 383.107 197.22 383.107 204.413C383.107 206.151 383.42 208.703 383.881 211.643C384.029 212.734 384.232 213.899 384.416 215.101C385.873 223.81 387.883 234.442 386.943 239.101C386.611 240.729 386.094 242.226 385.486 243.65V243.669C383.476 248.328 380.488 252.045 379.954 256.076C379.253 261.346 386.297 298.715 407.744 315.061Z" fill="url(#paint49_linear_53_182)"/>
<path d="M470.295 227.693C470.295 227.693 474.813 216.321 486.173 216.155C486.173 216.155 492.811 218.78 493.862 223.865C493.862 223.865 491.41 242.263 488.625 250.843C485.822 259.423 475.588 258.184 475.588 258.184C475.588 258.184 466.662 244.482 470.295 227.693Z" fill="url(#paint50_linear_53_182)"/>
<path d="M426.664 265.136C426.664 265.136 422.884 264.84 421.261 266.061C419.638 267.281 413.682 273.069 406.176 274.64C398.671 276.212 393.618 269.796 392.032 269.482C390.428 269.149 388.676 271.423 388.676 271.423C388.676 271.423 389.358 268.797 393.286 267.614C393.286 267.614 394.872 273.66 405.752 271.589C416.632 269.518 421.279 264.674 421.279 264.674L421.833 263.675C421.796 263.675 424.875 264.323 426.664 265.136Z" fill="url(#paint51_linear_53_182)"/>
<path d="M443.685 209.979C443.685 209.979 442.634 203.1 431.053 200.345C418.145 197.276 407.652 194.687 407.652 194.687C407.652 194.687 409.938 202.231 414.235 205.06C414.235 205.06 427.9 204.561 434.797 206.133C441.73 207.723 443.685 209.979 443.685 209.979Z" fill="#38368E"/>
<path d="M383.882 200.752C383.882 200.752 390.428 205.818 394.891 217.911C394.891 217.911 390.613 212.309 386.685 212.401C383.993 212.457 384.417 215.138 384.417 215.138C384.417 215.138 381.743 207.889 383.882 200.752Z" fill="#38368E"/>
<path d="M439.352 229.449C439.352 229.449 438.651 214.916 424.507 211.236C424.507 211.236 419.436 217.8 418.919 225.252C418.919 225.252 426.425 223.847 439.352 229.449Z" fill="url(#paint52_linear_53_182)"/>
<path d="M398.819 235.237C398.819 235.237 397.676 223.662 391.037 219.391C391.037 219.391 386.519 222.793 386.98 232.482C386.998 232.463 390.963 231.04 398.819 235.237Z" fill="url(#paint53_linear_53_182)"/>
<path d="M439.352 229.449C439.352 229.449 434.76 235.108 421.888 236.217C421.888 236.217 419.436 232.482 419.675 225.141C419.675 225.16 431.496 224.032 439.352 229.449Z" fill="#FFEBED"/>
<path d="M398.819 235.237V236.938C398.819 236.938 396.846 241.08 389.728 241.783C389.728 241.783 387.441 238.214 387.238 232.408C387.256 232.408 391.774 231.262 398.819 235.237Z" fill="#FFEBED"/>
<path d="M425.595 224.864C425.595 224.864 428.859 228.839 428.564 235.126C428.564 235.126 424.285 236.143 421.888 236.235C421.888 236.235 419.067 232.297 419.675 225.16C419.675 225.16 423.419 224.365 425.595 224.864Z" fill="#7F9EC9"/>
<path d="M392.088 232.593C392.088 232.593 393.932 234.571 394.282 240.655C394.282 240.655 391.756 241.764 389.746 241.764C389.746 241.764 387.164 238.085 387.256 232.389C387.256 232.408 389.064 231.705 392.088 232.593Z" fill="#7F9EC9"/>
<path d="M426.664 235.551C426.664 235.551 427.826 227.693 423.345 224.697L419.675 225.16C419.675 225.16 418.458 231.372 421.888 236.235C421.888 236.235 425.539 235.81 426.664 235.551Z" fill="#38368E"/>
<path d="M390.465 232.26C390.465 232.26 392.125 235.755 392.899 241.191C392.899 241.191 391.627 241.709 389.746 241.783C389.746 241.783 387.238 238.695 387.257 232.408C387.257 232.408 389.174 231.89 390.465 232.26Z" fill="#38368E"/>
<path d="M439.352 229.449C439.352 229.449 430.795 224.457 416.208 227.305L418.919 225.252C418.919 225.252 429.32 222.016 439.352 229.449Z" fill="#131163"/>
<path d="M398.819 235.237C398.819 235.237 391.959 231.576 383.956 233.517L387.257 231.077C387.257 231.077 392.623 230.245 398.819 235.237Z" fill="#131163"/>
<path d="M430.094 229.449C430.094 229.449 427.771 228.932 425.668 231.058C425.668 231.077 428.545 231.909 430.094 229.449Z" fill="white"/>
<path d="M395.684 236.235C395.684 236.235 392.032 235.533 390.778 237.197C390.76 237.197 392.715 238.528 395.684 236.235Z" fill="white"/>
<path d="M438.503 230.3C438.503 230.3 431.846 236.901 421.188 238.473L420.911 234.59L421.888 236.235C421.888 236.235 432.123 235.625 438.503 230.3Z" fill="#C6659C"/>
<path d="M398.819 236.938C398.819 236.938 397.639 241.209 388.971 243.132L389.248 241.043L389.728 241.783C389.746 241.783 395.905 240.988 398.819 236.938Z" fill="#C6659C"/>
<path d="M416.208 253.986C416.208 253.986 412.981 253.284 407.043 253.986C401.106 254.689 394.43 256.316 390.779 253.986C390.779 253.986 395.629 258.849 399.833 259.589C404.038 260.329 410.437 256.631 410.437 256.631L413.24 256.686C413.203 256.686 415.36 255.614 416.208 253.986Z" fill="#CB5F7D"/>
<path d="M412.797 256.668C412.797 256.668 411.34 255.725 410.123 255.965C408.906 256.205 407.652 257.98 407.652 257.98C407.652 257.98 410.234 256.612 412.797 256.668Z" fill="#9F4A8B"/>
<path d="M390.76 253.986C389.211 252.47 397.251 238.121 401.087 237.585C404.923 237.049 408.537 253.672 408.537 253.672C408.537 253.672 403.189 254.43 398.007 255.114C392.844 255.817 390.76 253.986 390.76 253.986Z" fill="#FFBCAF"/>
<path d="M385.376 270.443C387.828 265.303 386.316 262.621 407.615 259.829C437.766 255.854 440.347 265.081 445.474 263.675C445.658 263.62 445.88 263.546 446.082 263.454C451.633 261.29 464.708 248.402 465.04 231.04C465.39 212.993 453.33 200.197 453.33 200.197C457.7 196.518 459.452 185.849 454.731 181.282C450.01 176.733 441.97 177.787 422.239 179.876C402.489 181.984 402.489 180.764 402.489 180.764C396.219 182.372 392.623 188.271 391.608 190.157C391.406 190.527 391.313 190.749 391.313 190.749L388.861 188.474C382.222 198.108 383.439 208.611 383.439 208.611C383.439 208.611 372.615 186.533 373.85 183.408C376.1 177.639 382.351 169.226 382.738 168.689L382.757 168.671C382.757 168.671 384.509 151.863 389.746 151.863C394.983 151.863 417.352 156.929 417.352 156.929C414.899 151.16 415.25 144.504 415.25 144.504C415.25 144.504 415.286 144.541 415.342 144.596C422.644 151.16 429.781 151.882 439.886 156.578C444.976 158.963 447.373 161.164 449.347 163.457L450.029 164.27L450.748 165.139C451.449 166.027 452.168 166.933 453.035 167.857C453.072 167.913 453.127 167.95 453.145 167.968C453.182 168.005 453.201 168.024 453.201 168.024C454.012 168.911 454.971 169.817 456.133 170.779C462.771 176.197 477.376 179.821 479.128 185.553C480.88 191.266 476.915 199.088 474.813 207.15C472.729 215.212 473.688 222.331 473.688 222.331C473.688 222.331 466.736 231.317 469.041 244.464C471.088 256.242 475.569 258.165 475.569 258.165C478.723 264.655 477.229 270.72 477.229 270.72C470.775 296.459 444.072 311.788 444.072 311.788C420.321 320.663 404.701 316.799 404.701 316.799C404.701 316.799 404.701 316.799 404.683 316.78C387.404 305.483 381.485 268.095 381.226 266.357C381.521 266.819 384.73 271.811 385.376 270.443ZM396.034 294.277C400.22 293.575 401.105 282.943 402.489 281.537C403.89 280.151 411.469 280.724 411.469 280.724C411.469 280.724 418.458 288.675 421.243 288.897C424.046 289.137 438.946 283.054 435.719 273.956C432.51 264.84 421.243 263.675 421.243 263.675C421.243 263.675 415.416 268.575 406.693 269.149C397.952 269.722 394.799 268.113 393.766 267.651C392.715 267.17 387.09 269.74 387.238 277.691C387.33 283.22 391.83 294.98 396.034 294.277Z" fill="url(#paint54_linear_53_182)"/>
<path d="M397.122 240.766C397.122 240.766 389.598 250.14 390.318 253.672C391.11 257.537 399.833 259.589 399.833 259.589C399.833 259.589 392.844 257.167 391.406 253.672C391.387 253.672 393.194 246.572 397.122 240.766Z" fill="#D2726C"/>
<path opacity="0.6" d="M383.439 208.611C383.439 208.611 382.222 198.108 388.861 188.474C383.531 178.933 382.757 168.671 382.757 168.671L382.738 168.689C380.931 173.146 379.899 181.818 379.899 181.818L373.85 183.408C372.614 186.533 383.439 208.611 383.439 208.611Z" fill="url(#paint55_linear_53_182)"/>
<path opacity="0.5" d="M444.072 311.788C444.072 311.788 435.35 309.717 422.183 310.253C409.016 310.789 401.437 310.845 404.701 316.799C404.701 316.799 421.243 320.552 444.072 311.788Z" fill="url(#paint56_linear_53_182)"/>
<path d="M398.302 156.06C398.302 156.06 390.299 152.935 387.127 153.435C387.127 153.435 388.381 151.752 389.69 151.401C391 151.049 417.352 156.911 417.352 156.911C417.352 156.911 400.921 155.006 398.302 156.06Z" fill="url(#paint57_linear_53_182)"/>
<path d="M382.757 168.671C382.757 168.671 380.101 177.269 379.899 181.818L373.85 183.408C373.85 183.408 375.694 176.899 382.757 168.671Z" fill="url(#paint58_linear_53_182)"/>
<path d="M593.147 332.46C593.147 332.46 601.703 330.63 605.263 323.141C608.822 315.652 606.498 304.798 606.498 304.798C606.498 304.798 599.786 317.705 596.448 322.106C593.11 326.506 592.206 331.517 593.147 332.46Z" fill="#FFBCAF"/>
<path opacity="0.6" d="M328.873 293.297L322.935 463.041C322.695 469.771 317.181 475.115 310.469 475.115H18.8653C12.0975 475.115 6.56528 469.697 6.39932 462.911L2.32397 291.189C2.15802 284.126 7.83777 278.338 14.8821 278.375L316.499 280.354C323.525 280.391 329.131 286.252 328.873 293.297Z" fill="#36D1F7"/>
<path opacity="0.6" d="M328.449 301.932H2.67462L2.1582 292.983C1.6972 285.069 8.00397 278.412 15.915 278.468L317.421 280.853C323.71 280.909 328.762 286.104 328.633 292.41L328.449 301.932Z" fill="url(#paint59_linear_53_182)"/>
<path opacity="0.3" d="M312.055 315.634V413.856H212.346V315.116L312.055 315.634Z" fill="url(#paint60_linear_53_182)"/>
<path opacity="0.3" d="M72.6019 322.217H115.975V365.706H72.6019V322.217Z" fill="url(#paint61_linear_53_182)"/>
<path opacity="0.3" d="M21.4287 322.217H64.8013V365.706H21.4287V322.217Z" fill="url(#paint62_linear_53_182)"/>
<path opacity="0.3" d="M124.642 322.217H168.014V365.706H124.642V322.217Z" fill="url(#paint63_linear_53_182)"/>
<path d="M21.4285 391.076H132.35V401.486H21.4285V391.076Z" fill="#D1D4FB"/>
<path d="M21.4102 406.922H160.084V410.139H21.4102V406.922Z" fill="#D1D4FB"/>
<path d="M132.239 371.254H158.775V374.471H132.239V371.254Z" fill="#D1D4FB"/>
<path d="M81.0106 371.254H107.547V374.471H81.0106V371.254Z" fill="#D1D4FB"/>
<path d="M29.8378 371.254H56.374V374.471H29.8378V371.254Z" fill="#D1D4FB"/>
<path d="M123.406 412.173H168.014V415.391H123.406V412.173Z" fill="#D1D4FB"/>
<path d="M21.4102 417.351H160.084V420.568H21.4102V417.351Z" fill="#D1D4FB"/>
<path d="M21.4287 422.528H168.014V425.745H21.4287V422.528Z" fill="#D1D4FB"/>
<path d="M21.4287 427.705H168.014V430.923H21.4287V427.705Z" fill="#D1D4FB"/>
<path d="M21.4102 448.637H160.084V451.854H21.4102V448.637Z" fill="#D1D4FB"/>
<path d="M21.4287 453.814H168.014V457.031H21.4287V453.814Z" fill="#D1D4FB"/>
<path d="M21.4287 458.991H168.014V462.209H21.4287V458.991Z" fill="#D1D4FB"/>
<path d="M27.3113 432.883H168.014V436.1H27.3113V432.883Z" fill="#D1D4FB"/>
<path d="M21.4102 438.06H160.084V441.277H21.4102V438.06Z" fill="#D1D4FB"/>
<path d="M49.2373 443.237H168.014V446.455H49.2373V443.237Z" fill="#D1D4FB"/>
<path d="M284.117 394.163C299.755 394.163 312.479 381.405 312.479 365.725C312.479 350.045 299.755 337.286 284.117 337.286C268.479 337.286 255.755 350.045 255.755 365.725C255.755 381.405 268.479 394.163 284.117 394.163ZM284.117 339.117C298.741 339.117 310.635 351.043 310.635 365.706C310.635 380.369 298.741 392.296 284.117 392.296C269.494 392.296 257.599 380.369 257.599 365.706C257.599 351.043 269.494 339.117 284.117 339.117Z" fill="#E0FFFF"/>
<path d="M284.117 381.165C275.603 381.165 268.7 374.244 268.7 365.706C268.7 357.169 275.603 350.248 284.117 350.248C292.631 350.248 299.533 357.169 299.533 365.706C299.533 374.244 292.631 381.165 284.117 381.165Z" fill="white"/>
<path d="M212.346 343.555C227.983 343.555 240.708 330.796 240.708 315.116C240.708 299.436 227.983 286.678 212.346 286.678C196.708 286.678 183.984 299.436 183.984 315.116C183.965 330.796 196.708 343.555 212.346 343.555ZM212.346 288.508C226.969 288.508 238.863 300.435 238.863 315.098C238.863 329.761 226.969 341.687 212.346 341.687C197.722 341.687 185.828 329.761 185.828 315.098C185.809 300.453 197.722 288.508 212.346 288.508Z" fill="#E0FFFF"/>
<path d="M198.047 317.4C196.801 309.461 202.21 302.013 210.127 300.764C218.045 299.515 225.473 304.938 226.718 312.877C227.964 320.816 222.555 328.264 214.638 329.513C206.72 330.762 199.292 325.339 198.047 317.4Z" fill="white"/>
<path d="M317.034 288.601L314.95 285.457L303.738 295.294L305.472 297.698L317.034 288.601Z" fill="white"/>
<path d="M303.461 288.601L305.527 285.457L316.739 295.294L315.024 297.698L303.461 288.601Z" fill="white"/>
<path d="M10.5485 287.584H110.94V292.632H10.5485V287.584Z" fill="white"/>
<path d="M639.249 214.712V258.406L587.136 258.849L586.435 213.326L639.249 214.712Z" fill="url(#paint64_linear_53_182)"/>
<path d="M586.435 213.326L583.042 219.058L584.738 258.794L587.136 258.849L586.435 213.326Z" fill="url(#paint65_linear_53_182)"/>
<path d="M629.937 229.468L625.123 222.46L599.122 244.353L603.105 249.697L629.937 229.468Z" fill="white"/>
<path d="M598.44 229.468L603.253 222.46L629.272 244.353L625.289 249.697L598.44 229.468Z" fill="white"/>
<path opacity="0.81" d="M517.688 728.861H695.991C703.921 728.861 710.412 722.5 710.596 714.55L713.934 567.901C714.119 559.691 707.535 552.923 699.329 552.923H513.686C505.462 552.923 498.86 559.728 499.081 567.975L503.101 714.624C503.304 722.556 509.777 728.861 517.688 728.861Z" fill="url(#paint66_linear_53_182)"/>
<path d="M572.088 582.934H665.859V586.965H572.088V582.934Z" fill="white"/>
<path d="M618.983 592.715H665.859V596.746H618.983V592.715Z" fill="white"/>
<path d="M618.983 600.906H665.859V604.937H618.983V600.906Z" fill="white"/>
<path d="M576.403 600.906H613.708V604.937H576.403V600.906Z" fill="white"/>
<path d="M590.27 609.079H665.859V613.11H590.27V609.079Z" fill="white"/>
<path d="M638.954 617.252H665.859V621.283H638.954V617.252Z" fill="white"/>
<path d="M586.896 641.771H633.422V645.801H586.896V641.771Z" fill="white"/>
<path d="M581.529 625.425H665.859V629.456H581.529V625.425Z" fill="white"/>
<path d="M600.984 633.598H665.859V637.629H600.984V633.598Z" fill="white"/>
<path d="M635.339 641.771H665.859V645.801H635.339V641.771Z" fill="white"/>
<path d="M618.983 649.943H665.859V653.974H618.983V649.943Z" fill="white"/>
<path d="M652.416 658.116H665.859V662.147H652.416V658.116Z" fill="white"/>
<path d="M598.071 658.116H646.865V662.147H598.071V658.116Z" fill="white"/>
<path d="M586.896 666.049H633.422V670.08H586.896V666.049Z" fill="white"/>
<path d="M635.339 666.049H665.859V670.08H635.339V666.049Z" fill="white"/>
<path d="M618.983 674.221H665.859V678.252H618.983V674.221Z" fill="white"/>
<path d="M652.416 682.394H665.859V686.425H652.416V682.394Z" fill="white"/>
<path d="M598.071 682.394H646.865V686.425H598.071V682.394Z" fill="white"/>
<path d="M39.2424 245.629C39.2424 250.196 42.9306 253.894 47.4855 253.894C52.0404 253.894 55.7285 250.196 55.7285 245.629C55.7285 241.062 52.0404 237.363 47.4855 237.363C42.9306 237.363 39.2424 241.062 39.2424 245.629Z" fill="url(#paint67_linear_53_182)"/>
<path d="M811.725 437.265C811.725 442.941 816.317 447.546 821.978 447.546C827.64 447.546 832.231 442.941 832.231 437.265C832.231 431.588 827.64 426.984 821.978 426.984C816.317 426.984 811.725 431.588 811.725 437.265Z" fill="url(#paint68_linear_53_182)"/>
<path d="M23.2912 253.894C18.7387 253.894 15.0482 250.193 15.0482 245.629C15.0482 241.064 18.7387 237.363 23.2912 237.363C27.8437 237.363 31.5342 241.064 31.5342 245.629C31.5342 250.193 27.8437 253.894 23.2912 253.894Z" fill="url(#paint69_linear_53_182)"/>
<path d="M554.698 308.293C551.48 308.293 548.871 305.677 548.871 302.45C548.871 299.223 551.48 296.607 554.698 296.607C557.916 296.607 560.525 299.223 560.525 302.45C560.525 305.677 557.916 308.293 554.698 308.293Z" fill="url(#paint70_linear_53_182)"/>
<path d="M164.381 566.107C161.163 566.107 158.554 563.491 158.554 560.264C158.554 557.037 161.163 554.421 164.381 554.421C167.6 554.421 170.208 557.037 170.208 560.264C170.208 563.491 167.6 566.107 164.381 566.107Z" fill="url(#paint71_linear_53_182)"/>
<path d="M770.196 623.742C767.324 623.742 764.996 621.408 764.996 618.528C764.996 615.648 767.324 613.314 770.196 613.314C773.068 613.314 775.396 615.648 775.396 618.528C775.396 621.408 773.068 623.742 770.196 623.742Z" fill="url(#paint72_linear_53_182)"/>
<path opacity="0.73" d="M681.239 567.296H771.23C778.477 567.296 784.415 561.545 784.655 554.278L786.646 494.923C786.905 487.305 780.819 481 773.222 481H679.432C671.853 481 665.767 487.287 666.007 494.886L667.814 554.241C668.035 561.508 673.973 567.296 681.239 567.296Z" fill="url(#paint73_linear_53_182)"/>
<path d="M747.404 502.278L769.588 528.072L746.98 547.302V537.373L760.055 526.02L747.921 512.263L747.404 502.278Z" fill="white"/>
<path d="M708.402 503.443L686.199 529.218L708.807 548.449V538.538L695.733 527.184L710.283 511.745L708.402 503.443Z" fill="white"/>
<path d="M742.554 547.302L723.228 504.589H714.137L736.045 547.302H742.554Z" fill="white"/>
<path opacity="0.73" d="M75.9392 689.365H188.52C197.574 689.365 205.006 682.172 205.32 673.094L207.828 598.854C208.141 589.331 200.543 581.436 191.028 581.436H73.6895C64.2109 581.436 56.6133 589.294 56.89 598.798L59.1581 673.038C59.4163 682.135 66.8479 689.365 75.9392 689.365Z" fill="url(#paint74_linear_53_182)"/>
<path d="M82.1355 593.381H185.238V654.788H82.1355V593.381Z" fill="#D1D4FB"/>
<path d="M142.824 608.617V639.552L116.472 622.67L142.824 608.617Z" fill="white"/>
<path d="M82.1355 666.104H185.238V671.725H82.1355V666.104Z" fill="#D1D4FB"/>
<path d="M158.554 666.104H185.238V671.725H158.554V666.104Z" fill="white"/>
<path fill-rule="evenodd" clip-rule="evenodd" d="M260.789 573.984L266.174 589.424C263.187 580.881 258.909 575.352 260.789 573.984ZM266.156 589.405L271.54 604.845C270.194 604.438 269.143 597.948 266.156 589.405ZM260.789 573.984L266.174 589.424C263.187 580.881 258.909 575.352 260.789 573.984ZM266.156 589.405L271.54 604.845C270.194 604.438 269.143 597.948 266.156 589.405ZM250.629 602.792L245.41 605.769L239.767 590.33L245.816 589.313C245.705 588.74 245.594 588.166 245.521 587.593C245.078 584.949 244.93 582.36 245.004 579.901L238.679 575.926L241.556 562.317L247.623 568.123C248.471 566.385 249.504 564.868 250.721 563.592C251.053 563.223 251.403 562.89 251.772 562.575L248.065 553.996L257.931 550.779L260.292 559.432C262.504 559.432 264.736 559.987 266.967 561.004L268.055 552.831L278.917 561.078L276.409 568.326C278.364 570.563 280.152 573.152 281.701 576.055L286.938 573.097L292.581 588.536L286.533 589.553C287.178 592.808 287.418 595.969 287.326 598.965L293.651 602.94L290.774 616.549L284.707 610.743C283.619 612.962 282.236 614.848 280.558 616.291L284.265 624.889L274.565 628.679L273.071 623.206L272.057 619.471C269.844 619.471 267.594 618.916 265.363 617.918L264.293 626.091L253.432 617.844L255.94 610.595C254.409 608.839 252.971 606.86 251.661 604.678C251.292 604.013 250.961 603.403 250.629 602.792ZM266.156 589.405C269.143 597.929 266.156 606.731 271.54 604.845C276.944 602.94 278.917 594.49 275.929 585.985C272.942 577.46 266.156 572.098 260.771 573.984C255.368 575.87 263.187 580.881 266.156 589.405ZM260.789 573.984L266.174 589.424C263.187 580.881 258.909 575.352 260.789 573.984ZM266.156 589.405L271.54 604.845C270.194 604.438 269.143 597.948 266.156 589.405Z" fill="url(#paint75_linear_53_182)"/>
<path fill-rule="evenodd" clip-rule="evenodd" d="M245.391 605.751L239.748 590.311L245.502 587.575L246.424 587.131L245.815 578.625L239.435 575.5L241.537 562.298L255.46 557.749L252.897 563.87L248.047 553.959L257.913 550.741L261.969 549.41L271.688 545.62L273.495 552.276L281.959 548.245L292.821 556.492L289.52 565.405L299.681 593.621L304.697 611.945L295.052 612.999L298.187 620.266L288.469 624.057L274.565 628.605L276.796 624.131L278.197 621.449L273.052 623.132L264.275 625.998L253.413 617.751L260.125 609.819L251.643 604.586L245.391 605.751ZM275.948 585.985C272.96 577.46 266.174 572.098 260.789 573.984L266.174 589.424L271.559 604.863C276.962 602.94 278.935 594.49 275.948 585.985Z" fill="url(#paint76_linear_53_182)"/>
<path fill-rule="evenodd" clip-rule="evenodd" d="M259.314 601.201L253.671 585.761L259.72 584.744C259.074 581.49 258.835 578.328 258.908 575.351L252.583 571.375L255.46 557.766L261.527 563.572C262.597 561.353 263.998 559.467 265.676 558.025L261.97 549.446L271.688 545.655L274.196 554.882C276.409 554.9 278.659 555.436 280.871 556.435L281.941 548.262L292.803 556.49L290.295 563.739C292.249 565.976 294.038 568.583 295.587 571.486L300.824 568.528L306.467 583.967L300.419 584.984C301.064 588.239 301.304 591.401 301.23 594.378L307.555 598.353L304.678 611.962L298.611 606.156C297.542 608.375 296.14 610.261 294.462 611.703L298.169 620.283L288.451 624.073L285.943 614.847C283.73 614.828 281.48 614.292 279.267 613.293L278.197 621.466L267.336 613.238L269.844 605.99C267.889 603.752 266.1 601.145 264.551 598.242L259.314 601.201ZM285.482 600.295C290.885 598.39 292.839 589.958 289.871 581.434C286.902 572.91 280.097 567.548 274.694 569.434C269.291 571.338 267.336 579.77 270.305 588.294C273.274 596.818 280.078 602.181 285.482 600.295Z" fill="url(#paint77_linear_53_182)"/>
<path opacity="0.5" fill-rule="evenodd" clip-rule="evenodd" d="M238.679 575.907L252.584 571.377L258.909 575.353L245.004 579.883L238.679 575.907Z" fill="#601734"/>
<path fill-rule="evenodd" clip-rule="evenodd" d="M253.413 617.77L267.336 613.221L269.844 605.991L255.921 610.54L253.413 617.77Z" fill="#B3D9FF"/>
<path opacity="0.5" fill-rule="evenodd" clip-rule="evenodd" d="M265.694 558.027L258.06 560.246L255.478 557.768L250.407 559.414L248.065 553.977L261.969 549.447L265.694 558.027Z" fill="#601734"/>
<path opacity="0.5" fill-rule="evenodd" clip-rule="evenodd" d="M285.961 614.867L278.677 617.899L279.285 613.295C279.267 613.295 283.195 615.384 285.961 614.867Z" fill="#601734"/>
<path opacity="0.5" fill-rule="evenodd" clip-rule="evenodd" d="M284.836 573.023L272.573 579.531C272.573 579.531 270.803 577.146 269.42 576.185C269.402 576.185 272.61 562.612 284.836 573.023Z" fill="#601734"/>
<path d="M566.518 112.718L554.698 136.479L562.59 140.085L573.655 118.266L566.518 112.718Z" fill="#FF1D9C"/>
<path d="M832.895 666.215L821.941 678.271L817.645 673.297L827.99 661.888L832.895 666.215Z" fill="#6877FF"/>
<path d="M276.409 257.703L287.436 264.415L291.844 256.002L279.783 248.957L276.409 257.703Z" fill="#4F31E0"/>
<path d="M222.101 682.45L237.904 693.711L242.33 685.316L226.987 676.33L222.101 682.45Z" fill="#4F31E0"/>
<path fill-rule="evenodd" clip-rule="evenodd" d="M242.976 200.253L245.649 138.014H164.381L167.719 200.068L242.976 200.253Z" fill="url(#paint78_linear_53_182)"/>
<path fill-rule="evenodd" clip-rule="evenodd" d="M245.649 138.014L248.083 141.675L245.649 200.253H242.975L245.649 138.014Z" fill="url(#paint79_linear_53_182)"/>
<path d="M218.67 150.439L231.413 149.071L229.68 191.71L218.67 190.638V186.218L225.051 186.366L225.77 153.49L218.67 153.694V150.439Z" fill="white"/>
<path d="M192.54 150.439L179.798 149.071L181.549 191.71L192.54 190.638V186.218L186.178 186.366L185.44 153.49L192.54 153.694V150.439Z" fill="white"/>
<path d="M335.88 205.855L349.452 170.224L314.249 177.602L335.88 205.855ZM347.995 171.481L335.603 203.988L315.872 178.212L347.995 171.481Z" fill="#744CA2"/>
<path d="M227.407 694.158L239.334 710.473L238.591 711.019L226.664 694.705L227.407 694.158Z" fill="#744CA2"/>
<path d="M350.522 560.56L363.338 544.566L362.619 543.992L349.803 559.987L350.522 560.56Z" fill="#744CA2"/>
<path d="M745.763 672.835L771.34 654.233L770.805 653.494L745.228 672.095L745.763 672.835Z" fill="#744CA2"/>
<path d="M749.068 650.307L768.211 675.504L767.478 676.064L748.335 650.867L749.068 650.307Z" fill="#744CA2"/>
<path d="M803.176 390.539L803.605 391.357L787.053 400.078L786.624 399.259L803.176 390.539Z" fill="#744CA2"/>
<path d="M151.122 176.345L151.804 175.734L132.681 153.86L131.999 154.47L151.122 176.345Z" fill="#744CA2"/>
<path d="M522.65 229.247L523.476 229.659L514.925 246.893L514.1 246.481L522.65 229.247Z" fill="#744CA2"/>
<path d="M636.783 519.217L658.763 537.653L658.171 538.362L636.191 519.926L636.783 519.217Z" fill="#744CA2"/>
<path d="M382.492 408.735L382.474 407.767L389.075 407.646C394.904 408.429 395.306 416.709 389.581 418.054L389.268 418.128L384.317 418.219L384.32 418.38L395.127 427.538L393.385 427.57L382.67 418.41L382.649 417.282L388.746 417.169L389.038 417.103C393.762 416.033 393.398 409.187 388.588 408.622L382.492 408.735Z" fill="white" stroke="white"/>
<rect x="399.326" y="426.493" width="12.2865" height="0.967739" transform="rotate(-1.05423 399.326 426.493)" fill="white"/>
<rect x="398.978" y="407.463" width="12.2865" height="0.967742" transform="rotate(-1.05423 398.978 407.463)" fill="white"/>
<rect x="399.151" y="416.978" width="10.8195" height="0.967742" transform="rotate(-1.05423 399.151 416.978)" fill="white"/>
<path d="M431.813 407.827L431.795 406.859L438.396 406.738C444.225 407.522 444.628 415.801 438.902 417.147L438.589 417.22L433.638 417.311L433.641 417.472L444.448 426.63L442.706 426.662L431.991 417.503L431.97 416.374L438.067 416.262L438.36 416.196C443.083 415.125 442.72 408.279 437.91 407.715L431.813 407.827Z" fill="white" stroke="white"/>
<path d="M417.312 427.129L416.212 427.15L415.931 411.886C415.928 411.741 415.938 411.596 415.96 411.453C416.284 409.349 417.891 407.671 419.98 407.257L420.71 407.112C420.888 407.076 421.069 407.057 421.25 407.054L427.211 406.944L427.229 407.911L421.333 408.02C421.109 408.024 420.886 408.057 420.67 408.117L420.315 408.215C418.805 408.636 417.61 409.793 417.14 411.289C417.065 411.527 417.029 411.775 417.034 412.025L417.312 427.129Z" fill="white" stroke="white"/>
<rect x="419.319" y="416.607" width="6.7851" height="0.967742" transform="rotate(-1.05423 419.319 416.607)" fill="white"/>
<path d="M448.472 416.07L458.006 415.895L458.024 416.862L449.04 417.028L449.215 426.542L448.115 426.563L447.931 416.564L448.472 416.07Z" fill="white" stroke="white"/>
<path d="M447.842 411.67L447.886 414.065L449.078 414.043L449.042 412.08C449.029 411.408 449.169 410.742 449.45 410.132C449.965 409.011 450.921 408.153 452.091 407.762L452.142 407.745C452.584 407.597 453.047 407.517 453.513 407.508L455.267 407.476C455.705 407.468 456.141 407.521 456.564 407.632L456.808 407.697C458.056 408.026 459.083 408.908 459.598 410.091C459.819 410.598 459.938 411.143 459.948 411.696L460.217 426.34L461.409 426.318L461.132 411.272C461.123 410.77 461.035 410.272 460.871 409.798C460.306 408.161 458.901 406.957 457.197 406.649L456.493 406.522C456.103 406.451 455.708 406.419 455.312 406.427L453.417 406.462C453 406.469 452.586 406.521 452.18 406.616L451.686 406.731C450.04 407.116 448.702 408.31 448.133 409.9C447.929 410.468 447.831 411.068 447.842 411.67Z" fill="white" stroke="white"/>
<path d="M476.551 407.004L476.533 406.036L471.174 406.135C470.593 406.146 470.017 406.237 469.462 406.408L468.819 406.605C467.134 407.122 465.842 408.483 465.413 410.192C465.304 410.623 465.254 411.066 465.262 411.511L465.437 421.021C465.446 421.489 465.519 421.954 465.655 422.402C466.138 423.989 467.367 425.239 468.946 425.748L469.293 425.861C469.899 426.056 470.533 426.15 471.17 426.138L476.901 426.033L476.883 425.065L471.735 425.16C471.018 425.173 470.305 425.045 469.638 424.783L469.055 424.554C468.065 424.166 467.273 423.397 466.855 422.419C466.654 421.949 466.545 421.443 466.536 420.931L466.364 411.575C466.354 411.076 466.436 410.581 466.604 410.112C466.997 409.013 467.839 408.133 468.919 407.691L469.401 407.493C470.006 407.246 470.652 407.112 471.306 407.1L476.551 407.004Z" fill="white" stroke="white"/>
<path d="M481.847 420.751L481.575 405.943L482.766 405.922L483.038 420.668C483.045 421.048 483.105 421.426 483.215 421.791C483.601 423.058 484.572 424.062 485.825 424.49L486.166 424.606C486.696 424.787 487.253 424.874 487.813 424.864L493.293 424.763L493.31 425.731L487.751 425.833C487.242 425.843 486.735 425.787 486.24 425.667L485.678 425.531C483.827 425.082 482.39 423.622 481.97 421.764C481.894 421.431 481.853 421.092 481.847 420.751Z" fill="white" stroke="white"/>
<rect x="484.958" y="415.399" width="6.96848" height="0.967742" transform="rotate(-1.05423 484.958 415.399)" fill="white"/>
<path d="M503.118 405.547C499.777 405.609 497.111 408.022 497.165 410.937L497.23 414.457L498.33 414.437L498.265 410.917C498.221 408.532 500.402 406.557 503.136 406.507L504.42 406.483C507.154 406.433 509.406 408.326 509.449 410.711L509.623 420.15C509.667 422.535 507.486 424.51 504.752 424.56L503.469 424.584C500.735 424.634 498.483 422.741 498.439 420.356L498.377 416.996L497.277 417.016L497.339 420.376C497.392 423.291 500.145 425.605 503.486 425.544L504.77 425.52C508.111 425.459 510.777 423.045 510.723 420.13L510.55 410.691C510.496 407.776 507.743 405.462 504.402 405.523L503.118 405.547Z" fill="white" stroke="white"/>
</g>
<defs>
<linearGradient id="paint0_linear_53_182" x1="667.309" y1="495.326" x2="723.126" y2="376.183" gradientUnits="userSpaceOnUse">
<stop stop-color="#DBCCFF"/>
<stop offset="1" stop-color="#D1BBFF"/>
</linearGradient>
<linearGradient id="paint1_linear_53_182" x1="665.148" y1="499.983" x2="720.965" y2="380.84" gradientUnits="userSpaceOnUse">
<stop stop-color="#B5A6E7"/>
<stop offset="1" stop-color="#7760BF"/>
</linearGradient>
<linearGradient id="paint2_linear_53_182" x1="678.964" y1="470.333" x2="702.491" y2="420.112" gradientUnits="userSpaceOnUse">
<stop stop-color="#B5A6E7"/>
<stop offset="1" stop-color="#7760BF"/>
</linearGradient>
<linearGradient id="paint3_linear_53_182" x1="709.033" y1="424.403" x2="694.79" y2="417.767" gradientUnits="userSpaceOnUse">
<stop stop-color="#8B8BE0"/>
<stop offset="1" stop-color="#A177B7"/>
</linearGradient>
<linearGradient id="paint4_linear_53_182" x1="700.376" y1="424.382" x2="704.418" y2="415.754" gradientUnits="userSpaceOnUse">
<stop stop-color="white"/>
<stop offset="1" stop-color="#A177B7"/>
</linearGradient>
<linearGradient id="paint5_linear_53_182" x1="669.047" y1="471.94" x2="694.984" y2="416.576" gradientUnits="userSpaceOnUse">
<stop/>
<stop offset="1" stop-color="white"/>
</linearGradient>
<linearGradient id="paint6_linear_53_182" x1="460.467" y1="784" x2="460.467" y2="619.046" gradientUnits="userSpaceOnUse">
<stop stop-color="#6456C0"/>
<stop offset="1" stop-color="#5F2C95"/>
</linearGradient>
<linearGradient id="paint7_linear_53_182" x1="513.71" y1="726.091" x2="470.563" y2="726.091" gradientUnits="userSpaceOnUse">
<stop stop-color="#9E8CEF"/>
<stop offset="1" stop-color="#CAAFEE"/>
</linearGradient>
<linearGradient id="paint8_linear_53_182" x1="412.884" y1="726.092" x2="456.034" y2="726.092" gradientUnits="userSpaceOnUse">
<stop stop-color="#9E8CEF"/>
<stop offset="1" stop-color="#CAAFEE"/>
</linearGradient>
<linearGradient id="paint9_linear_53_182" x1="466.257" y1="784" x2="466.257" y2="619.046" gradientUnits="userSpaceOnUse">
<stop stop-color="#CCCCFF"/>
<stop offset="1" stop-color="#755CBB"/>
</linearGradient>
<linearGradient id="paint10_linear_53_182" x1="447.105" y1="701.523" x2="447.105" y2="656.532" gradientUnits="userSpaceOnUse">
<stop stop-color="#CCCCFF"/>
<stop offset="1" stop-color="#755CBB"/>
</linearGradient>
<linearGradient id="paint11_linear_53_182" x1="499.075" y1="684.979" x2="499.075" y2="640.9" gradientUnits="userSpaceOnUse">
<stop stop-color="#CCCCFF"/>
<stop offset="1" stop-color="#755CBB"/>
</linearGradient>
<linearGradient id="paint12_linear_53_182" x1="454.487" y1="370.643" x2="454.487" y2="304.798" gradientUnits="userSpaceOnUse">
<stop stop-color="#D5CDF8"/>
<stop offset="1" stop-color="#F3EDFB"/>
</linearGradient>
<linearGradient id="paint13_linear_53_182" x1="488.293" y1="337.656" x2="420.681" y2="337.656" gradientUnits="userSpaceOnUse">
<stop stop-color="#CCCCFF"/>
<stop offset="1" stop-color="#755CBB"/>
</linearGradient>
<linearGradient id="paint14_linear_53_182" x1="473.82" y1="633.726" x2="473.82" y2="301.932" gradientUnits="userSpaceOnUse">
<stop stop-color="#9E8CEF"/>
<stop offset="1" stop-color="#CAAFEE"/>
</linearGradient>
<linearGradient id="paint15_linear_53_182" x1="611.145" y1="426.975" x2="530.559" y2="426.975" gradientUnits="userSpaceOnUse">
<stop stop-color="#CCCCFF"/>
<stop offset="1" stop-color="#755CBB"/>
</linearGradient>
<linearGradient id="paint16_linear_53_182" x1="613.638" y1="519.899" x2="613.638" y2="364.745" gradientUnits="userSpaceOnUse">
<stop stop-color="#9E8CEF"/>
<stop offset="1" stop-color="#DAC7F3"/>
</linearGradient>
<linearGradient id="paint17_linear_53_182" x1="347.553" y1="475.182" x2="243.722" y2="475.182" gradientUnits="userSpaceOnUse">
<stop stop-color="#A999F1"/>
<stop offset="1" stop-color="#DAC7F3"/>
</linearGradient>
<linearGradient id="paint18_linear_53_182" x1="647.413" y1="343.589" x2="647.413" y2="302.679" gradientUnits="userSpaceOnUse">
<stop offset="0.016" stop-color="#FFC2A9"/>
<stop offset="1" stop-color="#FF9595"/>
</linearGradient>
<linearGradient id="paint19_linear_53_182" x1="621.721" y1="342.62" x2="621.721" y2="274.902" gradientUnits="userSpaceOnUse">
<stop stop-color="#FFEADB"/>
<stop offset="0.9944" stop-color="#C27CB6"/>
</linearGradient>
<linearGradient id="paint20_linear_53_182" x1="623.912" y1="388.69" x2="623.912" y2="284.292" gradientUnits="userSpaceOnUse">
<stop offset="0.016" stop-color="#FFC2A9"/>
<stop offset="1" stop-color="#FF9595"/>
</linearGradient>
<linearGradient id="paint21_linear_53_182" x1="642.531" y1="372.399" x2="609.795" y2="372.399" gradientUnits="userSpaceOnUse">
<stop offset="0.016" stop-color="#D1A1D6"/>
<stop offset="0.9944" stop-color="#BD89C4"/>
</linearGradient>
<linearGradient id="paint22_linear_53_182" x1="241.581" y1="452.279" x2="241.581" y2="312.673" gradientUnits="userSpaceOnUse">
<stop offset="0.016" stop-color="#FFC2A9"/>
<stop offset="1" stop-color="#FF9595"/>
</linearGradient>
<linearGradient id="paint23_linear_53_182" x1="225.133" y1="407.551" x2="225.133" y2="338.193" gradientUnits="userSpaceOnUse">
<stop stop-color="#FFEADB"/>
<stop offset="0.9944" stop-color="#C27CB6"/>
</linearGradient>
<linearGradient id="paint24_linear_53_182" x1="211.487" y1="383.611" x2="211.487" y2="352.519" gradientUnits="userSpaceOnUse">
<stop stop-color="#FFB0B0"/>
<stop offset="0.984" stop-color="#FFC2A9"/>
</linearGradient>
<linearGradient id="paint25_linear_53_182" x1="193.502" y1="388.399" x2="193.502" y2="371.349" gradientUnits="userSpaceOnUse">
<stop stop-color="#FFB0B0"/>
<stop offset="0.984" stop-color="#FFC2A9"/>
</linearGradient>
<linearGradient id="paint26_linear_53_182" x1="266.229" y1="422.382" x2="234.604" y2="422.382" gradientUnits="userSpaceOnUse">
<stop offset="0.016" stop-color="#D1A1D6"/>
<stop offset="0.9944" stop-color="#BD89C4"/>
</linearGradient>
<linearGradient id="paint27_linear_53_182" x1="310.243" y1="531.828" x2="310.243" y2="375.562" gradientUnits="userSpaceOnUse">
<stop stop-color="#CCCCFF"/>
<stop offset="1" stop-color="#755CBB"/>
</linearGradient>
<linearGradient id="paint28_linear_53_182" x1="653.375" y1="500.345" x2="392.714" y2="500.345" gradientUnits="userSpaceOnUse">
<stop stop-color="#CCCCFF"/>
<stop offset="1" stop-color="#755CBB"/>
</linearGradient>
<linearGradient id="paint29_linear_53_182" x1="423.575" y1="456.609" x2="373.751" y2="456.609" gradientUnits="userSpaceOnUse">
<stop stop-color="#CCEDFF"/>
<stop offset="1" stop-color="#755CBB"/>
</linearGradient>
<linearGradient id="paint30_linear_53_182" x1="468.764" y1="544.285" x2="395.543" y2="544.285" gradientUnits="userSpaceOnUse">
<stop stop-color="#CCEDFF"/>
<stop offset="1" stop-color="#755CBB"/>
</linearGradient>
<linearGradient id="paint31_linear_53_182" x1="465.373" y1="577.482" x2="387.146" y2="577.482" gradientUnits="userSpaceOnUse">
<stop stop-color="#CCEDFF"/>
<stop offset="1" stop-color="#755CBB"/>
</linearGradient>
<linearGradient id="paint32_linear_53_182" x1="532.699" y1="495.288" x2="532.699" y2="407.255" gradientUnits="userSpaceOnUse">
<stop stop-color="#CCEDFF"/>
<stop offset="1" stop-color="#755CBB"/>
</linearGradient>
<linearGradient id="paint33_linear_53_182" x1="525.63" y1="502.689" x2="525.63" y2="435.956" gradientUnits="userSpaceOnUse">
<stop stop-color="#CCEDFF"/>
<stop offset="1" stop-color="#755CBB"/>
</linearGradient>
<linearGradient id="paint34_linear_53_182" x1="630.813" y1="417.383" x2="630.813" y2="366.964" gradientUnits="userSpaceOnUse">
<stop stop-color="#CCEDFF"/>
<stop offset="1" stop-color="#755CBB"/>
</linearGradient>
<linearGradient id="paint35_linear_53_182" x1="590.123" y1="372.983" x2="569.858" y2="372.983" gradientUnits="userSpaceOnUse">
<stop stop-color="#CCEDFF"/>
<stop offset="1" stop-color="#755CBB"/>
</linearGradient>
<linearGradient id="paint36_linear_53_182" x1="369.834" y1="495.288" x2="369.834" y2="401.837" gradientUnits="userSpaceOnUse">
<stop stop-color="#CCCCFF"/>
<stop offset="1" stop-color="#755CBB"/>
</linearGradient>
<linearGradient id="paint37_linear_53_182" x1="265.053" y1="475.189" x2="265.053" y2="426.355" gradientUnits="userSpaceOnUse">
<stop stop-color="#CCCCFF"/>
<stop offset="1" stop-color="#755CBB"/>
</linearGradient>
<linearGradient id="paint38_linear_53_182" x1="320.287" y1="473.007" x2="320.287" y2="435.675" gradientUnits="userSpaceOnUse">
<stop stop-color="#CCCCFF"/>
<stop offset="1" stop-color="#755CBB"/>
</linearGradient>
<linearGradient id="paint39_linear_53_182" x1="641.338" y1="420.601" x2="641.338" y2="406.737" gradientUnits="userSpaceOnUse">
<stop stop-color="#CCEDFF"/>
<stop offset="1" stop-color="#755CBB"/>
</linearGradient>
<linearGradient id="paint40_linear_53_182" x1="604.403" y1="462.869" x2="604.403" y2="387.1" gradientUnits="userSpaceOnUse">
<stop stop-color="#CCCCFF"/>
<stop offset="1" stop-color="#755CBB"/>
</linearGradient>
<linearGradient id="paint41_linear_53_182" x1="409.995" y1="409.537" x2="409.995" y2="352.519" gradientUnits="userSpaceOnUse">
<stop stop-color="#CCEDFF"/>
<stop offset="1" stop-color="#755CBB"/>
</linearGradient>
<linearGradient id="paint42_linear_53_182" x1="484.491" y1="401.829" x2="484.491" y2="323.134" gradientUnits="userSpaceOnUse">
<stop stop-color="#CCEDFF"/>
<stop offset="1" stop-color="#755CBB"/>
</linearGradient>
<linearGradient id="paint43_linear_53_182" x1="510.992" y1="416.222" x2="379.907" y2="416.222" gradientUnits="userSpaceOnUse">
<stop stop-color="#8642A0"/>
<stop offset="1" stop-color="#6456C0"/>
</linearGradient>
<linearGradient id="paint44_linear_53_182" x1="499.689" y1="340.374" x2="414.383" y2="340.374" gradientUnits="userSpaceOnUse">
<stop stop-color="#CCCCFF"/>
<stop offset="1" stop-color="#755CBB"/>
</linearGradient>
<linearGradient id="paint45_linear_53_182" x1="280.39" y1="469.621" x2="280.39" y2="420.119" gradientUnits="userSpaceOnUse">
<stop stop-color="#CCCCFF"/>
<stop offset="1" stop-color="#755CBB"/>
</linearGradient>
<linearGradient id="paint46_linear_53_182" x1="350.172" y1="525.465" x2="350.172" y2="375.562" gradientUnits="userSpaceOnUse">
<stop stop-color="#CCCCFF"/>
<stop offset="1" stop-color="#755CBB"/>
</linearGradient>
<linearGradient id="paint47_linear_53_182" x1="510.901" y1="595.877" x2="510.901" y2="552.905" gradientUnits="userSpaceOnUse">
<stop stop-color="#CCCCFF"/>
<stop offset="1" stop-color="#755CBB"/>
</linearGradient>
<linearGradient id="paint48_linear_53_182" x1="427.651" y1="584.073" x2="427.651" y2="563.204" gradientUnits="userSpaceOnUse">
<stop stop-color="#CCCCFF"/>
<stop offset="1" stop-color="#755CBB"/>
</linearGradient>
<linearGradient id="paint49_linear_53_182" x1="428.568" y1="315.841" x2="428.568" y2="173.081" gradientUnits="userSpaceOnUse">
<stop offset="0.016" stop-color="#FFC2A9"/>
<stop offset="1" stop-color="#FF9595"/>
</linearGradient>
<linearGradient id="paint50_linear_53_182" x1="481.644" y1="258.234" x2="481.644" y2="216.145" gradientUnits="userSpaceOnUse">
<stop offset="0.016" stop-color="#FFC2A9"/>
<stop offset="1" stop-color="#FF9595"/>
</linearGradient>
<linearGradient id="paint51_linear_53_182" x1="408.779" y1="274.151" x2="407.01" y2="264.964" gradientUnits="userSpaceOnUse">
<stop stop-color="#E1616A"/>
<stop offset="1" stop-color="#FF8883"/>
</linearGradient>
<linearGradient id="paint52_linear_53_182" x1="429.136" y1="229.458" x2="429.136" y2="211.24" gradientUnits="userSpaceOnUse">
<stop stop-color="#CF6074"/>
<stop offset="1" stop-color="#F37270"/>
</linearGradient>
<linearGradient id="paint53_linear_53_182" x1="392.896" y1="235.239" x2="392.896" y2="219.386" gradientUnits="userSpaceOnUse">
<stop stop-color="#CF6074"/>
<stop offset="1" stop-color="#FF817F"/>
</linearGradient>
<linearGradient id="paint54_linear_53_182" x1="426.658" y1="317.636" x2="426.658" y2="144.504" gradientUnits="userSpaceOnUse">
<stop stop-color="#2E33A0"/>
<stop offset="1" stop-color="#0665A5"/>
</linearGradient>
<linearGradient id="paint55_linear_53_182" x1="381.306" y1="208.611" x2="381.306" y2="168.671" gradientUnits="userSpaceOnUse">
<stop stop-color="#FFEADB"/>
<stop offset="0.9944" stop-color="#8860C7"/>
</linearGradient>
<linearGradient id="paint56_linear_53_182" x1="424.008" y1="317.595" x2="424.008" y2="310.157" gradientUnits="userSpaceOnUse">
<stop stop-color="#776D7E"/>
<stop offset="1" stop-color="#9D68C2"/>
</linearGradient>
<linearGradient id="paint57_linear_53_182" x1="402.243" y1="156.929" x2="402.243" y2="151.403" gradientUnits="userSpaceOnUse">
<stop stop-color="#1F77D1"/>
<stop offset="1" stop-color="#0686C9"/>
</linearGradient>
<linearGradient id="paint58_linear_53_182" x1="378.303" y1="183.408" x2="378.303" y2="168.671" gradientUnits="userSpaceOnUse">
<stop stop-color="#1F77D1"/>
<stop offset="1" stop-color="#0686C9"/>
</linearGradient>
<linearGradient id="paint59_linear_53_182" x1="328.622" y1="290.202" x2="2.11322" y2="290.202" gradientUnits="userSpaceOnUse">
<stop stop-color="#9D68C2"/>
<stop offset="1" stop-color="#AEC2FF"/>
</linearGradient>
<linearGradient id="paint60_linear_53_182" x1="262.202" y1="413.855" x2="262.202" y2="315.111" gradientUnits="userSpaceOnUse">
<stop stop-color="#CCEDFF"/>
<stop offset="1" stop-color="#9D68C2"/>
</linearGradient>
<linearGradient id="paint61_linear_53_182" x1="94.2831" y1="365.713" x2="94.2831" y2="322.218" gradientUnits="userSpaceOnUse">
<stop stop-color="#CCEDFF"/>
<stop offset="1" stop-color="#9D68C2"/>
</linearGradient>
<linearGradient id="paint62_linear_53_182" x1="43.1034" y1="365.713" x2="43.1034" y2="322.218" gradientUnits="userSpaceOnUse">
<stop stop-color="#CCEDFF"/>
<stop offset="1" stop-color="#9D68C2"/>
</linearGradient>
<linearGradient id="paint63_linear_53_182" x1="146.318" y1="365.713" x2="146.318" y2="322.218" gradientUnits="userSpaceOnUse">
<stop stop-color="#CCEDFF"/>
<stop offset="1" stop-color="#9D68C2"/>
</linearGradient>
<linearGradient id="paint64_linear_53_182" x1="612.846" y1="258.845" x2="612.846" y2="213.317" gradientUnits="userSpaceOnUse">
<stop stop-color="#D93DE3"/>
<stop offset="1" stop-color="#FF6DBA"/>
</linearGradient>
<linearGradient id="paint65_linear_53_182" x1="585.093" y1="258.845" x2="585.093" y2="213.317" gradientUnits="userSpaceOnUse">
<stop stop-color="#A242EA"/>
<stop offset="1" stop-color="#FE117E"/>
</linearGradient>
<linearGradient id="paint66_linear_53_182" x1="620.724" y1="738.458" x2="596.04" y2="542.448" gradientUnits="userSpaceOnUse">
<stop stop-color="#067EFF"/>
<stop offset="1" stop-color="#3E37A0"/>
</linearGradient>
<linearGradient id="paint67_linear_53_182" x1="47.4873" y1="253.891" x2="47.4873" y2="237.365" gradientUnits="userSpaceOnUse">
<stop stop-color="#459FFF"/>
<stop offset="1" stop-color="#A96DFF"/>
</linearGradient>
<linearGradient id="paint68_linear_53_182" x1="821.986" y1="447.542" x2="821.986" y2="426.975" gradientUnits="userSpaceOnUse">
<stop stop-color="#459FFF"/>
<stop offset="1" stop-color="#A96DFF"/>
</linearGradient>
<linearGradient id="paint69_linear_53_182" x1="23.2834" y1="253.891" x2="23.2834" y2="237.365" gradientUnits="userSpaceOnUse">
<stop stop-color="#B31A8F"/>
<stop offset="1" stop-color="#FE117E"/>
</linearGradient>
<linearGradient id="paint70_linear_53_182" x1="554.692" y1="308.285" x2="554.692" y2="296.6" gradientUnits="userSpaceOnUse">
<stop stop-color="#B31A8F"/>
<stop offset="1" stop-color="#FE117E"/>
</linearGradient>
<linearGradient id="paint71_linear_53_182" x1="164.381" y1="566.113" x2="164.381" y2="554.428" gradientUnits="userSpaceOnUse">
<stop stop-color="#8642A0"/>
<stop offset="1" stop-color="#6456C0"/>
</linearGradient>
<linearGradient id="paint72_linear_53_182" x1="770.199" y1="623.747" x2="770.199" y2="613.301" gradientUnits="userSpaceOnUse">
<stop stop-color="#8642A0"/>
<stop offset="1" stop-color="#6456C0"/>
</linearGradient>
<linearGradient id="paint73_linear_53_182" x1="726.321" y1="567.298" x2="726.321" y2="481.016" gradientUnits="userSpaceOnUse">
<stop stop-color="#D906E3"/>
<stop offset="1" stop-color="#FF6DF9"/>
</linearGradient>
<linearGradient id="paint74_linear_53_182" x1="132.342" y1="689.368" x2="132.342" y2="581.431" gradientUnits="userSpaceOnUse">
<stop stop-color="#D906E3"/>
<stop offset="1" stop-color="#FF6DF9"/>
</linearGradient>
<linearGradient id="paint75_linear_53_182" x1="272.016" y1="629.011" x2="260.343" y2="550.406" gradientUnits="userSpaceOnUse">
<stop stop-color="#1852A0"/>
<stop offset="1" stop-color="#067ED3"/>
</linearGradient>
<linearGradient id="paint76_linear_53_182" x1="280.678" y1="626.981" x2="259.599" y2="548.906" gradientUnits="userSpaceOnUse">
<stop stop-color="#1852A0"/>
<stop offset="1" stop-color="#067ED3"/>
</linearGradient>
<linearGradient id="paint77_linear_53_182" x1="290.528" y1="623.758" x2="278.082" y2="544.634" gradientUnits="userSpaceOnUse">
<stop stop-color="#188DC1"/>
<stop offset="1" stop-color="#06BFE7"/>
</linearGradient>
<linearGradient id="paint78_linear_53_182" x1="216.953" y1="207.275" x2="195.952" y2="129.489" gradientUnits="userSpaceOnUse">
<stop stop-color="#188DC1"/>
<stop offset="1" stop-color="#06BFE7"/>
</linearGradient>
<linearGradient id="paint79_linear_53_182" x1="252.872" y1="198.298" x2="237.21" y2="140.291" gradientUnits="userSpaceOnUse">
<stop stop-color="#1852A0"/>
<stop offset="1" stop-color="#067ED3"/>
</linearGradient>
<clipPath id="clip0_53_182">
<rect width="887" height="784" fill="white" transform="matrix(-1 0 0 1 887 0)"/>
</clipPath>
</defs>
</svg>
