<svg width="40" height="40" viewBox="0 0 40 40" fill="none" xmlns="http://www.w3.org/2000/svg">
<path d="M29.9999 27.9999L22.0001 20L30.0001 12C30.552 11.4481 30.552 10.552 29.9999 9.99991C29.448 9.44803 28.5519 9.44803 28 9.99991L20 17.9999L12 9.99991C11.4481 9.44803 10.552 9.44803 10.0001 9.99991C9.44803 10.552 9.44803 11.4481 9.99991 12L17.9999 20L10.0001 27.9999C9.44803 28.5519 9.44803 29.448 9.99991 29.9999C10.552 30.552 11.4481 30.552 12.0001 29.9999L20 22.0001L27.9999 29.9999C28.5519 30.552 29.448 30.552 30.0001 29.9999C30.552 29.448 30.552 28.5519 29.9999 27.9999Z" fill="#477BDF"/>
</svg>
