<svg width="135" height="39" viewBox="0 0 135 39" fill="none" xmlns="http://www.w3.org/2000/svg">
<path fill-rule="evenodd" clip-rule="evenodd" d="M11.268 0H0V6.13665H10.3666C13.578 7.02925 13.578 11.5481 10.3666 12.4407H0V18.7447V18.8562H0.169022L3.83113 21.4783C9.35246 25.4392 12.5639 31.7432 12.5639 38.4935H19.043C19.3247 32.4127 17.2964 26.4991 13.3526 21.813L10.8736 18.8562L11.3807 18.7447C21.8036 16.6805 21.691 1.84099 11.268 0Z" fill="#477BDF"/>
<path d="M30.0863 38.8497C27.1465 38.8497 24.7676 37.9713 22.9494 36.2144C21.1312 34.4456 20.2222 32.1486 20.2222 29.3233V28.8247C20.2222 26.8541 20.5823 25.115 21.3024 23.6074C22.0344 22.0998 23.097 20.9365 24.4901 20.1174C25.8832 19.2864 27.5361 18.8709 29.4487 18.8709C32.1405 18.8709 34.2656 19.7137 35.8241 21.3994C37.3825 23.0732 38.1617 25.4118 38.1617 28.4151V30.7478H26.2965C26.509 31.828 26.9753 32.6768 27.6955 33.2941C28.4157 33.9114 29.3484 34.22 30.4936 34.22C32.3826 34.22 33.8583 33.5553 34.9209 32.2257L37.6481 35.4665C36.9043 36.4993 35.8477 37.3243 34.4782 37.9416C33.1204 38.547 31.6565 38.8497 30.0863 38.8497ZM29.4133 23.5006C27.666 23.5006 26.627 24.6639 26.2965 26.9906H32.3176V26.5277C32.3412 25.5661 32.0992 24.8242 31.5915 24.3019C31.0839 23.7677 30.3578 23.5006 29.4133 23.5006Z" fill="#477BDF"/>
<path d="M41.8984 38.4936V23.3937H39.118V19.227H41.8984V16.1762C41.8984 13.9801 42.5418 12.2766 43.8287 11.0658C45.1155 9.85493 46.9219 9.24951 49.2477 9.24951C50.0978 9.24951 51.0305 9.37416 52.0458 9.62345L52.0635 14.0394C51.6975 13.9326 51.2076 13.8792 50.5936 13.8792C48.7873 13.8792 47.8841 14.6627 47.8841 16.2296V19.227H51.6208V23.3937H47.8841V38.4936H41.8984Z" fill="#477BDF"/>
<path d="M65.3101 24.658L63.3443 24.5155C61.4671 24.5155 60.2629 25.1091 59.7316 26.2962V38.4936H53.7636V19.227H59.3597L59.5545 21.7021C60.5581 19.8146 61.9571 18.8709 63.7516 18.8709C64.3892 18.8709 64.9441 18.9421 65.4163 19.0846L65.3101 24.658Z" fill="#477BDF"/>
<path d="M77.7243 38.4936C77.5118 38.1018 77.3229 37.5261 77.1576 36.7664C76.0596 38.1553 74.5248 38.8497 72.5532 38.8497C70.7468 38.8497 69.212 38.3036 67.9487 37.2115C66.6855 36.1075 66.0539 34.7246 66.0539 33.0626C66.0539 30.9733 66.8213 29.3945 68.3561 28.3261C69.8909 27.2577 72.1222 26.7235 75.0502 26.7235H76.8919V25.7086C76.8919 23.9398 76.1304 23.0554 74.6074 23.0554C73.1907 23.0554 72.4823 23.7558 72.4823 25.1566H66.5143C66.5143 23.2928 67.2994 21.7793 68.8696 20.6159C70.4517 19.4526 72.4646 18.8709 74.9085 18.8709C77.3524 18.8709 79.2827 19.4704 80.6994 20.6694C82.1162 21.8683 82.8423 23.5124 82.8777 25.6017V34.131C82.9013 35.8998 83.1728 37.2531 83.6923 38.1909V38.4936H77.7243ZM73.9876 34.5762C74.7314 34.5762 75.3453 34.4159 75.8294 34.0954C76.3252 33.7749 76.6794 33.4128 76.8919 33.0092V29.9287H75.1564C73.0785 29.9287 72.0396 30.8665 72.0396 32.7421C72.0396 33.2882 72.2226 33.7333 72.5886 34.0776C72.9546 34.41 73.4209 34.5762 73.9876 34.5762Z" fill="#477BDF"/>
<path d="M94.3002 34.22C95.1384 34.22 95.7878 33.9945 96.2482 33.5434C96.7087 33.0804 96.933 32.4394 96.9212 31.6203H102.517C102.517 33.7333 101.762 35.4665 100.251 36.8198C98.7511 38.1731 96.8149 38.8497 94.4419 38.8497C91.6556 38.8497 89.4596 37.9713 87.854 36.2144C86.2484 34.4575 85.4455 32.0239 85.4455 28.9137V28.6644C85.4455 26.7176 85.7997 25.0023 86.5081 23.5184C87.2283 22.0226 88.2613 20.8771 89.6072 20.0817C90.9531 19.2745 92.547 18.8709 94.3887 18.8709C96.8799 18.8709 98.8574 19.5654 100.321 20.9543C101.785 22.3432 102.517 24.2247 102.517 26.5989H96.9212C96.9212 25.6017 96.6791 24.8361 96.1951 24.3019C95.711 23.7677 95.0617 23.5006 94.2471 23.5006C92.7005 23.5006 91.7973 24.4918 91.5375 26.4742C91.4549 27.1034 91.4136 27.97 91.4136 29.074C91.4136 31.0089 91.6438 32.3504 92.1042 33.0982C92.5647 33.8461 93.2967 34.22 94.3002 34.22Z" fill="#477BDF"/>
<path d="M111.992 10.3852V19.227H115.144V23.9002H111.992V31.7014C111.992 32.4255 112.122 32.9301 112.381 33.215C112.641 33.4999 113.155 33.6423 113.922 33.6423C114.512 33.6423 115.008 33.6067 115.41 33.5355V37.8268C114.335 38.1711 113.214 38.3432 112.045 38.3432C109.991 38.3432 108.474 37.8565 107.494 36.8831C106.514 35.9097 106.024 34.4317 106.024 32.4493V23.9002H103.58V19.227H106.024V10.3852H111.992Z" fill="#477BDF"/>
<path d="M116.224 28.6822C116.224 26.7592 116.596 25.0497 117.34 23.554C118.084 22.0464 119.152 20.889 120.545 20.0817C121.939 19.2745 123.574 18.8709 125.451 18.8709C128.32 18.8709 130.581 19.7672 132.234 21.5597C133.886 23.3403 134.713 25.7679 134.713 28.8425V29.0562C134.713 32.0595 133.88 34.4456 132.216 36.2144C130.563 37.9713 128.32 38.8497 125.486 38.8497C122.759 38.8497 120.569 38.0306 118.916 36.3924C117.263 34.7424 116.372 32.5106 116.242 29.6972L116.224 28.6822ZM122.192 29.0562C122.192 30.8368 122.47 32.1426 123.025 32.9736C123.58 33.8046 124.4 34.22 125.486 34.22C127.611 34.22 128.698 32.5759 128.745 29.2877V28.6822C128.745 25.2278 127.647 23.5006 125.451 23.5006C123.456 23.5006 122.375 24.9904 122.21 27.97L122.192 29.0562Z" fill="#477BDF"/>
</svg>
