<svg width="480" height="640" viewBox="0 0 480 640" fill="none" xmlns="http://www.w3.org/2000/svg">
<path d="M153.886 640H240.558C249.631 589.484 270.727 523.75 270.727 523.75C275.853 520.699 285.867 524.452 285.867 524.452L317.548 640H396.733C400.937 568.7 362.027 487.767 362.027 487.767L362.045 487.749C362.175 487.471 363.41 484.994 363.078 483.329C362.949 482.608 361.621 481.24 360.128 479.89C357.989 477.93 355.444 475.97 355.444 475.97L207.715 475.046C207.715 475.046 206.221 475.804 204.322 476.95H204.303C201.076 478.91 196.706 481.943 196.706 484.161C196.706 487.212 197.904 489.191 198.199 489.635L198.273 489.727C166.592 549.674 153.886 640 153.886 640Z" fill="url(#paint0_linear_53_206)"/>
<path d="M327.801 640.074L328.705 639.926C318.618 580.386 293.04 530.462 292.782 529.963L292.671 529.833L286.162 524.12L285.553 524.822L292.008 530.48C293.169 532.699 317.935 581.773 327.801 640.074Z" fill="url(#paint1_linear_53_206)"/>
<path d="M228.792 640.074C238.677 581.736 264.125 532.181 265.268 529.981L271.04 524.785L270.432 524.101L264.494 529.482C264.235 529.981 237.976 580.386 227.889 639.926L228.792 640.074Z" fill="url(#paint2_linear_53_206)"/>
<path opacity="0.76" d="M196.706 484.161C196.706 487.212 197.905 489.191 198.2 489.635L198.273 489.727C229.033 496.698 252.434 525.488 252.434 525.488C235.671 557.735 207.715 640 207.715 640H240.558C249.631 589.484 270.727 523.75 270.727 523.75C275.854 520.699 285.867 524.452 285.867 524.452L317.548 640H338.054C330.715 591.592 309.047 532.496 309.047 532.496C330.346 507.626 362.027 487.767 362.027 487.767L362.046 487.749L365.808 485.382L363.078 483.329C349.377 496.513 305.193 513.728 303.828 514.264L360.128 479.89C357.989 477.93 355.444 475.97 355.444 475.97L207.715 475.046C207.715 475.046 206.221 475.804 204.322 476.95L244.67 499.213L196.706 484.161Z" fill="url(#paint3_linear_53_206)"/>
<path opacity="0.76" d="M270.727 523.75L253.485 512.526L257.579 523.75L260.585 557.514L270.727 523.75Z" fill="url(#paint4_linear_53_206)"/>
<path opacity="0.76" d="M285.867 524.452L303.828 514.264L342.277 496.902L293.317 529.352L290.403 540.983L285.867 524.452Z" fill="url(#paint5_linear_53_206)"/>
<path d="M236.445 177.089C236.335 177.884 236.242 178.309 236.242 178.309C237.146 182.081 238.179 185.576 239.304 188.775C242.918 199.185 247.418 206.581 250.792 211.185C253.724 215.161 255.808 217.065 255.808 217.065C282.713 208.597 295.972 182.211 301.062 169.082C301.099 169.027 301.117 168.953 301.135 168.879C302.113 166.401 302.758 164.404 303.164 163.11C303.164 163.11 303.164 163.11 303.164 163.091C303.477 162.056 303.625 161.483 303.625 161.483C303.514 161.261 303.404 161.02 303.293 160.798L303.238 160.706C302.795 159.781 302.353 158.838 301.947 157.932C298.425 150.203 296.083 142.974 294.571 137.278C293.261 132.434 292.561 128.699 292.229 126.72C292.063 125.703 291.989 125.149 291.989 125.149L279.449 131.787L236.242 154.715C236.888 158.691 237.146 162.426 237.164 165.699C237.201 168.01 237.128 170.081 236.998 171.837C236.869 173.982 236.648 175.683 236.482 176.793V176.811C236.482 176.922 236.464 176.996 236.445 177.089Z" fill="#FE9083"/>
<path d="M248.432 219.968C250.921 222.446 253.853 224.665 257.357 226.514C257.431 226.569 257.505 226.606 257.578 226.643C257.578 226.643 257.671 226.588 257.837 226.495L257.855 226.477C258.795 225.904 262.004 223.925 266.319 220.671C277.605 212.147 296.451 194.914 301.836 171.689C301.855 171.652 301.855 171.634 301.873 171.597C302.5 168.842 302.943 166.031 303.164 163.11C303.164 163.11 303.164 163.11 303.164 163.091C303.219 162.333 303.275 161.575 303.293 160.798C303.293 160.798 299.549 169.618 293.058 179.141C285.424 190.346 273.972 202.569 260.289 202.643C248.45 202.717 242.383 194.599 239.304 187.111C237.994 183.93 237.22 180.879 236.814 178.605C236.796 178.586 236.796 178.568 236.796 178.568C236.667 177.902 236.574 177.311 236.482 176.811V176.793C236.445 176.534 236.408 176.312 236.39 176.109C236.279 175.277 236.242 174.796 236.242 174.796C236.242 174.796 231.706 203.197 248.432 219.968Z" fill="url(#paint6_linear_53_206)"/>
<path opacity="0.5" d="M248.432 219.968C250.921 222.446 253.853 224.665 257.357 226.514H257.578L257.837 226.495L257.855 226.477C258.795 225.904 262.004 223.925 266.319 220.671C277.605 212.147 296.451 194.914 301.836 171.689C301.855 171.652 301.855 171.634 301.873 171.597C302.5 168.842 302.943 166.031 303.164 163.11C303.164 163.11 303.164 163.11 303.164 163.091C303.219 162.333 303.275 161.575 303.293 160.798C303.293 160.798 299.549 169.618 293.058 179.141C293.058 179.141 285.608 199.666 269.491 209.835C261.414 214.92 255.292 214.181 250.792 211.185C246.293 208.208 243.379 203.012 241.664 199.092C239.949 195.154 239.396 191.474 239.304 188.775C239.285 188.165 239.285 187.61 239.304 187.111C237.994 183.93 237.22 180.879 236.814 178.605C236.796 178.586 236.796 178.568 236.796 178.568C236.667 177.902 236.574 177.311 236.482 176.811V176.793C236.445 176.534 236.408 176.312 236.39 176.109C236.279 175.277 236.242 174.796 236.242 174.796C236.242 174.796 231.706 203.197 248.432 219.968Z" fill="url(#paint7_linear_53_206)"/>
<path d="M144.868 387.659C145.071 387.752 145.164 387.807 145.164 387.807C146.676 387.992 151.378 386.957 157.537 381.613L157.556 381.594C157.556 381.576 157.574 381.557 157.611 381.539C157.63 381.52 157.648 381.483 157.685 381.465C162.848 376.935 169.044 369.372 175.222 356.983C187.577 332.225 191.118 315.694 191.69 312.809L191.763 312.366L198.974 323.83C203.86 338.567 213.118 399.549 212.952 402.174C212.786 404.8 204.746 417.595 204.912 419.167C204.912 419.167 204.912 419.186 204.93 419.204C205.151 420.794 208.766 424.289 209.798 428.098C210.499 430.631 205.594 438.619 202.145 444.592V444.61C200.357 447.717 198.974 450.268 198.974 451.23C198.974 454.022 207.715 467.686 207.715 467.686V475.046L207.844 475.175L208.249 475.545L208.581 475.822C211.901 478.448 225.971 487.046 269.934 489.413C322.029 492.205 356.734 475.397 356.734 475.397L354.116 468.204C354.116 468.204 356.55 466.115 356.734 465.061C356.9 464.007 354.816 461.547 354.816 461.547C354.816 461.547 360.054 458.755 360.054 455.242C360.054 451.747 349.561 440.894 349.911 431.593C350.261 422.311 358.302 414.082 359.353 408.831C360.404 403.58 345.725 390.618 345.725 390.618C358.302 350.678 360.754 297.074 360.754 297.074L363.188 294.263C363.188 294.263 378.218 328.6 391.845 345.408C393.468 347.405 395.183 349.384 396.953 351.288C400.752 355.412 404.791 359.276 408.682 362.66C418.123 370.907 426.698 376.325 428.874 375.899C432.378 375.197 446.356 347.516 445.711 319.133C445.416 305.635 437.302 290.528 428.874 278.417C427.971 277.123 427.067 275.847 426.145 274.608C420.17 266.454 414.435 260.056 411.688 257.134C410.618 255.988 410.01 255.378 410.01 255.378C410.01 255.378 411.927 249.183 413.237 243.803C413.255 243.673 413.292 243.544 413.329 243.414C413.329 243.359 413.347 243.285 413.366 243.229C413.384 243.137 413.403 243.1 413.403 243.1C414.177 239.79 414.657 236.924 414.214 236.221C413.052 234.354 406.284 232.246 405.123 230.859C403.961 229.454 399.074 205.86 395.349 203.29C391.772 200.831 385.483 199.037 364.516 190.772C363.484 190.365 362.432 189.958 361.326 189.514C337.814 180.177 314.745 168.842 314.745 168.842L305.893 157.932H301.947L303.238 160.706L303.293 160.798C302.666 163.609 301.947 166.309 301.135 168.879C301.117 168.953 301.098 169.027 301.062 169.082C288.891 207.58 257.578 219.987 257.578 219.987C235.818 203.881 236.242 178.309 236.242 178.309V174.796L232.167 176.016L229.382 182.673C229.382 182.673 224.662 190.032 205.963 198.279C202.736 199.703 199.269 201.496 195.691 203.549C178.578 213.293 159.547 228.363 158.09 231.562C157.943 231.895 157.777 232.412 157.593 233.152V233.171C155.583 241.084 151.452 270.725 147.616 281.301C145.219 287.903 141.439 291.545 138.654 293.431C138.636 293.45 138.636 293.45 138.617 293.45C136.552 294.874 135.04 295.317 135.04 295.317C134.745 296.944 134.468 298.553 134.21 300.143C126.188 350.844 141.439 385.255 144.868 387.659Z" fill="url(#paint8_linear_53_206)"/>
<path opacity="0.5" d="M345.559 291.952L360.754 297.074L363.188 294.263C363.188 294.263 378.218 328.6 391.845 345.408C393.468 347.405 395.183 349.384 396.953 351.288C400.752 355.412 404.791 359.276 408.682 362.66L420.262 312.606L426.145 274.608C420.17 266.454 414.435 260.056 411.687 257.134C410.618 255.988 410.009 255.378 410.009 255.378C410.009 255.378 411.927 249.183 413.236 243.803C413.255 243.673 413.292 243.544 413.329 243.414C413.329 243.359 413.347 243.285 413.366 243.229C413.384 243.137 413.402 243.1 413.402 243.1C414.177 239.79 414.656 236.924 414.214 236.222C413.052 234.354 406.284 232.246 405.123 230.859C403.961 229.454 399.074 205.86 395.349 203.29C395.349 203.29 397.783 225.941 384.856 254.675L378.568 263.551L360.164 278.38C360.164 278.38 353.175 287.681 345.559 291.952Z" fill="url(#paint9_linear_53_206)"/>
<path d="M389.522 332.927C392.786 357.205 428.874 375.899 428.874 375.899C436.915 375.899 445.895 361.883 454.046 344.595C462.197 327.306 462.695 277.64 463.119 274.571C463.561 271.501 468.098 265.363 468.374 262.737C468.633 260.111 461.035 254.675 461.035 254.675L461.09 254.546L461.146 254.416C461.939 252.715 466.401 243.118 466.088 241.362C465.737 239.439 457.199 235.241 457.199 235.241L456.665 244.69C456.665 244.69 436.785 240.918 430.055 225.478L428.874 220.745L425.555 222.964V243.285C425.555 243.285 424.873 246.447 423.822 246.447C422.77 246.447 415.025 242.564 413.403 243.1C411.761 243.636 410.157 254.509 407.981 255.895C405.823 257.301 400.051 261.332 399.185 263.255C398.797 264.124 398.761 267.249 398.724 270.928C398.668 275.44 398.632 280.765 397.968 283.761C396.732 289.178 386.258 308.631 389.522 332.927Z" fill="url(#paint10_linear_53_206)"/>
<path d="M59.4509 312.125C61.0736 314.695 69.2245 320.076 71.3267 322.184C73.4289 324.274 71.3267 331.189 71.3267 331.189C105.571 367.634 141.272 385.884 144.868 387.659C145.071 387.752 145.163 387.807 145.163 387.807C166.665 373.311 164.821 349.439 157.685 329.321C150.862 310.017 139.17 294.171 138.654 293.487L138.635 293.468C138.635 293.468 138.635 293.468 138.617 293.45C138.23 293.302 132.089 290.75 127.7 290.417C126.243 290.306 124.915 290.88 123.662 291.675C121.043 293.302 118.83 295.872 116.691 294.8C113.538 293.209 106.493 276.512 101.717 276.05C98.3793 275.736 93.7506 279.138 90.671 281.08C89.3248 281.93 88.2738 282.503 87.7574 282.355C86.0055 281.893 80.0676 274.756 79.5882 274.571C79.1272 274.367 76.4164 276.364 76.4164 276.364L78.3158 278.731C75.4021 295.558 65.8498 306.874 65.8498 306.874L59.4509 297.481C59.4509 297.481 57.8096 309.555 59.4509 312.125Z" fill="url(#paint11_linear_53_206)"/>
<path d="M236.353 176.368C236.39 176.608 236.427 176.848 236.446 177.089C236.538 177.588 236.648 178.069 236.796 178.568C236.796 178.568 236.796 178.586 236.814 178.605C239.009 186.759 247.879 195.099 259.072 191.086C271.299 186.704 294.571 137.278 294.571 137.278L292.229 126.72L236.999 171.837L236.39 176.109L236.353 176.368Z" fill="#CB4D7A"/>
<path d="M420.263 167.326C420.263 167.326 423.637 148.632 422.125 134.856C420.613 121.081 422.512 105.419 422.512 105.419C422.512 105.419 425.85 104.014 428.303 105.419C430.755 106.825 436.454 121.062 433.89 132.508C431.327 143.954 433.3 171.394 433.3 171.394H437.136L445.526 159.837L449.602 158.672C449.602 158.672 473.077 180.861 472.727 194.063L469.665 205.805L440.769 204.806L421.904 183.209L420.263 167.326Z" fill="#EE8183"/>
<path d="M449.62 158.672C449.62 158.672 449.012 173.391 445.729 186.001C445.729 186.001 446.283 191.16 452.313 191.511L453.806 189.847C453.806 189.847 454.858 195.709 460.187 196.152L465.258 191.068L463.949 195.265C463.949 195.265 465.774 199.74 470.588 199.555C470.588 199.555 478.628 193.249 479.144 185.021L471.196 178.272V173.113L461.754 166.457L461.588 162.684C461.552 162.703 456.019 158.598 449.62 158.672Z" fill="url(#paint12_linear_53_206)"/>
<path opacity="0.6" d="M421.794 130.899C421.794 130.899 423.214 134.505 425.224 135.91C427.234 137.315 433.061 138.388 433.061 138.388L433.319 171.412H437.155L445.545 159.855C445.545 159.855 441.285 166.457 441.027 171.412L444.347 173.039L447.223 163.147L448.588 170.266L447.223 179.123C447.223 179.123 442.244 174.833 433.245 174.666L431.899 177.126C431.899 177.126 448.182 190.642 451.926 198.612C451.926 198.612 443.886 188.368 425.537 177.07L423.785 171.634L421.462 158.672C421.499 158.672 423.693 139.997 421.794 130.899Z" fill="url(#paint13_linear_53_206)"/>
<path d="M408.147 188.46C409.659 193.009 425.5 211.925 427.252 216.03C429.003 220.116 430.055 225.479 430.055 225.479C437.837 242.36 456.665 244.69 456.665 244.69L457.531 229.454C457.531 229.454 467.655 223.611 469.37 220.412L469.389 220.357L469.591 219.82C470.108 216.843 469.665 205.805 469.665 205.805L451.944 198.612C444.254 188.627 425.555 177.07 425.555 177.07L424.688 171.837C438.113 165.218 435.863 145.192 433.595 142.733C431.327 140.292 427.141 140.292 427.141 140.292C427.141 140.292 422.236 156.398 419.101 163.942C415.947 171.468 406.635 183.912 408.147 188.46Z" fill="url(#paint14_linear_53_206)"/>
<path d="M461.551 162.703C461.551 162.703 459.578 181.101 453.769 189.847C453.769 189.847 461.127 180.676 461.717 166.457L461.551 162.703Z" fill="#E28183"/>
<path d="M471.159 173.132C471.159 173.132 469.241 187.943 460.15 196.171C460.15 196.171 468.19 192.14 471.159 178.309V173.132Z" fill="#E28183"/>
<path opacity="0.91" d="M424.799 212.11C424.799 212.11 444.77 231.562 457.531 229.454L456.665 244.69C456.665 244.69 435.697 242.86 428.874 220.745C428.874 220.745 426.422 214.384 424.799 212.11Z" fill="url(#paint15_linear_53_206)"/>
<path d="M2.43207 238.551C2.43207 238.551 20.7806 272.186 42.264 282.522H49.6035L66.5505 308.279C66.5505 308.279 77.5044 301.382 78.3157 278.731C78.3157 278.731 74.4801 274.719 73.5396 270.189C73.5396 270.189 79.5881 265.418 81.2294 261.923C82.8521 258.41 83.4423 247.908 84.604 243.581C85.7658 239.254 95.6685 230.268 97.8814 229.103C100.094 227.938 110.108 227.346 110.108 227.346C110.108 227.346 111.509 223.722 110.108 221.984C108.706 220.227 93.1052 214.144 84.604 219.987C84.604 219.987 84.0139 224.425 83.0919 226.773C82.1514 229.103 74.7014 237.386 73.5396 237.386C72.3778 237.386 67.3619 233.189 65.149 229.916C63.0283 226.773 51.7611 202.421 49.0318 194.192C49.0134 194.1 48.9949 194.026 48.958 193.952C48.9212 193.823 48.8658 193.693 48.8474 193.582C48.8105 193.49 48.7921 193.416 48.7736 193.342C48.7552 193.305 48.7368 193.286 48.7368 193.249C46.6345 186.131 34.4083 172.466 27.8803 168.731C27.8803 168.731 25.0957 168.028 23.5836 171.523C23.5836 171.523 28.8208 186.482 34.2977 195.357C35.2197 196.855 36.2155 198.612 37.2482 200.498C37.2482 200.498 37.2482 200.498 37.2666 200.498C41.9321 209.096 47.1878 220.357 47.9438 222.002L48.036 222.206L45.1224 223.703L37.2482 216.215L29.1712 208.541L10.6382 228.16L12.4638 230.489L18.2542 237.941L15.3221 238.477L8.49904 230.915L2.43207 238.551Z" fill="url(#paint16_linear_53_206)"/>
<path opacity="0.6" d="M6.7287 245.707L12.5928 254.342C12.5928 254.342 44.772 229.454 51.761 227.346C58.7501 225.238 61.3133 226.643 61.3133 226.643L68.5237 235.87C68.5237 235.87 55.2463 247.667 54.0845 263.551C54.0845 263.551 58.5103 243.47 73.5396 237.386C72.3778 237.386 67.3619 233.189 65.149 229.916C63.0283 226.773 51.761 202.421 49.0318 194.193C49.4006 195.598 49.88 198.334 48.7367 200.498C47.1508 203.438 37.8198 200.664 37.2666 200.498C37.2481 200.498 37.2481 200.498 37.2481 200.498L47.9438 222.002L48.036 222.206L45.1224 223.703L37.2481 216.215L41.1945 225.405L12.4637 230.489L18.2542 237.941L15.3221 238.477L6.7287 245.707Z" fill="url(#paint17_linear_53_206)"/>
<path d="M29.1714 208.541C29.1714 208.541 23.5838 207.727 19.9695 214.957L20.7809 217.287C20.7809 217.287 15.3409 218.36 10.0668 227.217C10.0668 227.217 14.7323 235.741 26.2577 239.587C26.2577 239.587 31.624 238.071 32.546 233.522L31.4949 230.6L35.681 233.762C35.681 233.762 40.6968 235.278 42.9097 227.808L29.1714 208.541Z" fill="url(#paint18_linear_53_206)"/>
<path d="M0.754152 236.222C0.754152 236.222 -0.407629 230.841 5.29055 227.346L16.355 239.605C16.355 239.605 16.023 243.544 11.2285 244.394C11.2285 244.394 3.66778 241.824 0.754152 236.222Z" fill="url(#paint19_linear_53_206)"/>
<path opacity="0.91" d="M81.2295 261.923C81.2295 261.923 68.4132 276.272 49.6036 282.522L57.7176 294.837L74.6277 273.295L73.5397 270.189C73.5397 270.189 80.3075 265.085 81.2295 261.923Z" fill="url(#paint20_linear_53_206)"/>
<path d="M20.7806 217.306C20.7806 217.306 26.1469 226.181 31.4948 230.619L32.5459 233.54C32.5459 233.54 22.1453 226.495 18.328 218.378C18.3096 218.378 19.5635 217.472 20.7806 217.306Z" fill="#E28183"/>
<path opacity="0.5" d="M59.4513 312.125C61.0741 314.695 69.2249 320.076 71.3272 322.184C73.4294 324.274 71.3272 331.189 71.3272 331.189C105.572 367.634 141.273 385.884 144.869 387.659C145.072 387.752 145.164 387.807 145.164 387.807C147.967 388.158 161.595 384.312 175.222 356.983C187.578 332.225 191.118 315.694 191.69 312.809L191.764 312.366L188.758 308.279L184.295 257.837L181.16 267.988C169.284 253.621 158.091 231.562 158.091 231.562L157.593 233.152V233.171C155.583 241.084 151.452 270.725 147.617 281.301C145.219 287.903 141.439 291.545 138.654 293.431L138.636 293.468L138.654 293.487C149.59 303.49 155.011 317.876 157.685 329.321C160.138 339.824 160.304 347.868 160.304 347.868C160.304 347.868 157.279 333.63 147.727 316.508C144.26 310.276 139.208 304.711 134.21 300.143C130.448 296.704 126.705 293.82 123.662 291.675C121.043 293.302 118.831 295.872 116.691 294.8C131.075 316.452 130.725 359.313 117.208 351.14C103.709 342.968 100.611 325.623 100.611 325.623C103.801 304.489 102.842 280.654 100.279 276.124C97.1627 276.235 88.2558 282.503 87.7394 282.355C88.5508 307.225 76.8962 323.83 76.8962 323.83L69.2065 311.903C80.4 292.988 79.5702 274.571 79.5702 274.571C79.1092 274.368 76.3984 276.364 76.3984 276.364L78.2978 278.731C75.3841 295.558 65.8318 306.874 65.8318 306.874L59.4328 297.481C59.4513 297.481 57.8101 309.555 59.4513 312.125Z" fill="url(#paint21_linear_53_206)"/>
<path opacity="0.5" d="M207.714 467.686V475.046L207.844 475.175L208.249 475.545L208.581 475.822C211.901 478.448 225.971 487.046 269.934 489.413C322.029 492.205 356.734 475.397 356.734 475.397L354.116 468.204C354.116 468.204 356.55 466.115 356.734 465.061C356.9 464.007 354.816 461.548 354.816 461.548C354.816 461.548 360.054 458.755 360.054 455.242C360.054 452.08 351.497 442.928 350.114 434.329C349.948 433.405 349.874 432.499 349.911 431.593C350.262 422.348 358.228 414.156 359.334 408.905C359.353 408.849 359.353 408.831 359.353 408.831C360.404 403.58 345.725 390.618 345.725 390.618C358.302 350.678 360.754 297.074 360.754 297.074L363.188 294.263C363.188 294.263 378.218 328.6 391.845 345.408C405.473 362.235 425.389 376.602 428.874 375.899C436.915 375.899 445.895 361.883 454.046 344.595C462.197 327.306 462.695 277.64 463.119 274.571C463.561 271.501 468.098 265.363 468.375 262.737C459.634 277.807 445.711 273.369 445.711 273.369C455.798 273.591 461.035 254.675 461.035 254.675L461.09 254.546L461.146 254.416L466.069 241.38C465.516 242.009 453.991 254.934 442.853 246.965C431.438 238.792 425.555 222.964 425.555 222.964V243.285C425.555 243.285 424.873 246.447 423.822 246.447C424.504 255.803 426.477 267.193 428.874 278.417C434.056 302.695 441.156 326.141 441.156 326.141C441.156 326.141 421.904 315.638 415.136 289.012C411.909 276.272 411.374 265.196 411.688 257.134C411.964 250.237 412.868 245.522 413.237 243.803C413.255 243.673 413.292 243.544 413.329 243.414C413.329 243.359 413.347 243.285 413.366 243.229C413.366 243.192 413.384 243.155 413.384 243.137L411.522 247.094L407.981 255.895C403.869 290.066 412.351 341.562 412.351 341.562C399.996 326.141 397.433 292.045 397.968 283.761C398.207 279.804 398.521 274.922 398.724 270.928C399 266.565 399.185 263.255 399.185 263.255L373.903 278.38L378.568 263.551L360.164 278.38C360.164 278.38 343.623 298.35 326.62 300.68C309.618 303.028 247.196 301.623 247.196 301.623C247.196 301.623 301.467 305.117 317.308 309.795C333.149 314.474 336.173 319.836 336.173 319.836C324.721 378.248 261.34 397.94 259.367 398.532C316.865 389.878 343.623 340.86 343.623 340.86C343.623 340.86 344.563 368.429 340.138 378.932C335.712 389.434 309.618 415.136 276.074 420.499C273.253 420.942 270.468 421.22 267.721 421.349C239.433 422.68 216.013 408.184 213.616 406.631C213.486 406.538 213.413 406.501 213.413 406.501C213.413 406.501 213.431 406.538 213.468 406.594C214.372 407.98 225.971 424.326 272.81 426.12C275.65 426.231 278.416 426.212 281.109 426.101C281.127 426.101 281.146 426.101 281.146 426.101C324.555 424.271 346.666 395.277 346.666 395.277C346.666 395.277 362.727 403.931 352.474 416.763C352.364 416.893 352.253 417.041 352.142 417.17C349.118 420.665 342.461 424.936 334.587 429.337C334.366 429.466 334.144 429.596 333.941 429.707C324.426 434.977 313.269 440.413 304.639 444.906C304.584 444.925 304.547 444.943 304.51 444.962C299.236 447.717 294.902 450.083 292.487 451.859C292.468 451.859 292.468 451.877 292.468 451.877C290.034 453.652 289.536 454.798 291.915 455.076C304.031 456.481 349.911 446.441 351.774 449.233C353.636 452.043 349.505 459.273 349.505 459.273C307.387 480.205 217.267 469.887 214.427 469.572C289.85 488.932 351.552 464.414 351.552 464.414L349.505 471.662C349.505 471.662 315.906 483.329 276.314 484.272C236.703 485.197 212.011 475.046 212.011 475.046L207.714 467.686Z" fill="url(#paint22_linear_53_206)"/>
<path opacity="0.5" d="M238.566 301.382C238.566 301.382 208.563 303.009 188.739 308.279L198.955 323.83C198.974 323.83 214.353 310.258 238.566 301.382Z" fill="url(#paint23_linear_53_206)"/>
<path opacity="0.5" d="M210.536 384.294C210.536 384.294 229.253 399.955 247.657 407.185C266.061 414.434 283.764 415.118 283.764 415.118C283.764 415.118 273.179 418.28 247.159 414.064C221.121 409.866 212.214 395.721 212.214 395.721L210.536 384.294Z" fill="url(#paint24_linear_53_206)"/>
<path opacity="0.5" d="M202.146 444.592C236.777 453.578 280.74 440.709 280.371 439.137C280.002 437.565 268.329 439.84 241.258 434.403C215.017 429.134 205.502 419.777 204.93 419.204C205.152 420.794 208.766 424.289 209.799 428.098C210.499 430.631 205.594 438.619 202.146 444.592Z" fill="url(#paint25_linear_53_206)"/>
<path opacity="0.5" d="M296.212 306.097C325.791 309.111 333.757 317.377 333.757 317.377C342.074 318.431 360.755 297.074 360.755 297.074L363.189 294.263C363.189 294.263 378.218 328.6 391.846 345.408C393.468 347.405 395.183 349.384 396.954 351.288L395.017 346.925C395.017 346.925 391.846 345.408 390.924 328.711C389.983 312.033 397.913 287.145 397.968 283.761C398.023 280.377 399.185 263.255 399.185 263.255L373.903 278.38L378.568 263.551L360.164 278.38C360.164 278.38 352.954 289.253 334.753 298.313C317.585 306.874 298.333 306.19 296.212 306.097Z" fill="url(#paint26_linear_53_206)"/>
<path opacity="0.5" d="M363.188 294.263L345.559 291.952C345.559 291.952 338.515 296.63 324.371 302.399L336.154 319.836C336.154 319.836 331.47 344.687 318.046 358.684C318.046 358.684 353.673 338.844 358.689 322.166L363.188 294.263Z" fill="url(#paint27_linear_53_206)"/>
<path opacity="0.5" d="M466.07 241.38L461.036 254.675C461.036 254.675 455.909 272.611 445.711 273.369C435.514 274.127 425.556 243.285 425.556 243.285V222.964C425.556 222.964 436.399 246.262 448.109 248.888C459.8 251.532 466.07 241.38 466.07 241.38Z" fill="url(#paint28_linear_53_206)"/>
<path opacity="0.5" d="M405.123 230.859C405.123 230.859 396.031 249.072 384.856 254.675C384.856 254.675 398.152 222.317 395.349 203.29C395.349 203.29 400.236 206.341 405.123 230.859Z" fill="url(#paint29_linear_53_206)"/>
<path opacity="0.76" d="M184.295 257.837L181.16 267.988L177.988 351.288C177.988 351.288 186.047 335.442 191.689 312.809L188.757 308.279C188.757 308.279 183.815 276.882 184.295 257.837Z" fill="url(#paint30_linear_53_206)"/>
<path opacity="0.5" d="M87.7576 282.355C87.7576 282.355 89.5279 323.275 72.1936 326.807L71.3269 331.189C71.3269 331.189 93.7693 330.357 87.7576 282.355Z" fill="url(#paint31_linear_53_206)"/>
<path opacity="0.3" d="M116.691 294.8C116.691 294.8 117.355 296.26 123.662 291.675C123.662 291.675 145.477 307.17 153.886 329.007C153.886 329.007 140.443 308.945 133.288 306.782C126.133 304.618 124.4 312.625 124.4 312.625C124.4 312.625 121.56 301.327 116.691 294.8Z" fill="url(#paint32_linear_53_206)"/>
<path opacity="0.5" d="M468.375 262.737C468.375 262.737 459.984 278.251 444.254 273.388C444.254 273.388 453.677 279.748 463.119 274.571C463.119 274.571 468.983 264.494 468.375 262.737Z" fill="url(#paint33_linear_53_206)"/>
<path opacity="0.5" d="M413.403 243.1C413.403 243.1 401.859 286.368 431.973 318.874C431.973 318.874 412.425 308.815 407.981 285.517C403.555 262.201 413.403 243.1 413.403 243.1Z" fill="url(#paint34_linear_53_206)"/>
<path opacity="0.5" d="M206.608 208.523C206.608 208.523 207.899 228.049 217.249 242.065C226.58 256.08 245.094 265.529 245.094 265.529C245.094 265.529 221.859 256.949 211.2 244.857C200.541 232.782 206.608 208.523 206.608 208.523Z" fill="url(#paint35_linear_53_206)"/>
<path opacity="0.5" d="M325.459 179.141C325.459 179.141 325.459 195.468 320.222 212.11C314.985 228.751 269.491 257.837 269.491 257.837C269.491 257.837 316.386 238.311 325.459 220.745C334.55 203.179 325.459 179.141 325.459 179.141Z" fill="url(#paint36_linear_53_206)"/>
<path d="M325.994 256.912V283.502C325.994 283.502 264.936 283.003 196.466 287.551L194.898 263.606C194.898 263.625 254.425 256.543 325.994 256.912Z" fill="url(#paint37_linear_53_206)"/>
<path opacity="0.5" d="M229.383 182.673C230.821 199.869 236.04 211.851 241.609 219.931C249.28 231.026 257.578 234.816 257.578 234.816C265.877 231.192 273.069 226.68 279.265 221.706C305.561 200.627 314.044 171.412 314.689 169.008C303.588 195.894 287.287 212.184 274.931 221.355C264.973 228.77 257.578 231.562 257.578 231.562V222.964C259.552 222.224 261.469 221.374 263.295 220.449C285.055 209.447 296.488 186.519 301.836 171.689C301.855 171.652 301.855 171.634 301.873 171.597C304.768 163.572 305.893 157.932 305.893 157.932H301.947L303.238 160.706L303.293 160.798C302.666 163.609 301.947 166.309 301.135 168.879C301.117 168.953 301.099 169.027 301.062 169.082C288.891 207.58 257.578 219.987 257.578 219.987C235.818 203.881 236.243 178.309 236.243 178.309V174.796L232.167 176.016L229.383 182.673Z" fill="url(#paint38_linear_53_206)"/>
<path opacity="0.3" d="M100.297 276.124C100.297 276.124 106.217 295.502 100.629 325.623C100.629 325.623 97.8261 287.44 95.7423 284.112C93.6401 280.784 87.7759 282.355 87.7759 282.355C87.7759 282.355 96.9963 277.234 100.297 276.124Z" fill="url(#paint39_linear_53_206)"/>
<path opacity="0.5" d="M157.685 381.465C162.848 376.935 169.044 369.372 175.222 356.983C187.577 332.225 191.118 315.694 191.689 312.809L188.757 308.279L184.829 270.189L181.16 267.988C181.16 267.988 168.048 253.473 158.09 231.562C157.943 231.895 157.777 232.412 157.593 233.152V233.171C155.583 241.084 151.452 270.725 147.616 281.301C145.219 287.903 141.438 291.545 138.654 293.431C138.654 293.431 161.354 327.195 162.461 351.288C163.438 373.218 158.57 380.355 157.685 381.465Z" fill="url(#paint40_linear_53_206)"/>
<path opacity="0.5" d="M292.468 451.877C292.468 451.877 333.388 445.146 350.096 434.348C350.096 434.348 350.114 434.348 350.114 434.329C349.948 433.405 349.874 432.499 349.911 431.593C350.262 422.348 358.228 414.156 359.334 408.905C359.15 409.404 357.951 412.178 352.143 417.17C348.473 420.332 342.922 424.4 334.587 429.337C334.366 429.466 334.144 429.596 333.942 429.707C322.139 436.696 311.979 441.43 304.639 444.906C304.584 444.925 304.547 444.943 304.51 444.961C297.908 448.068 293.63 450.12 292.487 451.859C292.468 451.859 292.468 451.877 292.468 451.877Z" fill="url(#paint41_linear_53_206)"/>
<path opacity="0.5" d="M204.93 419.204C205.151 420.794 208.766 424.289 209.798 428.098C209.798 428.098 224.809 444.037 280.371 439.137C280.002 437.565 268.329 439.84 241.258 434.403C215.017 429.134 205.502 419.777 204.93 419.204Z" fill="url(#paint42_linear_53_206)"/>
<path d="M222.744 171.061C222.744 171.061 239.304 174.796 257.578 165.92C275.853 157.045 291.214 130.881 292.155 124.354C293.077 117.808 285.166 100.76 285.166 87.4464C285.166 74.1332 291.675 51.2419 280.74 38.8532C269.786 26.483 219.48 24.6155 203.16 40.4989C203.16 40.4989 198.107 53.2204 198.107 60.4132C198.107 62.1513 198.42 64.703 198.881 67.643C199.029 68.734 199.232 69.8989 199.416 71.1008C200.873 79.8098 202.883 90.4419 201.943 95.1015C201.611 96.7287 201.094 98.2264 200.486 99.6502V99.6687C198.476 104.328 195.488 108.045 194.954 112.076C194.253 117.346 201.297 154.715 222.744 171.061Z" fill="url(#paint43_linear_53_206)"/>
<path d="M285.295 83.6928C285.295 83.6928 289.813 72.3211 301.173 72.1547C301.173 72.1547 307.811 74.7804 308.862 79.8653C308.862 79.8653 306.41 98.2634 303.625 106.843C300.822 115.423 290.588 114.184 290.588 114.184C290.588 114.184 281.662 100.482 285.295 83.6928Z" fill="url(#paint44_linear_53_206)"/>
<path d="M241.664 121.136C241.664 121.136 237.884 120.84 236.261 122.061C234.638 123.281 228.682 129.069 221.176 130.64C213.671 132.212 208.618 125.796 207.032 125.482C205.428 125.149 203.676 127.423 203.676 127.423C203.676 127.423 204.358 124.797 208.286 123.614C208.286 123.614 209.872 129.66 220.752 127.589C231.632 125.518 236.279 120.674 236.279 120.674L236.833 119.675C236.796 119.675 239.875 120.323 241.664 121.136Z" fill="url(#paint45_linear_53_206)"/>
<path d="M258.685 65.9789C258.685 65.9789 257.634 59.1004 246.053 56.3453C233.145 53.2758 222.652 50.6871 222.652 50.6871C222.652 50.6871 224.938 58.2313 229.235 61.0604C229.235 61.0604 242.9 60.5611 249.797 62.1328C256.73 63.723 258.685 65.9789 258.685 65.9789Z" fill="#38368E"/>
<path d="M198.882 56.7521C198.882 56.7521 205.428 61.8185 209.891 73.9113C209.891 73.9113 205.613 68.3087 201.685 68.4011C198.993 68.4566 199.417 71.1377 199.417 71.1377C199.417 71.1377 196.743 63.8894 198.882 56.7521Z" fill="#38368E"/>
<path d="M254.352 85.4494C254.352 85.4494 253.651 70.9158 239.507 67.2362C239.507 67.2362 234.436 73.8004 233.919 81.2521C233.919 81.2521 241.425 79.8468 254.352 85.4494Z" fill="url(#paint46_linear_53_206)"/>
<path d="M213.819 91.237C213.819 91.237 212.676 79.6619 206.037 75.3906C206.037 75.3906 201.519 78.7928 201.98 88.4819C201.998 88.4634 205.963 87.0396 213.819 91.237Z" fill="url(#paint47_linear_53_206)"/>
<path d="M254.352 85.4494C254.352 85.4494 249.76 91.1075 236.888 92.2169C236.888 92.2169 234.436 88.4819 234.675 81.1411C234.675 81.1596 246.496 80.0317 254.352 85.4494Z" fill="#FFEBED"/>
<path d="M213.819 91.237V92.9381C213.819 92.9381 211.846 97.08 204.728 97.7826C204.728 97.7826 202.441 94.214 202.238 88.4079C202.256 88.4079 206.774 87.2615 213.819 91.237Z" fill="#FFEBED"/>
<path d="M240.595 80.8638C240.595 80.8638 243.859 84.8392 243.564 91.126C243.564 91.126 239.285 92.143 236.888 92.2355C236.888 92.2355 234.067 88.297 234.675 81.1596C234.675 81.1596 238.419 80.3645 240.595 80.8638Z" fill="#7F9EC9"/>
<path d="M207.088 88.5928C207.088 88.5928 208.932 90.5713 209.282 96.6547C209.282 96.6547 206.756 97.7642 204.746 97.7642C204.746 97.7642 202.164 94.0845 202.256 88.3894C202.256 88.4079 204.064 87.7053 207.088 88.5928Z" fill="#7F9EC9"/>
<path d="M241.664 91.5513C241.664 91.5513 242.826 83.6928 238.345 80.6973L234.675 81.1596C234.675 81.1596 233.458 87.3724 236.888 92.2355C236.888 92.2355 240.539 91.8102 241.664 91.5513Z" fill="#38368E"/>
<path d="M205.465 88.26C205.465 88.26 207.125 91.7547 207.899 97.1909C207.899 97.1909 206.627 97.7087 204.746 97.7826C204.746 97.7826 202.238 94.6947 202.257 88.4079C202.257 88.4079 204.174 87.8901 205.465 88.26Z" fill="#38368E"/>
<path d="M254.352 85.4494C254.352 85.4494 245.795 80.457 231.208 83.3045L233.919 81.2521C233.919 81.2521 244.32 78.0162 254.352 85.4494Z" fill="#131163"/>
<path d="M213.819 91.237C213.819 91.237 206.959 87.5758 198.956 89.5173L202.257 87.0766C202.257 87.0766 207.623 86.2445 213.819 91.237Z" fill="#131163"/>
<path d="M245.094 85.4494C245.094 85.4494 242.771 84.9316 240.668 87.0581C240.668 87.0766 243.545 87.9087 245.094 85.4494Z" fill="white"/>
<path d="M210.684 92.2355C210.684 92.2355 207.032 91.5328 205.778 93.197C205.76 93.197 207.715 94.5283 210.684 92.2355Z" fill="white"/>
<path d="M253.503 86.3C253.503 86.3 246.846 92.9011 236.188 94.4728L235.911 90.5898L236.888 92.2355C236.888 92.2355 247.123 91.6253 253.503 86.3Z" fill="#C6659C"/>
<path d="M213.819 92.9381C213.819 92.9381 212.639 97.2094 203.971 99.1324L204.248 97.043L204.728 97.7826C204.746 97.7826 210.905 96.9875 213.819 92.9381Z" fill="#C6659C"/>
<path d="M231.208 109.986C231.208 109.986 227.981 109.284 222.043 109.986C216.106 110.689 209.43 112.316 205.779 109.986C205.779 109.986 210.629 114.849 214.833 115.589C219.038 116.329 225.437 112.631 225.437 112.631L228.24 112.686C228.203 112.686 230.36 111.614 231.208 109.986Z" fill="#CB5F7D"/>
<path d="M227.797 112.668C227.797 112.668 226.34 111.725 225.123 111.965C223.906 112.205 222.652 113.98 222.652 113.98C222.652 113.98 225.234 112.612 227.797 112.668Z" fill="#9F4A8B"/>
<path d="M205.76 109.986C204.211 108.47 212.251 94.1215 216.087 93.5853C219.923 93.049 223.537 109.672 223.537 109.672C223.537 109.672 218.189 110.43 213.007 111.114C207.844 111.817 205.76 109.986 205.76 109.986Z" fill="#FFBCAF"/>
<path d="M200.376 126.443C202.828 121.303 201.316 118.621 222.615 115.829C252.766 111.854 255.347 121.081 260.474 119.675C260.658 119.62 260.88 119.546 261.082 119.454C266.633 117.29 279.708 104.402 280.04 87.0396C280.39 68.9928 268.33 56.1973 268.33 56.1973C272.7 52.5177 274.452 41.8487 269.731 37.2815C265.01 32.7328 256.97 33.7868 237.239 35.8762C217.489 37.9841 217.489 36.7638 217.489 36.7638C211.219 38.3724 207.623 44.2709 206.608 46.157C206.406 46.5268 206.313 46.7487 206.313 46.7487L203.861 44.4743C197.222 54.1079 198.439 64.6106 198.439 64.6106C198.439 64.6106 187.615 42.5328 188.85 39.4079C191.1 33.6389 197.351 25.2257 197.738 24.6894L197.757 24.6709C197.757 24.6709 199.509 7.86301 204.746 7.86301C209.983 7.86301 232.352 12.9294 232.352 12.9294C229.899 7.16037 230.25 0.503769 230.25 0.503769C230.25 0.503769 230.286 0.540749 230.342 0.59622C237.644 7.16037 244.781 7.8815 254.886 12.5781C259.976 14.9634 262.373 17.1638 264.347 19.4566L265.029 20.2702L265.748 21.1392C266.449 22.0268 267.168 22.9328 268.035 23.8573C268.072 23.9128 268.127 23.9498 268.145 23.9683C268.182 24.0053 268.201 24.0238 268.201 24.0238C269.012 24.9113 269.971 25.8174 271.133 26.7789C277.771 32.1966 292.376 35.8207 294.128 41.5528C295.88 47.2664 291.915 55.0879 289.813 63.1498C287.729 71.2117 288.688 78.3306 288.688 78.3306C288.688 78.3306 281.736 87.317 284.041 100.464C286.088 112.242 290.569 114.165 290.569 114.165C293.723 120.655 292.229 126.72 292.229 126.72C285.775 152.459 259.072 167.788 259.072 167.788C235.321 176.663 219.701 172.799 219.701 172.799C219.701 172.799 219.701 172.799 219.683 172.78C202.404 161.483 196.485 124.095 196.226 122.357C196.521 122.819 199.73 127.811 200.376 126.443ZM211.034 150.277C215.22 149.575 216.105 138.943 217.489 137.537C218.89 136.151 226.469 136.724 226.469 136.724C226.469 136.724 233.458 144.675 236.243 144.897C239.046 145.137 253.946 139.054 250.719 129.956C247.51 120.84 236.243 119.675 236.243 119.675C236.243 119.675 230.416 124.575 221.693 125.149C212.952 125.722 209.799 124.113 208.766 123.651C207.715 123.17 202.09 125.74 202.238 133.691C202.33 139.22 206.83 150.98 211.034 150.277Z" fill="url(#paint48_linear_53_206)"/>
<path d="M212.122 96.7656C212.122 96.7656 204.598 106.14 205.318 109.672C206.11 113.537 214.833 115.589 214.833 115.589C214.833 115.589 207.844 113.167 206.406 109.672C206.387 109.672 208.194 102.572 212.122 96.7656Z" fill="#D2726C"/>
<path opacity="0.6" d="M198.439 64.6106C198.439 64.6106 197.222 54.1079 203.861 44.4743C198.531 34.9332 197.757 24.6709 197.757 24.6709L197.738 24.6894C195.931 29.1456 194.899 37.8177 194.899 37.8177L188.85 39.4079C187.614 42.5328 198.439 64.6106 198.439 64.6106Z" fill="url(#paint49_linear_53_206)"/>
<path opacity="0.5" d="M259.072 167.788C259.072 167.788 250.35 165.717 237.183 166.253C224.016 166.789 216.437 166.845 219.701 172.799C219.701 172.799 236.243 176.552 259.072 167.788Z" fill="url(#paint50_linear_53_206)"/>
<path d="M213.302 12.0604C213.302 12.0604 205.299 8.93544 202.127 9.43469C202.127 9.43469 203.381 7.75205 204.69 7.40073C206 7.04941 232.352 12.9109 232.352 12.9109C232.352 12.9109 215.921 11.0064 213.302 12.0604Z" fill="url(#paint51_linear_53_206)"/>
<path d="M197.757 24.6709C197.757 24.6709 195.101 33.269 194.899 37.8177L188.85 39.4079C188.85 39.4079 190.694 32.8992 197.757 24.6709Z" fill="url(#paint52_linear_53_206)"/>
<path d="M408.147 188.46C408.147 188.46 416.703 186.63 420.263 179.141C423.822 171.652 421.498 160.798 421.498 160.798C421.498 160.798 414.786 173.705 411.448 178.106C408.11 182.506 407.206 187.517 408.147 188.46Z" fill="#FFBCAF"/>
<path d="M197.492 264.735L197.474 263.767L204.075 263.646C209.904 264.429 210.306 272.709 204.581 274.054L204.268 274.128L199.317 274.219L199.32 274.38L210.127 283.538L208.385 283.57L197.67 274.41L197.649 273.282L203.746 273.169L204.038 273.103C208.762 272.033 208.398 265.187 203.588 264.622L197.492 264.735Z" fill="white" stroke="white"/>
<rect x="214.326" y="282.493" width="12.2865" height="0.967739" transform="rotate(-1.05423 214.326 282.493)" fill="white"/>
<rect x="213.978" y="263.463" width="12.2865" height="0.967742" transform="rotate(-1.05423 213.978 263.463)" fill="white"/>
<rect x="214.151" y="272.978" width="10.8195" height="0.967742" transform="rotate(-1.05423 214.151 272.978)" fill="white"/>
<path d="M246.813 263.827L246.795 262.859L253.396 262.738C259.225 263.522 259.628 271.801 253.902 273.147L253.589 273.22L248.638 273.311L248.641 273.472L259.448 282.63L257.706 282.662L246.991 273.503L246.97 272.374L253.067 272.262L253.36 272.196C258.083 271.125 257.72 264.279 252.91 263.715L246.813 263.827Z" fill="white" stroke="white"/>
<path d="M232.312 283.129L231.212 283.15L230.931 267.886C230.928 267.741 230.938 267.596 230.96 267.453C231.284 265.349 232.891 263.671 234.98 263.257L235.71 263.112C235.888 263.076 236.069 263.057 236.25 263.054L242.211 262.944L242.229 263.911L236.333 264.02C236.109 264.024 235.886 264.057 235.67 264.117L235.315 264.215C233.805 264.636 232.61 265.793 232.14 267.289C232.065 267.527 232.029 267.775 232.034 268.025L232.312 283.129Z" fill="white" stroke="white"/>
<rect x="234.319" y="272.607" width="6.7851" height="0.967742" transform="rotate(-1.05423 234.319 272.607)" fill="white"/>
<path d="M263.472 272.07L273.006 271.895L273.024 272.862L264.04 273.028L264.215 282.542L263.115 282.563L262.931 272.564L263.472 272.07Z" fill="white" stroke="white"/>
<path d="M262.842 267.67L262.886 270.065L264.078 270.043L264.042 268.08C264.029 267.408 264.169 266.742 264.45 266.132C264.965 265.011 265.921 264.153 267.091 263.762L267.142 263.745C267.584 263.597 268.047 263.517 268.513 263.508L270.267 263.476C270.705 263.468 271.141 263.521 271.564 263.632L271.808 263.697C273.056 264.026 274.083 264.908 274.598 266.091C274.819 266.598 274.938 267.143 274.948 267.696L275.217 282.34L276.409 282.318L276.132 267.272C276.123 266.77 276.035 266.272 275.871 265.798C275.306 264.161 273.901 262.957 272.197 262.649L271.493 262.522C271.103 262.451 270.708 262.419 270.312 262.427L268.417 262.462C268 262.469 267.586 262.521 267.18 262.616L266.686 262.731C265.04 263.116 263.702 264.31 263.133 265.9C262.929 266.468 262.831 267.068 262.842 267.67Z" fill="white" stroke="white"/>
<path d="M291.551 263.004L291.533 262.036L286.174 262.135C285.593 262.146 285.017 262.237 284.462 262.408L283.819 262.605C282.134 263.122 280.842 264.483 280.413 266.192C280.304 266.623 280.254 267.066 280.262 267.511L280.437 277.021C280.446 277.489 280.519 277.954 280.655 278.402C281.138 279.989 282.367 281.239 283.946 281.748L284.293 281.861C284.899 282.056 285.533 282.15 286.17 282.138L291.901 282.033L291.883 281.065L286.735 281.16C286.018 281.173 285.305 281.045 284.638 280.783L284.055 280.554C283.065 280.166 282.273 279.397 281.855 278.419C281.654 277.949 281.545 277.443 281.536 276.931L281.364 267.575C281.354 267.076 281.436 266.581 281.604 266.112C281.997 265.013 282.839 264.133 283.919 263.691L284.401 263.493C285.006 263.246 285.652 263.112 286.306 263.1L291.551 263.004Z" fill="white" stroke="white"/>
<path d="M296.847 276.751L296.575 261.943L297.766 261.922L298.038 276.668C298.045 277.048 298.105 277.426 298.215 277.791C298.601 279.058 299.572 280.062 300.825 280.49L301.166 280.606C301.696 280.787 302.253 280.874 302.813 280.864L308.293 280.763L308.31 281.731L302.751 281.833C302.242 281.843 301.735 281.787 301.24 281.667L300.678 281.531C298.827 281.082 297.39 279.622 296.97 277.764C296.894 277.431 296.853 277.092 296.847 276.751Z" fill="white" stroke="white"/>
<rect x="299.958" y="271.399" width="6.96848" height="0.967742" transform="rotate(-1.05423 299.958 271.399)" fill="white"/>
<path d="M318.118 261.547C314.777 261.609 312.111 264.022 312.165 266.937L312.23 270.457L313.33 270.437L313.265 266.917C313.221 264.532 315.402 262.557 318.136 262.507L319.42 262.483C322.154 262.433 324.406 264.326 324.449 266.711L324.623 276.15C324.667 278.535 322.486 280.51 319.752 280.56L318.469 280.584C315.735 280.634 313.483 278.741 313.439 276.356L313.377 272.996L312.277 273.016L312.339 276.376C312.392 279.291 315.145 281.605 318.486 281.544L319.77 281.52C323.111 281.459 325.777 279.045 325.723 276.13L325.55 266.691C325.496 263.776 322.743 261.462 319.402 261.523L318.118 261.547Z" fill="white" stroke="white"/>
<defs>
<linearGradient id="paint0_linear_53_206" x1="275.467" y1="640" x2="275.467" y2="475.046" gradientUnits="userSpaceOnUse">
<stop stop-color="#6456C0"/>
<stop offset="1" stop-color="#5F2C95"/>
</linearGradient>
<linearGradient id="paint1_linear_53_206" x1="328.71" y1="582.091" x2="285.563" y2="582.091" gradientUnits="userSpaceOnUse">
<stop stop-color="#9E8CEF"/>
<stop offset="1" stop-color="#CAAFEE"/>
</linearGradient>
<linearGradient id="paint2_linear_53_206" x1="227.884" y1="582.092" x2="271.034" y2="582.092" gradientUnits="userSpaceOnUse">
<stop stop-color="#9E8CEF"/>
<stop offset="1" stop-color="#CAAFEE"/>
</linearGradient>
<linearGradient id="paint3_linear_53_206" x1="281.257" y1="640" x2="281.257" y2="475.046" gradientUnits="userSpaceOnUse">
<stop stop-color="#CCCCFF"/>
<stop offset="1" stop-color="#755CBB"/>
</linearGradient>
<linearGradient id="paint4_linear_53_206" x1="262.105" y1="557.523" x2="262.105" y2="512.532" gradientUnits="userSpaceOnUse">
<stop stop-color="#CCCCFF"/>
<stop offset="1" stop-color="#755CBB"/>
</linearGradient>
<linearGradient id="paint5_linear_53_206" x1="314.075" y1="540.979" x2="314.075" y2="496.9" gradientUnits="userSpaceOnUse">
<stop stop-color="#CCCCFF"/>
<stop offset="1" stop-color="#755CBB"/>
</linearGradient>
<linearGradient id="paint6_linear_53_206" x1="269.487" y1="226.643" x2="269.487" y2="160.798" gradientUnits="userSpaceOnUse">
<stop stop-color="#D5CDF8"/>
<stop offset="1" stop-color="#F3EDFB"/>
</linearGradient>
<linearGradient id="paint7_linear_53_206" x1="303.293" y1="193.656" x2="235.681" y2="193.656" gradientUnits="userSpaceOnUse">
<stop stop-color="#CCCCFF"/>
<stop offset="1" stop-color="#755CBB"/>
</linearGradient>
<linearGradient id="paint8_linear_53_206" x1="288.82" y1="489.726" x2="288.82" y2="157.932" gradientUnits="userSpaceOnUse">
<stop stop-color="#9E8CEF"/>
<stop offset="1" stop-color="#CAAFEE"/>
</linearGradient>
<linearGradient id="paint9_linear_53_206" x1="426.145" y1="282.975" x2="345.559" y2="282.975" gradientUnits="userSpaceOnUse">
<stop stop-color="#CCCCFF"/>
<stop offset="1" stop-color="#755CBB"/>
</linearGradient>
<linearGradient id="paint10_linear_53_206" x1="428.638" y1="375.899" x2="428.638" y2="220.745" gradientUnits="userSpaceOnUse">
<stop stop-color="#9E8CEF"/>
<stop offset="1" stop-color="#DAC7F3"/>
</linearGradient>
<linearGradient id="paint11_linear_53_206" x1="162.553" y1="331.182" x2="58.7215" y2="331.182" gradientUnits="userSpaceOnUse">
<stop stop-color="#A999F1"/>
<stop offset="1" stop-color="#DAC7F3"/>
</linearGradient>
<linearGradient id="paint12_linear_53_206" x1="462.413" y1="199.589" x2="462.413" y2="158.679" gradientUnits="userSpaceOnUse">
<stop offset="0.016" stop-color="#FFC2A9"/>
<stop offset="1" stop-color="#FF9595"/>
</linearGradient>
<linearGradient id="paint13_linear_53_206" x1="436.721" y1="198.62" x2="436.721" y2="130.902" gradientUnits="userSpaceOnUse">
<stop stop-color="#FFEADB"/>
<stop offset="0.9944" stop-color="#C27CB6"/>
</linearGradient>
<linearGradient id="paint14_linear_53_206" x1="438.912" y1="244.69" x2="438.912" y2="140.292" gradientUnits="userSpaceOnUse">
<stop offset="0.016" stop-color="#FFC2A9"/>
<stop offset="1" stop-color="#FF9595"/>
</linearGradient>
<linearGradient id="paint15_linear_53_206" x1="457.531" y1="228.399" x2="424.795" y2="228.399" gradientUnits="userSpaceOnUse">
<stop offset="0.016" stop-color="#D1A1D6"/>
<stop offset="0.9944" stop-color="#BD89C4"/>
</linearGradient>
<linearGradient id="paint16_linear_53_206" x1="56.5813" y1="308.279" x2="56.5813" y2="168.673" gradientUnits="userSpaceOnUse">
<stop offset="0.016" stop-color="#FFC2A9"/>
<stop offset="1" stop-color="#FF9595"/>
</linearGradient>
<linearGradient id="paint17_linear_53_206" x1="40.1326" y1="263.551" x2="40.1326" y2="194.193" gradientUnits="userSpaceOnUse">
<stop stop-color="#FFEADB"/>
<stop offset="0.9944" stop-color="#C27CB6"/>
</linearGradient>
<linearGradient id="paint18_linear_53_206" x1="26.4868" y1="239.611" x2="26.4868" y2="208.519" gradientUnits="userSpaceOnUse">
<stop stop-color="#FFB0B0"/>
<stop offset="0.984" stop-color="#FFC2A9"/>
</linearGradient>
<linearGradient id="paint19_linear_53_206" x1="8.50182" y1="244.399" x2="8.50182" y2="227.349" gradientUnits="userSpaceOnUse">
<stop stop-color="#FFB0B0"/>
<stop offset="0.984" stop-color="#FFC2A9"/>
</linearGradient>
<linearGradient id="paint20_linear_53_206" x1="81.2295" y1="278.382" x2="49.6036" y2="278.382" gradientUnits="userSpaceOnUse">
<stop offset="0.016" stop-color="#D1A1D6"/>
<stop offset="0.9944" stop-color="#BD89C4"/>
</linearGradient>
<linearGradient id="paint21_linear_53_206" x1="125.243" y1="387.828" x2="125.243" y2="231.562" gradientUnits="userSpaceOnUse">
<stop stop-color="#CCCCFF"/>
<stop offset="1" stop-color="#755CBB"/>
</linearGradient>
<linearGradient id="paint22_linear_53_206" x1="468.375" y1="356.345" x2="207.714" y2="356.345" gradientUnits="userSpaceOnUse">
<stop stop-color="#CCCCFF"/>
<stop offset="1" stop-color="#755CBB"/>
</linearGradient>
<linearGradient id="paint23_linear_53_206" x1="238.575" y1="312.609" x2="188.751" y2="312.609" gradientUnits="userSpaceOnUse">
<stop stop-color="#CCEDFF"/>
<stop offset="1" stop-color="#755CBB"/>
</linearGradient>
<linearGradient id="paint24_linear_53_206" x1="283.764" y1="400.285" x2="210.543" y2="400.285" gradientUnits="userSpaceOnUse">
<stop stop-color="#CCEDFF"/>
<stop offset="1" stop-color="#755CBB"/>
</linearGradient>
<linearGradient id="paint25_linear_53_206" x1="280.373" y1="433.482" x2="202.146" y2="433.482" gradientUnits="userSpaceOnUse">
<stop stop-color="#CCEDFF"/>
<stop offset="1" stop-color="#755CBB"/>
</linearGradient>
<linearGradient id="paint26_linear_53_206" x1="347.699" y1="351.288" x2="347.699" y2="263.255" gradientUnits="userSpaceOnUse">
<stop stop-color="#CCEDFF"/>
<stop offset="1" stop-color="#755CBB"/>
</linearGradient>
<linearGradient id="paint27_linear_53_206" x1="340.63" y1="358.689" x2="340.63" y2="291.956" gradientUnits="userSpaceOnUse">
<stop stop-color="#CCEDFF"/>
<stop offset="1" stop-color="#755CBB"/>
</linearGradient>
<linearGradient id="paint28_linear_53_206" x1="445.813" y1="273.383" x2="445.813" y2="222.964" gradientUnits="userSpaceOnUse">
<stop stop-color="#CCEDFF"/>
<stop offset="1" stop-color="#755CBB"/>
</linearGradient>
<linearGradient id="paint29_linear_53_206" x1="405.123" y1="228.983" x2="384.858" y2="228.983" gradientUnits="userSpaceOnUse">
<stop stop-color="#CCEDFF"/>
<stop offset="1" stop-color="#755CBB"/>
</linearGradient>
<linearGradient id="paint30_linear_53_206" x1="184.834" y1="351.288" x2="184.834" y2="257.837" gradientUnits="userSpaceOnUse">
<stop stop-color="#CCCCFF"/>
<stop offset="1" stop-color="#755CBB"/>
</linearGradient>
<linearGradient id="paint31_linear_53_206" x1="80.0532" y1="331.189" x2="80.0532" y2="282.355" gradientUnits="userSpaceOnUse">
<stop stop-color="#CCCCFF"/>
<stop offset="1" stop-color="#755CBB"/>
</linearGradient>
<linearGradient id="paint32_linear_53_206" x1="135.287" y1="329.007" x2="135.287" y2="291.675" gradientUnits="userSpaceOnUse">
<stop stop-color="#CCCCFF"/>
<stop offset="1" stop-color="#755CBB"/>
</linearGradient>
<linearGradient id="paint33_linear_53_206" x1="456.338" y1="276.601" x2="456.338" y2="262.737" gradientUnits="userSpaceOnUse">
<stop stop-color="#CCEDFF"/>
<stop offset="1" stop-color="#755CBB"/>
</linearGradient>
<linearGradient id="paint34_linear_53_206" x1="419.403" y1="318.869" x2="419.403" y2="243.1" gradientUnits="userSpaceOnUse">
<stop stop-color="#CCCCFF"/>
<stop offset="1" stop-color="#755CBB"/>
</linearGradient>
<linearGradient id="paint35_linear_53_206" x1="224.995" y1="265.537" x2="224.995" y2="208.519" gradientUnits="userSpaceOnUse">
<stop stop-color="#CCEDFF"/>
<stop offset="1" stop-color="#755CBB"/>
</linearGradient>
<linearGradient id="paint36_linear_53_206" x1="299.491" y1="257.829" x2="299.491" y2="179.134" gradientUnits="userSpaceOnUse">
<stop stop-color="#CCEDFF"/>
<stop offset="1" stop-color="#755CBB"/>
</linearGradient>
<linearGradient id="paint37_linear_53_206" x1="325.992" y1="272.222" x2="194.907" y2="272.222" gradientUnits="userSpaceOnUse">
<stop stop-color="#8642A0"/>
<stop offset="1" stop-color="#6456C0"/>
</linearGradient>
<linearGradient id="paint38_linear_53_206" x1="314.689" y1="196.374" x2="229.383" y2="196.374" gradientUnits="userSpaceOnUse">
<stop stop-color="#CCCCFF"/>
<stop offset="1" stop-color="#755CBB"/>
</linearGradient>
<linearGradient id="paint39_linear_53_206" x1="95.3896" y1="325.621" x2="95.3896" y2="276.119" gradientUnits="userSpaceOnUse">
<stop stop-color="#CCCCFF"/>
<stop offset="1" stop-color="#755CBB"/>
</linearGradient>
<linearGradient id="paint40_linear_53_206" x1="165.172" y1="381.465" x2="165.172" y2="231.562" gradientUnits="userSpaceOnUse">
<stop stop-color="#CCCCFF"/>
<stop offset="1" stop-color="#755CBB"/>
</linearGradient>
<linearGradient id="paint41_linear_53_206" x1="325.901" y1="451.877" x2="325.901" y2="408.905" gradientUnits="userSpaceOnUse">
<stop stop-color="#CCCCFF"/>
<stop offset="1" stop-color="#755CBB"/>
</linearGradient>
<linearGradient id="paint42_linear_53_206" x1="242.651" y1="440.073" x2="242.651" y2="419.204" gradientUnits="userSpaceOnUse">
<stop stop-color="#CCCCFF"/>
<stop offset="1" stop-color="#755CBB"/>
</linearGradient>
<linearGradient id="paint43_linear_53_206" x1="243.568" y1="171.841" x2="243.568" y2="29.0808" gradientUnits="userSpaceOnUse">
<stop offset="0.016" stop-color="#FFC2A9"/>
<stop offset="1" stop-color="#FF9595"/>
</linearGradient>
<linearGradient id="paint44_linear_53_206" x1="296.644" y1="114.234" x2="296.644" y2="72.1449" gradientUnits="userSpaceOnUse">
<stop offset="0.016" stop-color="#FFC2A9"/>
<stop offset="1" stop-color="#FF9595"/>
</linearGradient>
<linearGradient id="paint45_linear_53_206" x1="223.779" y1="130.151" x2="222.01" y2="120.964" gradientUnits="userSpaceOnUse">
<stop stop-color="#E1616A"/>
<stop offset="1" stop-color="#FF8883"/>
</linearGradient>
<linearGradient id="paint46_linear_53_206" x1="244.136" y1="85.4581" x2="244.136" y2="67.2401" gradientUnits="userSpaceOnUse">
<stop stop-color="#CF6074"/>
<stop offset="1" stop-color="#F37270"/>
</linearGradient>
<linearGradient id="paint47_linear_53_206" x1="207.896" y1="91.239" x2="207.896" y2="75.3858" gradientUnits="userSpaceOnUse">
<stop stop-color="#CF6074"/>
<stop offset="1" stop-color="#FF817F"/>
</linearGradient>
<linearGradient id="paint48_linear_53_206" x1="241.658" y1="173.636" x2="241.658" y2="0.503769" gradientUnits="userSpaceOnUse">
<stop stop-color="#2E33A0"/>
<stop offset="1" stop-color="#0665A5"/>
</linearGradient>
<linearGradient id="paint49_linear_53_206" x1="196.306" y1="64.6106" x2="196.306" y2="24.6709" gradientUnits="userSpaceOnUse">
<stop stop-color="#FFEADB"/>
<stop offset="0.9944" stop-color="#8860C7"/>
</linearGradient>
<linearGradient id="paint50_linear_53_206" x1="239.008" y1="173.595" x2="239.008" y2="166.157" gradientUnits="userSpaceOnUse">
<stop stop-color="#776D7E"/>
<stop offset="1" stop-color="#9D68C2"/>
</linearGradient>
<linearGradient id="paint51_linear_53_206" x1="217.243" y1="12.9294" x2="217.243" y2="7.40313" gradientUnits="userSpaceOnUse">
<stop stop-color="#1F77D1"/>
<stop offset="1" stop-color="#0686C9"/>
</linearGradient>
<linearGradient id="paint52_linear_53_206" x1="193.303" y1="39.4079" x2="193.303" y2="24.6709" gradientUnits="userSpaceOnUse">
<stop stop-color="#1F77D1"/>
<stop offset="1" stop-color="#0686C9"/>
</linearGradient>
</defs>
</svg>
