<svg width="887" height="784" viewBox="0 0 887 784" fill="none" xmlns="http://www.w3.org/2000/svg">
<path d="M691.344 387.579C698.37 375.45 710.799 370.457 710.799 370.457L715.132 372.491L705.377 390.242C706.686 397.065 711.352 400.819 711.352 400.819L711.37 400.782C711.37 400.782 717.235 401.965 723.302 398.581L730.623 379.684L734.956 381.718C734.956 381.718 739.105 394.476 734.348 407.679C734.348 407.679 732.504 411.95 732.172 412.338C730.457 414.354 725.975 416.665 717.308 416.129L687.434 473.283C689.924 477.573 690.348 482.954 688.098 487.761C684.447 495.601 675.153 498.985 667.334 495.324C659.515 491.663 656.14 482.344 659.792 474.504C662.041 469.678 666.43 466.553 671.299 465.721L695.843 406.089C689.998 399.913 688.762 395.05 689.205 392.239C689.278 391.629 691.344 387.579 691.344 387.579ZM666.781 486.153L674.692 489.869L681.847 484.858L681.091 476.131L673.18 472.414L666.025 477.425L666.781 486.153Z" fill="url(#paint0_linear_53_182)"/>
<path d="M689.186 392.24C696.212 380.111 708.641 375.118 708.641 375.118L712.975 377.152L703.219 394.903C704.529 401.726 709.194 405.48 709.194 405.48L709.213 405.443C709.213 405.443 715.077 406.626 721.144 403.242L728.465 384.345L732.798 386.379C732.798 386.379 736.948 399.137 732.19 412.34C732.19 412.34 725.441 421.418 715.169 420.79L685.295 477.944C687.785 482.234 688.209 487.615 685.959 492.422C682.308 500.262 673.014 503.646 665.195 499.985C657.376 496.324 654.001 487.005 657.652 479.165C659.902 474.338 664.291 471.214 669.159 470.382L693.704 410.749C686.567 403.261 689.186 392.24 689.186 392.24ZM664.605 490.814L672.516 494.53L679.671 489.519L678.915 480.792L671.003 477.075L663.848 482.086L664.605 490.814Z" fill="url(#paint1_linear_53_182)"/>
<path d="M730.619 379.692L734.946 381.719L732.776 386.376L728.449 384.349L730.619 379.692Z" fill="#E5E2FF"/>
<path d="M710.817 370.451L715.145 372.478L712.974 377.136L708.647 375.108L710.817 370.451Z" fill="#E5E2FF"/>
<path d="M666.759 486.146L674.678 489.856L672.508 494.513L664.589 490.803L666.759 486.146Z" fill="#E5E2FF"/>
<path d="M708.751 425.023L684.613 471.527C678.269 471.823 674.876 466.96 674.876 466.96L694.515 418.348C703.33 418.034 708.751 425.023 708.751 425.023ZM676.738 467.348C677.439 467.958 678.509 468.772 679.855 469.4C680.924 469.9 682.049 470.232 683.193 470.399L707.368 424.857C706.188 423.803 704.16 422.249 701.56 421.029C699.605 420.123 697.613 419.531 695.585 419.254L676.738 467.348Z" fill="url(#paint2_linear_53_182)"/>
<path d="M676.739 467.349L674.876 466.961C674.876 466.961 677.642 471.879 684.613 471.528L683.193 470.4C683.193 470.4 679.744 469.993 676.739 467.349Z" fill="#E5E2FF"/>
<path opacity="0.62" d="M708.751 425.024L707.368 424.839C707.368 424.839 703.238 420.549 695.585 419.255L694.534 418.368C694.534 418.368 697.613 417.831 702.408 420.069C707.184 422.306 708.751 425.024 708.751 425.024Z" fill="url(#paint3_linear_53_182)"/>
<path opacity="0.62" d="M715.151 420.771C715.151 420.771 703.552 418.7 693.649 410.731L690.514 418.349C690.514 418.349 694.073 414.817 701.892 418.016C711.02 421.751 710.522 429.111 710.522 429.111L715.151 420.771Z" fill="url(#paint4_linear_53_182)"/>
<path opacity="0.5" d="M690.514 418.368C692.745 416.759 695.29 416.722 695.29 416.722L671.926 473.303L669.104 470.381L690.514 418.368Z" fill="url(#paint5_linear_53_182)"/>
<path d="M690.514 418.367C690.514 418.367 692.967 425.93 685.922 429.517L690.514 418.367Z" fill="white"/>
<path opacity="0.6" d="M328.873 293.297L322.935 463.041C322.695 469.771 317.181 475.115 310.469 475.115H18.8653C12.0975 475.115 6.56528 469.697 6.39931 462.911L2.32397 291.189C2.15801 284.126 7.83775 278.338 14.8821 278.375L316.499 280.354C323.525 280.391 329.131 286.252 328.873 293.297Z" fill="#36D1F7"/>
<path opacity="0.6" d="M328.449 301.932H2.67461L2.15821 292.983C1.69719 285.069 8.00397 278.412 15.9151 278.468L317.421 280.853C323.71 280.909 328.762 286.104 328.633 292.41L328.449 301.932Z" fill="url(#paint6_linear_53_182)"/>
<path opacity="0.3" d="M312.055 315.634V413.856H212.346V315.116L312.055 315.634Z" fill="url(#paint7_linear_53_182)"/>
<path opacity="0.3" d="M72.6019 322.217H115.975V365.706H72.6019V322.217Z" fill="url(#paint8_linear_53_182)"/>
<path opacity="0.3" d="M21.4287 322.217H64.8013V365.706H21.4287V322.217Z" fill="url(#paint9_linear_53_182)"/>
<path opacity="0.3" d="M124.642 322.217H168.014V365.706H124.642V322.217Z" fill="url(#paint10_linear_53_182)"/>
<path d="M21.4285 391.076H132.35V401.486H21.4285V391.076Z" fill="#D1D4FB"/>
<path d="M21.4102 406.922H160.084V410.139H21.4102V406.922Z" fill="#D1D4FB"/>
<path d="M132.239 371.254H158.775V374.471H132.239V371.254Z" fill="#D1D4FB"/>
<path d="M81.0106 371.254H107.547V374.471H81.0106V371.254Z" fill="#D1D4FB"/>
<path d="M29.8378 371.254H56.374V374.471H29.8378V371.254Z" fill="#D1D4FB"/>
<path d="M123.406 412.173H168.014V415.391H123.406V412.173Z" fill="#D1D4FB"/>
<path d="M21.4102 417.351H160.084V420.568H21.4102V417.351Z" fill="#D1D4FB"/>
<path d="M21.4287 422.528H168.014V425.745H21.4287V422.528Z" fill="#D1D4FB"/>
<path d="M21.4287 427.705H168.014V430.923H21.4287V427.705Z" fill="#D1D4FB"/>
<path d="M21.4102 448.637H160.084V451.854H21.4102V448.637Z" fill="#D1D4FB"/>
<path d="M21.4287 453.814H168.014V457.031H21.4287V453.814Z" fill="#D1D4FB"/>
<path d="M21.4287 458.991H168.014V462.209H21.4287V458.991Z" fill="#D1D4FB"/>
<path d="M27.3113 432.883H168.014V436.1H27.3113V432.883Z" fill="#D1D4FB"/>
<path d="M21.4102 438.06H160.084V441.277H21.4102V438.06Z" fill="#D1D4FB"/>
<path d="M49.2373 443.237H168.014V446.455H49.2373V443.237Z" fill="#D1D4FB"/>
<path d="M284.117 394.163C299.755 394.163 312.479 381.405 312.479 365.725C312.479 350.045 299.755 337.286 284.117 337.286C268.479 337.286 255.755 350.045 255.755 365.725C255.755 381.405 268.479 394.163 284.117 394.163ZM284.117 339.117C298.741 339.117 310.635 351.043 310.635 365.706C310.635 380.369 298.741 392.296 284.117 392.296C269.494 392.296 257.599 380.369 257.599 365.706C257.599 351.043 269.494 339.117 284.117 339.117Z" fill="#E0FFFF"/>
<path d="M284.117 381.165C275.603 381.165 268.7 374.244 268.7 365.706C268.7 357.169 275.603 350.248 284.117 350.248C292.631 350.248 299.533 357.169 299.533 365.706C299.533 374.244 292.631 381.165 284.117 381.165Z" fill="white"/>
<path d="M212.346 343.555C227.983 343.555 240.708 330.796 240.708 315.116C240.708 299.436 227.983 286.678 212.346 286.678C196.708 286.678 183.984 299.436 183.984 315.116C183.965 330.796 196.708 343.555 212.346 343.555ZM212.346 288.508C226.969 288.508 238.863 300.435 238.863 315.098C238.863 329.761 226.969 341.687 212.346 341.687C197.722 341.687 185.828 329.761 185.828 315.098C185.809 300.453 197.722 288.508 212.346 288.508Z" fill="#E0FFFF"/>
<path d="M198.047 317.4C196.801 309.461 202.21 302.013 210.127 300.764C218.045 299.515 225.473 304.938 226.718 312.877C227.964 320.816 222.555 328.264 214.638 329.513C206.72 330.762 199.292 325.339 198.047 317.4Z" fill="white"/>
<path d="M317.034 288.601L314.95 285.457L303.738 295.294L305.472 297.698L317.034 288.601Z" fill="white"/>
<path d="M303.461 288.601L305.527 285.457L316.739 295.294L315.024 297.698L303.461 288.601Z" fill="white"/>
<path d="M10.5485 287.584H110.94V292.632H10.5485V287.584Z" fill="white"/>
<path d="M639.249 214.712V258.406L587.136 258.849L586.435 213.326L639.249 214.712Z" fill="url(#paint11_linear_53_182)"/>
<path d="M586.435 213.326L583.042 219.058L584.738 258.794L587.136 258.849L586.435 213.326Z" fill="url(#paint12_linear_53_182)"/>
<path d="M629.937 229.468L625.123 222.46L599.122 244.353L603.105 249.697L629.937 229.468Z" fill="white"/>
<path d="M598.44 229.468L603.253 222.46L629.272 244.353L625.289 249.697L598.44 229.468Z" fill="white"/>
<path opacity="0.81" d="M517.688 728.861H695.991C703.921 728.861 710.412 722.5 710.596 714.55L713.934 567.901C714.119 559.691 707.535 552.923 699.329 552.923H513.686C505.462 552.923 498.86 559.728 499.081 567.975L503.101 714.623C503.304 722.556 509.777 728.861 517.688 728.861Z" fill="url(#paint13_linear_53_182)"/>
<path d="M572.088 582.934H665.859V586.965H572.088V582.934Z" fill="white"/>
<path d="M618.983 592.715H665.859V596.746H618.983V592.715Z" fill="white"/>
<path d="M618.983 600.906H665.859V604.937H618.983V600.906Z" fill="white"/>
<path d="M576.403 600.906H613.708V604.937H576.403V600.906Z" fill="white"/>
<path d="M590.27 609.079H665.859V613.11H590.27V609.079Z" fill="white"/>
<path d="M638.954 617.252H665.859V621.283H638.954V617.252Z" fill="white"/>
<path d="M586.896 641.771H633.422V645.801H586.896V641.771Z" fill="white"/>
<path d="M581.529 625.425H665.859V629.456H581.529V625.425Z" fill="white"/>
<path d="M600.984 633.598H665.859V637.629H600.984V633.598Z" fill="white"/>
<path d="M635.339 641.771H665.859V645.801H635.339V641.771Z" fill="white"/>
<path d="M618.983 649.943H665.859V653.974H618.983V649.943Z" fill="white"/>
<path d="M652.416 658.116H665.859V662.147H652.416V658.116Z" fill="white"/>
<path d="M598.071 658.116H646.865V662.147H598.071V658.116Z" fill="white"/>
<path d="M586.896 666.049H633.422V670.08H586.896V666.049Z" fill="white"/>
<path d="M635.339 666.049H665.859V670.08H635.339V666.049Z" fill="white"/>
<path d="M618.983 674.221H665.859V678.252H618.983V674.221Z" fill="white"/>
<path d="M652.416 682.394H665.859V686.425H652.416V682.394Z" fill="white"/>
<path d="M598.071 682.394H646.865V686.425H598.071V682.394Z" fill="white"/>
<path d="M39.2424 245.629C39.2424 250.196 42.9306 253.894 47.4855 253.894C52.0404 253.894 55.7285 250.196 55.7285 245.629C55.7285 241.062 52.0404 237.363 47.4855 237.363C42.9306 237.363 39.2424 241.062 39.2424 245.629Z" fill="url(#paint14_linear_53_182)"/>
<path d="M811.725 437.265C811.725 442.941 816.317 447.546 821.978 447.546C827.64 447.546 832.231 442.941 832.231 437.265C832.231 431.588 827.64 426.984 821.978 426.984C816.317 426.984 811.725 431.588 811.725 437.265Z" fill="url(#paint15_linear_53_182)"/>
<path d="M23.2912 253.894C18.7387 253.894 15.0482 250.193 15.0482 245.629C15.0482 241.064 18.7387 237.363 23.2912 237.363C27.8437 237.363 31.5342 241.064 31.5342 245.629C31.5342 250.193 27.8437 253.894 23.2912 253.894Z" fill="url(#paint16_linear_53_182)"/>
<path d="M554.698 308.293C551.48 308.293 548.871 305.677 548.871 302.45C548.871 299.223 551.48 296.607 554.698 296.607C557.916 296.607 560.525 299.223 560.525 302.45C560.525 305.677 557.916 308.293 554.698 308.293Z" fill="url(#paint17_linear_53_182)"/>
<path d="M164.381 566.107C161.163 566.107 158.554 563.491 158.554 560.264C158.554 557.037 161.163 554.421 164.381 554.421C167.6 554.421 170.208 557.037 170.208 560.264C170.208 563.491 167.6 566.107 164.381 566.107Z" fill="url(#paint18_linear_53_182)"/>
<path d="M770.196 623.742C767.324 623.742 764.996 621.408 764.996 618.528C764.996 615.648 767.324 613.314 770.196 613.314C773.068 613.314 775.396 615.648 775.396 618.528C775.396 621.408 773.068 623.742 770.196 623.742Z" fill="url(#paint19_linear_53_182)"/>
<path opacity="0.73" d="M681.239 567.296H771.23C778.477 567.296 784.415 561.545 784.655 554.278L786.646 494.923C786.905 487.305 780.819 481 773.222 481H679.432C671.853 481 665.767 487.287 666.007 494.886L667.814 554.241C668.035 561.508 673.973 567.296 681.239 567.296Z" fill="url(#paint20_linear_53_182)"/>
<path d="M747.404 502.278L769.588 528.072L746.98 547.302V537.373L760.055 526.02L747.921 512.263L747.404 502.278Z" fill="white"/>
<path d="M708.402 503.443L686.199 529.218L708.807 548.449V538.538L695.733 527.184L710.283 511.745L708.402 503.443Z" fill="white"/>
<path d="M742.554 547.302L723.228 504.589H714.137L736.045 547.302H742.554Z" fill="white"/>
<path opacity="0.73" d="M75.9392 689.365H188.52C197.574 689.365 205.006 682.172 205.32 673.094L207.828 598.854C208.141 589.331 200.543 581.436 191.028 581.436H73.6894C64.2109 581.436 56.6133 589.294 56.8899 598.798L59.1581 673.038C59.4163 682.135 66.8479 689.365 75.9392 689.365Z" fill="url(#paint21_linear_53_182)"/>
<path d="M82.1355 593.381H185.238V654.788H82.1355V593.381Z" fill="#D1D4FB"/>
<path d="M142.824 608.617V639.552L116.472 622.67L142.824 608.617Z" fill="white"/>
<path d="M82.1355 666.104H185.238V671.725H82.1355V666.104Z" fill="#D1D4FB"/>
<path d="M158.554 666.104H185.238V671.725H158.554V666.104Z" fill="white"/>
<path fill-rule="evenodd" clip-rule="evenodd" d="M260.789 573.984L266.174 589.424C263.187 580.881 258.909 575.352 260.789 573.984ZM266.156 589.405L271.54 604.845C270.194 604.438 269.143 597.948 266.156 589.405ZM260.789 573.984L266.174 589.424C263.187 580.881 258.909 575.352 260.789 573.984ZM266.156 589.405L271.54 604.845C270.194 604.438 269.143 597.948 266.156 589.405ZM250.629 602.792L245.41 605.769L239.767 590.33L245.816 589.313C245.705 588.74 245.594 588.166 245.521 587.593C245.078 584.949 244.93 582.36 245.004 579.901L238.679 575.926L241.556 562.317L247.623 568.123C248.471 566.385 249.504 564.868 250.721 563.592C251.053 563.223 251.403 562.89 251.772 562.575L248.065 553.996L257.931 550.779L260.292 559.432C262.504 559.432 264.736 559.987 266.967 561.004L268.055 552.831L278.917 561.078L276.409 568.326C278.364 570.563 280.152 573.152 281.701 576.055L286.938 573.097L292.581 588.536L286.533 589.553C287.178 592.808 287.418 595.969 287.326 598.965L293.651 602.94L290.774 616.549L284.707 610.743C283.619 612.962 282.236 614.848 280.558 616.291L284.265 624.889L274.565 628.679L273.071 623.206L272.057 619.471C269.844 619.471 267.594 618.916 265.363 617.918L264.293 626.091L253.432 617.844L255.94 610.595C254.409 608.839 252.971 606.86 251.661 604.678C251.292 604.013 250.961 603.403 250.629 602.792ZM266.156 589.405C269.143 597.929 266.156 606.731 271.54 604.845C276.944 602.94 278.917 594.49 275.929 585.985C272.942 577.46 266.156 572.098 260.771 573.984C255.368 575.87 263.187 580.881 266.156 589.405ZM260.789 573.984L266.174 589.424C263.187 580.881 258.909 575.352 260.789 573.984ZM266.156 589.405L271.54 604.845C270.194 604.438 269.143 597.948 266.156 589.405Z" fill="url(#paint22_linear_53_182)"/>
<path fill-rule="evenodd" clip-rule="evenodd" d="M245.391 605.751L239.748 590.311L245.502 587.575L246.424 587.131L245.815 578.625L239.435 575.5L241.537 562.298L255.46 557.749L252.897 563.87L248.047 553.959L257.913 550.741L261.969 549.41L271.688 545.62L273.495 552.276L281.959 548.245L292.821 556.492L289.52 565.405L299.681 593.621L304.697 611.945L295.052 612.999L298.187 620.266L288.469 624.057L274.565 628.605L276.796 624.131L278.197 621.449L273.052 623.132L264.275 625.998L253.413 617.751L260.125 609.819L251.643 604.586L245.391 605.751ZM275.948 585.985C272.96 577.46 266.174 572.098 260.789 573.984L266.174 589.424L271.559 604.863C276.962 602.94 278.935 594.49 275.948 585.985Z" fill="url(#paint23_linear_53_182)"/>
<path fill-rule="evenodd" clip-rule="evenodd" d="M259.314 601.201L253.671 585.761L259.72 584.744C259.074 581.49 258.835 578.328 258.908 575.351L252.583 571.375L255.46 557.766L261.527 563.572C262.597 561.353 263.998 559.467 265.676 558.025L261.97 549.446L271.688 545.655L274.196 554.882C276.409 554.9 278.659 555.436 280.871 556.435L281.941 548.262L292.803 556.49L290.295 563.739C292.249 565.976 294.038 568.583 295.587 571.486L300.824 568.528L306.467 583.967L300.419 584.984C301.064 588.239 301.304 591.401 301.23 594.378L307.555 598.353L304.678 611.962L298.611 606.156C297.542 608.375 296.14 610.261 294.462 611.703L298.169 620.283L288.451 624.073L285.943 614.847C283.73 614.828 281.48 614.292 279.267 613.293L278.197 621.466L267.336 613.238L269.844 605.99C267.889 603.752 266.1 601.145 264.551 598.242L259.314 601.201ZM285.482 600.295C290.885 598.39 292.839 589.958 289.871 581.434C286.902 572.91 280.097 567.548 274.694 569.434C269.291 571.338 267.336 579.77 270.305 588.294C273.274 596.818 280.078 602.181 285.482 600.295Z" fill="url(#paint24_linear_53_182)"/>
<path opacity="0.5" fill-rule="evenodd" clip-rule="evenodd" d="M238.679 575.907L252.584 571.377L258.909 575.353L245.004 579.883L238.679 575.907Z" fill="#601734"/>
<path fill-rule="evenodd" clip-rule="evenodd" d="M253.413 617.77L267.336 613.221L269.844 605.991L255.921 610.54L253.413 617.77Z" fill="#B3D9FF"/>
<path opacity="0.5" fill-rule="evenodd" clip-rule="evenodd" d="M265.694 558.027L258.06 560.246L255.478 557.768L250.407 559.414L248.065 553.977L261.969 549.447L265.694 558.027Z" fill="#601734"/>
<path opacity="0.5" fill-rule="evenodd" clip-rule="evenodd" d="M285.961 614.867L278.677 617.899L279.285 613.295C279.267 613.295 283.195 615.384 285.961 614.867Z" fill="#601734"/>
<path opacity="0.5" fill-rule="evenodd" clip-rule="evenodd" d="M284.836 573.023L272.573 579.531C272.573 579.531 270.803 577.146 269.42 576.185C269.402 576.185 272.61 562.612 284.836 573.023Z" fill="#601734"/>
<path d="M566.518 112.718L554.698 136.479L562.59 140.085L573.655 118.266L566.518 112.718Z" fill="#FF1D9C"/>
<path d="M832.895 666.215L821.941 678.271L817.645 673.297L827.99 661.888L832.895 666.215Z" fill="#6877FF"/>
<path d="M276.409 257.703L287.436 264.415L291.844 256.002L279.783 248.957L276.409 257.703Z" fill="#4F31E0"/>
<path d="M222.101 682.45L237.904 693.711L242.33 685.316L226.987 676.33L222.101 682.45Z" fill="#4F31E0"/>
<path fill-rule="evenodd" clip-rule="evenodd" d="M242.976 200.253L245.649 138.014H164.381L167.719 200.068L242.976 200.253Z" fill="url(#paint25_linear_53_182)"/>
<path fill-rule="evenodd" clip-rule="evenodd" d="M245.649 138.014L248.083 141.675L245.649 200.253H242.975L245.649 138.014Z" fill="url(#paint26_linear_53_182)"/>
<path d="M218.67 150.439L231.413 149.071L229.68 191.71L218.67 190.638V186.218L225.051 186.366L225.77 153.49L218.67 153.694V150.439Z" fill="white"/>
<path d="M192.54 150.439L179.798 149.071L181.549 191.71L192.54 190.638V186.218L186.178 186.366L185.44 153.49L192.54 153.694V150.439Z" fill="white"/>
<path d="M335.88 205.855L349.452 170.224L314.249 177.602L335.88 205.855ZM347.995 171.481L335.603 203.988L315.872 178.212L347.995 171.481Z" fill="#744CA2"/>
<path d="M227.407 694.158L239.334 710.473L238.591 711.019L226.664 694.705L227.407 694.158Z" fill="#744CA2"/>
<path d="M350.522 560.56L363.338 544.566L362.619 543.992L349.803 559.987L350.522 560.56Z" fill="#744CA2"/>
<path d="M745.763 672.835L771.34 654.233L770.805 653.494L745.228 672.095L745.763 672.835Z" fill="#744CA2"/>
<path d="M749.068 650.307L768.211 675.504L767.478 676.064L748.335 650.867L749.068 650.307Z" fill="#744CA2"/>
<path d="M803.176 390.539L803.605 391.357L787.053 400.078L786.624 399.259L803.176 390.539Z" fill="#744CA2"/>
<path d="M151.122 176.345L151.804 175.734L132.681 153.86L131.999 154.47L151.122 176.345Z" fill="#744CA2"/>
<path d="M522.65 229.247L523.476 229.659L514.925 246.893L514.1 246.481L522.65 229.247Z" fill="#744CA2"/>
<path d="M636.783 519.217L658.763 537.653L658.171 538.362L636.191 519.926L636.783 519.217Z" fill="#744CA2"/>
<defs>
<linearGradient id="paint0_linear_53_182" x1="667.309" y1="495.326" x2="723.126" y2="376.183" gradientUnits="userSpaceOnUse">
<stop stop-color="#DBCCFF"/>
<stop offset="1" stop-color="#D1BBFF"/>
</linearGradient>
<linearGradient id="paint1_linear_53_182" x1="665.148" y1="499.983" x2="720.965" y2="380.84" gradientUnits="userSpaceOnUse">
<stop stop-color="#B5A6E7"/>
<stop offset="1" stop-color="#7760BF"/>
</linearGradient>
<linearGradient id="paint2_linear_53_182" x1="678.964" y1="470.333" x2="702.491" y2="420.112" gradientUnits="userSpaceOnUse">
<stop stop-color="#B5A6E7"/>
<stop offset="1" stop-color="#7760BF"/>
</linearGradient>
<linearGradient id="paint3_linear_53_182" x1="709.033" y1="424.403" x2="694.79" y2="417.767" gradientUnits="userSpaceOnUse">
<stop stop-color="#8B8BE0"/>
<stop offset="1" stop-color="#A177B7"/>
</linearGradient>
<linearGradient id="paint4_linear_53_182" x1="700.376" y1="424.382" x2="704.418" y2="415.754" gradientUnits="userSpaceOnUse">
<stop stop-color="white"/>
<stop offset="1" stop-color="#A177B7"/>
</linearGradient>
<linearGradient id="paint5_linear_53_182" x1="669.047" y1="471.94" x2="694.984" y2="416.576" gradientUnits="userSpaceOnUse">
<stop/>
<stop offset="1" stop-color="white"/>
</linearGradient>
<linearGradient id="paint6_linear_53_182" x1="328.622" y1="290.202" x2="2.11322" y2="290.202" gradientUnits="userSpaceOnUse">
<stop stop-color="#9D68C2"/>
<stop offset="1" stop-color="#AEC2FF"/>
</linearGradient>
<linearGradient id="paint7_linear_53_182" x1="262.202" y1="413.855" x2="262.202" y2="315.111" gradientUnits="userSpaceOnUse">
<stop stop-color="#CCEDFF"/>
<stop offset="1" stop-color="#9D68C2"/>
</linearGradient>
<linearGradient id="paint8_linear_53_182" x1="94.2831" y1="365.713" x2="94.2831" y2="322.218" gradientUnits="userSpaceOnUse">
<stop stop-color="#CCEDFF"/>
<stop offset="1" stop-color="#9D68C2"/>
</linearGradient>
<linearGradient id="paint9_linear_53_182" x1="43.1034" y1="365.713" x2="43.1034" y2="322.218" gradientUnits="userSpaceOnUse">
<stop stop-color="#CCEDFF"/>
<stop offset="1" stop-color="#9D68C2"/>
</linearGradient>
<linearGradient id="paint10_linear_53_182" x1="146.318" y1="365.713" x2="146.318" y2="322.218" gradientUnits="userSpaceOnUse">
<stop stop-color="#CCEDFF"/>
<stop offset="1" stop-color="#9D68C2"/>
</linearGradient>
<linearGradient id="paint11_linear_53_182" x1="612.846" y1="258.845" x2="612.846" y2="213.317" gradientUnits="userSpaceOnUse">
<stop stop-color="#D93DE3"/>
<stop offset="1" stop-color="#FF6DBA"/>
</linearGradient>
<linearGradient id="paint12_linear_53_182" x1="585.093" y1="258.845" x2="585.093" y2="213.317" gradientUnits="userSpaceOnUse">
<stop stop-color="#A242EA"/>
<stop offset="1" stop-color="#FE117E"/>
</linearGradient>
<linearGradient id="paint13_linear_53_182" x1="620.724" y1="738.458" x2="596.04" y2="542.448" gradientUnits="userSpaceOnUse">
<stop stop-color="#067EFF"/>
<stop offset="1" stop-color="#3E37A0"/>
</linearGradient>
<linearGradient id="paint14_linear_53_182" x1="47.4873" y1="253.891" x2="47.4873" y2="237.365" gradientUnits="userSpaceOnUse">
<stop stop-color="#459FFF"/>
<stop offset="1" stop-color="#A96DFF"/>
</linearGradient>
<linearGradient id="paint15_linear_53_182" x1="821.986" y1="447.542" x2="821.986" y2="426.975" gradientUnits="userSpaceOnUse">
<stop stop-color="#459FFF"/>
<stop offset="1" stop-color="#A96DFF"/>
</linearGradient>
<linearGradient id="paint16_linear_53_182" x1="23.2834" y1="253.891" x2="23.2834" y2="237.365" gradientUnits="userSpaceOnUse">
<stop stop-color="#B31A8F"/>
<stop offset="1" stop-color="#FE117E"/>
</linearGradient>
<linearGradient id="paint17_linear_53_182" x1="554.692" y1="308.285" x2="554.692" y2="296.6" gradientUnits="userSpaceOnUse">
<stop stop-color="#B31A8F"/>
<stop offset="1" stop-color="#FE117E"/>
</linearGradient>
<linearGradient id="paint18_linear_53_182" x1="164.381" y1="566.113" x2="164.381" y2="554.428" gradientUnits="userSpaceOnUse">
<stop stop-color="#8642A0"/>
<stop offset="1" stop-color="#6456C0"/>
</linearGradient>
<linearGradient id="paint19_linear_53_182" x1="770.199" y1="623.747" x2="770.199" y2="613.301" gradientUnits="userSpaceOnUse">
<stop stop-color="#8642A0"/>
<stop offset="1" stop-color="#6456C0"/>
</linearGradient>
<linearGradient id="paint20_linear_53_182" x1="726.321" y1="567.298" x2="726.321" y2="481.016" gradientUnits="userSpaceOnUse">
<stop stop-color="#D906E3"/>
<stop offset="1" stop-color="#FF6DF9"/>
</linearGradient>
<linearGradient id="paint21_linear_53_182" x1="132.342" y1="689.368" x2="132.342" y2="581.431" gradientUnits="userSpaceOnUse">
<stop stop-color="#D906E3"/>
<stop offset="1" stop-color="#FF6DF9"/>
</linearGradient>
<linearGradient id="paint22_linear_53_182" x1="272.016" y1="629.011" x2="260.343" y2="550.406" gradientUnits="userSpaceOnUse">
<stop stop-color="#1852A0"/>
<stop offset="1" stop-color="#067ED3"/>
</linearGradient>
<linearGradient id="paint23_linear_53_182" x1="280.678" y1="626.981" x2="259.599" y2="548.906" gradientUnits="userSpaceOnUse">
<stop stop-color="#1852A0"/>
<stop offset="1" stop-color="#067ED3"/>
</linearGradient>
<linearGradient id="paint24_linear_53_182" x1="290.528" y1="623.758" x2="278.082" y2="544.634" gradientUnits="userSpaceOnUse">
<stop stop-color="#188DC1"/>
<stop offset="1" stop-color="#06BFE7"/>
</linearGradient>
<linearGradient id="paint25_linear_53_182" x1="216.953" y1="207.275" x2="195.952" y2="129.489" gradientUnits="userSpaceOnUse">
<stop stop-color="#188DC1"/>
<stop offset="1" stop-color="#06BFE7"/>
</linearGradient>
<linearGradient id="paint26_linear_53_182" x1="252.872" y1="198.298" x2="237.21" y2="140.291" gradientUnits="userSpaceOnUse">
<stop stop-color="#1852A0"/>
<stop offset="1" stop-color="#067ED3"/>
</linearGradient>
</defs>
</svg>
