<svg width="74" height="142" viewBox="0 0 74 142" fill="none" xmlns="http://www.w3.org/2000/svg">
<path d="M35.9961 130.97C35.4303 131.707 34.6462 132.266 33.6436 132.646C32.641 133.025 31.5023 133.215 30.2275 133.215C28.917 133.215 27.7568 132.918 26.7471 132.323C25.7373 131.729 24.9567 130.88 24.4053 129.777C23.861 128.667 23.5781 127.375 23.5566 125.899V124.675C23.5566 122.312 24.1224 120.467 25.2539 119.143C26.3854 117.811 27.9645 117.145 29.9912 117.145C31.7314 117.145 33.1136 117.574 34.1377 118.434C35.1618 119.293 35.7777 120.532 35.9854 122.15H33.3213C33.0205 120.267 31.9284 119.325 30.0449 119.325C28.8275 119.325 27.9001 119.766 27.2627 120.646C26.6325 121.52 26.3066 122.806 26.2852 124.503V125.706C26.2852 127.396 26.6396 128.71 27.3486 129.648C28.0648 130.579 29.0566 131.045 30.3242 131.045C31.7135 131.045 32.7018 130.73 33.2891 130.1V127.038H30.0664V124.976H35.9961V130.97ZM51.4648 125.588C51.4648 127.12 51.1999 128.467 50.6699 129.627C50.14 130.78 49.3809 131.668 48.3926 132.291C47.4115 132.907 46.2799 133.215 44.998 133.215C43.7305 133.215 42.599 132.907 41.6035 132.291C40.6152 131.668 39.849 130.784 39.3047 129.638C38.7676 128.492 38.4954 127.171 38.4883 125.674V124.793C38.4883 123.268 38.7568 121.921 39.2939 120.754C39.8382 119.587 40.6009 118.695 41.582 118.079C42.5703 117.456 43.7018 117.145 44.9766 117.145C46.2513 117.145 47.3792 117.452 48.3604 118.068C49.3486 118.677 50.1113 119.558 50.6484 120.711C51.1855 121.857 51.4577 123.192 51.4648 124.718V125.588ZM48.7471 124.771C48.7471 123.038 48.4176 121.71 47.7588 120.786C47.1071 119.862 46.1797 119.4 44.9766 119.4C43.8021 119.4 42.8818 119.862 42.2158 120.786C41.557 121.703 41.2204 123.003 41.2061 124.686V125.588C41.2061 127.307 41.5391 128.635 42.2051 129.573C42.8783 130.511 43.8092 130.98 44.998 130.98C46.2012 130.98 47.125 130.522 47.7695 129.605C48.4212 128.689 48.7471 127.35 48.7471 125.588V124.771Z" fill="#111111"/>
<path d="M5.7756 57.5484C5.90409 60.1534 8.5511 58.9395 9.73323 58.1301C10.864 57.346 11.1981 58.0036 11.3008 56.4861C11.3779 55.4746 11.4806 54.4882 11.4293 53.4767C9.70743 53.3249 7.8571 53.7296 6.44355 54.7411C5.69846 55.2468 4.36206 56.9162 5.77535 57.5484H5.7756ZM58.5356 89.5663C60.5657 90.8056 64.2922 94.5488 61.2339 96.3697C58.3041 99.0001 56.6597 93.4611 54.0896 92.7024C55.1945 91.2103 56.5823 89.8446 58.5356 89.5663ZM22.1972 93.7899C19.8071 94.1441 18.4707 96.2684 16.4663 97.3561C14.5902 98.4435 13.8707 97.0019 13.7164 96.6985C13.4339 96.5721 13.4594 96.8249 12.9968 96.3697C11.2495 93.6634 14.7958 91.6909 16.6462 90.3504C19.216 89.8446 20.8352 92.0449 22.1972 93.7899ZM69.8174 57.2196C69.6889 59.8246 67.0419 58.6107 65.8598 57.8013C64.729 57.0172 64.3949 57.6748 64.2922 56.1573C64.2148 55.1458 64.1121 54.1594 64.1637 53.1479C65.8853 52.9961 67.7356 53.4008 69.1492 54.4123C69.869 54.918 71.2309 56.5874 69.8174 57.2196Z" fill="#F6D2A2"/>
<path d="M62.802 25.4544C71.9765 22.2678 64.8066 9.90082 56.814 15.3634C51.5716 10.9375 44.3503 10.1281 36.7689 10.1281C29.3423 10.7102 22.2748 12.0505 17.3407 16.2992C9.3736 11.2409 2.02388 23.3804 11.3782 26.4408C8.757 36.4557 11.7379 46.6732 11.3266 56.8653C10.9412 66.0208 8.49978 78.2864 13.6653 86.506C18.06 93.5369 27.517 96.0408 35.304 96.3191C45.2494 96.673 57.3021 94.2704 62.1336 84.7864C66.7594 75.7576 65.4746 64.5032 64.8835 54.7664C64.2924 44.9282 65.3974 34.9384 62.8018 25.4542L62.802 25.4544Z" fill="#69D7E2"/>
<path d="M70.5114 55.6769C70.2544 55.1457 69.7663 54.5387 69.3037 54.2099C68.1216 53.3753 66.6051 52.9201 65.0375 52.8696C64.9862 51.3015 64.9349 49.5816 64.9349 47.4068V45.434C64.9091 39.2125 64.8319 36.4811 64.4723 33.0668C64.1895 30.3861 63.7525 27.9076 63.1359 25.5809C65.2176 24.7969 66.5796 23.5071 67.1193 21.8377C67.6332 20.2951 67.3762 18.5501 66.5027 17.0074C65.6031 15.4899 64.164 14.3516 62.4935 13.8967C60.6945 13.416 58.7415 13.7702 56.8653 15.0092C55.1948 13.6184 53.2676 12.5561 51.1087 11.7467C47.2796 10.3561 42.8338 9.82495 36.7945 9.82495V10.0778L36.7687 9.82495C30.3183 10.3307 25.5382 11.3171 21.5806 13.2139C19.9872 13.9726 18.5739 14.883 17.3404 15.9453C15.4385 14.782 13.4597 14.5037 11.6352 15.0603C9.93912 15.566 8.47424 16.7548 7.60041 18.2974C6.72659 19.8401 6.52097 21.6105 7.11203 23.128C7.70309 24.6453 9.06504 25.8341 11.0955 26.5676C10.453 29.1217 10.1189 31.828 10.0676 34.8123C10.016 37.7207 10.1445 40.0476 10.6071 45.3078C10.9412 49.2279 11.0697 51.0235 11.1213 53.1986C9.3736 53.1227 7.62621 53.5779 6.31535 54.5138C5.85276 54.8426 5.33884 55.4243 5.10768 55.9805C4.77358 56.6889 4.90206 57.3211 5.57026 57.7004C5.67294 58.9143 6.36694 59.4706 7.42059 59.3695C8.19148 59.2936 9.11664 58.8889 9.91332 58.3326C10.0816 58.2127 10.2626 58.111 10.453 58.0292C10.5302 58.0038 10.5815 57.9784 10.6587 57.953C10.6587 57.953 10.8127 57.9028 10.8643 57.8774C10.9412 57.852 11.0183 57.8266 11.0697 57.7761C11.0183 58.9648 10.9156 60.2041 10.6842 63.0368C10.4272 66.2232 10.2988 67.9684 10.2474 69.9158C10.016 77.1488 10.8898 82.4092 13.511 86.5823C14.3335 87.8974 15.3358 89.0608 16.518 90.1231C16.2865 90.2747 15.31 90.983 15.0017 91.2105C13.9223 92.0199 13.1772 92.7027 12.7402 93.4613C12.1749 94.4477 12.1749 95.4341 12.8173 96.471L12.8431 96.4963L12.8689 96.5217C13.1514 96.7998 13.3057 96.8757 13.5113 96.8757H13.5879C13.6137 96.9264 13.6395 96.9516 13.6653 97.0021C13.7422 97.1285 13.8193 97.2296 13.8965 97.3309C14.5389 98.0644 15.4383 98.2414 16.6462 97.5333C17.2886 97.2045 17.7512 96.8249 18.7277 96.0157L18.7793 95.9649C20.3468 94.65 21.1177 94.1696 22.2743 93.9924L22.6856 93.9165C22.8396 93.9927 22.9939 94.0432 23.1737 94.1189C26.823 95.5605 31.0631 96.3445 35.3551 96.4963C40.9061 96.6987 46.2515 96.0157 50.7744 94.3971C51.9823 93.9673 53.1131 93.4613 54.1925 92.905C54.8607 93.1579 55.4257 93.689 56.5054 94.9283C56.5568 94.9791 56.5568 94.9791 56.5823 95.0293C56.6339 95.0801 56.6339 95.1055 56.6597 95.1306C56.7108 95.2066 56.7879 95.2571 56.8393 95.333C57.6876 96.3191 58.2531 96.7998 58.8955 97.078C59.7432 97.432 60.5657 97.255 61.4138 96.4963C62.9044 95.5859 63.0071 94.1697 62.0304 92.5508C61.3366 91.4129 60.129 90.2241 58.9982 89.4655C60.3346 88.1757 61.4909 86.633 62.3903 84.8878C64.8575 80.032 65.8084 74.3669 65.7571 67.0831C65.7313 64.5035 65.6283 62.2528 65.3458 57.953V57.8269C65.4743 57.8774 65.6028 57.9533 65.7313 58.0544C66.528 58.5855 67.4531 59.0153 68.224 59.0913C69.2777 59.1926 69.9717 58.636 70.0743 57.4222C70.7168 57.0174 70.8452 56.3852 70.5111 55.6771L70.5114 55.6769ZM62.3394 14.4276C63.8815 14.8323 65.2179 15.8946 66.0401 17.3108C66.8626 18.727 67.0937 20.3205 66.6312 21.7367C66.143 23.2288 64.9093 24.4176 62.9818 25.1257C62.5975 23.7716 62.143 22.4379 61.6199 21.1296C62.3652 20.4974 62.7249 19.7134 62.1338 18.6008C61.543 17.4878 60.5149 17.3613 59.461 17.6901C58.7928 16.8302 58.0477 16.0715 57.2768 15.3634C58.9729 14.3011 60.7205 13.9977 62.3394 14.4276ZM7.54933 22.976C7.00961 21.61 7.18943 19.9917 8.01191 18.5754C8.83414 17.159 10.1705 16.0464 11.7639 15.5912C13.4086 15.1105 15.1818 15.338 16.9295 16.3498C15.9189 17.2437 15.0215 18.2542 14.2566 19.3595C12.9202 18.6765 11.5583 18.5501 10.7874 19.9409C9.99072 21.4333 10.9159 22.3689 12.2265 23.077C12.0467 23.5071 11.8666 23.9623 11.7126 24.4176C11.5325 24.9739 11.3527 25.5555 11.1986 26.1372C9.32252 25.4291 8.08905 24.3417 7.54933 22.976ZM10.6589 57.4473C10.6331 57.4473 10.4788 57.4978 10.4788 57.5229C10.402 57.5483 10.3248 57.5737 10.2477 57.6243C10.0421 57.7002 9.83644 57.8266 9.63108 57.9782C8.91128 58.4842 8.03745 58.8635 7.36925 58.914C6.59836 58.99 6.16158 58.6612 6.08444 57.7507C6.62416 57.5737 6.85533 57.4473 7.06095 57.1439L6.64971 56.8402C6.49568 57.0426 6.3414 57.1185 5.87882 57.2701C5.85302 57.2701 5.85302 57.2701 5.82722 57.2955C5.41624 57.0677 5.3391 56.7138 5.57052 56.208C5.77614 55.7528 6.23872 55.2216 6.62416 54.9436C7.85763 54.0583 9.50234 53.6285 11.147 53.7295C11.147 54.3617 11.1728 54.9939 11.147 55.6007C11.147 55.6769 11.1471 55.7274 11.1213 55.8033C11.0957 56.1572 11.0957 56.3091 11.0699 56.4863C10.993 57.2195 10.9414 57.3206 10.6589 57.4473ZM18.4199 95.6108L18.3683 95.6615C17.4176 96.4707 16.955 96.7995 16.3639 97.1283C15.3874 97.71 14.7192 97.5835 14.2566 97.0272C14.1795 96.9511 14.1282 96.85 14.0768 96.7741C14.051 96.7487 14.0252 96.6984 13.9997 96.6731V96.6477C14.0513 96.1924 14.2311 95.8636 14.6937 95.1555C14.7195 95.1301 14.7195 95.1301 14.7195 95.105C15.002 94.7003 15.1305 94.4728 15.259 94.1945L14.7964 93.9922C14.6937 94.2199 14.5652 94.4223 14.308 94.8267C14.2822 94.8521 14.2822 94.8521 14.2822 94.8775C13.8199 95.5351 13.614 95.9396 13.5113 96.3948H13.4855H13.4084C13.3568 96.3694 13.2799 96.3189 13.1772 96.2178C12.1749 94.6498 12.9716 93.3095 15.2329 91.6401C15.5157 91.438 16.4666 90.7804 16.7236 90.578C16.7752 90.578 16.8263 90.5527 16.8779 90.5273C18.2654 91.6909 19.8845 92.7024 21.6835 93.5369C21.6835 93.5623 21.7093 93.5877 21.7349 93.6131C20.6812 93.8657 19.8587 94.3969 18.4196 95.6108H18.4199ZM61.5686 92.8542C62.3652 94.1694 62.3394 95.2314 61.3371 95.9649C61.2603 95.8131 61.2087 95.6362 61.106 95.3833C61.106 95.3579 61.106 95.3579 61.0802 95.3325C60.7205 94.3715 60.4894 93.967 60.0523 93.5118L59.6924 93.8657C60.0779 94.2199 60.2579 94.5992 60.6176 95.4843C60.6176 95.5097 60.6176 95.5097 60.6434 95.5351C60.7719 95.8636 60.849 96.066 60.9261 96.2432C60.2579 96.7995 59.6669 96.9008 59.05 96.6225C58.5103 96.3948 57.9964 95.9142 57.1739 95.004C57.1226 94.9532 57.0712 94.8775 57.0199 94.8016C56.9941 94.7762 56.9683 94.7508 56.9425 94.7003C56.8914 94.6498 56.8914 94.6498 56.8656 94.5992C55.9146 93.5118 55.3494 92.9301 54.7325 92.6011C56.1718 91.7919 57.4569 90.8815 58.6132 89.8192C59.6924 90.6032 60.9004 91.7665 61.5686 92.8542ZM61.9282 84.66C59.7182 89.0354 55.8119 92.1207 50.5693 93.9922C46.0977 95.5856 40.8037 96.2432 35.3298 96.0409C25.8984 95.7121 17.7261 92.4749 13.897 86.3545C11.3271 82.2825 10.4788 77.098 10.7103 69.9661C10.7874 68.0187 10.8901 66.2737 11.147 63.0871C11.4298 59.4957 11.507 58.4588 11.5841 56.8402C11.6354 55.6769 11.6354 54.4881 11.6099 53.2237C11.5583 50.9981 11.4298 49.2277 11.0957 45.257C10.6331 39.9966 10.5046 37.695 10.556 34.8118C10.6334 31.0186 11.147 27.6799 12.2265 24.5189C13.9734 19.3844 17.1862 15.9194 21.812 13.6689C25.6925 11.7977 30.3954 10.8365 36.7945 10.3305C42.7825 10.3305 47.1511 10.8616 50.9289 12.2273C55.4518 13.8713 58.8183 16.7543 61.1313 21.1804C62.6219 24.7715 63.4958 28.6411 63.9584 33.0922C64.318 36.4811 64.3951 39.2125 64.4209 45.4086V47.3814C64.4467 50.4416 64.4978 52.5913 64.6266 54.741C64.6779 55.5756 64.7034 55.9298 64.8319 57.9277C65.1147 62.2271 65.2176 64.4528 65.2432 67.0323C65.2948 74.2907 64.3693 79.8799 61.9279 84.66H61.9282ZM69.7921 56.9667C69.7663 56.9667 69.7408 56.9413 69.7152 56.9413C69.2526 56.7897 69.0984 56.6884 68.9441 56.5114L68.5328 56.8148C68.7643 57.1185 68.9954 57.2449 69.5096 57.4216C69.4067 58.3324 68.9699 58.6612 68.2248 58.5852C67.5566 58.5345 66.6825 58.13 65.963 57.6494C65.7573 57.4978 65.552 57.3965 65.3464 57.2955C65.3206 57.2955 65.2948 57.2701 65.269 57.2701C65.1663 55.8792 65.1663 55.5251 65.1149 54.7915L65.0378 53.4258C66.4771 53.4512 67.8904 53.8811 68.9696 54.6651C69.3553 54.9434 69.8179 55.4745 70.0235 55.9295C70.2805 56.3596 70.2291 56.7389 69.7921 56.9667Z" fill="#111111"/>
<path d="M40.6648 36.2105C40.6906 37.5003 40.9475 38.9165 40.7161 40.2822C40.3562 40.9398 39.6883 41.016 39.0972 41.2686C38.2747 41.1421 37.5807 40.611 37.2469 39.8524C37.0413 38.3097 37.2982 36.8427 37.3754 35.3C37.3754 35.2492 38.3519 35.3254 39.2257 35.5783C39.9708 35.8058 40.6648 36.1851 40.6648 36.2105ZM33.3919 36.3115C32.6721 38.9927 34.3429 43.3678 37.0926 39.7764C36.887 38.2589 37.1184 36.7922 37.1953 35.3C37.2211 35.1736 33.4177 36.1346 33.3919 36.3115Z" fill="white"/>
<path d="M40.9733 37.3992C40.9217 36.6403 40.8962 36.3369 40.8962 35.9576V35.7807L40.7163 35.7299L37.4783 34.7437V34.5665L37.1442 34.6427H37.1184V34.6678L33.4693 35.5783L33.3408 35.6037L33.2892 35.7299C32.724 37.0704 32.8525 39.0937 33.572 40.333C34.3945 41.7492 35.7306 41.7744 37.0928 40.1558C37.2826 40.5163 37.556 40.8278 37.8908 41.0651C38.2256 41.3024 38.6124 41.4588 39.02 41.5217H39.0974L39.1743 41.4963C39.2773 41.4456 39.3799 41.4202 39.56 41.3445C39.5858 41.3445 39.5858 41.3445 39.6114 41.3191C40.3564 41.0662 40.665 40.8639 40.922 40.3835L40.9478 40.3581V40.3076C41.0247 39.8524 41.0504 39.3717 41.0504 38.8409C41.0504 38.4613 41.0247 38.1071 40.9733 37.3992ZM36.8614 36.4634C36.8356 36.9186 36.8101 37.0956 36.7845 37.3485C36.7329 38.2843 36.7329 38.9924 36.8103 39.7005C35.6021 41.2181 34.6514 41.2181 34.009 40.0799C33.3922 39.0178 33.2634 37.222 33.7263 36.0335L36.9641 35.2241C36.9385 35.5529 36.913 35.8817 36.8614 36.4634ZM40.4594 40.2066C40.2796 40.51 40.0481 40.6618 39.4313 40.8641C39.4055 40.8641 39.4055 40.8641 39.3799 40.8893C39.2259 40.9401 39.123 40.9903 39.0458 41.0157C38.3518 40.8893 37.761 40.434 37.4783 39.8018C37.4011 39.1189 37.4011 38.4108 37.4525 37.4752C37.4783 37.222 37.4783 37.0451 37.5299 36.5898C37.581 36.0084 37.6068 35.6542 37.6068 35.3254L40.408 36.16C40.408 36.4888 40.4338 36.7922 40.4852 37.4498C40.5365 38.1327 40.5621 38.4867 40.5621 38.8914C40.5621 39.3717 40.5363 39.8018 40.4594 40.2066Z" fill="#111111"/>
<path d="M17.9225 25.192C20.2868 34.2459 35.0123 31.9192 34.447 22.8399C33.7785 11.9648 15.6609 14.064 17.9223 25.192" fill="white"/>
<path d="M34.704 22.8145C34.5497 20.1842 33.3676 18.1357 31.4145 16.8459C29.6669 15.6826 27.354 15.2274 25.0669 15.5054C22.7797 15.8093 20.6722 16.8208 19.2844 18.4143C17.7427 20.1844 17.1516 22.5111 17.6913 25.192L17.9225 25.1412L17.6913 25.192C20.1069 34.4988 35.2692 32.248 34.704 22.8145ZM18.1537 25.1415C17.6397 22.5873 18.2053 20.4122 19.6443 18.7682C20.955 17.276 22.9338 16.2899 25.1182 16.0116C27.3026 15.7334 29.4871 16.1635 31.132 17.276C32.9563 18.4902 34.0616 20.387 34.2156 22.8907C34.7553 31.7171 20.441 33.8417 18.1539 25.1415H18.1537Z" fill="#111111"/>
<path d="M21.983 26.3554C23.3597 26.3554 24.4757 25.1665 24.4757 23.6999C24.4757 22.2333 23.3597 21.0444 21.983 21.0444C20.6063 21.0444 19.4902 22.2333 19.4902 23.6999C19.4902 25.1665 20.6063 26.3554 21.983 26.3554Z" fill="#111111"/>
<path d="M23.1135 24.9893C23.44 24.9893 23.7046 24.6837 23.7046 24.3066C23.7046 23.9296 23.44 23.6239 23.1135 23.6239C22.7871 23.6239 22.5225 23.9296 22.5225 24.3066C22.5225 24.6837 22.7871 24.9893 23.1135 24.9893Z" fill="white"/>
<path d="M38.5742 23.4992C40.399 33.8937 57.6685 31.1369 55.1758 20.6665C52.94 11.2584 37.9573 13.8634 38.5742 23.4992Z" fill="white"/>
<path d="M55.4068 20.616C53.1197 10.9296 37.7007 13.5851 38.3173 23.5244V23.5497C39.1651 28.456 43.6113 30.9599 48.5197 30.1505C50.7552 29.7712 52.7598 28.7091 54.0704 27.1411C55.5095 25.3958 56.0234 23.145 55.4068 20.616ZM53.6852 26.8374C52.4515 28.3044 50.5756 29.316 48.4425 29.6701C43.7909 30.4288 39.6277 28.0767 38.8054 23.4738C38.2399 14.1163 52.7856 11.6124 54.9442 20.717C55.5097 23.1196 55.0472 25.2189 53.6852 26.8374Z" fill="#111111"/>
<path d="M42.8144 25.6995C44.1628 25.6995 45.2558 24.5106 45.2558 23.044C45.2558 21.5775 44.1628 20.3885 42.8144 20.3885C41.4661 20.3885 40.373 21.5775 40.373 23.044C40.373 24.5106 41.4661 25.6995 42.8144 25.6995Z" fill="#111111"/>
<path d="M43.9451 24.3335C44.2573 24.3335 44.5104 24.0278 44.5104 23.6507C44.5104 23.2737 44.2573 22.968 43.9451 22.968C43.633 22.968 43.3799 23.2737 43.3799 23.6507C43.3799 24.0278 43.633 24.3335 43.9451 24.3335Z" fill="white"/>
<path d="M33.9229 30.848C31.8925 31.0249 30.2478 33.377 31.3017 35.2485C32.6892 37.727 35.7988 35.021 37.7262 35.2739C39.962 35.3247 41.7868 37.6006 43.56 35.6786C45.5388 33.554 42.7119 31.4802 40.4759 30.5697L33.9229 30.848Z" fill="#F6D2A2"/>
<path d="M43.8167 32.5424C43.1227 31.6825 41.915 30.8985 40.6041 30.3673L40.5528 30.3419H40.5015L33.9226 30.5951C31.6353 30.7974 29.9908 33.4024 31.0955 35.3749C31.5326 36.1338 32.1236 36.5131 32.9203 36.5636C33.5111 36.589 34.1282 36.4626 35.079 36.1338C35.1561 36.1084 35.2588 36.083 35.3873 36.0325C36.6723 35.6026 37.1862 35.4762 37.7002 35.5521H37.726C38.3426 35.5521 38.8568 35.7291 39.8333 36.1084C40.9127 36.5382 41.2468 36.6649 41.7863 36.7152C42.5319 36.766 43.1743 36.5131 43.7651 35.8809C44.7674 34.7932 44.716 33.6299 43.8167 32.5424ZM43.3796 35.5267C42.8915 36.0579 42.4031 36.2351 41.8121 36.2097C41.3495 36.1843 41.0412 36.0579 40.0131 35.6532C38.9852 35.2233 38.42 35.0717 37.7518 35.0463C37.1094 34.9702 36.5696 35.0969 35.2074 35.5521C35.079 35.6026 34.9763 35.628 34.8991 35.6532C33.023 36.2854 32.1236 36.2348 31.5068 35.122C30.5816 33.4783 31.9952 31.2526 33.9226 31.0757L40.4243 30.8225C41.658 31.3286 42.763 32.0618 43.4054 32.8461C44.1763 33.7563 44.2021 34.6668 43.3796 35.5267Z" fill="#231F20"/>
<path d="M40.9897 29.7606C40.193 26.8773 33.5112 27.3074 33.6652 30.747C33.9993 33.3011 41.7605 32.6182 40.9897 29.7606Z" fill="#111111"/>
</svg>
