<svg width="100" height="143" viewBox="0 0 100 143" fill="none" xmlns="http://www.w3.org/2000/svg">
<path d="M31.0508 118.359H33.7578V129.327C33.7578 130.824 33.2887 132.013 32.3506 132.894C31.4196 133.774 30.1878 134.215 28.6553 134.215C27.0225 134.215 25.762 133.803 24.874 132.979C23.986 132.156 23.542 131.01 23.542 129.542H26.249C26.249 130.373 26.4531 130.999 26.8613 131.422C27.2767 131.837 27.8747 132.045 28.6553 132.045C29.3857 132.045 29.9658 131.805 30.3955 131.325C30.8324 130.838 31.0508 130.169 31.0508 129.316V118.359ZM45.3916 130.358H39.333L38.0654 134H35.2402L41.1484 118.359H43.5869L49.5059 134H46.6699L45.3916 130.358ZM40.0957 128.167H44.6289L42.3623 121.679L40.0957 128.167ZM55.9619 130.595L59.9365 118.359H62.9229L57.2939 134H54.6621L49.0547 118.359H52.0303L55.9619 130.595ZM72.6338 130.358H66.5752L65.3076 134H62.4824L68.3906 118.359H70.8291L76.748 134H73.9121L72.6338 130.358ZM67.3379 128.167H71.8711L69.6045 121.679L67.3379 128.167Z" fill="#111111"/>
<path d="M36.5239 76.7755C36.5239 76.7755 32.7394 78.9814 39.2173 79.7279C47.0651 80.6252 51.076 80.4966 59.7243 78.856C59.7243 78.856 61.998 80.2849 65.1735 81.5226C45.7862 89.8508 21.2962 81.0402 36.5239 76.7755ZM34.1549 65.9077C34.1549 65.9077 29.9101 69.057 36.3929 69.7291C44.7761 70.596 51.3966 70.6669 62.8525 68.4558C62.8525 68.4558 64.4373 70.0659 66.9288 70.9464C43.4882 77.8165 17.3798 71.4882 34.1549 65.9077Z" fill="#5382A1"/>
<path d="M54.1262 47.4724C58.9032 52.9849 52.8713 57.9458 52.8713 57.9458C52.8713 57.9458 65.0004 51.6696 59.4301 43.8104C54.2273 36.481 50.2375 32.8397 71.8368 20.2839C71.8371 20.2837 37.933 28.7708 54.1262 47.4724Z" fill="#E76F00"/>
<path d="M79.7674 84.814C79.7674 84.814 82.568 87.1272 76.683 88.9163C65.4924 92.3141 30.1065 93.3402 20.2765 89.0519C16.7429 87.5108 23.3694 85.3726 25.4539 84.9239C27.6278 84.4514 28.8701 84.5395 28.8701 84.5395C24.9403 81.7647 3.46966 89.9875 17.9641 92.3427C57.4924 98.7679 90.0208 89.4495 79.7674 84.814ZM38.3435 54.6475C38.3435 54.6475 20.344 58.9325 31.9695 60.4886C36.8781 61.1473 46.6633 60.9982 55.7777 60.2328C63.2267 59.603 70.7066 58.2642 70.7066 58.2642C70.7066 58.2642 68.08 59.3916 66.1797 60.6919C47.9016 65.5104 12.5915 63.2687 22.7568 58.3402C31.3536 54.175 38.3435 54.6475 38.3435 54.6475ZM70.6324 72.7374C89.213 63.06 80.6223 53.7598 74.6257 55.0129C73.156 55.3196 72.5007 55.5852 72.5007 55.5852C72.5007 55.5852 73.0466 54.7285 74.0881 54.3577C85.9508 50.1776 95.074 66.6866 70.2587 73.2254C70.2587 73.2254 70.5467 72.968 70.6324 72.7374Z" fill="#5382A1"/>
<path d="M59.4298 0.00939941C59.4298 0.00939941 69.72 10.3266 49.6699 26.1921C33.5918 38.9185 46.0036 46.175 49.6633 54.466C40.2785 45.9786 33.3911 38.5076 38.0117 31.554C44.7934 21.3468 63.5816 16.398 59.4298 0.00939941Z" fill="#E76F00"/>
<path d="M40.1691 98.961C58.0042 100.105 85.392 98.3262 86.0403 89.8679C86.0403 89.8679 84.7938 93.0742 71.3006 95.621C56.0783 98.492 37.3031 98.1571 26.1675 96.3169C26.168 96.3163 28.4473 98.2076 40.1691 98.961Z" fill="#5382A1"/>
</svg>
