<svg width="91" height="143" viewBox="0 0 91 143" fill="none" xmlns="http://www.w3.org/2000/svg">
<path d="M15.3633 134H12.6455L5.67383 122.903V134H2.95605V118.359H5.67383L12.667 129.499V118.359H15.3633V134ZM31.0576 126.588C31.0576 128.12 30.7926 129.467 30.2627 130.627C29.7327 131.78 28.9736 132.668 27.9854 133.291C27.0042 133.907 25.8727 134.215 24.5908 134.215C23.3232 134.215 22.1917 133.907 21.1963 133.291C20.208 132.668 19.4417 131.784 18.8975 130.638C18.3604 129.492 18.0882 128.171 18.0811 126.674V125.793C18.0811 124.268 18.3496 122.921 18.8867 121.754C19.431 120.587 20.1937 119.695 21.1748 119.079C22.1631 118.456 23.2946 118.145 24.5693 118.145C25.8441 118.145 26.972 118.452 27.9531 119.068C28.9414 119.677 29.7041 120.558 30.2412 121.711C30.7783 122.857 31.0505 124.192 31.0576 125.718V126.588ZM28.3398 125.771C28.3398 124.038 28.0104 122.71 27.3516 121.786C26.6999 120.862 25.7725 120.4 24.5693 120.4C23.3949 120.4 22.4746 120.862 21.8086 121.786C21.1497 122.703 20.8132 124.003 20.7988 125.686V126.588C20.7988 128.307 21.1318 129.635 21.7979 130.573C22.471 131.511 23.402 131.98 24.5908 131.98C25.7939 131.98 26.7178 131.522 27.3623 130.605C28.014 129.689 28.3398 128.35 28.3398 126.588V125.771ZM33.7646 134V118.359H38.3838C39.766 118.359 40.9906 118.667 42.0576 119.283C43.1318 119.899 43.9626 120.773 44.5498 121.904C45.137 123.036 45.4307 124.332 45.4307 125.793V126.577C45.4307 128.06 45.1335 129.363 44.5391 130.487C43.9518 131.612 43.1104 132.478 42.0146 133.087C40.9261 133.696 39.6764 134 38.2656 134H33.7646ZM36.4824 120.551V131.83H38.2549C39.68 131.83 40.7721 131.386 41.5312 130.498C42.2975 129.603 42.6878 128.321 42.7021 126.652V125.782C42.7021 124.085 42.3333 122.789 41.5957 121.894C40.8581 120.998 39.7874 120.551 38.3838 120.551H36.4824ZM57.2793 127.018H50.8555V131.83H58.3643V134H48.1377V118.359H58.2891V120.551H50.8555V124.869H57.2793V127.018ZM61.9521 131.25C62.4391 131.25 62.8151 131.39 63.0801 131.669C63.3451 131.941 63.4775 132.285 63.4775 132.7C63.4775 133.108 63.3451 133.449 63.0801 133.721C62.8151 133.986 62.4391 134.118 61.9521 134.118C61.4867 134.118 61.1178 133.986 60.8457 133.721C60.5736 133.456 60.4375 133.116 60.4375 132.7C60.4375 132.285 60.57 131.941 60.835 131.669C61.0999 131.39 61.4723 131.25 61.9521 131.25ZM73.124 118.359H75.8311V129.327C75.8311 130.824 75.362 132.013 74.4238 132.894C73.4928 133.774 72.2611 134.215 70.7285 134.215C69.0957 134.215 67.8353 133.803 66.9473 132.979C66.0592 132.156 65.6152 131.01 65.6152 129.542H68.3223C68.3223 130.373 68.5264 130.999 68.9346 131.422C69.3499 131.837 69.9479 132.045 70.7285 132.045C71.459 132.045 72.0391 131.805 72.4688 131.325C72.9056 130.838 73.124 130.169 73.124 129.316V118.359ZM87.1211 129.972C87.1211 129.284 86.8776 128.754 86.3906 128.382C85.9108 128.009 85.0407 127.633 83.7803 127.254C82.5199 126.874 81.5173 126.452 80.7725 125.986C79.3473 125.091 78.6348 123.924 78.6348 122.484C78.6348 121.224 79.1468 120.186 80.1709 119.369C81.2021 118.553 82.5378 118.145 84.1777 118.145C85.2663 118.145 86.2367 118.345 87.0889 118.746C87.9411 119.147 88.6107 119.72 89.0977 120.465C89.5846 121.202 89.8281 122.022 89.8281 122.925H87.1211C87.1211 122.108 86.8633 121.471 86.3477 121.013C85.8392 120.547 85.1087 120.314 84.1562 120.314C83.2682 120.314 82.5771 120.504 82.083 120.884C81.596 121.263 81.3525 121.793 81.3525 122.474C81.3525 123.047 81.6175 123.526 82.1475 123.913C82.6774 124.293 83.5511 124.665 84.7686 125.03C85.986 125.388 86.9635 125.8 87.7012 126.266C88.4388 126.724 88.9795 127.254 89.3232 127.855C89.667 128.45 89.8389 129.148 89.8389 129.95C89.8389 131.254 89.3376 132.292 88.335 133.065C87.3395 133.832 85.986 134.215 84.2744 134.215C83.1429 134.215 82.1009 134.007 81.1484 133.592C80.2031 133.169 79.4655 132.589 78.9355 131.852C78.4128 131.114 78.1514 130.255 78.1514 129.273H80.8691C80.8691 130.161 81.1628 130.849 81.75 131.336C82.3372 131.823 83.1787 132.066 84.2744 132.066C85.2197 132.066 85.9287 131.877 86.4014 131.497C86.8812 131.11 87.1211 130.602 87.1211 129.972Z" fill="#111111"/>
<path d="M41.4045 1.26951C43.8787 -0.14361 47.1014 -0.149993 49.5735 1.26951C62.0104 8.28157 74.4512 15.2826 86.886 22.299C89.2248 23.6135 90.7893 26.2107 90.7654 28.8997V71.0869C90.7829 73.8873 89.0638 76.5465 86.5964 77.8312C74.2003 84.8046 61.8107 91.7866 49.4168 98.76C46.8914 100.201 43.604 100.09 41.1575 98.5309C37.4412 96.3812 33.7184 94.2422 30.0018 92.0947C29.2423 91.643 28.3862 91.2834 27.8499 90.5486C28.324 89.911 29.1716 89.8316 29.8603 89.5532C31.4116 89.061 32.8364 88.271 34.2615 87.5043C34.6218 87.2582 35.0618 87.3525 35.4073 87.5727C38.5852 89.3908 41.735 91.2617 44.9236 93.0625C45.6038 93.4543 46.2925 92.9341 46.874 92.6107C59.0383 85.7507 71.2175 78.9167 83.3797 72.0546C83.8304 71.8383 84.0795 71.361 84.0429 70.8685C84.0514 56.9518 84.045 43.0326 84.0471 29.116C84.0987 28.5571 83.7746 28.0433 83.2681 27.8146C70.9151 20.8731 58.5684 13.9209 46.2175 6.97767C46.0036 6.83088 45.7501 6.75212 45.4904 6.75174C45.2307 6.75136 44.977 6.82938 44.7626 6.97554C32.4117 13.9209 20.0672 20.8794 7.71625 27.8206C7.2116 28.0497 6.87291 28.555 6.93297 29.116C6.93511 43.0326 6.93297 56.9518 6.93297 70.8706C6.91156 71.1109 6.96446 71.352 7.08455 71.5615C7.20464 71.7709 7.38616 71.9385 7.60466 72.0419C10.9006 73.9068 14.2007 75.7586 17.4987 77.6171C19.3567 78.6149 21.638 79.2078 23.685 78.4433C25.4915 77.7969 26.7577 75.9575 26.7233 74.0437C26.7403 60.2082 26.7147 46.3706 26.7361 32.5373C26.6909 31.9231 27.2748 31.4156 27.8733 31.4734C29.4569 31.4628 31.0427 31.4521 32.6263 31.4777C33.2873 31.4628 33.7422 32.1241 33.6605 32.7429C33.6541 46.666 33.6776 60.5894 33.6498 74.5125C33.6541 78.2231 32.1263 82.2607 28.6865 84.0763C24.4488 86.2667 19.211 85.8022 15.0245 83.7018C11.4002 81.8969 7.94157 79.7667 4.38162 77.833C1.90774 76.5554 0.197247 73.8855 0.214661 71.0873V28.8997C0.188718 26.155 1.81534 23.5107 4.22703 22.2153C16.6209 15.2362 29.0127 8.25178 41.4045 1.26951Z" fill="#8CC84B"/>
<path d="M52.2172 30.4929C57.6227 30.1457 63.4095 30.2872 68.2738 32.9443C72.0399 34.9804 74.1278 39.2539 74.1942 43.4287C74.089 43.9918 73.4991 44.3024 72.9603 44.2638C71.392 44.2617 69.8233 44.2851 68.2549 44.2531C67.5896 44.2787 67.203 43.6666 67.1195 43.0797C66.6688 41.0822 65.5771 39.1039 63.6928 38.1404C60.8003 36.6953 57.4464 36.768 54.2923 36.7982C51.9898 36.9202 49.5138 37.1191 47.563 38.4702C46.0654 39.4936 45.6105 41.5595 46.145 43.2234C46.6489 44.418 48.0311 44.8035 49.1619 45.1588C55.6762 46.8588 62.5793 46.6897 68.9693 48.9269C71.6148 49.839 74.2028 51.612 75.1083 54.3758C76.2928 58.0801 75.7736 62.5078 73.1323 65.4815C70.9904 67.9287 67.8708 69.2606 64.7593 69.984C60.6201 70.9049 56.3245 70.9283 52.1209 70.5195C48.1682 70.0698 44.0549 69.0336 41.0036 66.3464C38.3943 64.0858 37.1198 60.5634 37.2464 57.1638C37.2766 56.5897 37.8495 56.1893 38.4007 56.2365C39.98 56.2237 41.5594 56.2195 43.1388 56.2386C43.7696 56.1936 44.2373 56.7375 44.2696 57.3308C44.561 59.234 45.2778 61.2315 46.9411 62.3599C50.151 64.4262 54.1786 64.2847 57.8541 64.3425C60.8991 64.2078 64.3172 64.167 66.8021 62.1588C68.1131 61.0134 68.5016 59.0971 68.1473 57.4485C67.7634 56.0567 66.3042 55.4081 65.0511 54.984C58.6203 52.9542 51.6401 53.6907 45.2715 51.3953C42.686 50.4836 40.1858 48.7599 39.1925 46.1095C37.8065 42.3585 38.4415 37.7187 41.3597 34.8453C44.2049 31.9872 48.3122 30.8865 52.2172 30.4925V30.4929Z" fill="#8CC84B"/>
</svg>
