<svg width="140" height="125" viewBox="0 0 140 125" fill="none" xmlns="http://www.w3.org/2000/svg">
<path d="M70 74.5627C108.66 74.5627 140 57.8713 140 37.2813C140 16.6914 108.66 0 70 0C31.3401 0 0 16.6914 0 37.2813C0 57.8713 31.3401 74.5627 70 74.5627Z" fill="#8993BE"/>
<path fill-rule="evenodd" clip-rule="evenodd" d="M19.6572 59.3559L27.3288 19.6216H45.0678C52.7388 20.1123 56.5746 24.0363 56.5746 30.9045C56.5746 42.6775 47.4653 49.5451 39.3141 49.0544H30.685L28.7671 59.3559H19.6572ZM32.6023 41.6966L34.9998 26.9799H41.2325C44.5887 26.9799 46.9857 28.4515 46.9857 31.3946C46.5066 39.7344 42.6708 41.2059 38.356 41.6966H32.6028H32.6023ZM54.7923 49.0544L62.4633 9.32068H71.5731L69.6553 19.6216H78.2849C85.9565 20.1123 88.8331 24.0363 87.8744 28.9422L84.5182 49.0544H74.9293L78.2855 30.9045C78.7645 28.4515 78.7645 26.9799 75.4089 26.9799H68.217L63.9021 49.0544H54.7923ZM83.9041 59.3559L91.5751 19.6216H109.315C116.986 20.1123 120.822 24.0363 120.822 30.9045C120.822 42.6775 111.712 49.5451 103.561 49.0544H94.9313L93.0134 59.3559H83.9041ZM96.8486 41.6966L99.2461 26.9799H105.479C108.836 26.9799 111.232 28.4515 111.232 31.3946C110.753 39.7344 106.918 41.2059 102.603 41.6966H96.8491H96.8486Z" fill="#232531"/>
<path d="M52.0669 110.188V116H49.3491V100.359H55.3325C57.0799 100.359 58.4657 100.814 59.4897 101.724C60.521 102.633 61.0366 103.836 61.0366 105.333C61.0366 106.866 60.5317 108.058 59.522 108.91C58.5194 109.762 57.1121 110.188 55.3003 110.188H52.0669ZM52.0669 108.008H55.3325C56.2993 108.008 57.0369 107.782 57.5454 107.331C58.0539 106.873 58.3081 106.214 58.3081 105.354C58.3081 104.509 58.0503 103.836 57.5347 103.335C57.019 102.826 56.3101 102.565 55.4077 102.551H52.0669V108.008ZM75.8394 116H73.1323V109.05H66.1392V116H63.4214V100.359H66.1392V106.869H73.1323V100.359H75.8394V116ZM81.7798 110.188V116H79.062V100.359H85.0454C86.7928 100.359 88.1785 100.814 89.2026 101.724C90.2339 102.633 90.7495 103.836 90.7495 105.333C90.7495 106.866 90.2446 108.058 89.2349 108.91C88.2323 109.762 86.825 110.188 85.0132 110.188H81.7798ZM81.7798 108.008H85.0454C86.0122 108.008 86.7498 107.782 87.2583 107.331C87.7668 106.873 88.021 106.214 88.021 105.354C88.021 104.509 87.7632 103.836 87.2476 103.335C86.7319 102.826 86.0229 102.565 85.1206 102.551H81.7798V108.008Z" fill="#111111"/>
</svg>
