<svg width="180" height="229" viewBox="0 0 180 229" fill="none" xmlns="http://www.w3.org/2000/svg">
<path d="M31.3076 214.188V220H28.5898V204.359H34.5732C36.3206 204.359 37.7064 204.814 38.7305 205.724C39.7617 206.633 40.2773 207.836 40.2773 209.333C40.2773 210.866 39.7725 212.058 38.7627 212.91C37.7601 213.762 36.3529 214.188 34.541 214.188H31.3076ZM31.3076 212.008H34.5732C35.54 212.008 36.2777 211.782 36.7861 211.331C37.2946 210.873 37.5488 210.214 37.5488 209.354C37.5488 208.509 37.291 207.836 36.7754 207.335C36.2598 206.826 35.5508 206.565 34.6484 206.551H31.3076V212.008ZM41.7705 214.081C41.7705 212.942 41.9961 211.918 42.4473 211.009C42.8984 210.092 43.5322 209.39 44.3486 208.903C45.165 208.409 46.1032 208.162 47.1631 208.162C48.7314 208.162 50.0026 208.667 50.9766 209.677C51.9577 210.687 52.4876 212.026 52.5664 213.694L52.5771 214.307C52.5771 215.452 52.3551 216.477 51.9111 217.379C51.4743 218.281 50.8441 218.979 50.0205 219.474C49.2041 219.968 48.2588 220.215 47.1846 220.215C45.5446 220.215 44.2305 219.671 43.2422 218.582C42.2611 217.486 41.7705 216.029 41.7705 214.21V214.081ZM44.3809 214.307C44.3809 215.503 44.6279 216.441 45.1221 217.121C45.6162 217.794 46.3037 218.131 47.1846 218.131C48.0654 218.131 48.7493 217.787 49.2363 217.1C49.7305 216.412 49.9775 215.406 49.9775 214.081C49.9775 212.907 49.7233 211.976 49.2148 211.288C48.7135 210.601 48.0296 210.257 47.1631 210.257C46.3109 210.257 45.6341 210.597 45.1328 211.277C44.6315 211.951 44.3809 212.96 44.3809 214.307ZM61.2998 216.842C61.2998 216.376 61.1064 216.022 60.7197 215.778C60.3402 215.535 59.7064 215.32 58.8184 215.134C57.9303 214.948 57.1891 214.711 56.5947 214.425C55.2913 213.795 54.6396 212.882 54.6396 211.686C54.6396 210.683 55.0622 209.845 55.9072 209.172C56.7523 208.499 57.8265 208.162 59.1299 208.162C60.5192 208.162 61.64 208.506 62.4922 209.193C63.3516 209.881 63.7812 210.772 63.7812 211.868H61.1709C61.1709 211.367 60.9847 210.951 60.6123 210.622C60.2399 210.285 59.7458 210.117 59.1299 210.117C58.557 210.117 58.0879 210.25 57.7227 210.515C57.3646 210.78 57.1855 211.134 57.1855 211.578C57.1855 211.979 57.3538 212.291 57.6904 212.513C58.027 212.735 58.7074 212.96 59.7314 213.189C60.7555 213.411 61.5576 213.68 62.1377 213.995C62.7249 214.303 63.1582 214.675 63.4375 215.112C63.724 215.549 63.8672 216.079 63.8672 216.702C63.8672 217.748 63.4339 218.596 62.5674 219.248C61.7008 219.893 60.5658 220.215 59.1621 220.215C58.2096 220.215 57.361 220.043 56.6162 219.699C55.8714 219.355 55.2913 218.883 54.876 218.281C54.4606 217.68 54.2529 217.032 54.2529 216.337H56.7881C56.8239 216.953 57.0566 217.429 57.4863 217.766C57.916 218.095 58.4854 218.26 59.1943 218.26C59.8818 218.26 60.4046 218.131 60.7627 217.873C61.1208 217.608 61.2998 217.264 61.2998 216.842ZM69.4209 205.552V208.377H71.4727V210.311H69.4209V216.799C69.4209 217.243 69.5068 217.565 69.6787 217.766C69.8577 217.959 70.1729 218.056 70.624 218.056C70.9248 218.056 71.2292 218.02 71.5371 217.948V219.968C70.9427 220.132 70.3698 220.215 69.8184 220.215C67.8132 220.215 66.8105 219.108 66.8105 216.896V210.311H64.8984V208.377H66.8105V205.552H69.4209ZM73.0195 214.103C73.0195 212.298 73.4421 210.858 74.2871 209.784C75.1393 208.703 76.2673 208.162 77.6709 208.162C78.9958 208.162 80.0378 208.624 80.7969 209.548L80.915 208.377H83.2676V219.646C83.2676 221.171 82.7913 222.374 81.8389 223.255C80.8936 224.136 79.6152 224.576 78.0039 224.576C77.1517 224.576 76.3174 224.397 75.501 224.039C74.6917 223.688 74.0758 223.226 73.6533 222.653L74.8887 221.085C75.6908 222.037 76.679 222.514 77.8535 222.514C78.7201 222.514 79.404 222.277 79.9053 221.805C80.4066 221.339 80.6572 220.652 80.6572 219.742V218.958C79.9053 219.796 78.9027 220.215 77.6494 220.215C76.2887 220.215 75.1751 219.674 74.3086 218.593C73.4492 217.511 73.0195 216.015 73.0195 214.103ZM75.6191 214.328C75.6191 215.495 75.8555 216.416 76.3281 217.089C76.8079 217.755 77.4704 218.088 78.3154 218.088C79.3682 218.088 80.1488 217.637 80.6572 216.734V211.621C80.1631 210.74 79.3896 210.3 78.3369 210.3C77.4775 210.3 76.8079 210.64 76.3281 211.32C75.8555 212.001 75.6191 213.003 75.6191 214.328ZM92.0439 210.762C91.7002 210.704 91.3457 210.676 90.9805 210.676C89.7845 210.676 88.9788 211.134 88.5635 212.051V220H85.9531V208.377H88.4453L88.5098 209.677C89.14 208.667 90.0137 208.162 91.1309 208.162C91.5033 208.162 91.8112 208.212 92.0547 208.312L92.0439 210.762ZM98.5967 220.215C96.9424 220.215 95.5996 219.696 94.5684 218.657C93.5443 217.612 93.0322 216.222 93.0322 214.489V214.167C93.0322 213.007 93.2542 211.972 93.6982 211.062C94.1494 210.146 94.7796 209.433 95.5889 208.925C96.3981 208.416 97.3005 208.162 98.2959 208.162C99.8786 208.162 101.1 208.667 101.959 209.677C102.826 210.687 103.259 212.115 103.259 213.963V215.016H95.6641C95.7428 215.975 96.0615 216.734 96.6201 217.293C97.1859 217.852 97.8949 218.131 98.7471 218.131C99.943 218.131 100.917 217.647 101.669 216.681L103.076 218.023C102.611 218.718 101.988 219.259 101.207 219.646C100.434 220.025 99.5635 220.215 98.5967 220.215ZM98.2852 210.257C97.569 210.257 96.9889 210.507 96.5449 211.009C96.1081 211.51 95.8288 212.208 95.707 213.104H100.681V212.91C100.623 212.036 100.391 211.378 99.9824 210.934C99.5742 210.482 99.0085 210.257 98.2852 210.257ZM113.722 215.972C113.722 215.284 113.478 214.754 112.991 214.382C112.511 214.009 111.641 213.633 110.381 213.254C109.12 212.874 108.118 212.452 107.373 211.986C105.948 211.091 105.235 209.924 105.235 208.484C105.235 207.224 105.747 206.186 106.771 205.369C107.803 204.553 109.138 204.145 110.778 204.145C111.867 204.145 112.837 204.345 113.689 204.746C114.542 205.147 115.211 205.72 115.698 206.465C116.185 207.202 116.429 208.022 116.429 208.925H113.722C113.722 208.108 113.464 207.471 112.948 207.013C112.44 206.547 111.709 206.314 110.757 206.314C109.869 206.314 109.178 206.504 108.684 206.884C108.197 207.263 107.953 207.793 107.953 208.474C107.953 209.047 108.218 209.526 108.748 209.913C109.278 210.293 110.152 210.665 111.369 211.03C112.587 211.388 113.564 211.8 114.302 212.266C115.039 212.724 115.58 213.254 115.924 213.855C116.268 214.45 116.439 215.148 116.439 215.95C116.439 217.254 115.938 218.292 114.936 219.065C113.94 219.832 112.587 220.215 110.875 220.215C109.743 220.215 108.701 220.007 107.749 219.592C106.804 219.169 106.066 218.589 105.536 217.852C105.013 217.114 104.752 216.255 104.752 215.273H107.47C107.47 216.161 107.763 216.849 108.351 217.336C108.938 217.823 109.779 218.066 110.875 218.066C111.82 218.066 112.529 217.877 113.002 217.497C113.482 217.11 113.722 216.602 113.722 215.972ZM131.253 212.588C131.253 214.07 131.017 215.356 130.544 216.444C130.078 217.526 129.423 218.385 128.578 219.022L131.264 221.117L129.502 222.707L126.172 220.075C125.735 220.168 125.266 220.215 124.765 220.215C123.504 220.215 122.376 219.907 121.381 219.291C120.393 218.668 119.626 217.784 119.082 216.638C118.545 215.492 118.273 214.171 118.266 212.674V211.793C118.266 210.268 118.534 208.921 119.071 207.754C119.616 206.587 120.378 205.695 121.359 205.079C122.348 204.456 123.476 204.145 124.743 204.145C126.032 204.145 127.167 204.452 128.148 205.068C129.137 205.677 129.899 206.558 130.437 207.711C130.974 208.857 131.246 210.192 131.253 211.718V212.588ZM128.524 211.771C128.524 210.01 128.195 208.674 127.536 207.765C126.877 206.855 125.946 206.4 124.743 206.4C123.576 206.4 122.659 206.862 121.993 207.786C121.334 208.703 120.998 209.999 120.983 211.675V212.588C120.983 214.278 121.313 215.599 121.972 216.552C122.638 217.504 123.569 217.98 124.765 217.98C125.975 217.98 126.902 217.522 127.547 216.605C128.199 215.689 128.524 214.35 128.524 212.588V211.771ZM136.731 217.83H143.832V220H134.014V204.359H136.731V217.83Z" fill="#111111"/>
<path d="M179.302 111.368C178.223 108.092 175.396 105.811 171.74 105.264C170.016 105.006 168.041 105.116 165.705 105.599C161.632 106.44 158.611 106.761 156.406 106.823C164.729 92.7441 171.496 76.6891 175.392 61.576C181.692 37.1385 178.326 26.0056 174.392 20.9701C163.981 7.64139 148.791 0.48111 130.466 0.262018C120.691 0.142258 112.109 2.07604 107.632 3.46667C103.464 2.72979 98.9824 2.31838 94.2799 2.2423C85.4648 2.1014 77.6763 4.02673 71.0212 7.98377C67.3368 6.73544 61.4236 4.97566 54.5948 3.85273C38.534 1.21095 25.5895 3.26942 16.1212 9.97109C4.65607 18.0852 -0.658848 32.1832 0.32412 51.8733C0.636308 58.1248 4.12662 77.1456 9.62224 95.1844C12.7807 105.553 16.1487 114.163 19.6326 120.778C24.5735 130.158 29.8603 135.682 35.7954 137.666C39.1218 138.776 45.1659 139.554 51.5229 134.249C52.3286 135.227 53.4037 136.198 54.8304 137.101C56.6423 138.245 58.8579 139.181 61.0706 139.735C69.0447 141.733 76.514 141.233 82.8865 138.434C82.9258 139.569 82.9561 140.654 82.9814 141.591C83.0236 143.111 83.0658 144.6 83.1213 145.994C83.4989 155.416 84.1387 162.741 86.0343 167.867C86.1384 168.149 86.2783 168.579 86.426 169.034C87.3717 171.936 88.953 176.792 92.9763 180.596C97.1423 184.536 102.182 185.744 106.797 185.744C109.112 185.744 111.32 185.44 113.257 185.024C120.162 183.541 128.004 181.282 133.677 173.189C139.04 165.539 141.647 154.016 142.119 135.859C142.18 135.346 142.237 134.855 142.291 134.388L142.403 133.429L143.667 133.54L143.992 133.562C151.025 133.883 159.624 132.389 164.905 129.931C169.078 127.991 182.451 120.917 179.302 111.368Z" fill="#336791"/>
<path d="M167.278 113.225C146.367 117.546 144.929 110.453 144.929 110.453C167.007 77.6295 176.237 35.9648 168.272 25.7675C146.543 -2.04868 108.929 11.1067 108.302 11.4476L108.1 11.4843C103.968 10.6248 99.3451 10.1134 94.1483 10.0281C84.687 9.87315 77.5096 12.5135 72.0631 16.6516C72.0631 16.6516 4.96393 -11.0441 8.0851 51.4837C8.74885 64.7856 27.1145 152.134 49.0196 125.751C57.0261 116.103 64.7626 107.946 64.7626 107.946C68.6045 110.503 73.2043 111.808 78.0264 111.339L78.4011 111.021C78.2844 112.219 78.3378 113.39 78.5509 114.777C72.9076 121.094 74.5663 122.203 63.2853 124.53C51.8701 126.887 58.5758 131.083 62.9542 132.181C68.2621 133.51 80.5414 135.394 88.8383 123.756L88.5078 125.084C90.7185 126.859 92.271 136.626 92.0108 145.48C91.7506 154.334 91.577 160.413 93.3186 165.161C95.0617 169.909 96.7977 180.593 111.628 177.409C124.019 174.748 130.441 167.854 131.334 156.352C131.968 148.176 133.403 149.385 133.493 142.075L134.644 138.615C135.971 127.531 134.855 123.955 142.489 125.618L144.345 125.782C149.963 126.038 157.318 124.876 161.634 122.866C170.928 118.545 176.441 111.329 167.276 113.225H167.278Z" fill="#336791"/>
<path d="M75.9909 57.4324C74.1065 57.1696 72.4 57.4126 71.5366 58.0678C71.0515 58.4362 70.901 58.8632 70.8602 59.1569C70.7519 59.9354 71.2961 60.7962 71.6308 61.2401C72.5772 62.4968 73.9596 63.3605 75.3279 63.5507C75.5261 63.5789 75.7237 63.5916 75.9199 63.5916C78.2015 63.5916 80.2765 61.8114 80.4593 60.4975C80.6878 58.8519 78.3035 57.755 75.9909 57.4331V57.4324ZM138.417 57.4845C138.237 56.1946 135.946 55.8269 133.772 56.1298C131.601 56.4327 129.496 57.4148 129.672 58.7075C129.812 59.7128 131.624 61.4289 133.769 61.4289C133.95 61.4289 134.133 61.4169 134.317 61.3908C135.749 61.1921 136.799 60.2813 137.298 59.7564C138.058 58.9561 138.498 58.0643 138.417 57.4845Z" fill="white"/>
<path d="M174.236 112.734C173.439 110.318 170.872 109.541 166.608 110.423C153.949 113.041 149.415 111.227 147.926 110.129C157.767 95.1097 165.862 76.954 170.229 60.0149C172.297 51.9909 173.44 44.539 173.534 38.465C173.637 31.7986 172.504 26.8997 170.166 23.9071C160.743 11.8429 146.913 5.37161 130.171 5.19408C118.662 5.06446 108.937 8.0155 107.052 8.84538C103.083 7.85629 98.7548 7.24904 94.0432 7.17154C85.4032 7.03135 77.9346 9.10392 71.7513 13.3287C69.0654 12.3269 62.1241 9.93942 53.6353 8.56922C38.9597 6.20219 27.2976 7.99578 18.9754 13.9028C9.0452 20.9518 4.46083 33.552 5.34887 51.3527C5.6477 57.3414 9.05364 75.7649 14.4283 93.4084C21.5032 116.631 29.194 129.777 37.2855 132.481C38.2326 132.798 39.3246 133.019 40.529 133.019C43.4808 133.019 47.0997 131.686 50.865 127.151C55.4575 121.631 60.2081 116.245 65.111 111C68.2919 112.71 71.7865 113.666 75.3604 113.761C75.3675 113.855 75.3766 113.949 75.385 114.042C74.7698 114.777 74.1674 115.523 73.578 116.279C71.1016 119.428 70.5862 120.084 62.6149 121.728C60.3473 122.198 54.3251 123.441 54.2365 127.671C54.1408 132.292 61.3556 134.233 62.1776 134.438C65.0421 135.157 67.8018 135.511 70.4336 135.511C76.8342 135.511 82.4669 133.404 86.9683 129.325C86.8298 145.8 87.5154 162.034 89.4897 166.98C91.1069 171.03 95.0571 180.925 107.535 180.925C109.366 180.925 111.381 180.711 113.598 180.235C126.62 177.438 132.276 171.671 134.463 158.958C135.634 152.163 137.643 135.938 138.588 127.235C140.582 127.859 143.149 128.144 145.924 128.143C151.712 128.143 158.391 126.911 162.58 124.963C167.285 122.774 175.776 117.401 174.236 112.734ZM143.224 53.924C143.181 56.4932 142.828 58.8258 142.454 61.2604C142.051 63.879 141.635 66.5863 141.53 69.8726C141.427 73.0709 141.825 76.3961 142.211 79.612C142.99 86.1073 143.789 92.7941 140.695 99.3923C140.181 98.4797 139.723 97.5365 139.324 96.568C138.939 95.6339 138.104 94.1333 136.947 92.0565C132.448 83.972 121.912 65.0399 127.305 57.3147C128.912 55.0153 132.989 52.651 143.224 53.924ZM130.818 10.3966C145.818 10.7284 157.684 16.3509 166.085 27.1068C172.529 35.3569 165.434 72.8962 144.893 105.282C144.687 105.019 144.479 104.756 144.27 104.495L144.01 104.169C149.318 95.3866 148.28 86.6969 147.356 78.9928C146.977 75.8311 146.618 72.8448 146.709 70.0396C146.804 67.0667 147.196 64.5165 147.576 62.0508C148.042 59.0124 148.516 55.8684 148.386 52.1621C148.483 51.7733 148.523 51.3139 148.471 50.7687C148.137 47.2146 144.087 36.5777 135.833 26.9504C131.317 21.6844 124.732 15.7915 115.742 11.8169C119.609 11.0137 124.897 10.2649 130.818 10.3966ZM46.8804 123.831C42.7319 128.829 39.8674 127.871 38.9252 127.556C32.7869 125.505 25.6643 112.506 19.3847 91.8931C13.9509 74.0572 10.7756 56.122 10.5239 51.0927C9.73075 35.1871 13.579 24.1022 21.9623 18.1452C35.6058 8.45157 58.0368 14.2536 67.0502 17.1962C66.9208 17.3244 66.7858 17.4442 66.6579 17.5745C51.8669 32.5404 52.2178 58.11 52.2543 59.6732C52.2529 60.2763 52.3036 61.1301 52.3725 62.3045C52.627 66.6053 53.1009 74.6095 51.8353 83.674C50.6597 92.0974 53.2514 100.342 58.9446 106.294C59.5289 106.904 60.143 107.484 60.7847 108.033C58.2506 110.752 52.743 116.765 46.8804 123.831ZM62.6859 102.702C58.0973 97.9044 56.0132 91.2316 56.9674 84.3926C58.3033 74.8173 57.8104 66.4778 57.5454 61.9973C57.5081 61.3703 57.475 60.8208 57.4561 60.3876C59.6168 58.4679 69.63 53.0927 76.7709 54.7321C80.0292 55.4795 82.0148 57.7028 82.8403 61.5267C87.1125 81.3246 83.4056 89.5761 80.4272 96.2073C79.8133 97.5733 79.2333 98.8646 78.7383 100.2L78.3543 101.233C77.3826 103.844 76.4784 106.271 75.918 108.576C71.0397 108.562 66.2943 106.474 62.6859 102.701V102.702ZM63.4347 129.401C62.0102 129.045 60.7291 128.426 59.9775 127.912C60.6054 127.616 61.7226 127.213 63.6604 126.813C73.038 124.879 74.4865 123.514 77.6491 119.491C78.374 118.568 79.196 117.523 80.3344 116.249L80.3358 116.248C82.031 114.345 82.8065 114.668 84.2128 115.253C85.3525 115.725 86.4628 117.156 86.9128 118.731C87.1258 119.475 87.3649 120.887 86.5823 121.986C79.9758 131.254 70.3486 131.135 63.4347 129.401ZM112.512 175.159C101.04 177.621 96.978 171.757 94.3012 165.052C92.5736 160.724 91.7243 141.206 92.3269 119.651C92.3346 119.364 92.2938 119.087 92.215 118.827C92.1446 118.312 92.0375 117.803 91.8944 117.304C90.9986 114.167 88.8154 111.544 86.1963 110.456C85.1557 110.024 83.246 109.232 80.951 109.82C81.4404 107.799 82.289 105.518 83.2094 103.047L83.5954 102.008C84.03 100.836 84.5756 99.6226 85.1522 98.3376C88.2691 91.4 92.5378 81.8973 87.9049 60.4298C86.1696 52.389 80.3744 48.4622 71.5896 49.3745C66.3232 49.9205 61.5047 52.0494 59.1014 53.2703C58.5846 53.5323 58.1121 53.7859 57.6705 54.0325C58.3413 45.931 60.8754 30.7905 70.3549 21.211C76.3237 15.1807 84.2726 12.2022 93.9574 12.3628C113.04 12.6756 125.277 22.4875 132.183 30.6644C138.135 37.7098 141.357 44.8074 142.643 48.6355C132.972 47.65 126.394 49.5626 123.06 54.339C115.806 64.7286 127.028 84.8934 132.422 94.5849C133.411 96.3609 134.265 97.896 134.533 98.5483C136.29 102.813 138.564 105.661 140.224 107.739C140.733 108.376 141.226 108.994 141.602 109.533C138.673 110.379 133.411 112.334 133.891 122.106C133.504 127.009 130.754 149.965 129.357 158.076C127.513 168.791 123.577 172.782 112.512 175.159V175.159ZM160.398 120.255C157.402 121.647 152.39 122.692 147.628 122.917C142.369 123.163 139.691 122.326 139.061 121.811C138.766 115.722 141.028 115.086 143.422 114.412C143.798 114.307 144.165 114.203 144.52 114.079C144.74 114.259 144.981 114.437 145.245 114.612C149.473 117.407 157.012 117.709 167.657 115.507L167.774 115.484C166.338 116.829 163.881 118.634 160.398 120.255Z" fill="white"/>
</svg>
