<svg width="95" height="137" viewBox="0 0 95 137" fill="none" xmlns="http://www.w3.org/2000/svg">
<path d="M8.56543 122.188V128H5.84766V112.359H11.8311C13.5785 112.359 14.9642 112.814 15.9883 113.724C17.0195 114.633 17.5352 115.836 17.5352 117.333C17.5352 118.866 17.0303 120.058 16.0205 120.91C15.0179 121.762 13.6107 122.188 11.7988 122.188H8.56543ZM8.56543 120.008H11.8311C12.7979 120.008 13.5355 119.782 14.0439 119.331C14.5524 118.873 14.8066 118.214 14.8066 117.354C14.8066 116.509 14.5488 115.836 14.0332 115.335C13.5176 114.826 12.8086 114.565 11.9062 114.551H8.56543V120.008ZM25.0225 119.771L28.6211 112.359H31.6289L26.3867 122.242V128H23.6582V122.242L18.4053 112.359H21.4238L25.0225 119.771ZM44.8203 114.551H39.9434V128H37.2471V114.551H32.4131V112.359H44.8203V114.551ZM59.3008 128H56.5938V121.05H49.6006V128H46.8828V112.359H49.6006V118.869H56.5938V112.359H59.3008V128ZM75.0059 120.588C75.0059 122.12 74.7409 123.467 74.2109 124.627C73.681 125.78 72.9219 126.668 71.9336 127.291C70.9525 127.907 69.821 128.215 68.5391 128.215C67.2715 128.215 66.14 127.907 65.1445 127.291C64.1562 126.668 63.39 125.784 62.8457 124.638C62.3086 123.492 62.0365 122.171 62.0293 120.674V119.793C62.0293 118.268 62.2979 116.921 62.835 115.754C63.3792 114.587 64.1419 113.695 65.123 113.079C66.1113 112.456 67.2428 112.145 68.5176 112.145C69.7923 112.145 70.9202 112.452 71.9014 113.068C72.8896 113.677 73.6523 114.558 74.1895 115.711C74.7266 116.857 74.9987 118.192 75.0059 119.718V120.588ZM72.2881 119.771C72.2881 118.038 71.9587 116.71 71.2998 115.786C70.6481 114.862 69.7207 114.4 68.5176 114.4C67.3431 114.4 66.4229 114.862 65.7568 115.786C65.098 116.703 64.7614 118.003 64.7471 119.686V120.588C64.7471 122.307 65.0801 123.635 65.7461 124.573C66.4193 125.511 67.3503 125.98 68.5391 125.98C69.7422 125.98 70.666 125.522 71.3105 124.605C71.9622 123.689 72.2881 122.35 72.2881 120.588V119.771ZM90.1201 128H87.4023L80.4307 116.903V128H77.7129V112.359H80.4307L87.4238 123.499V112.359H90.1201V128Z" fill="#111111"/>
<path d="M47.0932 0.0264893C23.0367 0.0264893 24.5388 10.3904 24.5388 10.3904L24.5655 21.1278H47.5222V24.3515H15.4475C15.4475 24.3515 0.0537109 22.6171 0.0537109 46.7308C0.0537109 70.8453 13.4897 69.9901 13.4897 69.9901H21.5083V58.8001C21.5083 58.8001 21.076 45.4521 34.7299 45.4521H57.4988C57.4988 45.4521 70.2911 45.6574 70.2911 33.1698V12.5222C70.2911 12.5222 72.2339 0.0264893 47.0932 0.0264893ZM34.4349 7.24716C34.9774 7.24668 35.5146 7.35247 36.0159 7.55848C36.5172 7.7645 36.9727 8.06669 37.3563 8.44777C37.7399 8.82885 38.044 9.28133 38.2514 9.77933C38.4588 10.2773 38.5653 10.8111 38.5648 11.35C38.5653 11.8889 38.4588 12.4226 38.2514 12.9206C38.044 13.4186 37.7399 13.8711 37.3563 14.2522C36.9727 14.6333 36.5172 14.9355 36.0159 15.1415C35.5146 15.3475 34.9774 15.4533 34.4349 15.4528C33.8924 15.4533 33.3552 15.3475 32.8539 15.1415C32.3526 14.9355 31.8971 14.6333 31.5135 14.2522C31.13 13.8711 30.8258 13.4186 30.6184 12.9206C30.411 12.4226 30.3045 11.8889 30.305 11.35C30.3045 10.8111 30.411 10.2773 30.6184 9.77933C30.8258 9.28133 31.13 8.82885 31.5135 8.44777C31.8971 8.06669 32.3526 7.7645 32.8539 7.55848C33.3552 7.35247 33.8924 7.24668 34.4349 7.24716Z" fill="url(#paint0_linear_56_966)"/>
<path d="M47.7765 93.6779C71.833 93.6779 70.3309 83.3139 70.3309 83.3139L70.3042 72.5769H47.3472V69.3532H79.4219C79.4219 69.3532 94.8156 71.0876 94.8156 46.9731C94.8156 22.859 81.3796 23.7142 81.3796 23.7142H73.361V34.9039C73.361 34.9039 73.7933 48.2519 60.1394 48.2519H37.3705C37.3705 48.2519 24.5783 48.0466 24.5783 60.5346V81.1825C24.5783 81.1825 22.6358 93.6779 47.7761 93.6779H47.7765ZM60.4348 86.4579C59.8923 86.4584 59.355 86.3526 58.8538 86.1466C58.3525 85.9406 57.897 85.6384 57.5134 85.2573C57.1298 84.8762 56.8256 84.4238 56.6183 83.9258C56.4109 83.4278 56.3044 82.894 56.3049 82.3551C56.3044 81.8162 56.4108 81.2824 56.6182 80.7843C56.8255 80.2863 57.1297 79.8338 57.5133 79.4527C57.8969 79.0715 58.3524 78.7693 58.8537 78.5633C59.355 78.3572 59.8923 78.2514 60.4348 78.2519C60.9773 78.2514 61.5145 78.3572 62.0158 78.5632C62.5171 78.7692 62.9725 79.0714 63.3561 79.4525C63.7397 79.8336 64.0439 80.2861 64.2513 80.7841C64.4587 81.2821 64.5652 81.8158 64.5647 82.3547C64.5652 82.8937 64.4587 83.4274 64.2513 83.9254C64.0439 84.4234 63.7397 84.8759 63.3561 85.257C62.9725 85.638 62.5171 85.9402 62.0158 86.1462C61.5145 86.3523 60.9773 86.458 60.4348 86.4576V86.4579Z" fill="url(#paint1_linear_56_966)"/>
<defs>
<linearGradient id="paint0_linear_56_966" x1="9.16028" y1="8.44986" x2="55.8157" y2="54.9445" gradientUnits="userSpaceOnUse">
<stop stop-color="#387EB8"/>
<stop offset="1" stop-color="#366994"/>
</linearGradient>
<linearGradient id="paint1_linear_56_966" x1="37.9851" y1="38.109" x2="88.1029" y2="85.7994" gradientUnits="userSpaceOnUse">
<stop stop-color="#FFE052"/>
<stop offset="1" stop-color="#FFC331"/>
</linearGradient>
</defs>
</svg>
