<svg width="87" height="130" viewBox="0 0 87 130" fill="none" xmlns="http://www.w3.org/2000/svg">
<path d="M23.4551 114.974H20.4258V121H17.708V105.359H23.208C25.0127 105.359 26.4056 105.764 27.3867 106.573C28.3678 107.382 28.8584 108.553 28.8584 110.086C28.8584 111.132 28.6042 112.009 28.0957 112.718C27.5944 113.42 26.8926 113.96 25.9902 114.34L29.5029 120.86V121H26.5918L23.4551 114.974ZM20.4258 112.793H23.2188C24.1354 112.793 24.8516 112.564 25.3672 112.105C25.8828 111.64 26.1406 111.006 26.1406 110.204C26.1406 109.366 25.9007 108.718 25.4209 108.26C24.9482 107.801 24.2393 107.565 23.2939 107.551H20.4258V112.793ZM42.877 105.359V115.812C42.877 117.473 42.3434 118.791 41.2764 119.765C40.2165 120.731 38.8021 121.215 37.0332 121.215C35.2428 121.215 33.8213 120.739 32.7686 119.786C31.7158 118.826 31.1895 117.498 31.1895 115.801V105.359H33.8965V115.822C33.8965 116.868 34.1615 117.666 34.6914 118.218C35.2214 118.769 36.002 119.045 37.0332 119.045C39.1243 119.045 40.1699 117.942 40.1699 115.736V105.359H42.877ZM45.7881 121V105.359H51.1484C52.9173 105.359 54.2637 105.714 55.1875 106.423C56.1113 107.132 56.5732 108.188 56.5732 109.592C56.5732 110.308 56.3799 110.952 55.9932 111.525C55.6064 112.098 55.0407 112.542 54.2959 112.857C55.141 113.087 55.7926 113.52 56.251 114.157C56.7165 114.787 56.9492 115.547 56.9492 116.435C56.9492 117.903 56.4766 119.031 55.5312 119.818C54.5931 120.606 53.2467 121 51.4922 121H45.7881ZM48.5059 113.942V118.83H51.5244C52.3766 118.83 53.0426 118.619 53.5225 118.196C54.0023 117.774 54.2422 117.187 54.2422 116.435C54.2422 114.809 53.4115 113.978 51.75 113.942H48.5059ZM48.5059 111.944H51.1699C52.015 111.944 52.6738 111.755 53.1465 111.375C53.6263 110.988 53.8662 110.444 53.8662 109.742C53.8662 108.969 53.6442 108.41 53.2002 108.066C52.7633 107.723 52.0794 107.551 51.1484 107.551H48.5059V111.944ZM64.168 112.771L67.7666 105.359H70.7744L65.5322 115.242V121H62.8037V115.242L57.5508 105.359H60.5693L64.168 112.771Z" fill="#111111"/>
<path d="M67.1018 54.4587L17.6523 82.5086L81.6804 78.3578L86.6114 16.683L67.1014 54.4584L67.1018 54.4587Z" fill="url(#paint0_linear_38_145)"/>
<path d="M81.7849 78.3154L76.2817 42.031L61.2915 60.9398L81.7849 78.3157V78.3154Z" fill="url(#paint1_linear_38_145)"/>
<path d="M81.8591 78.3155L41.5418 75.2924L17.8657 82.4293L81.8591 78.3155Z" fill="url(#paint2_linear_38_145)"/>
<path d="M17.9229 82.4374L27.9949 50.9174L5.83105 55.4441L17.9226 82.4371L17.9229 82.4374Z" fill="url(#paint3_linear_38_145)"/>
<path d="M61.288 61.0438L52.0203 26.3672L25.499 50.116L61.288 61.0444V61.0438Z" fill="url(#paint4_linear_38_145)"/>
<path d="M84.5085 26.8554L59.4381 7.29541L52.457 28.8557L84.5085 26.8554Z" fill="url(#paint5_linear_38_145)"/>
<path d="M72.7848 0.321364L58.04 8.10561L48.7373 0.217163L72.7848 0.321689V0.321364Z" fill="url(#paint6_linear_38_145)"/>
<path d="M0 66.0175L6.17676 55.2562L1.18017 42.4359L0 66.0175Z" fill="url(#paint7_linear_38_145)"/>
<path d="M0.848633 42.0311L5.87581 55.6529L27.7199 50.9713L52.6587 28.8303L59.6969 7.4749L48.615 0L29.7741 6.73575C23.8379 12.0101 12.3193 22.4458 11.9041 22.6419C11.4929 22.8425 4.29772 35.8339 0.848633 42.0311Z" fill="white"/>
<path d="M18.5001 17.5598C31.3654 5.37437 47.9506 -1.82493 54.3152 4.30964C60.6765 10.4442 53.9306 25.3521 41.0653 37.5336C28.2 49.7148 11.8204 57.3107 5.45982 51.1762C-0.904849 45.0458 5.63483 29.7412 18.5001 17.5598Z" fill="url(#paint8_linear_38_145)"/>
<path d="M17.9233 82.4248L27.9165 50.8043L61.1042 60.9894C49.1048 71.7384 35.7587 80.8254 17.9233 82.4248Z" fill="url(#paint9_linear_38_145)"/>
<path d="M52.7021 28.768L61.2222 61.0064C71.246 50.9382 80.2421 40.1143 84.6481 26.7262L52.7025 28.768H52.7021Z" fill="url(#paint10_linear_38_145)"/>
<path d="M84.5613 26.8888C87.9713 17.0588 88.758 2.9566 72.6795 0.338257L59.4863 7.29961L84.5613 26.8888Z" fill="url(#paint11_linear_38_145)"/>
<path d="M0 65.8757C0.472338 82.0995 12.7253 82.3414 17.9448 82.4836L5.88826 55.5861L0 65.8757Z" fill="#9E1209"/>
<path d="M52.7495 28.8182C60.452 33.3407 75.9756 42.4235 76.2903 42.5903C76.7796 42.8533 82.9828 32.5974 84.3907 26.801L52.7495 28.8182Z" fill="url(#paint12_radial_38_145)"/>
<path d="M27.9028 50.8043L41.2618 75.4256C49.1611 71.3332 55.347 66.3472 61.012 61.0063L27.9028 50.8043Z" fill="url(#paint13_radial_38_145)"/>
<path d="M5.83611 55.6194L3.94336 77.1504C7.51478 81.8109 12.4285 82.216 17.582 81.8528C13.8533 72.9873 6.40428 55.2604 5.83611 55.6194Z" fill="url(#paint14_linear_38_145)"/>
<path d="M59.4082 7.35378L85.9475 10.9116C84.5308 5.17821 80.1812 1.47826 72.7672 0.321655L59.4082 7.35378Z" fill="url(#paint15_linear_38_145)"/>
<defs>
<linearGradient id="paint0_linear_38_145" x1="76.0952" y1="90.0121" x2="59.0799" y2="58.5172" gradientUnits="userSpaceOnUse">
<stop stop-color="#FB7655"/>
<stop offset="0.41" stop-color="#E42B1E"/>
<stop offset="0.99" stop-color="#990000"/>
<stop offset="1" stop-color="#990000"/>
</linearGradient>
<linearGradient id="paint1_linear_38_145" x1="85.1973" y1="64.1248" x2="59.6316" y2="58.8969" gradientUnits="userSpaceOnUse">
<stop stop-color="#871101"/>
<stop offset="0.99" stop-color="#911209"/>
<stop offset="1" stop-color="#911209"/>
</linearGradient>
<linearGradient id="paint2_linear_38_145" x1="66.3561" y1="90.9457" x2="66.0545" y2="75.4001" gradientUnits="userSpaceOnUse">
<stop stop-color="#871101"/>
<stop offset="0.99" stop-color="#911209"/>
<stop offset="1" stop-color="#911209"/>
</linearGradient>
<linearGradient id="paint3_linear_38_145" x1="16.9157" y1="53.1975" x2="23.9408" y2="74.7614" gradientUnits="userSpaceOnUse">
<stop stop-color="white"/>
<stop offset="0.23" stop-color="#E57252"/>
<stop offset="0.46" stop-color="#DE3B20"/>
<stop offset="0.99" stop-color="#A60003"/>
<stop offset="1" stop-color="#A60003"/>
</linearGradient>
<linearGradient id="paint4_linear_38_145" x1="42.0242" y1="32.0362" x2="43.2872" y2="55.1701" gradientUnits="userSpaceOnUse">
<stop stop-color="white"/>
<stop offset="0.23" stop-color="#E4714E"/>
<stop offset="0.56" stop-color="#BE1A0D"/>
<stop offset="0.99" stop-color="#A80D00"/>
<stop offset="1" stop-color="#A80D00"/>
</linearGradient>
<linearGradient id="paint5_linear_38_145" x1="64.3048" y1="10.6575" x2="66.1532" y2="27.4733" gradientUnits="userSpaceOnUse">
<stop stop-color="white"/>
<stop offset="0.18" stop-color="#E46342"/>
<stop offset="0.4" stop-color="#C82410"/>
<stop offset="0.99" stop-color="#A80D00"/>
<stop offset="1" stop-color="#A80D00"/>
</linearGradient>
<linearGradient id="paint6_linear_38_145" x1="52.0099" y1="4.81976" x2="54.625" y2="-6.78801" gradientUnits="userSpaceOnUse">
<stop stop-color="white"/>
<stop offset="0.54" stop-color="#C81F11"/>
<stop offset="0.99" stop-color="#BF0905"/>
<stop offset="1" stop-color="#BF0905"/>
</linearGradient>
<linearGradient id="paint7_linear_38_145" x1="1.70627" y1="47.4199" x2="8.96956" y2="52.1858" gradientUnits="userSpaceOnUse">
<stop stop-color="white"/>
<stop offset="0.31" stop-color="#DE4024"/>
<stop offset="0.99" stop-color="#BF190B"/>
<stop offset="1" stop-color="#BF190B"/>
</linearGradient>
<linearGradient id="paint8_linear_38_145" x1="-8.11152" y1="64.7709" x2="55.7684" y2="-4.18676" gradientUnits="userSpaceOnUse">
<stop stop-color="#BD0012"/>
<stop offset="0.07" stop-color="white"/>
<stop offset="0.17" stop-color="white"/>
<stop offset="0.27" stop-color="#C82F1C"/>
<stop offset="0.33" stop-color="#820C01"/>
<stop offset="0.46" stop-color="#A31601"/>
<stop offset="0.72" stop-color="#B31301"/>
<stop offset="0.99" stop-color="#E82609"/>
<stop offset="1" stop-color="#E82609"/>
</linearGradient>
<linearGradient id="paint9_linear_38_145" x1="43.3102" y1="71.4224" x2="24.6087" y2="63.1998" gradientUnits="userSpaceOnUse">
<stop stop-color="#8C0C01"/>
<stop offset="0.54" stop-color="#990C00"/>
<stop offset="0.99" stop-color="#A80D0E"/>
<stop offset="1" stop-color="#A80D0E"/>
</linearGradient>
<linearGradient id="paint10_linear_38_145" x1="78.0414" y1="48.2384" x2="59.109" y2="34.1612" gradientUnits="userSpaceOnUse">
<stop stop-color="#7E110B"/>
<stop offset="0.99" stop-color="#9E0C00"/>
<stop offset="1" stop-color="#9E0C00"/>
</linearGradient>
<linearGradient id="paint11_linear_38_145" x1="84.6417" y1="20.0181" x2="75.8785" y2="10.7058" gradientUnits="userSpaceOnUse">
<stop stop-color="#79130D"/>
<stop offset="0.99" stop-color="#9E120B"/>
<stop offset="1" stop-color="#9E120B"/>
</linearGradient>
<radialGradient id="paint12_radial_38_145" cx="0" cy="0" r="1" gradientUnits="userSpaceOnUse" gradientTransform="translate(62.875 33.1519) scale(22.0137 10.9885)">
<stop stop-color="#A80D00"/>
<stop offset="0.99" stop-color="#7E0E08"/>
<stop offset="1" stop-color="#7E0E08"/>
</radialGradient>
<radialGradient id="paint13_radial_38_145" cx="0" cy="0" r="1" gradientUnits="userSpaceOnUse" gradientTransform="translate(32.3888 60.8646) scale(29.2639 21.7618)">
<stop stop-color="#A30C00"/>
<stop offset="0.99" stop-color="#800E08"/>
<stop offset="1" stop-color="#800E08"/>
</radialGradient>
<linearGradient id="paint14_linear_38_145" x1="11.6588" y1="82.4066" x2="-4.19717" y2="68.6287" gradientUnits="userSpaceOnUse">
<stop stop-color="#8B2114"/>
<stop offset="0.43" stop-color="#9E100A"/>
<stop offset="0.99" stop-color="#B3100C"/>
<stop offset="1" stop-color="#B3100C"/>
</linearGradient>
<linearGradient id="paint15_linear_38_145" x1="67.6009" y1="4.09155" x2="71.9193" y2="15.5277" gradientUnits="userSpaceOnUse">
<stop stop-color="#B31000"/>
<stop offset="0.44" stop-color="#910F08"/>
<stop offset="0.99" stop-color="#791C12"/>
<stop offset="1" stop-color="#791C12"/>
</linearGradient>
</defs>
</svg>
