<svg width="170" height="210" viewBox="0 0 170 210" fill="none" xmlns="http://www.w3.org/2000/svg">
<path d="M156.485 128.701C147.243 128.471 140.08 129.393 134.072 131.929C132.339 132.621 129.566 132.621 129.335 134.812C130.259 135.734 130.374 137.233 131.183 138.501C132.571 140.807 134.996 143.92 137.191 145.535C139.617 147.379 142.044 149.223 144.585 150.838C149.091 153.605 154.175 155.219 158.565 157.986C161.108 159.599 163.648 161.676 166.19 163.405C167.461 164.326 168.269 165.826 169.888 166.402V166.057C169.078 165.018 168.847 163.52 168.039 162.367C166.885 161.214 165.728 160.176 164.572 159.023C161.222 154.527 157.063 150.607 152.557 147.379C148.861 144.842 140.772 141.384 139.271 137.117C139.271 137.117 139.155 137.003 139.04 136.888C141.581 136.657 144.585 135.734 147.012 135.043C150.94 134.004 154.521 134.235 158.565 133.198C160.413 132.736 162.262 132.16 164.11 131.583V130.546C162.032 128.471 160.53 125.704 158.334 123.744C152.442 118.67 145.971 113.713 139.271 109.563C135.689 107.256 131.067 105.757 127.255 103.798C125.869 103.105 123.558 102.76 122.75 101.607C120.669 99.0709 119.514 95.7277 118.012 92.7298C114.663 86.3879 111.427 79.3555 108.538 72.6691C106.46 68.1721 105.189 63.6751 102.647 59.5254C90.7466 39.9253 77.8066 28.05 57.9352 16.4047C53.66 13.984 48.5766 12.9462 43.1466 11.6785C40.2592 11.5625 37.3699 11.3326 34.4819 11.2166C32.6331 10.4095 30.7844 8.21931 29.1667 7.18155C22.5825 3.03051 5.5978 -5.96141 0.745499 5.91384C-2.37427 13.4074 5.36737 20.7857 8.02362 24.5915C9.98925 27.2429 12.53 30.2402 13.9165 33.2382C14.7253 35.1971 14.9558 37.2739 15.7646 39.3488C17.614 44.4203 19.3459 50.071 21.773 54.7985C23.0441 57.2193 24.43 59.7554 26.0476 61.9462C26.972 63.2139 28.589 63.7911 28.9363 65.866C27.3193 68.1721 27.2031 71.6313 26.278 74.5133C22.119 87.5416 23.7373 103.683 29.6289 113.252C31.477 116.133 35.8678 122.476 41.76 120.054C46.9596 117.979 45.8041 111.407 47.3049 105.643C47.6529 104.258 47.4218 103.337 48.1144 102.414V102.645C49.7321 105.873 51.3491 108.987 52.8512 112.215C56.4331 117.863 62.6713 123.744 67.8703 127.664C70.6441 129.739 72.8388 133.313 76.3052 134.581V134.235H76.0734C75.3801 133.197 74.3402 132.736 73.4165 131.929C71.3373 129.854 69.0257 127.318 67.4087 125.012C62.5571 118.554 58.2812 111.407 54.4688 104.028C52.6207 100.455 51.0024 96.5342 49.501 92.9604C48.807 91.5754 48.807 89.5012 47.6522 88.81C45.919 91.3461 43.3777 93.5369 42.1066 96.6495C39.9126 101.607 39.6808 107.718 38.872 114.058C38.4098 114.175 38.6402 114.058 38.4091 114.29C34.713 113.366 33.4419 109.563 32.0547 106.334C28.5883 98.1485 28.0106 85.0049 31.0155 75.5511C31.8243 73.1296 35.2907 65.5207 33.9041 63.2146C33.2109 61.0238 30.8993 59.7554 29.6289 58.0265C28.1275 55.8356 26.5091 53.0696 25.4699 50.6475C22.6968 44.191 21.3102 37.0426 18.3066 30.5861C16.9201 27.5882 14.4949 24.4762 12.53 21.7089C10.3352 18.5962 7.90874 16.4047 6.17554 12.7156C5.59847 11.4479 4.78898 9.37237 5.71335 7.98869C5.94444 7.06624 6.40597 6.72098 7.33101 6.49037C8.83312 5.22134 13.1084 6.83563 14.6091 7.52747C18.8844 9.25574 22.4657 10.8714 26.0476 13.2921C27.6646 14.4452 29.3978 16.636 31.477 17.2126H33.9035C37.601 18.019 41.7593 17.4432 45.2257 18.4803C51.3497 20.4398 56.8946 23.3225 61.8632 26.4358C76.9985 36.0049 89.4749 49.6097 97.9098 65.866C99.2964 68.5167 99.8734 70.9395 101.144 73.7055C103.572 79.3555 106.575 85.1202 109 90.6542C111.427 96.0723 113.737 101.607 117.203 106.104C118.937 108.524 125.868 109.793 128.988 111.062C131.299 112.099 134.881 113.022 136.96 114.289C140.888 116.71 144.816 119.478 148.513 122.129C150.362 123.513 156.138 126.395 156.485 128.701Z" fill="#00546B"/>
<path d="M38.6389 28.5099C36.6753 28.5099 35.2894 28.7418 33.9028 29.0871V29.3177H34.1339C35.059 31.1626 36.6753 32.431 37.8301 34.0446C38.7551 35.8889 39.5633 37.7344 40.4883 39.5793C40.6032 39.4634 40.7188 39.3487 40.7188 39.3487C42.3371 38.195 43.1452 36.3507 43.1452 33.5834C42.452 32.7769 42.3364 31.9698 41.7587 31.1626C41.0661 30.0089 39.5633 29.433 38.6389 28.5099Z" fill="#00546B"/>
<path d="M59.1934 185.359L63.7051 197.348L68.2061 185.359H71.7188V201H69.0117V195.844L69.2803 188.947L64.6611 201H62.7168L58.1084 188.958L58.377 195.844V201H55.6699V185.359H59.1934ZM78.7549 197.262L81.1182 189.377H83.9004L79.2812 202.762C78.5723 204.717 77.3691 205.694 75.6719 205.694C75.2923 205.694 74.8734 205.63 74.415 205.501V203.481L74.9092 203.514C75.568 203.514 76.0622 203.392 76.3916 203.148C76.7282 202.912 76.9932 202.511 77.1865 201.945L77.5625 200.946L73.4805 189.377H76.2949L78.7549 197.262ZM93.8369 196.972C93.8369 196.284 93.5934 195.754 93.1064 195.382C92.6266 195.009 91.7565 194.633 90.4961 194.254C89.2357 193.874 88.2331 193.452 87.4883 192.986C86.0632 192.091 85.3506 190.924 85.3506 189.484C85.3506 188.224 85.8626 187.186 86.8867 186.369C87.918 185.553 89.2536 185.145 90.8936 185.145C91.9821 185.145 92.9525 185.345 93.8047 185.746C94.6569 186.147 95.3265 186.72 95.8135 187.465C96.3005 188.202 96.5439 189.022 96.5439 189.925H93.8369C93.8369 189.108 93.5791 188.471 93.0635 188.013C92.555 187.547 91.8245 187.314 90.8721 187.314C89.984 187.314 89.293 187.504 88.7988 187.884C88.3118 188.263 88.0684 188.793 88.0684 189.474C88.0684 190.047 88.3333 190.526 88.8633 190.913C89.3932 191.293 90.2669 191.665 91.4844 192.03C92.7018 192.388 93.6794 192.8 94.417 193.266C95.1546 193.724 95.6953 194.254 96.0391 194.855C96.3828 195.45 96.5547 196.148 96.5547 196.95C96.5547 198.254 96.0534 199.292 95.0508 200.065C94.0553 200.832 92.7018 201.215 90.9902 201.215C89.8587 201.215 88.8167 201.007 87.8643 200.592C86.9189 200.169 86.1813 199.589 85.6514 198.852C85.1286 198.114 84.8672 197.255 84.8672 196.273H87.585C87.585 197.161 87.8786 197.849 88.4658 198.336C89.0531 198.823 89.8945 199.066 90.9902 199.066C91.9355 199.066 92.6445 198.877 93.1172 198.497C93.597 198.11 93.8369 197.602 93.8369 196.972ZM111.368 193.588C111.368 195.07 111.132 196.356 110.659 197.444C110.194 198.526 109.538 199.385 108.693 200.022L111.379 202.117L109.617 203.707L106.287 201.075C105.85 201.168 105.381 201.215 104.88 201.215C103.619 201.215 102.492 200.907 101.496 200.291C100.508 199.668 99.7415 198.784 99.1973 197.638C98.6602 196.492 98.388 195.171 98.3809 193.674V192.793C98.3809 191.268 98.6494 189.921 99.1865 188.754C99.7308 187.587 100.493 186.695 101.475 186.079C102.463 185.456 103.591 185.145 104.858 185.145C106.147 185.145 107.283 185.452 108.264 186.068C109.252 186.677 110.015 187.558 110.552 188.711C111.089 189.857 111.361 191.192 111.368 192.718V193.588ZM108.64 192.771C108.64 191.01 108.31 189.674 107.651 188.765C106.993 187.855 106.062 187.4 104.858 187.4C103.691 187.4 102.774 187.862 102.108 188.786C101.45 189.703 101.113 190.999 101.099 192.675V193.588C101.099 195.278 101.428 196.599 102.087 197.552C102.753 198.504 103.684 198.98 104.88 198.98C106.09 198.98 107.018 198.522 107.662 197.605C108.314 196.689 108.64 195.35 108.64 193.588V192.771ZM116.847 198.83H123.947V201H114.129V185.359H116.847V198.83Z" fill="#111111"/>
</svg>
