<svg width="673" height="471" viewBox="0 0 673 471" fill="none" xmlns="http://www.w3.org/2000/svg">
<g clip-path="url(#clip0_76_320)">
<g opacity="0.4">
<path opacity="0.4" d="M559.443 74.073L508.183 60.378L545.732 22.9013L596.993 36.5963L559.443 74.073ZM511.327 59.5503L558.961 72.2724L593.852 37.4377L546.218 24.7156L511.327 59.5503Z" fill="#E7B9B9"/>
<path opacity="0.4" d="M473.777 97.027L422.521 83.3458L460.066 45.8553L511.327 59.5503L473.777 97.027ZM425.661 82.5044L473.295 95.2265L508.186 60.3917L460.552 47.6697L425.661 82.5044Z" fill="#E7B9B9"/>
<path opacity="0.4" d="M523.225 110.236L471.964 96.5406L509.513 59.0639L560.774 72.7588L523.225 110.236ZM475.104 95.6992L522.739 108.421L557.63 73.5865L509.996 60.8644L475.104 95.6992Z" fill="#E7B9B9"/>
<path opacity="0.4" d="M572.672 123.444L521.411 109.749L558.961 72.2724L610.221 85.9674L572.672 123.444ZM524.552 108.908L572.186 121.63L607.077 86.795L559.443 74.0729L524.552 108.908Z" fill="#E7B9B9"/>
<path opacity="0.4" d="M388.111 119.981L336.851 106.286L374.4 68.8094L425.66 82.5044L388.111 119.981ZM339.995 105.458L387.629 118.181L422.52 83.3458L374.886 70.6237L339.995 105.458Z" fill="#E7B9B9"/>
<path opacity="0.4" d="M437.559 133.19L386.298 119.495L423.847 82.0179L475.104 95.6991L437.559 133.19ZM389.438 118.653L437.073 131.375L471.964 96.5405L424.33 83.8184L389.438 118.653Z" fill="#E7B9B9"/>
<path opacity="0.4" d="M487.007 146.398L435.746 132.703L473.292 95.2128L524.552 108.908L487.007 146.398ZM438.886 131.862L486.521 144.584L521.412 109.749L473.778 97.0271L438.886 131.862Z" fill="#E7B9B9"/>
<path opacity="0.4" d="M536.45 159.593L485.193 145.912L522.739 108.421L573.999 122.116L536.45 159.593ZM488.334 145.07L535.968 157.792L570.859 122.958L523.225 110.236L488.334 145.07Z" fill="#E7B9B9"/>
<path opacity="0.4" d="M585.898 172.801L534.637 159.106L572.186 121.63L623.447 135.325L585.898 172.801ZM537.777 158.265L585.411 170.987L620.303 136.152L572.669 123.43L537.777 158.265Z" fill="#E7B9B9"/>
<path opacity="0.4" d="M302.445 142.935L251.185 129.24L288.734 91.7635L339.994 105.458L302.445 142.935ZM254.329 128.413L301.963 141.135L336.854 106.3L289.22 93.5778L254.329 128.413Z" fill="#E7B9B9"/>
<path opacity="0.4" d="M351.894 156.144L300.633 142.449L338.182 104.972L389.443 118.667L351.894 156.144ZM303.773 141.607L351.408 154.329L386.299 119.495L338.665 106.773L303.773 141.607Z" fill="#E7B9B9"/>
<path opacity="0.4" d="M401.337 169.338L350.077 155.644L387.626 118.167L438.886 131.862L401.337 169.338ZM353.22 154.816L400.855 167.538L435.746 132.703L388.112 119.981L353.22 154.816Z" fill="#E7B9B9"/>
<path opacity="0.4" d="M450.784 182.547L399.524 168.852L437.073 131.375L488.333 145.07L450.784 182.547ZM402.668 168.024L450.302 180.746L485.193 145.912L437.559 133.19L402.668 168.024Z" fill="#E7B9B9"/>
<path opacity="0.4" d="M500.232 195.756L448.971 182.061L486.52 144.584L537.777 158.265L500.232 195.756ZM452.111 181.219L499.745 193.941L534.637 159.107L487.003 146.384L452.111 181.219Z" fill="#E7B9B9"/>
<path opacity="0.4" d="M549.675 208.95L498.414 195.255L535.96 157.765L587.22 171.46L549.675 208.95ZM501.558 194.428L549.192 207.15L584.084 172.315L536.449 159.593L501.558 194.428Z" fill="#E7B9B9"/>
<path opacity="0.4" d="M599.122 222.159L547.865 208.478L585.411 170.987L636.671 184.682L599.122 222.159ZM551.002 207.623L598.636 220.345L633.527 185.51L585.893 172.788L551.002 207.623Z" fill="#E7B9B9"/>
<path opacity="0.4" d="M216.78 165.889L165.52 152.194L203.069 114.718L254.326 128.399L216.78 165.889ZM168.664 151.367L216.298 164.089L251.189 129.254L203.555 116.532L168.664 151.367Z" fill="#E7B9B9"/>
<path opacity="0.4" d="M266.227 179.098L214.967 165.403L252.512 127.912L303.773 141.607L266.227 179.098ZM218.107 164.561L265.741 177.284L300.633 142.449L252.998 129.727L218.107 164.561Z" fill="#E7B9B9"/>
<path opacity="0.4" d="M315.671 192.293L264.414 178.611L301.96 141.121L353.22 154.816L315.671 192.293ZM267.554 177.77L315.189 190.492L350.08 155.657L302.446 142.935L267.554 177.77Z" fill="#E7B9B9"/>
<path opacity="0.4" d="M365.118 205.501L313.858 191.806L351.407 154.329L402.667 168.024L365.118 205.501ZM316.998 190.965L364.632 203.687L399.524 168.852L351.889 156.13L316.998 190.965Z" fill="#E7B9B9"/>
<path opacity="0.4" d="M414.566 218.71L363.305 205.015L400.854 167.538L452.115 181.233L414.566 218.71ZM366.445 204.173L414.079 216.895L448.971 182.061L401.337 169.338L366.445 204.173Z" fill="#E7B9B9"/>
<path opacity="0.4" d="M464.01 231.904L412.749 218.209L450.299 180.733L501.559 194.428L464.01 231.904ZM415.893 217.382L463.527 230.104L498.419 195.269L450.785 182.547L415.893 217.382Z" fill="#E7B9B9"/>
<path opacity="0.4" d="M513.457 245.113L462.197 231.418L499.746 193.941L551.006 207.636L513.457 245.113ZM465.337 230.577L512.971 243.299L547.862 208.464L500.228 195.742L465.337 230.577Z" fill="#E7B9B9"/>
<path opacity="0.4" d="M562.9 258.308L511.64 244.613L549.189 207.136L600.446 220.817L562.9 258.308ZM514.784 243.785L562.418 256.507L597.309 221.672L549.675 208.95L514.784 243.785Z" fill="#E7B9B9"/>
<path opacity="0.4" d="M612.348 271.516L561.087 257.821L598.632 220.331L649.893 234.026L612.348 271.516ZM564.227 256.98L611.861 269.702L646.753 234.867L599.119 222.145L564.227 256.98Z" fill="#E7B9B9"/>
<path opacity="0.4" d="M131.114 188.842L79.8568 175.161L117.406 137.684L168.666 151.379L131.114 188.842ZM82.997 174.319L130.631 187.041L165.523 152.207L117.888 139.485L82.997 174.319Z" fill="#E7B9B9"/>
<path opacity="0.4" d="M180.562 202.052L129.301 188.357L166.85 150.88L218.111 164.575L180.562 202.052ZM132.441 187.515L180.076 200.237L214.967 165.403L167.333 152.681L132.441 187.515Z" fill="#E7B9B9"/>
<path opacity="0.4" d="M230.005 215.247L178.744 201.552L216.294 164.075L267.554 177.77L230.005 215.247ZM181.888 200.724L229.523 213.446L264.414 178.611L216.78 165.889L181.888 200.724Z" fill="#E7B9B9"/>
<path opacity="0.4" d="M279.452 228.455L228.192 214.76L265.741 177.283L316.998 190.965L279.452 228.455ZM231.332 213.919L278.966 226.641L313.858 191.806L266.223 179.084L231.332 213.919Z" fill="#E7B9B9"/>
<path opacity="0.4" d="M328.9 241.664L277.64 227.969L315.185 190.478L366.446 204.173L328.9 241.664ZM280.78 227.127L328.414 239.849L363.306 205.015L315.671 192.292L280.78 227.127Z" fill="#E7B9B9"/>
<path opacity="0.4" d="M378.344 254.858L327.087 241.177L364.632 203.687L415.893 217.382L378.344 254.858ZM330.227 240.336L377.861 253.058L412.753 218.223L365.119 205.501L330.227 240.336Z" fill="#E7B9B9"/>
<path opacity="0.4" d="M427.791 268.067L376.531 254.372L414.08 216.895L465.34 230.59L427.791 268.067ZM379.671 253.531L427.305 266.253L462.196 231.418L414.562 218.696L379.671 253.531Z" fill="#E7B9B9"/>
<path opacity="0.4" d="M477.235 281.262L425.974 267.567L463.523 230.09L514.784 243.785L477.235 281.262ZM429.118 266.739L476.752 279.461L511.643 244.626L464.009 231.904L429.118 266.739Z" fill="#E7B9B9"/>
<path opacity="0.4" d="M526.682 294.47L475.421 280.775L512.97 243.299L564.231 256.994L526.682 294.47ZM478.561 279.934L526.196 292.656L561.087 257.821L513.453 245.099L478.561 279.934Z" fill="#E7B9B9"/>
<path opacity="0.4" d="M576.126 307.665L524.866 293.97L562.415 256.493L613.675 270.188L576.126 307.665ZM528.023 293.139L575.657 305.861L610.549 271.026L562.915 258.304L528.023 293.139Z" fill="#E7B9B9"/>
<path opacity="0.4" d="M625.573 320.874L574.313 307.179L611.862 269.702L663.119 283.383L625.573 320.874ZM577.47 306.347L625.105 319.069L659.996 284.235L612.362 271.513L577.47 306.347Z" fill="#E7B9B9"/>
<path opacity="0.4" d="M144.34 238.201L93.0831 224.519L130.629 187.029L181.889 200.724L144.34 238.201ZM96.2233 223.678L143.857 236.4L178.749 201.565L131.115 188.843L96.2233 223.678Z" fill="#E7B9B9"/>
<path opacity="0.4" d="M193.787 251.409L142.527 237.714L180.076 200.238L231.336 213.933L193.787 251.409ZM145.667 236.873L193.301 249.595L228.192 214.76L180.558 202.038L145.667 236.873Z" fill="#E7B9B9"/>
<path opacity="0.4" d="M243.231 264.604L191.97 250.909L229.519 213.432L280.78 227.127L243.231 264.604ZM195.114 250.081L242.748 262.803L277.64 227.969L230.005 215.246L195.114 250.081Z" fill="#E7B9B9"/>
<path opacity="0.4" d="M292.678 277.812L241.417 264.117L278.966 226.641L330.227 240.336L292.678 277.812ZM244.561 263.29L292.195 276.012L327.087 241.177L279.453 228.455L244.561 263.29Z" fill="#E7B9B9"/>
<path opacity="0.4" d="M342.125 291.021L290.865 277.326L328.414 239.849L379.671 253.531L342.125 291.021ZM294.005 276.485L341.639 289.207L376.53 254.372L328.896 241.65L294.005 276.485Z" fill="#E7B9B9"/>
<path opacity="0.4" d="M391.569 304.216L340.309 290.521L377.854 253.03L429.115 266.725L391.569 304.216ZM343.453 289.693L391.087 302.415L425.978 267.581L378.344 254.858L343.453 289.693Z" fill="#E7B9B9"/>
<path opacity="0.4" d="M441.017 317.424L389.76 303.743L427.305 266.253L478.566 279.948L441.017 317.424ZM392.896 302.888L440.531 315.61L475.422 280.775L427.788 268.053L392.896 302.888Z" fill="#E7B9B9"/>
<path opacity="0.4" d="M490.46 330.619L439.2 316.924L476.749 279.447L528.009 293.142L490.46 330.619ZM442.343 316.097L489.978 328.819L524.869 293.984L477.235 281.262L442.343 316.097Z" fill="#E7B9B9"/>
<path opacity="0.4" d="M539.907 343.828L488.647 330.133L526.196 292.656L577.456 306.351L539.907 343.828ZM491.801 329.288L539.435 342.01L574.326 307.175L526.692 294.453L491.801 329.288Z" fill="#E7B9B9"/>
<path opacity="0.4" d="M589.355 357.036L538.094 343.341L575.643 305.864L626.904 319.559L589.355 357.036ZM541.248 342.496L588.882 355.218L623.774 320.383L576.139 307.661L541.248 342.496Z" fill="#E7B9B9"/>
<path opacity="0.4" d="M638.812 370.227L587.551 356.532L625.1 319.056L676.361 332.751L638.812 370.227ZM590.695 355.705L638.329 368.427L673.221 333.592L625.586 320.87L590.695 355.705Z" fill="#E7B9B9"/>
<path opacity="0.4" d="M157.565 287.558L106.305 273.863L143.85 236.373L195.111 250.068L157.565 287.558ZM109.449 273.035L157.083 285.758L191.974 250.923L144.34 238.201L109.449 273.035Z" fill="#E7B9B9"/>
<path opacity="0.4" d="M207.012 300.766L155.755 287.085L193.3 249.595L244.561 263.29L207.012 300.766ZM158.895 286.244L206.529 298.966L241.421 264.131L193.787 251.409L158.895 286.244Z" fill="#E7B9B9"/>
<path opacity="0.4" d="M256.46 313.975L205.2 300.28L242.749 262.803L294.009 276.498L256.46 313.975ZM208.34 299.439L255.974 312.161L290.865 277.326L243.231 264.604L208.34 299.439Z" fill="#E7B9B9"/>
<path opacity="0.4" d="M305.903 327.17L254.643 313.475L292.192 275.998L343.453 289.693L305.903 327.17ZM257.787 312.647L305.421 325.369L340.312 290.535L292.678 277.812L257.787 312.647Z" fill="#E7B9B9"/>
<path opacity="0.4" d="M355.351 340.378L304.09 326.683L341.639 289.207L392.9 302.902L355.351 340.378ZM307.23 325.842L354.865 338.564L389.756 303.729L342.122 291.007L307.23 325.842Z" fill="#E7B9B9"/>
<path opacity="0.4" d="M404.794 353.573L353.534 339.878L391.083 302.402L442.339 316.083L404.794 353.573ZM356.677 339.051L404.312 351.773L439.203 316.938L391.569 304.216L356.677 339.051Z" fill="#E7B9B9"/>
<path opacity="0.4" d="M454.242 366.782L402.982 353.087L440.527 315.596L491.787 329.291L454.242 366.782ZM406.135 352.242L453.77 364.964L488.661 330.129L441.027 317.407L406.135 352.242Z" fill="#E7B9B9"/>
<path opacity="0.4" d="M503.686 379.976L452.429 366.295L489.974 328.805L541.235 342.5L503.686 379.976ZM455.583 365.45L503.217 378.172L538.108 343.337L490.474 330.615L455.583 365.45Z" fill="#E7B9B9"/>
<path opacity="0.4" d="M553.147 393.181L501.886 379.486L539.435 342.01L590.696 355.705L553.147 393.181ZM505.03 378.659L552.664 391.381L587.555 356.546L539.921 343.824L505.03 378.659Z" fill="#E7B9B9"/>
<path opacity="0.4" d="M170.794 336.929L119.534 323.234L157.083 285.758L208.339 299.439L170.794 336.929ZM122.674 322.393L170.308 335.115L205.199 300.28L157.565 287.558L122.674 322.393Z" fill="#E7B9B9"/>
<path opacity="0.4" d="M220.237 350.124L168.977 336.429L206.522 298.939L257.783 312.634L220.237 350.124ZM172.121 335.601L219.755 348.323L254.646 313.489L207.012 300.767L172.121 335.601Z" fill="#E7B9B9"/>
<path opacity="0.4" d="M269.685 363.332L218.428 349.651L255.973 312.161L307.234 325.856L269.685 363.332ZM221.564 348.796L269.199 361.518L304.09 326.683L256.456 313.961L221.564 348.796Z" fill="#E7B9B9"/>
<path opacity="0.4" d="M319.128 376.527L267.868 362.832L305.417 325.356L356.677 339.051L319.128 376.527ZM271.011 362.005L318.646 374.727L353.537 339.892L305.903 327.17L271.011 362.005Z" fill="#E7B9B9"/>
<path opacity="0.4" d="M368.576 389.736L317.316 376.041L354.865 338.564L406.125 352.259L368.576 389.736ZM320.47 375.196L368.104 387.918L402.995 353.083L355.361 340.361L320.47 375.196Z" fill="#E7B9B9"/>
<path opacity="0.4" d="M418.02 402.93L366.759 389.235L404.308 351.759L455.569 365.454L418.02 402.93ZM369.917 388.404L417.551 401.126L452.442 366.291L404.808 353.569L369.917 388.404Z" fill="#E7B9B9"/>
<path opacity="0.4" d="M467.481 416.135L416.22 402.44L453.769 364.964L505.026 378.645L467.481 416.135ZM419.364 401.613L466.998 414.335L501.89 379.5L454.255 366.778L419.364 401.613Z" fill="#E7B9B9"/>
<path opacity="0.4" d="M184.019 386.287L132.758 372.592L170.307 335.115L221.568 348.81L184.019 386.287ZM135.898 371.75L183.533 384.472L218.424 349.637L170.79 336.915L135.898 371.75Z" fill="#E7B9B9"/>
<path opacity="0.4" d="M233.463 399.481L182.202 385.786L219.752 348.31L271.008 361.991L233.463 399.481ZM185.346 384.959L232.981 397.681L267.872 362.846L220.238 350.124L185.346 384.959Z" fill="#E7B9B9"/>
<path opacity="0.4" d="M282.91 412.69L231.65 398.995L269.195 361.504L320.455 375.199L282.91 412.69ZM234.79 398.153L282.424 410.875L317.315 376.041L269.681 363.319L234.79 398.153Z" fill="#E7B9B9"/>
<path opacity="0.4" d="M332.354 425.885L281.097 412.203L318.642 374.713L369.903 388.408L332.354 425.885ZM284.251 411.358L331.885 424.08L366.776 389.246L319.142 376.523L284.251 411.358Z" fill="#E7B9B9"/>
<path opacity="0.4" d="M381.801 439.093L330.54 425.398L368.089 387.922L419.35 401.617L381.801 439.093ZM333.694 424.553L381.329 437.275L416.22 402.441L368.586 389.718L333.694 424.553Z" fill="#E7B9B9"/>
<path opacity="0.4" d="M197.244 435.644L145.984 421.949L183.533 384.472L234.793 398.167L197.244 435.644ZM149.124 421.108L196.758 433.83L231.65 398.995L184.015 386.273L149.124 421.108Z" fill="#E7B9B9"/>
<path opacity="0.4" d="M246.688 448.839L195.427 435.144L232.976 397.667L284.237 411.362L246.688 448.839ZM198.585 434.312L246.219 447.034L281.11 412.2L233.476 399.477L198.585 434.312Z" fill="#E7B9B9"/>
<path opacity="0.4" d="M296.136 462.047L244.875 448.352L282.424 410.876L333.681 424.557L296.136 462.047ZM248.029 447.507L295.663 460.229L330.555 425.394L282.921 412.672L248.029 447.507Z" fill="#E7B9B9"/>
<path opacity="0.4" d="M210.47 485.001L159.209 471.306L196.758 433.83L248.019 447.525L210.47 485.001ZM162.363 470.461L209.997 483.183L244.889 448.349L197.255 435.627L162.363 470.461Z" fill="#E7B9B9"/>
</g>
<path d="M227.566 171.068C226.696 171.566 225.855 172.192 225.056 172.904C224.714 161.648 216.572 157.18 206.549 162.957C198.393 167.653 191.477 177.728 188.996 187.589C186.986 187.319 184.619 187.845 182.067 189.311C174.766 193.523 168.835 203.754 168.835 212.178C168.835 220.602 174.752 224.002 182.067 219.805L227.566 193.594C232.955 190.492 237.333 182.922 237.333 176.717C237.333 170.513 232.97 167.966 227.566 171.068Z" fill="white"/>
<path d="M622.731 86.6378C621.861 87.1358 621.02 87.7619 620.221 88.4734C619.879 77.2178 611.737 72.7497 601.714 78.5269C593.558 83.2227 586.642 93.2972 584.161 103.158C582.151 102.888 579.784 103.414 577.232 104.88C569.932 109.092 564 119.323 564 127.747C564 136.171 569.917 139.572 577.232 135.374L622.731 109.163C628.12 106.061 632.498 98.491 632.498 92.2869C632.498 86.0401 628.135 83.5215 622.731 86.6378Z" fill="white"/>
<path d="M420.325 470.787C419.983 470.787 419.626 470.701 419.298 470.53C418.201 469.961 417.787 468.624 418.357 467.528C420.624 463.202 423.947 459.559 427.468 457.525C429.679 456.244 431.86 455.66 433.885 455.746C436.794 455.888 440.344 453.725 443.467 449.983C445.235 447.848 447.188 446.169 449.255 444.974C451.48 443.693 453.633 443.11 455.672 443.195C458.566 443.352 462.117 441.175 465.239 437.432C467.007 435.298 468.961 433.619 471.028 432.424C473.238 431.143 475.406 430.559 477.444 430.645C480.367 430.801 483.904 428.624 487.012 424.882C488.794 422.747 490.733 421.068 492.801 419.873C496.066 417.98 499.331 417.582 501.983 418.735C503.11 419.218 503.637 420.542 503.138 421.666C502.653 422.79 501.342 423.317 500.201 422.819C498.875 422.235 497.036 422.562 495.025 423.729C493.442 424.64 491.846 426.034 490.434 427.728C486.356 432.623 481.508 435.326 477.202 435.099C476.061 435.056 474.678 435.454 473.238 436.28C471.656 437.19 470.059 438.585 468.647 440.278C464.569 445.173 459.721 447.863 455.415 447.649C454.246 447.592 452.891 448.005 451.451 448.83C449.869 449.741 448.272 451.135 446.86 452.829C442.782 457.724 437.948 460.399 433.628 460.2C432.487 460.143 431.104 460.555 429.664 461.381C426.855 463.003 424.161 465.991 422.278 469.591C421.908 470.36 421.138 470.787 420.325 470.787Z" fill="white"/>
<path d="M165.67 279.498C165.67 282.23 163.745 285.546 161.378 286.912C159.011 288.278 157.086 287.168 157.086 284.436C157.086 281.704 159.011 278.388 161.378 277.022C163.745 275.656 165.67 276.766 165.67 279.498Z" fill="white"/>
<path d="M179.572 271.487C179.572 274.219 177.647 277.534 175.28 278.901C172.913 280.267 170.988 279.157 170.988 276.425C170.988 273.692 172.913 270.377 175.28 269.011C177.647 267.645 179.572 268.755 179.572 271.487Z" fill="white"/>
<path d="M193.473 263.475C193.473 266.208 191.548 269.523 189.181 270.889C186.815 272.255 184.89 271.145 184.89 268.413C184.89 265.681 186.815 262.366 189.181 260.999C191.563 259.633 193.473 260.743 193.473 263.475Z" fill="white"/>
<path d="M207.376 255.464C207.376 258.196 205.451 261.512 203.084 262.878C200.717 264.244 198.792 263.134 198.792 260.402C198.792 257.67 200.717 254.354 203.084 252.988C205.465 251.622 207.376 252.732 207.376 255.464Z" fill="white"/>
<path d="M567.872 390.133C567.872 392.78 566.004 396.01 563.708 397.333C561.413 398.657 559.545 397.59 559.545 394.929C559.545 392.282 561.413 389.052 563.708 387.728C566.018 386.419 567.872 387.486 567.872 390.133Z" fill="white"/>
<path d="M579.364 383.516C579.364 386.163 577.496 389.393 575.201 390.717C572.905 392.04 571.037 390.973 571.037 388.312C571.037 385.665 572.905 382.449 575.201 381.112C577.496 379.802 579.364 380.87 579.364 383.516Z" fill="white"/>
<path d="M567.872 376.914C567.872 379.561 566.004 382.791 563.708 384.114C561.413 385.437 559.545 384.37 559.545 381.709C559.545 379.062 561.413 375.832 563.708 374.509C566.018 373.186 567.872 374.253 567.872 376.914Z" fill="white"/>
<path d="M579.364 370.297C579.364 372.944 577.496 376.16 575.201 377.497C572.905 378.821 571.037 377.753 571.037 375.092C571.037 372.446 572.905 369.216 575.201 367.892C577.496 366.569 579.364 367.65 579.364 370.297Z" fill="white"/>
<path d="M469.959 40.654L461.39 45.5917V35.7164L469.959 30.7645V40.654Z" fill="white"/>
<path d="M481.88 33.71L473.296 38.6477V28.7724L481.88 23.8204V33.71Z" fill="white"/>
<path d="M470.045 53.4749L461.461 58.4268V48.5372L470.045 43.5996V53.4749Z" fill="white"/>
<path d="M481.88 46.6589L473.296 51.6108V41.7212L481.88 36.7836V46.6589Z" fill="white"/>
<path opacity="0.5" d="M113.315 203.405C111.847 204.244 110.463 205.468 109.252 206.891C109.066 198.894 103.306 195.692 96.2193 199.776C93.9522 201.085 91.8134 202.978 89.9598 205.226C86.8087 199.719 80.2783 198.453 72.707 202.807C62.056 208.94 53.4296 223.867 53.4296 236.133C53.4296 237.143 53.5151 238.096 53.6292 239.007C52.1035 238.609 50.2499 238.936 48.2252 240.089C43.135 243.02 39 250.163 39 256.04C39 261.917 43.135 264.293 48.2252 261.348L113.315 223.838C118.206 221.021 122.184 214.148 122.184 208.513C122.184 202.864 118.206 200.587 113.315 203.405Z" fill="#EEE6FF"/>
<path d="M22.4426 176.789C25.0019 176.789 27.0766 174.718 27.0766 172.164C27.0766 169.61 25.0019 167.539 22.4426 167.539C19.8833 167.539 17.8086 169.61 17.8086 172.164C17.8086 174.718 19.8833 176.789 22.4426 176.789Z" fill="#AFAFAF"/>
<path opacity="0.4" d="M4.634 176.789C7.19329 176.789 9.26801 174.718 9.26801 172.164C9.26801 169.61 7.19329 167.539 4.634 167.539C2.07471 167.539 0 169.61 0 172.164C0 174.718 2.07471 176.789 4.634 176.789Z" fill="#AFAFAF"/>
<path d="M480.041 253.472L435.611 227.873C432.888 226.308 433.23 223.561 436.381 221.74L479.285 197.023C482.436 195.202 487.198 195.017 489.922 196.582L534.351 222.181C537.074 223.746 536.732 226.493 533.581 228.314L490.677 253.031C487.526 254.852 482.764 255.051 480.041 253.472Z" fill="#7DC3EA"/>
<path d="M484.688 243.056C482.521 243.056 480.425 242.586 478.785 241.647L434.342 216.048C432.374 214.91 431.233 213.145 431.233 211.21C431.233 209.033 432.645 206.97 435.097 205.561L478.001 180.844C481.965 178.553 487.626 178.368 491.162 180.403L535.605 206.002C537.573 207.14 538.714 208.905 538.714 210.854C538.714 213.031 537.302 215.081 534.85 216.503L491.946 241.22C489.807 242.43 487.198 243.056 484.688 243.056ZM485.33 184.017C483.676 184.017 481.88 184.416 480.539 185.184L437.635 209.901C436.552 210.527 436.295 211.082 436.295 211.182C436.309 211.21 436.452 211.424 436.88 211.665L481.323 237.264C483.277 238.389 487.07 238.189 489.437 236.823L532.34 212.107C533.424 211.48 533.681 210.925 533.681 210.812C533.666 210.783 533.524 210.57 533.096 210.328L488.667 184.729C487.797 184.259 486.599 184.017 485.33 184.017Z" fill="white"/>
<path d="M536.176 195.145V179.848L501.799 179.834L489.922 172.989C487.198 171.424 482.436 171.609 479.285 173.43L468.192 179.819L433.786 179.805V195.543C433.715 196.61 434.299 197.635 435.611 198.389L480.041 223.988C482.764 225.553 487.526 225.368 490.677 223.547L533.581 198.83C535.406 197.763 536.276 196.411 536.176 195.145Z" fill="#396CAA"/>
<path d="M484.974 171.922C482.977 171.965 480.91 172.477 479.27 173.416L468.177 179.805L433.771 179.791V195.529C433.7 196.596 434.285 197.621 435.597 198.375L480.026 223.974C481.338 224.728 483.12 225.07 484.959 225.027V171.922H484.974Z" fill="url(#paint0_radial_76_320)"/>
<path d="M437.679 179.791H433.786V195.529C433.715 196.596 434.299 197.621 435.611 198.375L437.679 199.57V179.791Z" fill="#D4ECFF"/>
<path d="M480.725 224.301C483.077 225.312 486.485 225.255 489.223 224.202V206.329H480.725V224.301Z" fill="#5793CE"/>
<path d="M480.041 208.293L435.611 182.694C432.888 181.129 433.23 178.382 436.381 176.561L479.285 151.844C482.436 150.023 487.198 149.838 489.922 151.403L534.351 177.002C537.074 178.567 536.732 181.314 533.581 183.135L490.677 207.852C487.526 209.673 482.764 209.858 480.041 208.293Z" fill="url(#paint1_linear_76_320)"/>
<path d="M533.58 180.118L490.677 204.835C487.526 206.657 482.763 206.842 480.04 205.276L435.61 179.677C434.997 179.321 434.555 178.923 434.256 178.468C433.315 179.976 433.743 181.598 435.61 182.68L480.04 208.279C482.763 209.844 487.526 209.659 490.677 207.838L533.58 183.121C536.033 181.712 536.774 179.748 535.705 178.197C535.291 178.895 534.579 179.549 533.58 180.118Z" fill="white"/>
<path d="M519.835 199.186C519.835 200.324 519.037 201.719 518.039 202.288C517.041 202.857 516.242 202.402 516.242 201.249C516.242 200.111 517.041 198.717 518.039 198.147C519.037 197.578 519.835 198.048 519.835 199.186Z" fill="#D4ECFF"/>
<path d="M525.61 195.856C525.61 196.995 524.811 198.389 523.813 198.958C522.815 199.528 522.017 199.072 522.017 197.92C522.017 196.781 522.815 195.387 523.813 194.818C524.811 194.248 525.61 194.718 525.61 195.856Z" fill="#D4ECFF"/>
<path d="M531.385 192.527C531.385 193.665 530.587 195.059 529.589 195.629C528.59 196.198 527.792 195.742 527.792 194.59C527.792 193.452 528.59 192.057 529.589 191.488C530.587 190.919 531.385 191.388 531.385 192.527Z" fill="#D4ECFF"/>
<path d="M482.664 192.413L461.875 180.431C460.606 179.692 460.763 178.411 462.231 177.557L482.307 165.988C483.776 165.135 486.015 165.049 487.284 165.789L508.072 177.771C509.341 178.51 509.185 179.791 507.716 180.645L487.64 192.214C486.171 193.067 483.947 193.153 482.664 192.413Z" fill="#5793CE"/>
<path d="M484.66 182.395L481.78 180.744C481.608 180.645 481.623 180.46 481.822 180.346L484.603 178.752C484.802 178.638 485.116 178.624 485.287 178.724L488.167 180.375C488.338 180.474 488.324 180.659 488.125 180.773L485.344 182.367C485.145 182.48 484.831 182.495 484.66 182.395Z" fill="#D4ECFF"/>
<path d="M461.875 180.445L461.932 180.473C462.032 180.402 462.117 180.331 462.231 180.274L482.307 168.705C483.776 167.852 486.015 167.766 487.284 168.506L508.015 180.459C509.199 179.62 509.256 178.481 508.072 177.798L487.284 165.817C486 165.077 483.776 165.176 482.307 166.016L462.231 177.585C460.763 178.424 460.606 179.705 461.875 180.445Z" fill="#396CAA"/>
<path d="M587.087 274.077L542.658 248.478C539.935 246.913 540.277 244.167 543.428 242.345L586.332 217.629C589.483 215.807 594.245 215.622 596.968 217.188L641.398 242.787C644.121 244.352 643.779 247.098 640.628 248.92L597.724 273.636C594.573 275.458 589.811 275.657 587.087 274.077Z" fill="#7DC3EA"/>
<path d="M591.736 263.661C589.568 263.661 587.472 263.192 585.833 262.253L541.403 236.654C539.436 235.515 538.295 233.751 538.295 231.816C538.295 229.638 539.706 227.575 542.159 226.166L585.063 201.45C589.027 199.173 594.687 198.974 598.223 201.008L642.653 226.608C644.62 227.746 645.761 229.51 645.761 231.446C645.761 233.623 644.349 235.672 641.897 237.095L598.993 261.812C596.854 263.035 594.245 263.661 591.736 263.661ZM588.342 257.884C590.31 259.008 594.088 258.809 596.455 257.443L639.359 232.726C640.443 232.1 640.699 231.545 640.699 231.431C640.685 231.403 640.542 231.19 640.115 230.948L595.685 205.349C593.732 204.224 589.939 204.424 587.572 205.79L544.668 230.506C543.585 231.133 543.328 231.688 543.328 231.787C543.342 231.816 543.485 232.029 543.913 232.271L588.342 257.884Z" fill="white"/>
<path d="M643.223 215.75V200.453L608.846 200.439L596.969 193.595C594.245 192.03 589.483 192.215 586.332 194.036L575.239 200.425L540.833 200.411V216.149C540.762 217.216 541.346 218.24 542.658 218.995L587.087 244.594C589.811 246.159 594.573 245.974 597.724 244.153L640.628 219.436C642.453 218.369 643.323 217.017 643.223 215.75Z" fill="#396CAA"/>
<path d="M592.021 192.528C590.024 192.57 587.957 193.083 586.317 194.022L575.224 200.411L540.818 200.397V216.135C540.747 217.202 541.332 218.226 542.643 218.98L587.073 244.579C588.385 245.334 590.167 245.675 592.006 245.632V192.528H592.021Z" fill="url(#paint2_radial_76_320)"/>
<path d="M544.711 200.397H540.818V216.135C540.747 217.202 541.332 218.226 542.643 218.981L544.711 220.176V200.397Z" fill="#D4ECFF"/>
<path d="M587.771 244.907C590.124 245.917 593.532 245.86 596.27 244.807V226.935H587.771V244.907Z" fill="#5793CE"/>
<path d="M587.087 228.898L542.658 203.299C539.935 201.734 540.277 198.988 543.428 197.166L586.332 172.45C589.483 170.628 594.245 170.443 596.968 172.009L641.398 197.608C644.121 199.173 643.779 201.919 640.628 203.741L597.724 228.457C594.573 230.265 589.811 230.464 587.087 228.898Z" fill="url(#paint3_linear_76_320)"/>
<path d="M640.628 200.724L597.724 225.441C594.573 227.262 589.811 227.447 587.088 225.882L542.658 200.283C542.045 199.927 541.603 199.529 541.304 199.073C540.363 200.582 540.79 202.204 542.658 203.285L587.088 228.884C589.811 230.45 594.573 230.265 597.724 228.443L640.628 203.726C643.081 202.318 643.822 200.354 642.753 198.803C642.325 199.5 641.612 200.155 640.628 200.724Z" fill="white"/>
<path d="M626.883 219.792C626.883 220.93 626.085 222.324 625.087 222.894C624.088 223.463 623.29 223.008 623.29 221.855C623.29 220.717 624.088 219.322 625.087 218.753C626.085 218.184 626.883 218.639 626.883 219.792Z" fill="#D4ECFF"/>
<path d="M632.658 216.462C632.658 217.6 631.859 218.995 630.861 219.564C629.863 220.133 629.064 219.678 629.064 218.525C629.064 217.372 629.863 215.992 630.861 215.423C631.845 214.854 632.658 215.323 632.658 216.462Z" fill="#D4ECFF"/>
<path d="M638.433 213.132C638.433 214.271 637.635 215.665 636.636 216.234C635.638 216.803 634.84 216.348 634.84 215.195C634.84 214.057 635.638 212.663 636.636 212.093C637.62 211.524 638.433 211.994 638.433 213.132Z" fill="#D4ECFF"/>
<path d="M589.71 213.018L568.921 201.037C567.652 200.297 567.809 199.016 569.277 198.163L589.353 186.594C590.822 185.74 593.06 185.655 594.329 186.395L615.118 198.376C616.387 199.116 616.231 200.397 614.762 201.25L594.686 212.819C593.217 213.659 590.993 213.758 589.71 213.018Z" fill="#5793CE"/>
<path d="M591.707 202.987L588.826 201.336C588.655 201.236 588.67 201.051 588.869 200.937L591.65 199.344C591.849 199.23 592.163 199.216 592.334 199.315L595.214 200.966C595.385 201.066 595.371 201.25 595.171 201.364L592.391 202.958C592.191 203.072 591.878 203.086 591.707 202.987Z" fill="#D4ECFF"/>
<path d="M568.922 201.036L568.979 201.065C569.079 200.993 569.164 200.922 569.278 200.865L589.354 189.297C590.823 188.443 593.061 188.358 594.33 189.097L615.062 201.05C616.246 200.211 616.303 199.072 615.119 198.389L594.33 186.408C593.047 185.668 590.823 185.768 589.354 186.607L569.278 198.176C567.795 199.016 567.638 200.31 568.922 201.036Z" fill="#396CAA"/>
<path d="M228.412 335.078L322.418 281.589C325.854 279.611 325.426 276.154 321.448 273.863L267.366 242.7C263.402 240.409 257.385 240.167 253.948 242.145L159.942 295.634C156.506 297.612 156.934 301.07 160.912 303.361L214.994 334.523C218.972 336.814 224.975 337.071 228.412 335.078Z" fill="#7DC3EA"/>
<path d="M222.566 323.14C219.486 323.14 216.278 322.386 213.726 320.92L159.643 289.757C156.749 288.092 155.095 285.702 155.095 283.197C155.095 280.992 156.407 278.971 158.674 277.662L252.694 224.159C256.886 221.754 263.873 221.996 268.621 224.714L322.703 255.877C325.598 257.541 327.252 259.932 327.252 262.436C327.252 264.642 325.94 266.663 323.673 267.972L229.667 321.475C227.727 322.599 225.204 323.14 222.566 323.14ZM259.738 227.545C257.998 227.545 256.373 227.873 255.204 228.541L161.183 282.045C160.527 282.415 160.128 282.856 160.128 283.212C160.128 283.724 160.755 284.592 162.153 285.403L216.235 316.566C219.386 318.387 224.476 318.643 227.129 317.121H227.143L321.149 263.632C321.805 263.262 322.204 262.821 322.204 262.465C322.204 261.953 321.577 261.085 320.179 260.273L266.097 229.096C264.329 228.072 261.948 227.545 259.738 227.545Z" fill="white"/>
<path d="M157.647 266.293V62.1404L238.977 40.8956L253.963 32.2582C257.399 30.2803 263.402 30.5222 267.38 32.8132L281.353 40.8671L324.728 40.8387L311.881 237.919C311.98 239.256 311.225 240.551 309.571 241.505L228.412 302.621C224.975 304.599 218.972 304.357 214.994 302.066L160.912 270.903C158.616 269.594 157.518 267.886 157.647 266.293Z" fill="url(#paint4_radial_76_320)"/>
<path d="M260.18 30.9348C262.689 30.9918 265.313 31.6321 267.366 32.8131L281.339 40.8671L324.714 40.8386V245.546C324.814 246.883 324.058 248.178 322.404 249.132L228.398 302.621C226.744 303.574 224.505 304.001 222.167 303.944L221.197 97.9563L260.18 30.9348Z" fill="#D4ECFF"/>
<path d="M227.542 303.062C224.576 304.328 220.284 304.257 216.819 302.934V95.5374H227.542V303.062Z" fill="#5793CE"/>
<path d="M228.412 97.9991L322.418 44.51C325.854 42.532 325.426 39.0742 321.448 36.7833L267.366 5.62044C263.402 3.32947 257.385 3.08757 253.948 5.06548L159.942 58.5546C156.506 60.5325 156.934 63.9903 160.912 66.2813L214.994 97.4441C218.972 99.7351 224.975 99.977 228.412 97.9991Z" fill="#D4ECFF"/>
<path d="M160.912 62.482L214.994 93.6448C218.958 95.9358 224.975 96.1777 228.411 94.1998L322.417 40.7107C323.187 40.2696 323.743 39.7573 324.128 39.1881C325.312 41.0807 324.77 43.144 322.417 44.4958L228.411 97.9849C224.975 99.9628 218.972 99.7209 214.994 97.4299L160.912 66.2671C157.832 64.4884 156.891 62.0124 158.231 60.063C158.773 60.931 159.671 61.7705 160.912 62.482Z" fill="#FAFDFF"/>
<path d="M225.745 76.3131L288.326 40.113C289.937 39.188 289.737 37.5659 287.87 36.4986L262.575 21.9133C260.722 20.8461 257.913 20.7322 256.301 21.6572L193.721 57.8573C192.11 58.7822 192.309 60.4044 194.177 61.4716L219.486 76.057C221.325 77.1242 224.148 77.2522 225.745 76.3131Z" fill="#173D7A"/>
<path d="M259.538 41.7352L263.16 39.6434C263.388 39.5154 263.36 39.2877 263.103 39.1454L259.595 37.1248C259.339 36.9825 258.954 36.954 258.726 37.0821L255.104 39.1739C254.876 39.3019 254.904 39.5296 255.161 39.6719L258.669 41.6925C258.925 41.849 259.31 41.8633 259.538 41.7352Z" fill="#D4ECFF"/>
<path d="M247.419 48.6935L251.041 46.6018C251.269 46.4737 251.24 46.246 250.984 46.1037L247.476 44.0831C247.22 43.9408 246.835 43.9124 246.606 44.0405L242.985 46.1322C242.757 46.2603 242.785 46.4879 243.042 46.6302L246.549 48.6508C246.806 48.8074 247.205 48.8216 247.419 48.6935Z" fill="#D4ECFF"/>
<path d="M235.314 55.6517L238.935 53.5599C239.163 53.4319 239.135 53.2042 238.878 53.0619L235.371 51.0413C235.114 50.899 234.729 50.8705 234.501 50.9986L230.879 53.0903C230.651 53.2184 230.68 53.4461 230.936 53.5884L234.444 55.609C234.701 55.7513 235.086 55.7797 235.314 55.6517Z" fill="#D4ECFF"/>
<path d="M223.194 62.5959L226.815 60.5041C227.043 60.376 227.015 60.1484 226.758 60.0061L223.251 57.9855C222.994 57.8432 222.609 57.8147 222.381 57.9428L218.759 60.0345C218.531 60.1626 218.56 60.3903 218.816 60.5326L222.324 62.5532C222.58 62.7097 222.965 62.7239 223.194 62.5959Z" fill="#D4ECFF"/>
<path d="M288.338 40.113L288.267 40.1557C288.139 40.0703 288.039 39.9849 287.896 39.8995L262.588 25.3142C260.734 24.247 257.925 24.1331 256.314 25.058L193.805 61.2155C192.322 60.1625 192.251 58.7111 193.733 57.8573L256.314 21.6572C257.925 20.7322 260.734 20.8461 262.588 21.9133L287.896 36.4986C289.736 37.5659 289.95 39.188 288.338 40.113Z" fill="#5793CE"/>
<path d="M204.443 138.454L168.854 118.12C166.858 116.967 165.232 113.865 165.232 111.204V98.5112C165.232 95.8503 166.858 94.6265 168.854 95.7791L204.443 116.113C206.439 117.266 208.065 120.368 208.065 123.029V135.722C208.065 138.383 206.439 139.606 204.443 138.454Z" fill="#173D7A"/>
<path d="M167.086 95.3803C166.53 95.9068 166.173 96.8033 166.173 98.027V110.72C166.173 113.381 167.799 116.483 169.795 117.635L205.384 137.97C206.026 138.339 206.625 138.439 207.152 138.354C206.482 138.98 205.527 139.079 204.443 138.453L168.854 118.119C166.858 116.967 165.232 113.865 165.232 111.204V98.5108C165.232 96.6894 165.988 95.5653 167.086 95.3803Z" fill="white"/>
<path d="M193.735 124.651L190.47 122.773C190.028 122.517 189.686 121.848 189.686 121.264V117.778C189.686 117.195 190.042 116.924 190.47 117.18L193.735 119.059C194.177 119.315 194.519 119.984 194.519 120.567V124.053C194.519 124.637 194.177 124.907 193.735 124.651Z" fill="#396CAA"/>
<path d="M182.813 118.362L179.548 116.483C179.106 116.227 178.764 115.558 178.764 114.975V111.489C178.764 110.905 179.12 110.635 179.548 110.891L182.813 112.769C183.255 113.025 183.597 113.694 183.597 114.278V117.764C183.612 118.347 183.255 118.618 182.813 118.362Z" fill="white"/>
<path d="M204.443 230.221L168.854 209.886C166.858 208.734 165.232 205.632 165.232 202.971V190.278C165.232 187.617 166.858 186.393 168.854 187.546L204.443 207.88C206.439 209.033 208.065 212.135 208.065 214.796V227.488C208.065 230.149 206.439 231.373 204.443 230.221Z" fill="#173D7A"/>
<path d="M167.086 187.147C166.53 187.674 166.173 188.57 166.173 189.794V202.487C166.173 205.148 167.799 208.25 169.795 209.402L205.384 229.736C206.026 230.106 206.625 230.206 207.152 230.121C206.482 230.747 205.527 230.846 204.443 230.22L168.854 209.886C166.858 208.733 165.232 205.631 165.232 202.97V190.278C165.232 188.456 165.988 187.346 167.086 187.147Z" fill="white"/>
<path d="M193.735 216.418L190.47 214.54C190.028 214.283 189.686 213.615 189.686 213.031V209.545C189.686 208.962 190.042 208.691 190.47 208.947L193.735 210.826C194.177 211.082 194.519 211.751 194.519 212.334V215.82C194.519 216.404 194.177 216.674 193.735 216.418Z" fill="#396CAA"/>
<path d="M182.813 210.128L179.548 208.25C179.106 207.994 178.764 207.325 178.764 206.742V203.256C178.764 202.672 179.12 202.402 179.548 202.658L182.813 204.536C183.255 204.792 183.597 205.461 183.597 206.045V209.531C183.612 210.114 183.255 210.385 182.813 210.128Z" fill="white"/>
<path d="M204.443 276.097L168.854 255.763C166.858 254.61 165.232 251.508 165.232 248.847V236.154C165.232 233.493 166.858 232.27 168.854 233.422L204.443 253.756C206.439 254.909 208.065 258.011 208.065 260.672V273.365C208.065 276.026 206.439 277.249 204.443 276.097Z" fill="#173D7A"/>
<path d="M167.086 233.037C166.53 233.563 166.173 234.46 166.173 235.684V248.376C166.173 251.037 167.799 254.139 169.795 255.292L205.384 275.626C206.026 275.996 206.625 276.096 207.152 276.01C206.482 276.636 205.527 276.736 204.443 276.11L168.854 255.776C166.858 254.623 165.232 251.521 165.232 248.86V236.167C165.232 234.346 165.988 233.222 167.086 233.037Z" fill="white"/>
<path d="M193.735 262.308L190.47 260.43C190.028 260.174 189.686 259.505 189.686 258.922V255.435C189.686 254.852 190.042 254.581 190.47 254.838L193.735 256.716C194.177 256.972 194.519 257.641 194.519 258.224V261.711C194.519 262.294 194.177 262.55 193.735 262.308Z" fill="#396CAA"/>
<path d="M182.813 256.019L179.548 254.14C179.106 253.884 178.764 253.215 178.764 252.632V249.146C178.764 248.562 179.12 248.292 179.548 248.548L182.813 250.426C183.255 250.683 183.597 251.351 183.597 251.935V255.421C183.612 256.004 183.255 256.261 182.813 256.019Z" fill="white"/>
<path d="M204.443 184.33L168.854 163.996C166.858 162.843 165.232 159.741 165.232 157.08V144.388C165.232 141.727 166.858 140.503 168.854 141.656L204.443 161.99C206.439 163.142 208.065 166.244 208.065 168.905V181.598C208.065 184.259 206.439 185.483 204.443 184.33Z" fill="#173D7A"/>
<path d="M167.086 141.27C166.53 141.797 166.173 142.693 166.173 143.917V156.61C166.173 159.271 167.799 162.373 169.795 163.525L205.384 183.859C206.026 184.229 206.625 184.329 207.152 184.244C206.482 184.87 205.527 184.969 204.443 184.343L168.854 164.009C166.858 162.856 165.232 159.754 165.232 157.093V144.401C165.232 142.579 165.988 141.455 167.086 141.27Z" fill="white"/>
<path d="M193.735 170.542L190.47 168.663C190.028 168.407 189.686 167.738 189.686 167.155V163.669C189.686 163.085 190.042 162.815 190.47 163.071L193.735 164.949C194.177 165.205 194.519 165.874 194.519 166.458V169.944C194.519 170.527 194.177 170.783 193.735 170.542Z" fill="#396CAA"/>
<path d="M182.813 164.252L179.548 162.374C179.106 162.118 178.764 161.449 178.764 160.865V157.379C178.764 156.796 179.12 156.525 179.548 156.782L182.813 158.66C183.255 158.916 183.597 159.585 183.597 160.168V163.654C183.612 164.238 183.255 164.494 182.813 164.252Z" fill="white"/>
<path d="M235.256 125.448L317.356 78.1488C319.195 77.0958 320.678 74.2499 320.678 71.8024V56.1783C320.678 53.7308 319.195 52.6066 317.356 53.6739L235.256 100.973C233.416 102.026 231.934 104.872 231.934 107.319V122.944C231.934 125.377 233.416 126.501 235.256 125.448Z" fill="#5793CE"/>
<path opacity="0.4" d="M237.608 119.97L314.989 75.3882C315.916 74.8475 316.672 73.4103 316.672 72.1723V60.4329C316.672 59.1949 315.916 58.6258 314.989 59.1523L237.608 103.734C236.681 104.274 235.926 105.712 235.926 106.949V118.689C235.926 119.941 236.681 120.51 237.608 119.97Z" fill="#D4ECFF"/>
<path d="M298.877 78.7323L310.426 72.0728C311.325 71.5463 312.066 70.1518 312.066 68.9423C312.066 67.7328 311.339 67.1778 310.426 67.7043L298.877 74.3638C297.979 74.8903 297.237 76.2848 297.237 77.4943C297.237 78.7038 297.964 79.2588 298.877 78.7323Z" fill="#D4ECFF"/>
<path d="M289.024 82.2326C289.024 83.4421 289.866 83.9259 290.921 83.3283C291.962 82.7306 292.817 81.265 292.817 80.0555C292.817 78.8459 291.976 78.3621 290.921 78.9598C289.88 79.5574 289.024 81.0231 289.024 82.2326Z" fill="#173D7A"/>
<path d="M282.352 86.0747C282.352 87.2842 283.193 87.768 284.248 87.1704C285.289 86.5727 286.144 85.1071 286.144 83.8975C286.144 82.688 285.303 82.2042 284.248 82.8019C283.193 83.3995 282.352 84.8652 282.352 86.0747Z" fill="#173D7A"/>
<path d="M275.679 89.9167C275.679 91.1263 276.52 91.6101 277.575 91.0124C278.616 90.4148 279.471 88.9491 279.471 87.7396C279.471 86.5301 278.63 86.0463 277.575 86.6439C276.52 87.2558 275.679 88.7215 275.679 89.9167Z" fill="#D4ECFF"/>
<path d="M268.991 93.773C268.991 94.9825 269.832 95.4663 270.888 94.8686C271.928 94.271 272.784 92.8053 272.784 91.5958C272.784 90.3863 271.943 89.9025 270.888 90.5001C269.847 91.0978 268.991 92.5634 268.991 93.773Z" fill="#173D7A"/>
<path d="M240.873 113.424L244.766 111.176C245.351 110.834 245.821 109.938 245.821 109.169V105.057C245.821 104.289 245.351 103.933 244.766 104.26L240.873 106.508C240.289 106.85 239.818 107.746 239.818 108.515V112.627C239.818 113.41 240.289 113.766 240.873 113.424Z" fill="#173D7A"/>
<path d="M235.256 152.996L317.356 105.697C319.195 104.644 320.678 101.798 320.678 99.3508V83.7267C320.678 81.2792 319.195 80.1551 317.356 81.2223L235.256 128.522C233.416 129.575 231.934 132.42 231.934 134.868V150.492C231.934 152.925 233.416 154.049 235.256 152.996Z" fill="#5793CE"/>
<path opacity="0.4" d="M237.608 147.518L314.989 102.937C315.916 102.396 316.672 100.959 316.672 99.7208V87.9814C316.672 86.7434 315.916 86.1742 314.989 86.7007L237.608 131.282C236.681 131.823 235.926 133.26 235.926 134.498V146.237C235.926 147.49 236.681 148.059 237.608 147.518Z" fill="#D4ECFF"/>
<path d="M298.877 106.281L310.426 99.6213C311.325 99.0948 312.066 97.7003 312.066 96.4908C312.066 95.2813 311.339 94.7263 310.426 95.2528L298.877 101.912C297.979 102.439 297.237 103.833 297.237 105.043C297.237 106.252 297.964 106.807 298.877 106.281Z" fill="#D4ECFF"/>
<path d="M289.024 109.781C289.024 110.991 289.866 111.474 290.921 110.877C291.962 110.279 292.817 108.813 292.817 107.604C292.817 106.394 291.976 105.911 290.921 106.508C289.88 107.106 289.024 108.572 289.024 109.781Z" fill="white"/>
<path d="M282.352 113.623C282.352 114.833 283.193 115.316 284.248 114.719C285.289 114.121 286.144 112.656 286.144 111.446C286.144 110.237 285.303 109.753 284.248 110.35C283.193 110.948 282.352 112.414 282.352 113.623Z" fill="#173D7A"/>
<path d="M275.679 117.465C275.679 118.675 276.52 119.159 277.575 118.561C278.616 117.963 279.471 116.498 279.471 115.288C279.471 114.079 278.63 113.595 277.575 114.192C276.52 114.804 275.679 116.27 275.679 117.465Z" fill="#D4ECFF"/>
<path d="M268.991 121.321C268.991 122.531 269.832 123.015 270.888 122.417C271.928 121.819 272.784 120.354 272.784 119.144C272.784 117.935 271.943 117.451 270.888 118.049C269.847 118.646 268.991 120.112 268.991 121.321Z" fill="#173D7A"/>
<path d="M240.873 140.972L244.766 138.724C245.351 138.383 245.821 137.486 245.821 136.718V132.62C245.821 131.851 245.351 131.495 244.766 131.823L240.873 134.071C240.289 134.413 239.818 135.309 239.818 136.077V140.19C239.818 140.958 240.289 141.314 240.873 140.972Z" fill="#173D7A"/>
<path d="M235.256 180.545L317.356 133.246C319.195 132.193 320.678 129.347 320.678 126.899V111.275C320.678 108.828 319.195 107.704 317.356 108.771L235.256 156.07C233.416 157.123 231.934 159.969 231.934 162.416V178.041C231.934 180.474 233.416 181.598 235.256 180.545Z" fill="#5793CE"/>
<path opacity="0.4" d="M237.608 175.067L314.989 130.485C315.916 129.944 316.672 128.507 316.672 127.269V115.53C316.672 114.292 315.916 113.723 314.989 114.249L237.608 158.831C236.681 159.371 235.926 160.808 235.926 162.046V173.786C235.926 175.038 236.681 175.607 237.608 175.067Z" fill="#D4ECFF"/>
<path d="M298.877 133.829L310.426 127.17C311.325 126.643 312.066 125.249 312.066 124.039C312.066 122.83 311.339 122.275 310.426 122.801L298.877 129.461C297.979 129.987 297.237 131.382 297.237 132.591C297.237 133.801 297.964 134.356 298.877 133.829Z" fill="#D4ECFF"/>
<path d="M289.024 137.33C289.024 138.539 289.866 139.023 290.921 138.425C291.962 137.828 292.817 136.362 292.817 135.152C292.817 133.943 291.976 133.459 290.921 134.057C289.88 134.654 289.024 136.12 289.024 137.33Z" fill="white"/>
<path d="M282.352 141.172C282.352 142.381 283.193 142.865 284.248 142.267C285.289 141.67 286.144 140.204 286.144 138.994C286.144 137.785 285.303 137.301 284.248 137.899C283.193 138.496 282.352 139.962 282.352 141.172Z" fill="#173D7A"/>
<path d="M275.679 145.014C275.679 146.223 276.52 146.707 277.575 146.109C278.616 145.512 279.471 144.046 279.471 142.837C279.471 141.627 278.63 141.143 277.575 141.741C276.52 142.353 275.679 143.818 275.679 145.014Z" fill="#D4ECFF"/>
<path d="M268.991 148.87C268.991 150.079 269.832 150.563 270.888 149.966C271.928 149.368 272.784 147.902 272.784 146.693C272.784 145.483 271.943 144.999 270.888 145.597C269.847 146.195 268.991 147.66 268.991 148.87Z" fill="#173D7A"/>
<path d="M240.873 168.521L244.766 166.273C245.351 165.931 245.821 165.035 245.821 164.266V160.154C245.821 159.386 245.351 159.03 244.766 159.357L240.873 161.605C240.289 161.947 239.818 162.843 239.818 163.612V167.724C239.818 168.507 240.289 168.862 240.873 168.521Z" fill="#173D7A"/>
<path d="M235.256 208.094L317.356 160.794C319.195 159.741 320.678 156.895 320.678 154.448V138.824C320.678 136.376 319.195 135.252 317.356 136.319L235.256 183.619C233.416 184.672 231.934 187.518 231.934 189.965V205.589C231.934 208.022 233.416 209.147 235.256 208.094Z" fill="#5793CE"/>
<path opacity="0.4" d="M237.608 202.615L314.989 158.034C315.916 157.493 316.672 156.056 316.672 154.818V143.079C316.672 141.841 315.916 141.271 314.989 141.812L237.608 186.394C236.681 186.934 235.926 188.371 235.926 189.609V201.349C235.926 202.587 236.681 203.156 237.608 202.615Z" fill="#D4ECFF"/>
<path d="M298.877 161.378L310.426 154.718C311.325 154.192 312.066 152.797 312.066 151.588C312.066 150.378 311.339 149.823 310.426 150.35L298.877 157.009C297.979 157.536 297.237 158.93 297.237 160.14C297.237 161.349 297.964 161.904 298.877 161.378Z" fill="#D4ECFF"/>
<path d="M289.024 164.878C289.024 166.088 289.866 166.572 290.921 165.974C291.962 165.376 292.817 163.911 292.817 162.701C292.817 161.492 291.976 161.008 290.921 161.605C289.88 162.203 289.024 163.669 289.024 164.878Z" fill="#173D7A"/>
<path d="M282.352 168.72C282.352 169.93 283.193 170.414 284.248 169.816C285.289 169.218 286.144 167.753 286.144 166.543C286.144 165.334 285.303 164.85 284.248 165.447C283.193 166.045 282.352 167.511 282.352 168.72Z" fill="#173D7A"/>
<path d="M275.679 172.562C275.679 173.772 276.52 174.256 277.575 173.658C278.616 173.06 279.471 171.595 279.471 170.385C279.471 169.176 278.63 168.692 277.575 169.29C276.52 169.901 275.679 171.367 275.679 172.562Z" fill="#D4ECFF"/>
<path d="M268.991 176.419C268.991 177.628 269.832 178.112 270.888 177.514C271.928 176.917 272.784 175.451 272.784 174.241C272.784 173.032 271.943 172.548 270.888 173.146C269.847 173.743 268.991 175.209 268.991 176.419Z" fill="#173D7A"/>
<path d="M240.873 196.07L244.766 193.821C245.351 193.48 245.821 192.583 245.821 191.815V187.703C245.821 186.934 245.351 186.578 244.766 186.906L240.873 189.14C240.289 189.481 239.818 190.378 239.818 191.146V195.258C239.818 196.055 240.289 196.411 240.873 196.07Z" fill="#D4ECFF"/>
<path d="M235.256 235.642L317.356 188.343C319.195 187.29 320.678 184.444 320.678 181.996V166.372C320.678 163.925 319.195 162.801 317.356 163.868L235.256 211.167C233.416 212.22 231.934 215.066 231.934 217.514V233.138C231.934 235.585 233.416 236.709 235.256 235.642Z" fill="#5793CE"/>
<path opacity="0.4" d="M237.608 230.164L314.989 185.582C315.916 185.042 316.672 183.604 316.672 182.366V170.627C316.672 169.389 315.916 168.82 314.989 169.361L237.608 213.942C236.681 214.483 235.926 215.92 235.926 217.158V228.897C235.926 230.135 236.681 230.704 237.608 230.164Z" fill="#D4ECFF"/>
<path d="M298.877 188.94L310.426 182.281C311.325 181.755 312.066 180.36 312.066 179.151C312.066 177.941 311.339 177.386 310.426 177.913L298.877 184.572C297.979 185.098 297.237 186.493 297.237 187.702C297.237 188.898 297.964 189.453 298.877 188.94Z" fill="#D4ECFF"/>
<path d="M289.024 192.427C289.024 193.636 289.866 194.12 290.921 193.522C291.962 192.925 292.817 191.459 292.817 190.25C292.817 189.04 291.976 188.556 290.921 189.154C289.88 189.751 289.024 191.217 289.024 192.427Z" fill="#173D7A"/>
<path d="M282.352 196.269C282.352 197.478 283.193 197.962 284.248 197.364C285.289 196.767 286.144 195.301 286.144 194.092C286.144 192.882 285.303 192.398 284.248 192.996C283.193 193.608 282.352 195.059 282.352 196.269Z" fill="white"/>
<path d="M275.679 200.111C275.679 201.32 276.52 201.804 277.575 201.206C278.616 200.609 279.471 199.143 279.471 197.934C279.471 196.724 278.63 196.24 277.575 196.838C276.52 197.45 275.679 198.916 275.679 200.111Z" fill="#D4ECFF"/>
<path d="M268.991 203.967C268.991 205.177 269.832 205.66 270.888 205.063C271.928 204.465 272.784 202.999 272.784 201.79C272.784 200.58 271.943 200.097 270.888 200.694C269.847 201.292 268.991 202.757 268.991 203.967Z" fill="white"/>
<path d="M240.873 223.632L244.766 221.398C245.351 221.057 245.821 220.16 245.821 219.392V215.279C245.821 214.511 245.351 214.155 244.766 214.483L240.873 216.731C240.289 217.072 239.818 217.969 239.818 218.737V222.85C239.818 223.604 240.289 223.96 240.873 223.632Z" fill="#D4ECFF"/>
<path d="M235.256 263.191L317.356 215.891C319.195 214.838 320.678 211.992 320.678 209.545V193.921C320.678 191.473 319.195 190.349 317.356 191.416L235.256 238.716C233.416 239.769 231.934 242.615 231.934 245.062V260.686C231.934 263.134 233.416 264.258 235.256 263.191Z" fill="#5793CE"/>
<path opacity="0.4" d="M237.608 257.712L314.989 213.131C315.916 212.59 316.672 211.153 316.672 209.915V198.176C316.672 196.938 315.916 196.368 314.989 196.909L237.608 241.49C236.681 242.031 235.926 243.468 235.926 244.706V256.446C235.926 257.684 236.681 258.253 237.608 257.712Z" fill="#D4ECFF"/>
<path d="M298.877 216.489L310.426 209.83C311.325 209.303 312.066 207.908 312.066 206.699C312.066 205.489 311.339 204.935 310.426 205.461L298.877 212.12C297.979 212.647 297.237 214.041 297.237 215.251C297.237 216.446 297.964 217.001 298.877 216.489Z" fill="#D4ECFF"/>
<path d="M289.024 219.975C289.024 221.185 289.866 221.668 290.921 221.071C291.962 220.473 292.817 219.008 292.817 217.798C292.817 216.588 291.976 216.105 290.921 216.702C289.88 217.3 289.024 218.766 289.024 219.975Z" fill="#173D7A"/>
<path d="M282.352 223.817C282.352 225.027 283.193 225.511 284.248 224.913C285.289 224.315 286.144 222.85 286.144 221.64C286.144 220.431 285.303 219.947 284.248 220.544C283.193 221.156 282.352 222.608 282.352 223.817Z" fill="#173D7A"/>
<path d="M275.679 227.673C275.679 228.883 276.52 229.367 277.575 228.769C278.616 228.171 279.471 226.706 279.471 225.496C279.471 224.287 278.63 223.803 277.575 224.401C276.52 224.998 275.679 226.464 275.679 227.673Z" fill="#D4ECFF"/>
<path d="M268.991 231.515C268.991 232.725 269.832 233.209 270.888 232.611C271.928 232.014 272.784 230.548 272.784 229.338C272.784 228.129 271.943 227.645 270.888 228.243C269.847 228.84 268.991 230.306 268.991 231.515Z" fill="#173D7A"/>
<path d="M240.873 251.181L244.766 248.932C245.351 248.591 245.821 247.694 245.821 246.926V242.814C245.821 242.045 245.351 241.69 244.766 242.017L240.873 244.265C240.289 244.607 239.818 245.503 239.818 246.271V250.384C239.818 251.152 240.289 251.508 240.873 251.181Z" fill="#173D7A"/>
<path d="M235.256 290.739L317.356 243.44C319.195 242.387 320.678 239.541 320.678 237.094V221.469C320.678 219.022 319.195 217.898 317.356 218.965L235.256 266.264C233.416 267.317 231.934 270.163 231.934 272.611V288.235C231.934 290.682 233.416 291.806 235.256 290.739Z" fill="#5793CE"/>
<path opacity="0.4" d="M237.608 285.261L314.989 240.679C315.916 240.139 316.672 238.702 316.672 237.464V225.724C316.672 224.486 315.916 223.917 314.989 224.458L237.608 269.039C236.681 269.58 235.926 271.017 235.926 272.255V283.994C235.926 285.232 236.681 285.802 237.608 285.261Z" fill="#D4ECFF"/>
<path d="M298.877 244.038L310.426 237.378C311.325 236.852 312.066 235.457 312.066 234.248C312.066 233.038 311.339 232.483 310.426 233.01L298.877 239.669C297.979 240.196 297.237 241.59 297.237 242.8C297.237 243.995 297.964 244.55 298.877 244.038Z" fill="#D4ECFF"/>
<path d="M286.914 249.018C286.914 251.295 288.511 252.22 290.493 251.081C292.461 249.943 294.072 247.182 294.072 244.906C294.072 242.629 292.475 241.704 290.493 242.842C288.525 243.967 286.914 246.741 286.914 249.018Z" fill="white"/>
<path d="M273.084 257.086C273.084 258.296 273.925 258.78 274.98 258.182C276.021 257.584 276.877 256.119 276.877 254.909C276.877 253.7 276.035 253.216 274.98 253.813C273.939 254.425 273.084 255.891 273.084 257.086Z" fill="#173D7A"/>
<path d="M266.411 260.942C266.411 262.152 267.252 262.636 268.308 262.038C269.363 261.44 270.204 259.975 270.204 258.765C270.204 257.556 269.363 257.072 268.308 257.67C267.252 258.267 266.411 259.733 266.411 260.942Z" fill="#D4ECFF"/>
<path d="M259.737 264.784C259.737 265.994 260.579 266.478 261.634 265.88C262.675 265.282 263.53 263.817 263.53 262.607C263.53 261.398 262.689 260.914 261.634 261.512C260.579 262.109 259.737 263.575 259.737 264.784Z" fill="#173D7A"/>
<path d="M240.873 278.729L244.766 276.495C245.351 276.154 245.821 275.257 245.821 274.489V270.362C245.821 269.594 245.351 269.238 244.766 269.565L240.873 271.814C240.289 272.155 239.818 273.052 239.818 273.82V277.932C239.818 278.701 240.289 279.057 240.873 278.729Z" fill="#D4ECFF"/>
<path d="M228.412 94.2708L322.418 40.7817C325.854 38.8038 325.426 35.346 321.448 33.0551L267.366 1.89224C263.402 -0.398731 257.385 -0.640634 253.948 1.33728L159.942 54.8264C156.506 56.8043 156.934 60.2621 160.912 62.553L214.994 93.7159C218.972 96.0068 224.975 96.263 228.412 94.2708Z" fill="url(#paint5_linear_76_320)"/>
<path d="M268.307 33.9659C266.967 33.1832 264.771 33.1832 263.431 33.9659L217.39 60.561C216.05 61.3436 216.05 62.5958 217.39 63.3642C218.73 64.1469 220.926 64.1469 222.266 63.3642L268.307 36.7691C269.647 35.9865 269.647 34.7343 268.307 33.9659Z" fill="#173D7A"/>
<path d="M443.248 353.35L537.254 299.861C540.691 297.883 540.263 294.425 536.285 292.135L482.203 260.972C478.239 258.681 472.222 258.439 468.785 260.417L374.779 313.906C371.343 315.884 371.771 319.341 375.749 321.632L429.831 352.795C433.809 355.086 439.812 355.328 443.248 353.35Z" fill="#7DC3EA"/>
<path d="M437.416 341.412C434.337 341.412 431.128 340.657 428.576 339.192L374.494 308.029C371.599 306.364 369.945 303.974 369.945 301.469C369.945 299.264 371.257 297.243 373.524 295.934L467.545 242.431C471.737 240.026 478.738 240.268 483.471 243L537.554 274.163C540.448 275.827 542.102 278.218 542.102 280.722C542.102 282.928 540.79 284.949 538.523 286.258L444.517 339.761C442.564 340.857 440.04 341.412 437.416 341.412ZM474.588 245.803C472.849 245.803 471.223 246.13 470.054 246.799L376.034 300.302C375.378 300.672 374.993 301.113 374.993 301.469C374.993 301.981 375.62 302.849 377.018 303.66L431.1 334.823C434.251 336.645 439.341 336.901 441.993 335.378H442.008L536.014 281.889C536.67 281.519 537.055 281.078 537.055 280.722C537.055 280.21 536.427 279.342 535.03 278.531L480.948 247.368C479.165 246.344 476.798 245.803 474.588 245.803Z" fill="white"/>
<path d="M372.484 284.565V80.3981L453.814 59.1532L468.8 50.5159C472.236 48.538 478.239 48.7799 482.217 51.0708L496.19 59.1248L539.564 59.0963L526.718 256.176C526.817 257.514 526.062 258.809 524.408 259.762L443.248 320.878C439.812 322.856 433.809 322.615 429.831 320.324L375.749 289.161C373.467 287.866 372.355 286.158 372.484 284.565Z" fill="url(#paint6_radial_76_320)"/>
<path d="M475.016 49.2066C477.525 49.2636 480.149 49.9039 482.202 51.0849L496.175 59.1389L539.55 59.1104V263.818C539.65 265.155 538.894 266.45 537.24 267.403L443.234 320.892C441.58 321.846 439.341 322.273 437.003 322.216L436.033 116.228L475.016 49.2066Z" fill="#D4ECFF"/>
<path d="M442.393 321.32C439.427 322.586 435.136 322.515 431.671 321.192V113.809H442.393V321.32Z" fill="#5793CE"/>
<path d="M443.248 116.271L537.254 62.7817C540.691 60.8038 540.263 57.346 536.285 55.0551L482.203 23.8922C478.239 21.6013 472.222 21.3594 468.785 23.3373L374.779 76.8264C371.343 78.8043 371.771 82.2621 375.749 84.5531L429.831 115.716C433.809 117.993 439.812 118.249 443.248 116.271Z" fill="url(#paint7_linear_76_320)"/>
<path d="M375.748 80.7538L429.831 111.917C433.795 114.208 439.812 114.45 443.248 112.472L537.254 58.9825C538.024 58.5414 538.58 58.0291 538.965 57.4599C540.149 59.3525 539.607 61.4158 537.254 62.7676L443.248 116.257C439.812 118.235 433.809 117.993 429.831 115.702L375.748 84.5389C372.669 82.7602 371.728 80.2842 373.068 78.3348C373.61 79.2028 374.508 80.0281 375.748 80.7538Z" fill="#FAFDFF"/>
<path d="M440.597 94.5849L503.177 58.3848C504.788 57.4598 504.589 55.8377 502.721 54.7704L477.412 40.1851C475.558 39.1179 472.749 39.004 471.138 39.929L408.558 76.1291C406.947 77.054 407.146 78.6762 409.014 79.7434L434.323 94.3287C436.177 95.396 438.985 95.5098 440.597 94.5849Z" fill="url(#paint8_radial_76_320)"/>
<path d="M474.375 60.007L477.997 57.9152C478.225 57.7872 478.196 57.5595 477.94 57.4172L474.432 55.3966C474.176 55.2543 473.791 55.2258 473.562 55.3539L469.941 57.4457C469.713 57.5737 469.741 57.8014 469.998 57.9437L473.505 59.9643C473.762 60.1208 474.161 60.1351 474.375 60.007Z" fill="#D4ECFF"/>
<path d="M462.27 66.951L465.891 64.8592C466.12 64.7312 466.091 64.5035 465.834 64.3612L462.327 62.3406C462.07 62.1983 461.685 62.1698 461.457 62.2979L457.835 64.3897C457.607 64.5177 457.636 64.7454 457.892 64.8877L461.4 66.9083C461.657 67.0648 462.042 67.0791 462.27 66.951Z" fill="#D4ECFF"/>
<path d="M450.151 73.9093L453.772 71.8176C454 71.6895 453.972 71.4618 453.715 71.3195L450.208 69.2989C449.951 69.1566 449.566 69.1282 449.338 69.2563L445.716 71.348C445.488 71.4761 445.517 71.7037 445.773 71.846L449.281 73.8666C449.538 74.0232 449.922 74.0374 450.151 73.9093Z" fill="#D4ECFF"/>
<path d="M438.03 80.8676L441.652 78.7759C441.88 78.6478 441.852 78.4202 441.595 78.2779L438.088 76.2573C437.831 76.115 437.446 76.0865 437.218 76.2146L433.596 78.3063C433.368 78.4344 433.396 78.6621 433.653 78.8044L437.161 80.825C437.417 80.9815 437.817 80.9957 438.03 80.8676Z" fill="#D4ECFF"/>
<path d="M503.175 58.3848L503.104 58.4275C502.976 58.3421 502.862 58.2567 502.733 58.1713L477.424 43.586C475.571 42.5188 472.762 42.4049 471.151 43.3298L408.642 79.4873C407.159 78.4343 407.087 76.9829 408.57 76.1291L471.151 39.929C472.762 39.004 475.571 39.1179 477.424 40.1851L502.733 54.7704C504.587 55.8377 504.786 57.4456 503.175 58.3848Z" fill="#5793CE"/>
<path d="M419.28 156.711L383.691 136.377C381.695 135.225 380.069 132.123 380.069 129.462V116.769C380.069 114.108 381.695 112.884 383.691 114.037L419.28 134.371C421.276 135.524 422.902 138.626 422.902 141.287V153.979C422.902 156.64 421.276 157.864 419.28 156.711Z" fill="#173D7A"/>
<path d="M381.937 113.651C381.381 114.178 381.024 115.074 381.024 116.298V128.991C381.024 131.652 382.65 134.754 384.646 135.907L420.235 156.241C420.877 156.611 421.476 156.71 422.003 156.625C421.333 157.251 420.378 157.351 419.294 156.724L383.705 136.39C381.709 135.238 380.083 132.136 380.083 129.475V116.782C380.069 114.961 380.825 113.836 381.937 113.651Z" fill="white"/>
<path d="M408.572 142.923L405.307 141.045C404.865 140.788 404.522 140.12 404.522 139.536V136.05C404.522 135.467 404.879 135.196 405.307 135.452L408.572 137.331C409.014 137.587 409.356 138.256 409.356 138.839V142.325C409.37 142.894 409.014 143.165 408.572 142.923Z" fill="#396CAA"/>
<path d="M397.665 136.633L394.399 134.755C393.957 134.499 393.615 133.83 393.615 133.247V129.76C393.615 129.177 393.972 128.907 394.399 129.163L397.665 131.041C398.107 131.297 398.449 131.966 398.449 132.549V136.036C398.449 136.619 398.092 136.875 397.665 136.633Z" fill="white"/>
<path d="M419.28 248.478L383.691 228.144C381.695 226.991 380.069 223.889 380.069 221.228V208.536C380.069 205.875 381.695 204.651 383.691 205.803L419.28 226.138C421.276 227.29 422.902 230.392 422.902 233.053V245.746C422.902 248.407 421.276 249.631 419.28 248.478Z" fill="#173D7A"/>
<path d="M381.937 205.418C381.381 205.945 381.024 206.841 381.024 208.065V220.758C381.024 223.419 382.65 226.521 384.646 227.673L420.235 248.007C420.877 248.377 421.476 248.477 422.003 248.392C421.333 249.018 420.378 249.117 419.294 248.491L383.705 228.157C381.709 227.004 380.083 223.902 380.083 221.241V208.549C380.069 206.727 380.825 205.603 381.937 205.418Z" fill="white"/>
<path d="M408.572 234.689L405.307 232.811C404.865 232.555 404.522 231.886 404.522 231.303V227.817C404.522 227.233 404.879 226.963 405.307 227.219L408.572 229.097C409.014 229.353 409.356 230.022 409.356 230.606V234.092C409.37 234.675 409.014 234.931 408.572 234.689Z" fill="#396CAA"/>
<path d="M397.665 228.4L394.399 226.522C393.957 226.266 393.615 225.597 393.615 225.013V221.527C393.615 220.944 393.972 220.673 394.399 220.929L397.665 222.808C398.107 223.064 398.449 223.733 398.449 224.316V227.802C398.449 228.386 398.092 228.642 397.665 228.4Z" fill="white"/>
<path d="M419.28 294.369L383.691 274.034C381.695 272.882 380.069 269.78 380.069 267.119V254.426C380.069 251.765 381.695 250.541 383.691 251.694L419.28 272.028C421.276 273.181 422.902 276.283 422.902 278.944V291.636C422.902 294.297 421.276 295.521 419.28 294.369Z" fill="#173D7A"/>
<path d="M381.937 251.295C381.381 251.822 381.024 252.718 381.024 253.942V266.635C381.024 269.296 382.65 272.398 384.646 273.55L420.235 293.884C420.877 294.254 421.476 294.354 422.003 294.268C421.333 294.895 420.378 294.994 419.294 294.368L383.705 274.034C381.709 272.881 380.083 269.779 380.083 267.118V254.426C380.069 252.604 380.825 251.494 381.937 251.295Z" fill="white"/>
<path d="M408.572 280.566L405.307 278.687C404.865 278.431 404.522 277.763 404.522 277.179V273.693C404.522 273.11 404.879 272.839 405.307 273.095L408.572 274.974C409.014 275.23 409.356 275.899 409.356 276.482V279.968C409.37 280.552 409.014 280.822 408.572 280.566Z" fill="#396CAA"/>
<path d="M397.665 274.276L394.399 272.398C393.957 272.142 393.615 271.473 393.615 270.89V267.403C393.615 266.82 393.972 266.55 394.399 266.806L397.665 268.684C398.107 268.94 398.449 269.609 398.449 270.192V273.679C398.449 274.262 398.092 274.532 397.665 274.276Z" fill="white"/>
<path d="M419.28 202.602L383.691 182.268C381.695 181.115 380.069 178.013 380.069 175.352V162.659C380.069 159.998 381.695 158.775 383.691 159.927L419.28 180.261C421.276 181.414 422.902 184.516 422.902 187.177V199.87C422.902 202.531 421.276 203.754 419.28 202.602Z" fill="#173D7A"/>
<path d="M381.937 159.528C381.381 160.055 381.024 160.951 381.024 162.175V174.868C381.024 177.529 382.65 180.631 384.646 181.784L420.235 202.118C420.877 202.488 421.476 202.587 422.003 202.502C421.333 203.128 420.378 203.228 419.294 202.601L383.705 182.267C381.709 181.115 380.083 178.013 380.083 175.352V162.659C380.069 160.838 380.825 159.713 381.937 159.528Z" fill="white"/>
<path d="M408.572 188.799L405.307 186.921C404.865 186.665 404.522 185.996 404.522 185.413V181.926C404.522 181.343 404.879 181.073 405.307 181.329L408.572 183.207C409.014 183.463 409.356 184.132 409.356 184.715V188.202C409.37 188.785 409.014 189.055 408.572 188.799Z" fill="#396CAA"/>
<path d="M397.665 182.51L394.399 180.631C393.957 180.375 393.615 179.707 393.615 179.123V175.637C393.615 175.053 393.972 174.783 394.399 175.039L397.665 176.918C398.107 177.174 398.449 177.842 398.449 178.426V181.912C398.449 182.496 398.092 182.766 397.665 182.51Z" fill="white"/>
<path d="M450.093 143.706L532.193 96.4064C534.032 95.3534 535.515 92.5074 535.515 90.0599V74.4501C535.515 72.0026 534.032 70.8784 532.193 71.9457L450.093 119.245C448.253 120.298 446.771 123.144 446.771 125.591V141.215C446.771 143.649 448.268 144.773 450.093 143.706Z" fill="#5793CE"/>
<path opacity="0.4" d="M452.46 138.241L529.841 93.66C530.768 93.1193 531.523 91.6821 531.523 90.4441V78.6905C531.523 77.4525 530.768 76.8833 529.841 77.424L452.46 122.005C451.533 122.546 450.778 123.983 450.778 125.221V136.961C450.763 138.199 451.519 138.768 452.46 138.241Z" fill="#D4ECFF"/>
<path d="M513.714 97.0041L525.263 90.3446C526.162 89.8181 526.903 88.4236 526.903 87.2141C526.903 86.0046 526.176 85.4496 525.263 85.9761L513.714 92.6356C512.816 93.1621 512.074 94.5566 512.074 95.7661C512.074 96.9756 512.801 97.5306 513.714 97.0041Z" fill="#D4ECFF"/>
<path d="M503.876 100.49C503.876 101.7 504.717 102.184 505.772 101.586C506.813 100.988 507.669 99.5226 507.669 98.3131C507.669 97.1036 506.827 96.6198 505.772 97.2175C504.717 97.8293 503.876 99.2807 503.876 100.49Z" fill="#173D7A"/>
<path d="M497.188 104.332C497.188 105.542 498.03 106.025 499.085 105.428C500.126 104.83 500.981 103.365 500.981 102.155C500.981 100.945 500.14 100.462 499.085 101.059C498.044 101.671 497.188 103.137 497.188 104.332Z" fill="#173D7A"/>
<path d="M490.516 108.189C490.516 109.398 491.357 109.882 492.412 109.284C493.453 108.687 494.308 107.221 494.308 106.011C494.308 104.802 493.467 104.318 492.412 104.916C491.357 105.513 490.516 106.979 490.516 108.189Z" fill="#D4ECFF"/>
<path d="M483.843 112.03C483.843 113.24 484.684 113.724 485.739 113.126C486.78 112.528 487.636 111.063 487.636 109.853C487.636 108.644 486.794 108.16 485.739 108.758C484.684 109.369 483.843 110.835 483.843 112.03Z" fill="#173D7A"/>
<path d="M455.71 131.696L459.603 129.448C460.188 129.106 460.658 128.21 460.658 127.441V123.329C460.658 122.56 460.188 122.205 459.603 122.532L455.71 124.78C455.126 125.122 454.655 126.018 454.655 126.787V130.899C454.655 131.667 455.126 132.023 455.71 131.696Z" fill="#173D7A"/>
<path d="M450.093 171.268L532.193 123.969C534.032 122.916 535.515 120.07 535.515 117.623V101.999C535.515 99.551 534.032 98.4269 532.193 99.4941L450.093 146.793C448.253 147.846 446.771 150.692 446.771 153.14V168.764C446.771 171.197 448.268 172.321 450.093 171.268Z" fill="#5793CE"/>
<path opacity="0.4" d="M452.46 165.79L529.841 121.209C530.768 120.668 531.523 119.231 531.523 117.993V106.253C531.523 105.015 530.768 104.446 529.841 104.987L452.46 149.568C451.533 150.109 450.778 151.546 450.778 152.784V164.523C450.763 165.747 451.519 166.316 452.46 165.79Z" fill="#D4ECFF"/>
<path d="M513.714 124.553L525.263 117.893C526.162 117.367 526.903 115.972 526.903 114.763C526.903 113.553 526.176 112.998 525.263 113.525L513.714 120.184C512.816 120.711 512.074 122.105 512.074 123.315C512.074 124.524 512.801 125.079 513.714 124.553Z" fill="#D4ECFF"/>
<path d="M503.876 128.039C503.876 129.248 504.717 129.732 505.772 129.134C506.813 128.537 507.669 127.071 507.669 125.862C507.669 124.652 506.827 124.168 505.772 124.766C504.717 125.378 503.876 126.829 503.876 128.039Z" fill="white"/>
<path d="M497.188 131.895C497.188 133.104 498.03 133.588 499.085 132.991C500.126 132.393 500.981 130.927 500.981 129.718C500.981 128.508 500.14 128.024 499.085 128.622C498.044 129.22 497.188 130.685 497.188 131.895Z" fill="#173D7A"/>
<path d="M490.516 135.737C490.516 136.947 491.357 137.43 492.412 136.833C493.453 136.235 494.308 134.769 494.308 133.56C494.308 132.35 493.467 131.867 492.412 132.464C491.357 133.062 490.516 134.528 490.516 135.737Z" fill="#D4ECFF"/>
<path d="M483.843 139.579C483.843 140.788 484.684 141.272 485.739 140.675C486.78 140.077 487.636 138.611 487.636 137.402C487.636 136.192 486.794 135.708 485.739 136.306C484.684 136.918 483.843 138.384 483.843 139.579Z" fill="#173D7A"/>
<path d="M455.71 159.244L459.603 156.996C460.188 156.654 460.658 155.758 460.658 154.99V150.877C460.658 150.109 460.188 149.753 459.603 150.08L455.71 152.329C455.126 152.67 454.655 153.567 454.655 154.335V158.447C454.655 159.216 455.126 159.572 455.71 159.244Z" fill="#173D7A"/>
<path d="M450.093 198.817L532.193 151.517C534.032 150.465 535.515 147.619 535.515 145.171V129.547C535.515 127.099 534.032 125.975 532.193 127.043L450.093 174.342C448.253 175.395 446.771 178.241 446.771 180.688V196.312C446.771 198.746 448.268 199.87 450.093 198.817Z" fill="#5793CE"/>
<path opacity="0.4" d="M452.46 193.338L529.841 148.757C530.768 148.216 531.523 146.779 531.523 145.541V133.802C531.523 132.564 530.768 131.994 529.841 132.521L452.46 177.102C451.533 177.643 450.778 179.08 450.778 180.318V192.058C450.763 193.296 451.519 193.865 452.46 193.338Z" fill="#D4ECFF"/>
<path d="M513.714 152.101L525.263 145.442C526.162 144.915 526.903 143.521 526.903 142.311C526.903 141.102 526.176 140.547 525.263 141.073L513.714 147.733C512.816 148.259 512.074 149.654 512.074 150.863C512.074 152.073 512.801 152.628 513.714 152.101Z" fill="#D4ECFF"/>
<path d="M503.876 155.587C503.876 156.797 504.717 157.281 505.772 156.683C506.813 156.085 507.669 154.62 507.669 153.41C507.669 152.201 506.827 151.717 505.772 152.314C504.717 152.926 503.876 154.392 503.876 155.587Z" fill="white"/>
<path d="M497.188 159.443C497.188 160.653 498.03 161.137 499.085 160.539C500.126 159.941 500.981 158.476 500.981 157.266C500.981 156.057 500.14 155.573 499.085 156.171C498.044 156.768 497.188 158.234 497.188 159.443Z" fill="#173D7A"/>
<path d="M490.516 163.285C490.516 164.495 491.357 164.979 492.412 164.381C493.453 163.784 494.308 162.318 494.308 161.108C494.308 159.899 493.467 159.415 492.412 160.013C491.357 160.61 490.516 162.076 490.516 163.285Z" fill="#D4ECFF"/>
<path d="M483.843 167.127C483.843 168.337 484.684 168.821 485.739 168.223C486.78 167.625 487.636 166.16 487.636 164.95C487.636 163.741 486.794 163.257 485.739 163.855C484.684 164.466 483.843 165.932 483.843 167.127Z" fill="#173D7A"/>
<path d="M455.71 186.793L459.603 184.544C460.188 184.203 460.658 183.306 460.658 182.538V178.426C460.658 177.657 460.188 177.302 459.603 177.629L455.71 179.877C455.126 180.219 454.655 181.115 454.655 181.883V185.996C454.655 186.778 455.126 187.12 455.71 186.793Z" fill="#173D7A"/>
<path d="M450.093 226.365L532.193 179.066C534.032 178.013 535.515 175.167 535.515 172.72V157.096C535.515 154.648 534.032 153.524 532.193 154.591L450.093 201.89C448.253 202.943 446.771 205.789 446.771 208.237V223.861C446.771 226.294 448.268 227.418 450.093 226.365Z" fill="#5793CE"/>
<path opacity="0.4" d="M452.46 220.887L529.841 176.306C530.768 175.765 531.523 174.328 531.523 173.09V161.35C531.523 160.112 530.768 159.543 529.841 160.07L452.46 204.651C451.533 205.192 450.778 206.629 450.778 207.867V219.606C450.763 220.844 451.519 221.413 452.46 220.887Z" fill="#D4ECFF"/>
<path d="M513.714 179.65L525.263 172.99C526.162 172.464 526.903 171.069 526.903 169.86C526.903 168.65 526.176 168.095 525.263 168.622L513.714 175.281C512.816 175.808 512.074 177.202 512.074 178.412C512.074 179.621 512.801 180.176 513.714 179.65Z" fill="#D4ECFF"/>
<path d="M503.876 183.136C503.876 184.345 504.717 184.829 505.772 184.232C506.813 183.634 507.669 182.168 507.669 180.959C507.669 179.749 506.827 179.265 505.772 179.863C504.717 180.475 503.876 181.941 503.876 183.136Z" fill="#173D7A"/>
<path d="M497.188 186.992C497.188 188.202 498.03 188.685 499.085 188.088C500.126 187.49 500.981 186.024 500.981 184.815C500.981 183.605 500.14 183.122 499.085 183.719C498.044 184.317 497.188 185.783 497.188 186.992Z" fill="#173D7A"/>
<path d="M490.516 190.834C490.516 192.044 491.357 192.527 492.412 191.93C493.453 191.332 494.308 189.867 494.308 188.657C494.308 187.448 493.467 186.964 492.412 187.561C491.357 188.159 490.516 189.625 490.516 190.834Z" fill="#D4ECFF"/>
<path d="M483.843 194.676C483.843 195.886 484.684 196.369 485.739 195.772C486.78 195.174 487.636 193.708 487.636 192.499C487.636 191.289 486.794 190.806 485.739 191.403C484.684 192.015 483.843 193.481 483.843 194.676Z" fill="#173D7A"/>
<path d="M455.71 214.341L459.603 212.093C460.188 211.752 460.658 210.855 460.658 210.087V205.974C460.658 205.206 460.188 204.85 459.603 205.178L455.71 207.426C455.126 207.767 454.655 208.664 454.655 209.432V213.545C454.655 214.327 455.126 214.683 455.71 214.341Z" fill="#D4ECFF"/>
<path d="M450.093 253.914L532.193 206.615C534.032 205.562 535.515 202.716 535.515 200.268V184.644C535.515 182.197 534.032 181.072 532.193 182.14L450.093 229.439C448.253 230.492 446.771 233.338 446.771 235.785V251.409C446.771 253.843 448.268 254.967 450.093 253.914Z" fill="#5793CE"/>
<path opacity="0.4" d="M452.46 248.435L529.841 203.854C530.768 203.313 531.523 201.876 531.523 200.638V188.899C531.523 187.661 530.768 187.092 529.841 187.618L452.46 232.199C451.533 232.74 450.778 234.177 450.778 235.415V247.155C450.763 248.393 451.519 248.962 452.46 248.435Z" fill="#D4ECFF"/>
<path d="M513.714 207.198L525.263 200.539C526.162 200.012 526.903 198.618 526.903 197.408C526.903 196.199 526.176 195.644 525.263 196.17L513.714 202.83C512.816 203.356 512.074 204.751 512.074 205.96C512.074 207.17 512.801 207.725 513.714 207.198Z" fill="#D4ECFF"/>
<path d="M503.876 210.684C503.876 211.894 504.717 212.378 505.772 211.78C506.813 211.182 507.669 209.717 507.669 208.507C507.669 207.298 506.827 206.814 505.772 207.412C504.717 208.023 503.876 209.489 503.876 210.684Z" fill="#173D7A"/>
<path d="M497.188 214.541C497.188 215.75 498.03 216.234 499.085 215.636C500.126 215.039 500.981 213.573 500.981 212.363C500.981 211.154 500.14 210.67 499.085 211.268C498.044 211.865 497.188 213.331 497.188 214.541Z" fill="white"/>
<path d="M490.516 218.383C490.516 219.592 491.357 220.076 492.412 219.478C493.453 218.881 494.308 217.415 494.308 216.205C494.308 214.996 493.467 214.512 492.412 215.11C491.357 215.707 490.516 217.173 490.516 218.383Z" fill="#D4ECFF"/>
<path d="M483.843 222.224C483.843 223.434 484.684 223.918 485.739 223.32C486.78 222.723 487.636 221.257 487.636 220.047C487.636 218.838 486.794 218.354 485.739 218.952C484.684 219.564 483.843 221.029 483.843 222.224Z" fill="white"/>
<path d="M455.71 241.89L459.603 239.642C460.188 239.3 460.658 238.404 460.658 237.635V233.523C460.658 232.754 460.188 232.399 459.603 232.726L455.71 234.974C455.126 235.316 454.655 236.212 454.655 236.981V241.093C454.655 241.876 455.126 242.231 455.71 241.89Z" fill="#D4ECFF"/>
<path d="M450.093 281.462L532.193 234.163C534.032 233.11 535.515 230.264 535.515 227.817V212.193C535.515 209.745 534.032 208.621 532.193 209.688L450.093 256.987C448.253 258.04 446.771 260.886 446.771 263.334V278.958C446.771 281.391 448.268 282.515 450.093 281.462Z" fill="#5793CE"/>
<path opacity="0.4" d="M452.46 275.984L529.841 231.403C530.768 230.862 531.523 229.425 531.523 228.187V216.447C531.523 215.209 530.768 214.64 529.841 215.167L452.46 259.748C451.533 260.289 450.778 261.726 450.778 262.964V274.703C450.763 275.941 451.519 276.51 452.46 275.984Z" fill="#D4ECFF"/>
<path d="M513.714 234.747L525.263 228.087C526.162 227.561 526.903 226.166 526.903 224.957C526.903 223.747 526.176 223.192 525.263 223.719L513.714 230.378C512.816 230.905 512.074 232.299 512.074 233.509C512.074 234.718 512.801 235.273 513.714 234.747Z" fill="#D4ECFF"/>
<path d="M503.876 238.233C503.876 239.442 504.717 239.926 505.772 239.329C506.813 238.731 507.669 237.265 507.669 236.056C507.669 234.846 506.827 234.362 505.772 234.96C504.717 235.572 503.876 237.038 503.876 238.233Z" fill="#173D7A"/>
<path d="M497.188 242.089C497.188 243.299 498.03 243.782 499.085 243.185C500.126 242.587 500.981 241.121 500.981 239.912C500.981 238.702 500.14 238.219 499.085 238.816C498.044 239.414 497.188 240.879 497.188 242.089Z" fill="#173D7A"/>
<path d="M490.516 245.931C490.516 247.141 491.357 247.624 492.412 247.027C493.453 246.429 494.308 244.963 494.308 243.754C494.308 242.544 493.467 242.061 492.412 242.658C491.357 243.256 490.516 244.722 490.516 245.931Z" fill="#D4ECFF"/>
<path d="M483.843 249.773C483.843 250.982 484.684 251.466 485.739 250.869C486.78 250.271 487.636 248.805 487.636 247.596C487.636 246.386 486.794 245.902 485.739 246.5C484.684 247.112 483.843 248.578 483.843 249.773Z" fill="#173D7A"/>
<path d="M455.71 269.438L459.603 267.19C460.188 266.849 460.658 265.952 460.658 265.184V261.071C460.658 260.303 460.188 259.947 459.603 260.274L455.71 262.523C455.126 262.864 454.655 263.761 454.655 264.529V268.641C454.655 269.424 455.126 269.78 455.71 269.438Z" fill="#173D7A"/>
<path d="M450.093 309.011L532.193 261.712C534.032 260.659 535.515 257.813 535.515 255.365V239.741C535.515 237.294 534.032 236.17 532.193 237.237L450.093 284.536C448.253 285.589 446.771 288.435 446.771 290.882V306.507C446.771 308.94 448.268 310.064 450.093 309.011Z" fill="#5793CE"/>
<path opacity="0.4" d="M452.46 303.533L529.841 258.951C530.768 258.411 531.523 256.973 531.523 255.735V243.996C531.523 242.758 530.768 242.189 529.841 242.73L452.46 287.311C451.533 287.852 450.778 289.289 450.778 290.527V302.266C450.763 303.49 451.519 304.059 452.46 303.533Z" fill="#D4ECFF"/>
<path d="M513.714 262.295L525.263 255.636C526.162 255.109 526.903 253.715 526.903 252.505C526.903 251.296 526.176 250.741 525.263 251.267L513.714 257.927C512.816 258.453 512.074 259.848 512.074 261.057C512.074 262.267 512.801 262.822 513.714 262.295Z" fill="#D4ECFF"/>
<path d="M501.766 267.275C501.766 269.552 503.363 270.477 505.345 269.339C507.312 268.2 508.923 265.44 508.923 263.163C508.923 260.886 507.326 259.961 505.345 261.1C503.363 262.238 501.766 264.999 501.766 267.275Z" fill="white"/>
<path d="M487.935 275.358C487.935 276.568 488.776 277.051 489.831 276.454C490.872 275.856 491.727 274.39 491.727 273.181C491.727 271.971 490.886 271.487 489.831 272.085C488.776 272.683 487.935 274.148 487.935 275.358Z" fill="#173D7A"/>
<path d="M481.248 279.2C481.248 280.41 482.089 280.893 483.144 280.296C484.185 279.698 485.041 278.232 485.041 277.023C485.041 275.813 484.2 275.33 483.144 275.927C482.104 276.525 481.248 277.991 481.248 279.2Z" fill="#D4ECFF"/>
<path d="M474.574 283.042C474.574 284.251 475.415 284.735 476.471 284.138C477.511 283.54 478.367 282.074 478.367 280.865C478.367 279.655 477.526 279.171 476.471 279.769C475.415 280.381 474.574 281.847 474.574 283.042Z" fill="#173D7A"/>
<path d="M455.71 296.987L459.603 294.739C460.188 294.397 460.658 293.501 460.658 292.732V288.62C460.658 287.852 460.188 287.496 459.603 287.823L455.71 290.071C455.126 290.413 454.655 291.309 454.655 292.078V296.19C454.655 296.973 455.126 297.328 455.71 296.987Z" fill="#D4ECFF"/>
<path d="M118.807 384.228L74.3777 358.629C71.6543 357.064 71.9965 354.317 75.1477 352.496L118.051 327.779C121.203 325.958 125.965 325.773 128.688 327.338L173.118 352.937C175.841 354.502 175.499 357.249 172.348 359.07L129.444 383.787C126.293 385.594 121.53 385.793 118.807 384.228Z" fill="#7DC3EA"/>
<path d="M123.455 373.812C121.288 373.812 119.192 373.342 117.552 372.403L73.1083 346.804C71.1407 345.666 70 343.901 70 341.952C70 339.775 71.4116 337.725 73.8641 336.303L116.768 311.586C120.732 309.295 126.392 309.11 129.928 311.145L174.358 336.744C176.325 337.882 177.466 339.647 177.466 341.582C177.466 343.759 176.055 345.822 173.602 347.231L130.698 371.948C128.574 373.186 125.965 373.812 123.455 373.812ZM120.062 368.035C122.015 369.159 125.808 368.959 128.175 367.593L171.078 342.877C172.162 342.251 172.419 341.696 172.419 341.596C172.404 341.567 172.262 341.354 171.834 341.112L127.405 315.513C125.451 314.389 121.658 314.588 119.292 315.954L76.4021 340.657C75.3184 341.283 75.0618 341.838 75.0618 341.952C75.076 341.98 75.2186 342.194 75.6464 342.435L120.062 368.035Z" fill="white"/>
<path d="M174.943 325.901V310.604L140.566 310.59L128.688 303.745C125.965 302.18 121.203 302.365 118.051 304.186L106.958 310.575L72.5527 310.561V326.299C72.4814 327.366 73.066 328.391 74.3778 329.145L118.807 354.744C121.531 356.309 126.293 356.124 129.444 354.303L172.348 329.586C174.173 328.519 175.043 327.153 174.943 325.901Z" fill="#396CAA"/>
<path d="M123.74 302.678C121.744 302.721 119.677 303.233 118.037 304.172L106.944 310.561L72.538 310.547V326.285C72.4667 327.352 73.0513 328.377 74.3631 329.131L118.793 354.73C120.104 355.484 121.887 355.826 123.726 355.783V302.678H123.74Z" fill="url(#paint9_radial_76_320)"/>
<path d="M76.4306 310.533H72.538V326.271C72.4667 327.338 73.0513 328.362 74.3631 329.117L76.4306 330.312V310.533Z" fill="#D4ECFF"/>
<path d="M119.491 355.057C121.844 356.068 125.252 356.011 127.989 354.958V337.085H119.491V355.057Z" fill="#5793CE"/>
<path d="M118.807 339.049L74.3777 313.45C71.6543 311.885 71.9965 309.138 75.1477 307.317L118.051 282.6C121.203 280.779 125.965 280.594 128.688 282.159L173.118 307.758C175.841 309.323 175.499 312.07 172.348 313.891L129.444 338.608C126.293 340.415 121.53 340.614 118.807 339.049Z" fill="url(#paint10_linear_76_320)"/>
<path d="M172.347 310.874L129.443 335.591C126.292 337.413 121.53 337.598 118.806 336.032L74.377 310.433C73.7639 310.077 73.3218 309.679 73.0224 309.224C72.0814 310.732 72.5091 312.354 74.377 313.436L118.806 339.035C121.53 340.6 126.292 340.415 129.443 338.594L172.347 313.877C174.799 312.468 175.541 310.504 174.471 308.953C174.044 309.636 173.345 310.305 172.347 310.874Z" fill="white"/>
<path d="M158.602 329.928C158.602 331.066 157.803 332.461 156.805 333.03C155.807 333.599 155.009 333.144 155.009 331.991C155.009 330.853 155.807 329.458 156.805 328.889C157.789 328.334 158.602 328.789 158.602 329.928Z" fill="#D4ECFF"/>
<path d="M164.376 326.612C164.376 327.751 163.578 329.145 162.58 329.714C161.582 330.283 160.783 329.828 160.783 328.675C160.783 327.523 161.582 326.143 162.58 325.573C163.564 325.004 164.376 325.46 164.376 326.612Z" fill="#D4ECFF"/>
<path d="M170.152 323.282C170.152 324.421 169.353 325.815 168.355 326.384C167.357 326.954 166.559 326.498 166.559 325.346C166.559 324.207 167.357 322.813 168.355 322.244C169.339 321.674 170.152 322.13 170.152 323.282Z" fill="#D4ECFF"/>
<path d="M121.43 323.169L100.642 311.187C99.3582 310.447 99.5294 309.167 100.998 308.313L121.074 296.744C122.542 295.891 124.781 295.805 126.05 296.545L146.839 308.526C148.122 309.266 147.951 310.547 146.482 311.401L126.407 322.969C124.938 323.809 122.714 323.909 121.43 323.169Z" fill="#5793CE"/>
<path d="M123.426 313.137L120.546 311.486C120.375 311.387 120.389 311.202 120.589 311.088L123.369 309.494C123.569 309.38 123.883 309.366 124.054 309.466L126.934 311.116C127.105 311.216 127.091 311.401 126.891 311.515L124.111 313.108C123.911 313.222 123.598 313.236 123.426 313.137Z" fill="#D4ECFF"/>
<path d="M100.642 311.187L100.699 311.215C100.798 311.144 100.884 311.073 100.998 311.016L121.074 299.447C122.542 298.593 124.781 298.508 126.05 299.248L146.782 311.201C147.965 310.361 148.022 309.223 146.839 308.54L126.05 296.559C124.767 295.819 122.542 295.918 121.074 296.758L100.998 308.326C99.5294 309.166 99.3582 310.447 100.642 311.187Z" fill="#396CAA"/>
<path d="M337.807 404.833L293.378 379.234C290.654 377.669 290.997 374.923 294.148 373.101L337.051 348.385C340.203 346.563 344.965 346.378 347.688 347.944L392.118 373.543C394.841 375.108 394.499 377.854 391.348 379.676L348.444 404.392C345.293 406.2 340.53 406.399 337.807 404.833Z" fill="#7DC3EA"/>
<path d="M342.441 394.403C340.273 394.403 338.177 393.934 336.538 392.994L292.108 367.395C290.141 366.257 289 364.493 289 362.557C289 360.38 290.412 358.331 292.864 356.908L335.768 332.191C339.746 329.9 345.392 329.715 348.928 331.75L393.358 357.349C395.325 358.488 396.466 360.252 396.466 362.187C396.466 364.364 395.055 366.428 392.602 367.836L349.698 392.553C347.574 393.791 344.965 394.403 342.441 394.403ZM339.062 388.64C341.029 389.779 344.822 389.565 347.175 388.199L390.078 363.468C391.162 362.842 391.419 362.287 391.419 362.173C391.404 362.145 391.262 361.931 390.834 361.689L346.405 336.09C344.437 334.966 340.658 335.165 338.292 336.531L295.388 361.248C294.304 361.874 294.047 362.429 294.047 362.543C294.062 362.571 294.204 362.785 294.632 363.027L339.062 388.64Z" fill="white"/>
<path d="M393.943 346.492V331.195L359.566 331.181L347.688 324.337C344.965 322.771 340.203 322.956 337.051 324.778L325.958 331.167L291.553 331.152V346.89C291.481 347.958 292.066 348.982 293.378 349.736L337.807 375.335C340.531 376.901 345.293 376.716 348.444 374.894L391.348 350.177C393.159 349.11 394.043 347.758 393.943 346.492Z" fill="#396CAA"/>
<path d="M342.74 323.284C340.744 323.326 338.677 323.839 337.037 324.778L325.944 331.167L291.538 331.153V346.891C291.467 347.958 292.051 348.982 293.363 349.736L337.793 375.336C339.104 376.09 340.887 376.431 342.726 376.389V323.284H342.74Z" fill="url(#paint11_radial_76_320)"/>
<path d="M295.431 331.138H291.538V346.876C291.467 347.944 292.051 348.968 293.363 349.722L295.431 350.918V331.138Z" fill="#D4ECFF"/>
<path d="M338.491 375.663C340.844 376.673 344.252 376.616 346.989 375.563V357.691H338.491V375.663Z" fill="#5793CE"/>
<path d="M337.807 359.64L293.378 334.041C290.654 332.476 290.997 329.73 294.148 327.908L337.051 303.191C340.203 301.37 344.965 301.185 347.688 302.75L392.118 328.349C394.841 329.915 394.499 332.661 391.348 334.482L348.444 359.199C345.293 361.02 340.53 361.22 337.807 359.64Z" fill="url(#paint12_linear_76_320)"/>
<path d="M391.347 331.466L348.443 356.182C345.292 358.004 340.53 358.189 337.806 356.624L293.377 331.024C292.764 330.669 292.322 330.27 292.022 329.815C291.081 331.323 291.509 332.945 293.377 334.027L337.806 359.626C340.53 361.191 345.292 361.006 348.443 359.185L391.347 334.468C393.799 333.059 394.541 331.096 393.471 329.545C393.044 330.242 392.331 330.896 391.347 331.466Z" fill="white"/>
<path d="M377.588 350.533C377.588 351.672 376.79 353.066 375.792 353.635C374.794 354.205 373.995 353.749 373.995 352.597C373.995 351.444 374.794 350.064 375.792 349.495C376.79 348.925 377.588 349.395 377.588 350.533Z" fill="#D4ECFF"/>
<path d="M383.363 347.203C383.363 348.342 382.564 349.736 381.566 350.306C380.568 350.875 379.77 350.419 379.77 349.267C379.77 348.128 380.568 346.734 381.566 346.165C382.564 345.61 383.363 346.065 383.363 347.203Z" fill="#D4ECFF"/>
<path d="M389.138 343.874C389.138 345.012 388.34 346.407 387.342 346.976C386.343 347.545 385.545 347.09 385.545 345.937C385.545 344.799 386.343 343.404 387.342 342.835C388.34 342.28 389.138 342.735 389.138 343.874Z" fill="#D4ECFF"/>
<path d="M340.429 343.774L319.641 331.793C318.357 331.053 318.528 329.772 319.997 328.918L340.073 317.35C341.542 316.496 343.78 316.411 345.049 317.151L365.838 329.132C367.121 329.872 366.95 331.152 365.481 332.006L345.406 343.575C343.937 344.414 341.698 344.5 340.429 343.774Z" fill="#5793CE"/>
<path d="M342.426 333.742L339.546 332.092C339.375 331.992 339.389 331.807 339.589 331.693L342.369 330.1C342.569 329.986 342.883 329.971 343.054 330.071L345.934 331.722C346.105 331.821 346.091 332.006 345.891 332.12L343.111 333.714C342.911 333.828 342.597 333.842 342.426 333.742Z" fill="#D4ECFF"/>
<path d="M319.641 331.792L319.698 331.82C319.798 331.749 319.884 331.678 319.998 331.621L340.074 320.053C341.542 319.199 343.781 319.113 345.05 319.853L365.782 331.806C366.951 330.967 367.022 329.828 365.839 329.145L345.05 317.164C343.767 316.424 341.542 316.524 340.074 317.363L319.998 328.932C318.515 329.771 318.358 331.052 319.641 331.792Z" fill="#396CAA"/>
</g>
<defs>
<radialGradient id="paint0_radial_76_320" cx="0" cy="0" r="1" gradientUnits="userSpaceOnUse" gradientTransform="translate(436.593 175.336) scale(56.1663 56.0525)">
<stop stop-color="#699DD1"/>
<stop offset="0.2662" stop-color="#6396CC"/>
<stop offset="0.6412" stop-color="#5184BD"/>
<stop offset="1" stop-color="#396CAA"/>
</radialGradient>
<linearGradient id="paint1_linear_76_320" x1="447.195" y1="157.364" x2="535.08" y2="209.867" gradientUnits="userSpaceOnUse">
<stop stop-color="#D4ECFF"/>
<stop offset="0.2009" stop-color="#D0EAFE"/>
<stop offset="0.3874" stop-color="#C5E2F9"/>
<stop offset="0.5682" stop-color="#B2D6F2"/>
<stop offset="0.7444" stop-color="#98C4E7"/>
<stop offset="0.8423" stop-color="#86B8E0"/>
</linearGradient>
<radialGradient id="paint2_radial_76_320" cx="0" cy="0" r="1" gradientUnits="userSpaceOnUse" gradientTransform="translate(543.636 195.937) scale(56.1663 56.0525)">
<stop stop-color="#699DD1"/>
<stop offset="0.2662" stop-color="#6396CC"/>
<stop offset="0.6412" stop-color="#5184BD"/>
<stop offset="1" stop-color="#396CAA"/>
</radialGradient>
<linearGradient id="paint3_linear_76_320" x1="554.237" y1="177.966" x2="642.122" y2="230.468" gradientUnits="userSpaceOnUse">
<stop stop-color="#D4ECFF"/>
<stop offset="0.2009" stop-color="#D0EAFE"/>
<stop offset="0.3874" stop-color="#C5E2F9"/>
<stop offset="0.5682" stop-color="#B2D6F2"/>
<stop offset="0.7444" stop-color="#98C4E7"/>
<stop offset="0.8423" stop-color="#86B8E0"/>
</linearGradient>
<radialGradient id="paint4_radial_76_320" cx="0" cy="0" r="1" gradientUnits="userSpaceOnUse" gradientTransform="translate(115.06 79.7531) scale(179.161 178.798)">
<stop stop-color="#699DD1"/>
<stop offset="0.2662" stop-color="#6396CC"/>
<stop offset="0.6412" stop-color="#5184BD"/>
<stop offset="1" stop-color="#396CAA"/>
</radialGradient>
<linearGradient id="paint5_linear_76_320" x1="271.546" y1="99.0359" x2="226.118" y2="22.0856" gradientUnits="userSpaceOnUse">
<stop stop-color="#0077E2" stop-opacity="0.75"/>
<stop offset="0.1163" stop-color="#98C4E7"/>
<stop offset="0.3255" stop-color="#B2D6F2"/>
<stop offset="0.5401" stop-color="#C5E2F9"/>
<stop offset="0.7615" stop-color="#D0EAFE"/>
<stop offset="1" stop-color="#D4ECFF"/>
</linearGradient>
<radialGradient id="paint6_radial_76_320" cx="0" cy="0" r="1" gradientUnits="userSpaceOnUse" gradientTransform="translate(358.785 84.6201) scale(169.323 168.98)">
<stop stop-color="#699DD1"/>
<stop offset="0.2662" stop-color="#6396CC"/>
<stop offset="0.6412" stop-color="#5184BD"/>
<stop offset="1" stop-color="#396CAA"/>
</radialGradient>
<linearGradient id="paint7_linear_76_320" x1="483.55" y1="116.248" x2="447.725" y2="55.5487" gradientUnits="userSpaceOnUse">
<stop stop-color="#86B8E0"/>
<stop offset="0.1163" stop-color="#98C4E7"/>
<stop offset="0.3255" stop-color="#B2D6F2"/>
<stop offset="0.5401" stop-color="#C5E2F9"/>
<stop offset="0.7615" stop-color="#D0EAFE"/>
<stop offset="1" stop-color="#D4ECFF"/>
</linearGradient>
<radialGradient id="paint8_radial_76_320" cx="0" cy="0" r="1" gradientUnits="userSpaceOnUse" gradientTransform="translate(497.904 76.4541) scale(55.8248 55.7117)">
<stop stop-color="#173D7A"/>
<stop offset="1" stop-color="#274F89"/>
</radialGradient>
<radialGradient id="paint9_radial_76_320" cx="0" cy="0" r="1" gradientUnits="userSpaceOnUse" gradientTransform="translate(75.3581 306.085) scale(56.1663 56.0526)">
<stop stop-color="#699DD1"/>
<stop offset="0.2662" stop-color="#6396CC"/>
<stop offset="0.6412" stop-color="#5184BD"/>
<stop offset="1" stop-color="#396CAA"/>
</radialGradient>
<linearGradient id="paint10_linear_76_320" x1="85.9594" y1="288.114" x2="173.845" y2="340.616" gradientUnits="userSpaceOnUse">
<stop stop-color="#D4ECFF"/>
<stop offset="0.2009" stop-color="#D0EAFE"/>
<stop offset="0.3874" stop-color="#C5E2F9"/>
<stop offset="0.5682" stop-color="#B2D6F2"/>
<stop offset="0.7444" stop-color="#98C4E7"/>
<stop offset="0.8423" stop-color="#86B8E0"/>
</linearGradient>
<radialGradient id="paint11_radial_76_320" cx="0" cy="0" r="1" gradientUnits="userSpaceOnUse" gradientTransform="translate(294.354 326.687) scale(56.1663 56.0525)">
<stop stop-color="#699DD1"/>
<stop offset="0.2662" stop-color="#6396CC"/>
<stop offset="0.6412" stop-color="#5184BD"/>
<stop offset="1" stop-color="#396CAA"/>
</radialGradient>
<linearGradient id="paint12_linear_76_320" x1="304.955" y1="308.715" x2="392.84" y2="361.218" gradientUnits="userSpaceOnUse">
<stop stop-color="#D4ECFF"/>
<stop offset="0.2009" stop-color="#D0EAFE"/>
<stop offset="0.3874" stop-color="#C5E2F9"/>
<stop offset="0.5682" stop-color="#B2D6F2"/>
<stop offset="0.7444" stop-color="#98C4E7"/>
<stop offset="0.8423" stop-color="#86B8E0"/>
</linearGradient>
<clipPath id="clip0_76_320">
<rect width="673" height="471" fill="white"/>
</clipPath>
</defs>
</svg>
