<svg width="94" height="94" viewBox="0 0 94 94" fill="none" xmlns="http://www.w3.org/2000/svg">
<path d="M77.1036 26.0647L71.528 30.1785C69.2559 28.8582 66.7765 27.7836 64.1733 27.1084L63.1388 20.2175C63.1269 19.8266 62.8051 19.4314 62.6533 19.2959C62.3893 19.0349 61.9404 18.9174 61.7775 18.8932C59.9968 18.8636 58.1738 18.8813 56.3789 18.8813H51.1665H51.1546H51.1428C50.6591 18.84 50.2411 19.1748 50.0228 19.3638C49.7482 19.649 49.6543 19.9956 49.6076 20.2061L48.5761 27.1244C47.5549 27.3435 46.4498 27.7411 45.4328 28.159V23.5629C45.4328 20.9931 43.3213 18.8816 40.7514 18.8816V15.7566C43.3213 15.7566 45.4328 13.6299 45.4328 11.06V4.80952C45.4328 2.23962 43.3213 0.125031 40.7515 0.125031H4.80943C2.23953 0.125031 0.125 2.23962 0.125 4.80952V11.0595C0.125 13.6294 2.23953 15.7562 4.80943 15.7562V18.8812C2.23953 18.8812 0.125 20.9927 0.125 23.5625V29.8156C0.125 32.3855 2.23953 34.497 4.80943 34.497H25.717C25.6816 34.8838 25.7867 35.2715 26.0194 35.5834C27.4066 37.4562 28.7945 39.3284 30.1851 41.1986C28.8205 43.4361 27.7085 46.295 27.0814 48.5747C24.7917 48.9332 22.4983 49.2664 20.2058 49.6062C19.4427 49.7238 18.8799 50.3813 18.8813 51.1535V61.5905C18.8799 62.3626 19.4429 63.02 20.2058 63.1377C22.5059 63.4773 24.8035 63.8239 27.1028 64.1692C27.7797 66.7044 28.8117 69.3023 30.1515 71.5697C28.7756 73.4361 27.3989 75.3 26.0194 77.1636C25.288 78.1458 25.9839 79.0824 26.3519 79.3975C28.7531 81.7852 31.1467 84.1814 33.5418 86.5752C34.0904 87.1256 34.9604 87.1897 35.5834 86.7246C37.4619 85.3407 39.3364 83.9513 41.2109 82.5621C43.8071 84.0581 46.2948 85.0599 48.5808 85.6504L49.6063 92.5383C49.7185 93.3062 50.3774 93.8754 51.1535 93.8749H61.5905C62.0198 93.8726 62.4292 93.6936 62.7227 93.3806C62.8414 93.2548 62.9383 93.1107 63.0097 92.9531C63.2524 92.5739 63.8044 88.0583 64.1633 85.6441C66.8489 84.9625 69.3065 83.7977 71.5699 82.5893L77.1638 86.7245C77.4337 86.9264 77.761 87.0351 78.0977 87.0357C78.5134 87.0356 78.9122 86.8697 79.2054 86.5751L86.5877 79.205C87.138 78.6564 87.2021 77.7864 86.7371 77.1634L82.5836 71.5604C83.8982 69.288 84.9916 66.7465 85.6567 64.1721L91.2231 63.3328L92.4225 63.1498C93.241 63.0907 93.8755 62.4109 93.8751 61.5903V51.1534C93.8739 50.3339 93.2399 49.6547 92.4225 49.597L85.6415 48.5808C84.989 46.0424 83.9264 43.4562 82.5867 41.1741L86.6546 35.6749C87.1879 35.0551 87.1536 34.1291 86.5755 33.5508L79.1996 26.1686C78.9692 25.8863 78.5153 25.7541 78.2997 25.7322C77.6979 25.6425 77.3167 25.9218 77.1036 26.0647ZM4.80943 3.25312H12.628V12.6281H4.80943C3.91675 12.6281 3.25303 11.9522 3.25303 11.0595V4.80952C3.25303 3.91678 3.91675 3.25312 4.80943 3.25312ZM15.7561 3.25312H40.75C41.6427 3.25312 42.3186 3.91678 42.3186 4.80952V11.0595C42.3186 11.9522 41.6427 12.6281 40.75 12.6281H15.7561V3.25312ZM7.93752 6.37507C7.07455 6.37507 6.37498 7.07458 6.37498 7.93755C6.37498 8.80052 7.07455 9.50003 7.93752 9.50003C8.80043 9.50003 9.5 8.80052 9.5 7.93755C9.5 7.07458 8.80043 6.37507 7.93752 6.37507ZM20.4375 6.37808C19.5793 6.38144 18.8844 7.07629 18.8811 7.93448C18.8776 8.79745 19.5746 9.49974 20.4375 9.50311H37.6219C38.4909 9.50818 39.197 8.80342 39.1936 7.93448C39.1901 7.07032 38.4861 6.37306 37.6219 6.37808L20.4375 6.37808ZM7.93445 15.7562H37.6219V18.8812H7.93445V15.7562ZM4.80943 21.994H12.628V31.372H4.80943C3.91675 31.372 3.25303 30.7083 3.25303 29.8156V23.5625C3.25303 22.6699 3.91675 21.994 4.80943 21.994ZM15.7561 21.994H40.75C41.6427 21.994 42.3186 22.6699 42.3186 23.5625V29.8156C42.3186 30.7083 41.6427 31.372 40.75 31.372H15.7561V21.994ZM52.5023 21.9999L56.3781 22.0059H60.2416L61.2334 28.5794C61.3267 29.2133 61.7968 29.7261 62.4205 29.8733C66.0359 30.7651 68.3702 31.9144 70.8189 33.3676C71.3599 33.7083 72.0536 33.6853 72.5707 33.3085L77.9357 29.329C79.7645 31.1525 81.5973 32.9745 83.4136 34.8099L79.4585 40.1475C79.0776 40.6625 79.0498 41.3583 79.3882 41.9023C81.0069 44.4924 82.1755 47.343 82.8489 50.3221C82.993 50.9531 83.5111 51.4301 84.152 51.5214L90.7499 52.501V60.2403L84.1764 61.2199C83.5391 61.3149 83.0252 61.7909 82.8824 62.4192C82.1954 65.3955 81.0064 68.235 79.376 70.8177C79.0334 71.3639 79.0612 72.0644 79.4462 72.5816L83.4135 77.9466L77.9478 83.4123L72.595 79.4572C72.0806 79.0775 71.3866 79.0497 70.8433 79.3869C68.1483 81.0032 65.2653 82.2011 62.4205 82.8598C61.7979 83.0069 61.3275 83.518 61.2333 84.1507L60.2415 90.7486H52.5023L51.5226 84.1629C51.4269 83.5268 50.9504 83.0144 50.3233 82.872C47.8538 82.3009 45.4802 81.3631 43.2524 80.1254C42.7675 79.8573 42.3273 79.6199 41.9371 79.3747C41.3908 79.0322 40.6903 79.0599 40.1732 79.445L34.799 83.4122C32.9761 81.5904 31.1527 79.769 29.3302 77.9466C30.6453 76.1599 31.9663 74.3776 33.2853 72.5938C33.6651 72.0794 33.6928 71.3854 33.3556 70.8421C31.7382 68.2539 30.5687 65.4091 29.8949 62.4314C29.7525 61.804 29.2402 61.3281 28.604 61.2321C26.4003 60.9032 24.197 60.5725 21.9939 60.2403V52.5011C24.1857 52.1721 26.3781 51.8467 28.5704 51.5215C29.2113 51.4299 29.7295 50.9534 29.8736 50.3221C30.8194 46.3877 31.6583 44.9037 33.3678 41.9237C33.7103 41.3774 33.6825 40.677 33.2975 40.1597C31.9814 38.3748 30.6582 36.5969 29.3363 34.8161L29.6416 34.4955H40.7501C42.6488 34.4955 44.2906 33.3391 45.0225 31.7C46.7722 30.8878 48.5287 30.3572 50.3234 29.8934C50.9508 29.7511 51.4268 29.2387 51.5227 28.6025L52.5023 21.9999ZM20.4619 25.1188C19.593 25.1154 18.8882 25.8216 18.8933 26.6904C18.8967 27.5534 19.599 28.2502 20.4619 28.2468H37.6219C38.4861 28.2518 39.1903 27.5546 39.1936 26.6904C39.1988 25.8203 38.4921 25.1136 37.6219 25.1188L20.4619 25.1188ZM7.93752 25.1248C7.07455 25.1248 6.37498 25.8243 6.37498 26.6873C6.37498 27.5502 7.07455 28.2498 7.93752 28.2498C8.80043 28.2498 9.5 27.5502 9.5 26.6873C9.5 25.8243 8.80043 25.1248 7.93752 25.1248ZM56.3781 36.0653C45.1783 36.0653 36.0655 45.1781 36.0655 56.3778C36.0655 67.5776 45.1783 76.6903 56.3781 76.6903C67.5778 76.6903 76.6905 67.5776 76.6905 56.3778C76.6905 45.1781 67.5778 36.0653 56.3781 36.0653ZM73.5655 56.3778C73.5655 63.6784 69.0346 69.882 62.6311 72.3782V65.6338C66.5089 63.3854 68.8637 59.2722 68.8689 54.8092C68.8633 49.9899 66.0851 45.5953 61.7308 43.5299C61.5011 43.4195 61.2472 43.367 60.9923 43.3776C60.1558 43.4189 59.499 44.1087 59.503 44.9462V53.2531C59.503 54.1457 58.8271 54.8095 57.9345 54.8095H54.8094C53.9168 54.8095 53.2531 54.1457 53.2531 53.2531V44.9461C53.2577 43.7936 52.0558 43.0328 51.0161 43.5301C46.663 45.5949 43.882 49.9913 43.875 54.8094C43.8809 59.2165 46.2516 63.4244 50.122 65.6156L50.1279 72.3814C43.7224 69.8861 39.1934 63.68 39.1934 56.378C39.1934 46.8671 46.867 39.1935 56.378 39.1934C65.889 39.1934 73.5655 46.8669 73.5655 56.3778ZM62.6311 47.8329C63.5158 48.6516 65.7051 50.9235 65.7561 54.8092C65.7519 58.43 63.6625 61.7231 60.3911 63.2748C59.8496 63.534 59.5041 64.081 59.503 64.6817V73.2663C58.4888 73.4517 57.447 73.5651 56.3781 73.5651C55.3091 73.5651 54.2673 73.4517 53.2531 73.2663V64.6815C53.2545 64.0737 52.9034 63.5201 52.3528 63.2624C49.0822 61.7111 47.0052 58.4289 47 54.8091C46.9646 51.7842 48.6524 49.0539 50.128 47.8358V53.2527C50.128 55.8552 52.2396 57.9341 54.8094 57.9341H57.9345C60.5517 57.9341 62.6311 55.8226 62.6311 53.2527V47.8329Z" fill="url(#paint0_linear_99_3586)" fill-opacity="0.84"/>
<defs>
<linearGradient id="paint0_linear_99_3586" x1="14.8725" y1="47.1062" x2="93.8751" y2="47.1062" gradientUnits="userSpaceOnUse">
<stop stop-color="#0077E2" stop-opacity="0.75"/>
<stop offset="1" stop-color="#CC00FF" stop-opacity="0.33"/>
</linearGradient>
</defs>
</svg>
