<svg width="100" height="100" viewBox="0 0 100 100" fill="none" xmlns="http://www.w3.org/2000/svg">
<path d="M96.6357 3.36124C90.7087 3.26407 75.1236 3.82762 58.5086 10.9595C40.4944 18.6743 21.2948 34.1233 11.8894 64.8854L23.5102 76.5062L35.131 88.127C65.8931 78.7215 81.3421 59.522 89.0569 41.5078C96.1693 24.8927 96.7329 9.3271 96.6551 3.38067L96.6357 3.36124ZM57.3038 8.10284C75.9592 0.115965 93.371 0.135398 98.0932 0.310293C98.9482 0.271427 99.6672 0.951574 99.7061 1.80662L98.1515 1.86491L99.7061 1.80662C99.881 6.33445 99.9781 23.9017 91.9135 42.7126C83.8489 61.5624 67.6226 81.6753 35.2476 91.314C34.684 91.5277 34.0427 91.4111 33.5958 90.9642L21.3143 78.6827L9.07162 66.44C8.66353 66.0514 8.48863 65.449 8.6441 64.866C18.2633 32.4132 38.4151 16.1674 57.2843 8.0834L57.3038 8.10284Z" fill="url(#paint0_linear_99_3588)" fill-opacity="0.84"/>
<path d="M72.598 27.3962C75.3186 30.1168 76.6789 33.6924 76.6789 37.2681C76.6789 40.8437 75.3186 44.3999 72.598 47.1399C69.8774 49.8605 66.3018 51.2208 62.7262 51.2208C59.1505 51.2208 55.5943 49.8605 52.8543 47.1399C50.1337 44.4193 48.7734 40.8437 48.7734 37.2681C48.7734 33.6924 50.1337 30.1362 52.8543 27.3962C55.5749 24.6756 59.1505 23.3153 62.7262 23.3153C66.3018 23.3153 69.858 24.6756 72.598 27.3962ZM73.5697 37.2681C73.5697 34.4892 72.5203 31.7103 70.4021 29.5921C68.2839 27.474 65.5051 26.4246 62.7262 26.4246C59.9473 26.4246 57.1684 27.474 55.0502 29.5921C52.9321 31.7103 51.8827 34.4892 51.8827 37.2681C51.8827 40.047 52.9321 42.8258 55.0502 44.944C57.1684 47.0622 59.9473 48.1116 62.7262 48.1116C65.5051 48.1116 68.2839 47.0622 70.4021 44.944C72.5203 42.8258 73.5697 40.047 73.5697 37.2681Z" fill="url(#paint1_linear_99_3588)" fill-opacity="0.84"/>
<path d="M3.98321 54.7225L11.9701 55.3249C13.719 50.9526 15.6623 46.9494 17.7805 43.2572C19.0436 41.0419 20.3845 38.9431 21.7642 36.9415C19.374 38.1075 16.77 39.6427 14.2437 41.586C10.1823 44.7341 6.33457 49.0093 3.98321 54.7031V54.7225ZM12.864 58.5119L1.76787 57.6569C1.61241 57.6569 1.45695 57.618 1.30148 57.5791C0.485308 57.3071 0.0577867 56.4326 0.329846 55.6164C2.79781 48.2708 7.44224 42.9463 12.3393 39.1374C17.1975 35.3869 22.2889 33.1133 25.8062 31.8501C26.3115 31.6558 26.8945 31.7141 27.3608 32.0833C28.041 32.6275 28.1382 33.5991 27.6135 34.2598C25.0872 37.4079 22.697 40.9253 20.4622 44.8118C18.2663 48.6595 16.2453 52.857 14.4769 57.4043C14.2826 58.0844 13.6024 58.5702 12.864 58.5119Z" fill="url(#paint2_linear_99_3588)" fill-opacity="0.84"/>
<path d="M42.3461 98.2283L41.4911 87.1322C41.4328 86.3938 41.9186 85.733 42.5987 85.5193C47.1654 83.7509 51.3435 81.7299 55.1912 79.534C59.0777 77.2992 62.5756 74.909 65.7432 72.3827C66.4233 71.8386 67.395 71.9552 67.9196 72.6354C68.2889 73.0823 68.3472 73.6847 68.1528 74.19C66.8897 77.7073 64.6161 82.8181 60.8655 87.6569C57.0567 92.5734 51.7321 97.2178 44.3866 99.6663C43.5704 99.9384 42.6959 99.5109 42.4238 98.6947C42.3655 98.5392 42.3461 98.3838 42.3461 98.2283ZM44.678 88.0261L45.2805 96.013C50.9937 93.6616 55.2495 89.8139 58.3976 85.7525C60.3409 83.2262 61.876 80.6222 63.042 78.2514C61.0404 79.6506 58.9417 80.972 56.7264 82.2352C53.0341 84.3533 49.031 86.2966 44.6586 88.0455L44.678 88.0261Z" fill="url(#paint3_linear_99_3588)" fill-opacity="0.84"/>
<path d="M11.3863 73.1229L26.8742 88.6108C27.1657 88.9023 27.5738 89.0577 27.9624 89.0577C28.3511 89.0577 28.7397 88.9217 29.0312 88.6302C29.0507 88.6108 29.0507 88.6108 29.0701 88.5914C29.3616 88.2999 29.4976 87.9112 29.4976 87.5226C29.4976 87.1339 29.3422 86.7258 29.0507 86.4343L13.5627 70.9464C13.2713 70.6549 12.8632 70.4994 12.4745 70.4994C12.0859 70.4994 11.6778 70.6549 11.3863 70.9464C11.0948 71.2379 10.9393 71.646 10.9393 72.0346C10.9393 72.4233 11.0948 72.8314 11.3863 73.1229ZM24.6783 90.8067L9.19037 75.3188C8.29646 74.4249 7.83008 73.22 7.83008 72.0346C7.83008 70.8492 8.27703 69.6833 9.15151 68.7894C9.17094 68.7699 9.19037 68.7505 9.22924 68.7116C10.1231 67.8372 11.3085 67.3902 12.4745 67.3902C13.6599 67.3902 14.8647 67.8372 15.7586 68.7505L31.2466 84.2384C32.1599 85.1518 32.6069 86.3372 32.6069 87.5226C32.6069 88.708 32.1599 89.8934 31.266 90.8067L31.2466 90.8261C30.3332 91.7395 29.1478 92.1864 27.9624 92.1864C26.777 92.1864 25.5722 91.7395 24.6783 90.8261V90.8067Z" fill="url(#paint4_linear_99_3588)" fill-opacity="0.84"/>
<path d="M21.3014 94.1891C20.4075 94.9858 13.5672 100.641 4.0451 96.657L4.64752 95.219L4.0451 96.657C3.61758 96.4821 3.30666 96.1324 3.17063 95.7243C-0.949123 85.7164 5.54142 78.7206 5.77462 78.468C5.79405 78.4485 5.83292 78.4097 5.85235 78.3902C6.78512 77.3992 7.77619 76.6413 8.80613 76.0777C9.95267 75.4559 11.1381 75.0672 12.3235 74.9118C12.9842 74.8146 13.6255 75.1644 13.917 75.7474C13.9364 75.7862 13.9558 75.8057 13.9753 75.8445C13.9947 75.8834 14.053 75.9223 14.1113 76L24.0414 85.9301C24.0803 85.969 24.1192 86.0079 24.158 86.0273C24.2163 86.0662 24.2552 86.105 24.2746 86.1245L23.4196 87.4265L24.2746 86.1245C24.8187 86.4937 25.0714 87.1544 24.9353 87.7568C24.7604 88.8839 24.3912 90.0305 23.7888 91.1187C23.2058 92.1681 22.4285 93.1786 21.3986 94.1308C21.3597 94.1696 21.3403 94.1891 21.3014 94.2085V94.1891ZM5.83292 94.0336C13.3534 96.8319 18.5808 92.4596 19.2027 91.896C19.2221 91.8766 19.2415 91.8571 19.2804 91.8377L20.3492 92.9842L19.2998 91.8571C20.0771 91.1381 20.6601 90.3802 21.0682 89.6224C21.3597 89.0977 21.5735 88.5536 21.7289 88.0094L11.9154 78.1959L11.8959 78.1765C11.3518 78.3125 10.8271 78.5263 10.3025 78.8177C9.56401 79.2258 8.82556 79.7894 8.12598 80.5278C8.10655 80.5473 8.08712 80.5861 8.06769 80.6056L6.94058 79.5368L8.06769 80.6056C8.04825 80.625 2.87913 86.0273 5.87178 94.053L5.83292 94.0336Z" fill="url(#paint5_linear_99_3588)" fill-opacity="0.84"/>
<defs>
<linearGradient id="paint0_linear_99_3588" x1="22.9287" y1="45.9458" x2="99.7528" y2="45.9458" gradientUnits="userSpaceOnUse">
<stop stop-color="#0077E2" stop-opacity="0.75"/>
<stop offset="1" stop-color="#CC00FF" stop-opacity="0.33"/>
</linearGradient>
<linearGradient id="paint1_linear_99_3588" x1="53.1631" y1="37.2997" x2="76.6789" y2="37.2997" gradientUnits="userSpaceOnUse">
<stop stop-color="#0077E2" stop-opacity="0.75"/>
<stop offset="1" stop-color="#CC00FF" stop-opacity="0.33"/>
</linearGradient>
<linearGradient id="paint2_linear_99_3588" x1="4.6055" y1="45.1593" x2="27.9485" y2="45.1593" gradientUnits="userSpaceOnUse">
<stop stop-color="#0077E2" stop-opacity="0.75"/>
<stop offset="1" stop-color="#CC00FF" stop-opacity="0.33"/>
</linearGradient>
<linearGradient id="paint3_linear_99_3588" x1="45.6983" y1="85.9253" x2="68.2618" y2="85.9253" gradientUnits="userSpaceOnUse">
<stop stop-color="#0077E2" stop-opacity="0.75"/>
<stop offset="1" stop-color="#CC00FF" stop-opacity="0.33"/>
</linearGradient>
<linearGradient id="paint4_linear_99_3588" x1="11.7276" y1="79.8164" x2="32.6069" y2="79.8164" gradientUnits="userSpaceOnUse">
<stop stop-color="#0077E2" stop-opacity="0.75"/>
<stop offset="1" stop-color="#CC00FF" stop-opacity="0.33"/>
</linearGradient>
<linearGradient id="paint5_linear_99_3588" x1="5.44899" y1="86.5064" x2="24.9716" y2="86.5064" gradientUnits="userSpaceOnUse">
<stop stop-color="#0077E2" stop-opacity="0.75"/>
<stop offset="1" stop-color="#CC00FF" stop-opacity="0.33"/>
</linearGradient>
</defs>
</svg>
