<svg width="100" height="74" viewBox="0 0 100 74" fill="none" xmlns="http://www.w3.org/2000/svg">
<path d="M50.001 1.16588e-05C63.0625 0.013663 75.5855 5.27659 84.8214 14.6341C94.0573 23.9915 99.252 36.6792 99.2653 49.9126C99.2917 57.7879 97.449 65.5541 93.8926 72.5567C93.7177 72.9067 93.4503 73.2006 93.1202 73.4055C92.79 73.6105 92.4102 73.7183 92.0231 73.7171H7.89464C7.50743 73.7183 7.12764 73.6105 6.79753 73.4055C6.46741 73.2006 6.19994 72.9067 6.02512 72.5567C2.4668 65.5548 0.624062 57.7881 0.652359 49.9126C0.665665 36.6644 5.87186 23.9639 15.1262 14.6038C24.3803 5.24399 36.9248 -0.00903234 50.001 1.16588e-05ZM50.001 61.2774C47.67 61.2833 45.4112 62.0976 43.6003 63.5846C41.7894 65.0716 40.5355 67.142 40.047 69.4511H59.9549C59.4663 67.142 58.2124 65.0716 56.4015 63.5846C54.5906 62.0976 52.332 61.2833 50.001 61.2774ZM9.29258 69.4511H35.7859C36.2713 66.1591 37.8545 63.1344 40.2722 60.8806C42.6898 58.6268 45.7962 57.2794 49.0746 57.0625L66.8435 39.0086C67.2321 38.5991 67.7655 38.3628 68.326 38.3515C68.8867 38.3402 69.4288 38.5553 69.8331 38.9489C70.2373 39.3426 70.4705 39.883 70.4817 40.4511C70.4928 41.019 70.2806 41.5683 69.892 41.9778L54.3969 57.6939C56.9485 58.5282 59.2196 60.0675 60.9543 62.1386C62.6891 64.2098 63.8188 66.7305 64.2161 69.417H90.7093C93.2791 63.9779 94.7399 58.0698 95.0042 52.0457H85.8587C85.3004 52.0457 84.7648 51.8209 84.37 51.4209C83.9752 51.021 83.7534 50.4783 83.7534 49.9126C83.7534 49.347 83.9752 48.8043 84.37 48.4043C84.7648 48.0043 85.3004 47.7796 85.8587 47.7796H95.0042C94.4952 37.1432 90.3236 27.0236 83.2144 19.1801L76.7638 25.7327C76.3617 26.1268 75.8241 26.347 75.2648 26.347C74.8503 26.3445 74.4457 26.218 74.102 25.9834C73.758 25.7488 73.4902 25.4167 73.3319 25.0285C73.1736 24.6405 73.132 24.2135 73.2122 23.8016C73.2923 23.3895 73.4907 23.0107 73.7826 22.7124L80.3175 16.1768C72.5775 8.99401 62.5918 4.79623 52.1063 4.31724V13.5831C52.1063 14.1487 51.8845 14.6914 51.4897 15.0914C51.0947 15.4914 50.5593 15.7161 50.001 15.7161C49.4426 15.7161 48.9071 15.4914 48.5123 15.0914C48.1175 14.6914 47.8957 14.1487 47.8957 13.5831V4.31724C37.3994 4.81961 27.4123 9.04827 19.6844 16.2621L26.1351 22.7977C26.4268 23.096 26.6254 23.4748 26.7056 23.8869C26.7857 24.2988 26.744 24.7258 26.5856 25.1138C26.4275 25.502 26.1595 25.8341 25.8158 26.0687C25.472 26.3034 25.0675 26.4298 24.653 26.4324C24.0935 26.4324 23.556 26.2121 23.154 25.8181L16.7033 19.2654C9.6429 27.0989 5.50285 37.1838 4.99773 47.7796H14.1432C14.7016 47.7796 15.237 48.0043 15.6319 48.4043C16.0267 48.8043 16.2485 49.347 16.2485 49.9126C16.2485 50.4783 16.0267 51.021 15.6319 51.4209C15.237 51.8209 14.7016 52.0457 14.1432 52.0457H4.99773C5.25745 58.0814 6.71837 64.0016 9.29258 69.4511Z" fill="url(#paint0_linear_99_3600)" fill-opacity="0.84"/>
<defs>
<linearGradient id="paint0_linear_99_3600" x1="83.7531" y1="36.9421" x2="0.652039" y2="36.9421" gradientUnits="userSpaceOnUse">
<stop stop-color="#0077E2" stop-opacity="0.75"/>
<stop offset="1" stop-color="#CC00FF" stop-opacity="0.33"/>
</linearGradient>
</defs>
</svg>
