<svg width="40" height="40" viewBox="0 0 40 40" fill="none" xmlns="http://www.w3.org/2000/svg">
<path d="M10.143 39.8585C7.76414 39.7504 6.4719 39.3545 5.61239 39.0192C4.4735 38.5758 3.66154 38.048 2.80679 37.1944C1.95203 36.3408 1.42301 35.5289 0.98196 34.39C0.646714 33.5305 0.25084 32.2382 0.142658 29.8594C0.0237763 27.288 0 26.5165 0 20.0018C0 13.4871 0.0261539 12.7167 0.141469 10.143C0.249651 7.76414 0.647903 6.47428 0.980771 5.61239C1.4242 4.4735 1.95322 3.66154 2.8056 2.8056C3.65917 1.95203 4.47113 1.42182 5.6112 0.980771C6.47071 0.645526 7.76295 0.249651 10.1418 0.141469C12.7144 0.0237763 13.4871 0 19.9994 0C26.5141 0 27.2845 0.0261539 29.8582 0.141469C32.237 0.249651 33.5269 0.647903 34.3888 0.980771C35.5277 1.42182 36.3396 1.95203 37.1944 2.8056C38.0492 3.65917 38.5758 4.47232 39.0192 5.6112C39.3545 6.47071 39.7504 7.76295 39.8585 10.1418C39.9762 12.7155 40 13.4859 40 20.0006C40 26.5129 39.9762 27.2856 39.8585 29.8594C39.7504 32.2382 39.3521 33.5305 39.0192 34.39C38.5758 35.5289 38.048 36.3408 37.1944 37.1944C36.3408 38.048 35.5277 38.5758 34.3888 39.0192C33.5293 39.3545 32.237 39.7504 29.8582 39.8585C27.2868 39.9762 26.5141 40 19.9994 40C13.4871 40 12.7144 39.9774 10.143 39.8585Z" fill="#477BDF"/>
<circle cx="20" cy="19" r="15" fill="white"/>
<path d="M19.998 3.33301C11.164 3.33301 4 10.525 4 19.397C4 26.493 8.584 32.513 14.944 34.639C15.744 34.787 16.036 34.291 16.036 33.865C16.036 33.483 16.022 32.473 16.014 31.133C11.564 32.103 10.624 28.979 10.624 28.979C9.898 27.123 8.848 26.629 8.848 26.629C7.394 25.633 8.956 25.653 8.956 25.653C10.562 25.767 11.406 27.309 11.406 27.309C12.834 29.763 15.152 29.055 16.064 28.643C16.208 27.605 16.622 26.897 17.08 26.495C13.528 26.089 9.792 24.711 9.792 18.557C9.792 16.803 10.416 15.369 11.44 14.245C11.274 13.839 10.726 12.205 11.596 9.99501C11.596 9.99501 12.94 9.56301 15.996 11.641C17.272 11.285 18.64 11.107 20.002 11.101C21.36 11.109 22.73 11.285 24.008 11.643C27.062 9.56501 28.404 9.99701 28.404 9.99701C29.276 12.209 28.728 13.841 28.564 14.247C29.59 15.371 30.208 16.805 30.208 18.559C30.208 24.729 26.468 26.087 22.904 26.485C23.478 26.981 23.99 27.961 23.99 29.459C23.99 31.607 23.97 33.339 23.97 33.865C23.97 34.295 24.258 34.795 25.07 34.637C31.42 32.509 36 26.491 36 19.397C36 10.525 28.836 3.33301 19.998 3.33301Z" fill="#477BDF"/>
</svg>
