<svg width="40" height="40" viewBox="0 0 40 40" fill="none" xmlns="http://www.w3.org/2000/svg">
<path d="M10.143 39.8585C7.76414 39.7504 6.4719 39.3545 5.61239 39.0192C4.4735 38.5758 3.66154 38.048 2.80679 37.1944C1.95203 36.3408 1.42301 35.5289 0.98196 34.39C0.646714 33.5305 0.25084 32.2382 0.142658 29.8594C0.0237763 27.288 0 26.5165 0 20.0018C0 13.4871 0.0261539 12.7167 0.141469 10.143C0.249651 7.76414 0.647903 6.47428 0.980771 5.61239C1.4242 4.4735 1.95322 3.66154 2.8056 2.8056C3.65917 1.95203 4.47113 1.42182 5.6112 0.980771C6.47071 0.645526 7.76295 0.249651 10.1418 0.141469C12.7144 0.0237763 13.4871 0 19.9994 0C26.5141 0 27.2845 0.0261539 29.8582 0.141469C32.237 0.249651 33.5269 0.647903 34.3888 0.980771C35.5277 1.42182 36.3396 1.95203 37.1944 2.8056C38.0492 3.65917 38.5758 4.47232 39.0192 5.6112C39.3545 6.47071 39.7504 7.76295 39.8585 10.1418C39.9762 12.7155 40 13.4859 40 20.0006C40 26.5129 39.9762 27.2856 39.8585 29.8594C39.7504 32.2382 39.3521 33.5305 39.0192 34.39C38.5758 35.5289 38.048 36.3408 37.1944 37.1944C36.3408 38.048 35.5277 38.5758 34.3888 39.0192C33.5293 39.3545 32.237 39.7504 29.8582 39.8585C27.2868 39.9762 26.5141 40 19.9994 40C13.4871 40 12.7144 39.9774 10.143 39.8585Z" fill="#477BDF"/>
<path d="M13.238 32.769V14.7069H7.34744V32.769H13.238ZM10.2938 12.2412C12.3475 12.2412 13.6261 10.8542 13.6261 9.12087C13.5875 7.34823 12.3475 6 10.3329 6C8.31667 6 7 7.34823 7 9.12087C7 10.8542 8.27807 12.2412 10.2551 12.2412H10.2938ZM16.4983 32.769H22.3883V22.6835C22.3883 22.1442 22.4269 21.6038 22.5824 21.2188C23.0081 20.1396 23.9773 19.0228 25.6049 19.0228C27.7359 19.0228 28.5888 20.6789 28.5888 23.1073V32.769H34.4788V22.4128C34.4788 16.8651 31.5732 14.2835 27.6978 14.2835C24.5203 14.2835 23.1249 16.0934 22.3497 17.3262H22.3889V14.7074H16.4988C16.5755 16.4018 16.4983 32.769 16.4983 32.769Z" fill="white"/>
</svg>
