<svg width="40" height="40" viewBox="0 0 40 40" fill="none" xmlns="http://www.w3.org/2000/svg">
<path d="M10.143 39.8585C7.76414 39.7504 6.4719 39.3545 5.61239 39.0192C4.4735 38.5758 3.66154 38.048 2.80679 37.1944C1.95203 36.3408 1.42301 35.5289 0.98196 34.39C0.646714 33.5305 0.25084 32.2382 0.142658 29.8594C0.0237763 27.288 0 26.5165 0 20.0018C0 13.4871 0.0261539 12.7167 0.141469 10.143C0.249651 7.76414 0.647903 6.47428 0.980771 5.61239C1.4242 4.4735 1.95322 3.66154 2.8056 2.8056C3.65917 1.95203 4.47113 1.42182 5.6112 0.980771C6.47071 0.645526 7.76295 0.249651 10.1418 0.141469C12.7144 0.0237763 13.4871 0 19.9994 0C26.5141 0 27.2845 0.0261539 29.8582 0.141469C32.237 0.249651 33.5269 0.647903 34.3888 0.980771C35.5277 1.42182 36.3396 1.95203 37.1944 2.8056C38.0492 3.65917 38.5758 4.47232 39.0192 5.6112C39.3545 6.47071 39.7504 7.76295 39.8585 10.1418C39.9762 12.7155 40 13.4859 40 20.0006C40 26.5129 39.9762 27.2856 39.8585 29.8594C39.7504 32.2382 39.3521 33.5305 39.0192 34.39C38.5758 35.5289 38.048 36.3408 37.1944 37.1944C36.3408 38.048 35.5277 38.5758 34.3888 39.0192C33.5293 39.3545 32.237 39.7504 29.8582 39.8585C27.2868 39.9762 26.5141 40 19.9994 40C13.4871 40 12.7144 39.9774 10.143 39.8585Z" fill="#477BDF"/>
<g clip-path="url(#clip0_96_5679)">
<path d="M14.0635 32.0003C26.0943 32.0003 32.6735 22.8181 32.6735 14.8557C32.6735 14.5949 32.6678 14.3354 32.655 14.0769C33.9352 13.2235 35.04 12.1669 35.9176 10.9566C34.7457 11.4366 33.4845 11.7597 32.1615 11.9053C33.5119 11.1594 34.5486 9.97922 35.0378 8.5725C33.7538 9.27419 32.3492 9.76884 30.8844 10.0351C29.6909 8.86388 27.9916 8.13135 26.1101 8.13135C22.498 8.13135 19.5689 10.8298 19.5689 14.1562C19.5689 14.6291 19.6264 15.0889 19.7387 15.5301C14.3025 15.2781 9.48215 12.8804 6.25611 9.23445C5.67507 10.154 5.36945 11.1991 5.37047 12.2631C5.37047 14.3536 6.52515 16.1991 8.28114 17.2788C7.24245 17.2496 6.22656 16.9911 5.31889 16.5252C5.31792 16.5505 5.31792 16.5751 5.31792 16.6021C5.31792 19.5203 7.57246 21.9568 10.5653 22.5089C10.0032 22.6499 9.42318 22.7212 8.8406 22.7209C8.41987 22.7209 8.00984 22.6827 7.61134 22.6123C8.44404 25.0064 10.8586 26.7487 13.7214 26.7974C11.4828 28.4138 8.66273 29.3767 5.59778 29.3767C5.07639 29.3771 4.55543 29.3492 4.0376 29.2932C6.93233 31.0025 10.3695 31.9999 14.0639 31.9999" fill="white"/>
</g>
<defs>
<clipPath id="clip0_96_5679">
<rect width="32" height="24" fill="white" transform="translate(4 8)"/>
</clipPath>
</defs>
</svg>
